<svg width="24" height="25" viewBox="0 0 24 25" fill="none" xmlns="http://www.w3.org/2000/svg">
<mask id="path-1-inside-1_527_18037" fill="white">
<path d="M3 3.5V6.2V18.35C3 19.9818 4.15568 21.5 5.84211 21.5H18.1579C19.8443 21.5 21 19.9817 21 18.35C21 16.7183 19.8443 15.2 18.1579 15.2V5.3V3.5H15.3158C15.3158 3.9968 14.8914 4.4 14.3684 4.4C13.8455 4.4 13.4211 3.9968 13.4211 3.5H11.5263C11.5263 3.9968 11.1019 4.4 10.5789 4.4C10.056 4.4 9.63158 3.9968 9.63158 3.5H7.73684C7.73684 3.9968 7.31242 4.4 6.78947 4.4C6.26653 4.4 5.84211 3.9968 5.84211 3.5H3ZM4.89474 6.2H16.2632V15.2H5.84211C5.50074 15.2 5.18743 15.2753 4.89474 15.3881V6.2ZM6.78947 8V9.8H14.3684V8H6.78947ZM6.78947 11.6V13.4H11.5263V11.6H6.78947ZM5.84211 17C6.24854 17 6.78947 17.4965 6.78947 18.35C6.78947 19.2035 6.24854 19.7 5.84211 19.7C5.43567 19.7 4.89474 19.2035 4.89474 18.35C4.89474 17.4965 5.43567 17 5.84211 17ZM8.39926 17H18.1579C18.5652 17 19.1053 17.4959 19.1053 18.35C19.1053 19.2041 18.5652 19.7 18.1579 19.7H8.39926C8.57785 19.2807 8.68421 18.8224 8.68421 18.35C8.68421 17.8775 8.57785 17.4193 8.39926 17Z"/>
</mask>
<path d="M3 3.5V-0.5H-1V3.5H3ZM18.1579 15.2H14.1579V19.2H18.1579V15.2ZM18.1579 3.5H22.1579V-0.5H18.1579V3.5ZM15.3158 3.5V-0.5H11.3158V3.5H15.3158ZM13.4211 3.5H17.4211V-0.5H13.4211V3.5ZM11.5263 3.5V-0.5H7.52632V3.5H11.5263ZM9.63158 3.5H13.6316V-0.5H9.63158V3.5ZM7.73684 3.5V-0.5H3.73684V3.5H7.73684ZM5.84211 3.5H9.84211V-0.5H5.84211V3.5ZM4.89474 6.2V2.2H0.894737V6.2H4.89474ZM16.2632 6.2H20.2632V2.2H16.2632V6.2ZM16.2632 15.2V19.2H20.2632V15.2H16.2632ZM4.89474 15.3881H0.894737V21.2158L6.3328 19.1206L4.89474 15.3881ZM6.78947 8V4H2.78947V8H6.78947ZM6.78947 9.8H2.78947V13.8H6.78947V9.8ZM14.3684 9.8V13.8H18.3684V9.8H14.3684ZM14.3684 8H18.3684V4H14.3684V8ZM6.78947 11.6V7.6H2.78947V11.6H6.78947ZM6.78947 13.4H2.78947V17.4H6.78947V13.4ZM11.5263 13.4V17.4H15.5263V13.4H11.5263ZM11.5263 11.6H15.5263V7.6H11.5263V11.6ZM8.39926 17V13H2.34794L4.71914 18.5674L8.39926 17ZM8.39926 19.7L4.71914 18.1326L2.34794 23.7H8.39926V19.7ZM-1 3.5V6.2H7V3.5H-1ZM-1 6.2V18.35H7V6.2H-1ZM-1 18.35C-1 21.5866 1.38721 25.5 5.84211 25.5V17.5C6.03422 17.5 6.24262 17.5462 6.43433 17.6393C6.61881 17.7289 6.74648 17.8413 6.82682 17.9351C6.97169 18.1043 7 18.2491 7 18.35H-1ZM5.84211 25.5H18.1579V17.5H5.84211V25.5ZM18.1579 25.5C22.6128 25.5 25 21.5866 25 18.35H17C17 18.249 17.0283 18.1042 17.1732 17.9351C17.2535 17.8413 17.3812 17.7289 17.5657 17.6393C17.7574 17.5462 17.9658 17.5 18.1579 17.5V25.5ZM25 18.35C25 15.1134 22.6128 11.2 18.1579 11.2V19.2C17.9658 19.2 17.7574 19.1538 17.5657 19.0607C17.3812 18.9711 17.2535 18.8587 17.1732 18.7649C17.0283 18.5958 17 18.451 17 18.35H25ZM22.1579 15.2V5.3H14.1579V15.2H22.1579ZM22.1579 5.3V3.5H14.1579V5.3H22.1579ZM18.1579 -0.5H15.3158V7.5H18.1579V-0.5ZM11.3158 3.5C11.3158 1.59681 12.878 0.4 14.3684 0.4V8.4C16.9047 8.4 19.3158 6.39679 19.3158 3.5H11.3158ZM14.3684 0.4C15.8588 0.4 17.4211 1.59681 17.4211 3.5H9.42105C9.42105 6.39679 11.8321 8.4 14.3684 8.4V0.4ZM13.4211 -0.5H11.5263V7.5H13.4211V-0.5ZM7.52632 3.5C7.52632 1.59681 9.08857 0.4 10.5789 0.4V8.4C13.1152 8.4 15.5263 6.39679 15.5263 3.5H7.52632ZM10.5789 0.4C12.0693 0.4 13.6316 1.59681 13.6316 3.5H5.63158C5.63158 6.39679 8.04267 8.4 10.5789 8.4V0.4ZM9.63158 -0.5H7.73684V7.5H9.63158V-0.5ZM3.73684 3.5C3.73684 1.59681 5.29909 0.4 6.78947 0.4V8.4C9.32575 8.4 11.7368 6.39679 11.7368 3.5H3.73684ZM6.78947 0.4C8.27985 0.4 9.84211 1.59681 9.84211 3.5H1.84211C1.84211 6.39679 4.2532 8.4 6.78947 8.4V0.4ZM5.84211 -0.5H3V7.5H5.84211V-0.5ZM4.89474 10.2H16.2632V2.2H4.89474V10.2ZM12.2632 6.2V15.2H20.2632V6.2H12.2632ZM16.2632 11.2H5.84211V19.2H16.2632V11.2ZM5.84211 11.2C4.89625 11.2 4.08969 11.4116 3.45668 11.6555L6.3328 19.1206C6.28517 19.139 6.10522 19.2 5.84211 19.2V11.2ZM8.89474 15.3881V6.2H0.894737V15.3881H8.89474ZM2.78947 8V9.8H10.7895V8H2.78947ZM6.78947 13.8H14.3684V5.8H6.78947V13.8ZM18.3684 9.8V8H10.3684V9.8H18.3684ZM14.3684 4H6.78947V12H14.3684V4ZM2.78947 11.6V13.4H10.7895V11.6H2.78947ZM6.78947 17.4H11.5263V9.4H6.78947V17.4ZM15.5263 13.4V11.6H7.52632V13.4H15.5263ZM11.5263 7.6H6.78947V15.6H11.5263V7.6ZM5.84211 21C4.50006 21 3.68835 20.2801 3.3539 19.8651C2.93471 19.345 2.78947 18.7841 2.78947 18.35H10.7895C10.7895 17.0624 10.3738 15.8264 9.58251 14.8447C8.87598 13.9682 7.59059 13 5.84211 13V21ZM2.78947 18.35C2.78947 17.9159 2.93471 17.3549 3.3539 16.8349C3.68835 16.4199 4.50006 15.7 5.84211 15.7V23.7C7.59059 23.7 8.87598 22.7318 9.58251 21.8553C10.3738 20.8736 10.7895 19.6376 10.7895 18.35H2.78947ZM5.84211 15.7C7.18415 15.7 7.99586 16.4199 8.33031 16.8349C8.74951 17.3549 8.89474 17.9159 8.89474 18.35H0.894737C0.894737 19.6376 1.31043 20.8736 2.1017 21.8553C2.80823 22.7318 4.09362 23.7 5.84211 23.7V15.7ZM8.89474 18.35C8.89474 18.7841 8.74951 19.345 8.33031 19.8651C7.99586 20.2801 7.18415 21 5.84211 21V13C4.09362 13 2.80823 13.9682 2.1017 14.8447C1.31043 15.8264 0.894737 17.0624 0.894737 18.35H8.89474ZM8.39926 21H18.1579V13H8.39926V21ZM18.1579 21C16.8187 21 16.0064 20.2824 15.6697 19.8645C15.2495 19.343 15.1053 18.7817 15.1053 18.35H23.1053C23.1053 17.0642 22.691 15.8279 21.8989 14.8449C21.1904 13.9656 19.9044 13 18.1579 13V21ZM15.1053 18.35C15.1053 17.9183 15.2495 17.357 15.6697 16.8355C16.0064 16.4176 16.8187 15.7 18.1579 15.7V23.7C19.9044 23.7 21.1904 22.7344 21.8989 21.8551C22.691 20.8721 23.1053 19.6358 23.1053 18.35H15.1053ZM18.1579 15.7H8.39926V23.7H18.1579V15.7ZM12.0794 21.2674C12.4432 20.4133 12.6842 19.4235 12.6842 18.35H4.68421C4.68421 18.2214 4.71255 18.1481 4.71914 18.1326L12.0794 21.2674ZM12.6842 18.35C12.6842 17.2765 12.4432 16.2867 12.0794 15.4326L4.71914 18.5674C4.71255 18.5519 4.68421 18.4786 4.68421 18.35H12.6842Z" fill="#FBFBFB" mask="url(#path-1-inside-1_527_18037)"/>
</svg>
