<svg width="48" height="49" viewBox="0 0 48 49" fill="none" xmlns="http://www.w3.org/2000/svg">
<path d="M21.5474 42.0008C21.1202 42.4904 20.5202 42.74 19.9202 42.74C19.4162 42.74 18.9074 42.5624 18.4994 42.2072L14.6594 38.8472C14.2082 38.4536 13.9394 37.8872 13.9202 37.292C13.901 36.7352 14.1026 36.1928 14.4722 35.78C14.4866 35.7608 16.4114 33.6248 17.861 32.012C20.2226 32.5832 21.3554 34.772 21.5618 35.2184L19.2386 37.1144L21.341 38.9528C22.2386 39.74 22.3298 41.1032 21.5474 42.0008Z" fill="#EAD6C7"/>
<path d="M34.0798 37.292C34.0606 37.8872 33.7918 38.4536 33.3406 38.8472L29.5006 42.2072C29.0926 42.5624 28.5838 42.74 28.0798 42.74C27.4798 42.74 26.8798 42.4904 26.4526 42.0008C25.6702 41.1032 25.7614 39.74 26.659 38.9528L28.7614 37.1144L26.4382 35.2184C26.6446 34.772 27.7774 32.5832 30.139 32.012H30.1438C31.5886 33.6248 33.5134 35.7608 33.5278 35.78C33.8974 36.1928 34.099 36.7352 34.0798 37.292Z" fill="#EAD6C7"/>
<path d="M24.0002 16.82C21.0962 16.82 18.7202 14.444 18.7202 11.54C18.7202 8.63601 21.0962 6.26001 24.0002 6.26001C26.9042 6.26001 29.2802 8.63601 29.2802 11.54C29.2802 14.444 26.9042 16.82 24.0002 16.82Z" fill="#EAD6C7"/>
<path d="M24 35.78C25.68 35.78 26.4 35.3 26.4 35.3C26.4 35.3 27.6 32.42 30.48 31.94C30.24 30.02 29.52 27.62 29.52 27.62H18.48C18.48 27.62 17.76 30.02 17.52 31.94C20.4 32.42 21.6 35.3 21.6 35.3C21.6 35.3 22.32 35.78 24 35.78Z" fill="#FEFDEF"/>
<path d="M29.2801 27.62L29.2797 24.98L33.2027 28.7375C33.952 29.4877 35.1678 29.4872 35.9176 28.7375C36.6678 27.9877 36.6678 26.7719 35.9176 26.0221L31.7358 21.8403C29.9099 20.0144 27.5142 18.9243 24.9904 18.7717C24.6549 18.7515 24.327 18.7415 24.0001 18.7415C23.6733 18.7415 23.3449 18.7515 23.0099 18.7717C20.4861 18.9243 18.0904 20.0144 16.2645 21.8403L12.0827 26.0221C11.3325 26.7719 11.3325 27.9877 12.0827 28.7375C12.8329 29.4872 14.0488 29.4872 14.7976 28.7375L18.7197 24.98L18.7201 27.62H29.2801Z" fill="#EAD6C7"/>
<path d="M17.6704 30.9801H20.4002C20.6651 30.9801 20.8802 30.765 20.8802 30.5001V29.5401C20.8802 29.2751 20.6651 29.0601 20.4002 29.0601H18.0899C17.9483 29.6274 17.7938 30.3047 17.6704 30.9801Z" fill="#C4E7ED"/>
<path d="M27.5999 31.2199H30.3724C30.2274 30.3679 30.022 29.4943 29.8487 28.8199H27.5999C27.2029 28.8199 26.8799 29.143 26.8799 29.5399V30.4999C26.8799 30.8969 27.2029 31.2199 27.5999 31.2199Z" fill="#C4E7ED"/>
<path d="M24.0002 17.3C20.8241 17.3 18.2402 14.7162 18.2402 11.54C18.2402 8.36387 20.8241 5.78003 24.0002 5.78003C27.1764 5.78003 29.7602 8.36387 29.7602 11.54C29.7602 14.7162 27.1764 17.3 24.0002 17.3ZM24.0002 6.74003C21.3535 6.74003 19.2002 8.89331 19.2002 11.54C19.2002 14.1867 21.3535 16.34 24.0002 16.34C26.647 16.34 28.8002 14.1867 28.8002 11.54C28.8002 8.89331 26.647 6.74003 24.0002 6.74003Z" fill="#1F212B"/>
<path d="M23.9998 36.02C22.267 36.02 21.4985 35.5208 21.4668 35.4997L21.4064 35.4598L21.3785 35.3926C21.367 35.3648 20.1905 32.6288 17.4804 32.1766L17.2529 32.1387L17.2817 31.9102C17.5213 29.9926 18.2427 27.5754 18.2504 27.5509L18.3012 27.38H29.6984L29.7492 27.5509C29.7569 27.5749 30.4784 29.9922 30.7179 31.9102L30.7467 32.1387L30.5192 32.1766C27.8019 32.6298 26.6326 35.3648 26.6216 35.3922L26.5932 35.4594L26.5328 35.4997C26.5011 35.5208 25.7326 36.02 23.9998 36.02ZM21.7875 35.1306C21.9785 35.2304 22.6779 35.54 23.9998 35.54C25.3198 35.54 26.0196 35.2314 26.2121 35.1306C26.4267 34.6616 27.6262 32.299 30.212 31.7466C29.9941 30.2067 29.4987 28.4134 29.3398 27.86H18.6598C18.5009 28.4134 18.0056 30.2067 17.7876 31.7466C20.3734 32.2995 21.5729 34.6621 21.7875 35.1306Z" fill="#1F212B"/>
<path d="M19.9191 43.22C19.2797 43.22 18.6629 42.9881 18.182 42.5667L14.342 39.2067C13.7938 38.7272 13.466 38.035 13.442 37.3073C13.4189 36.6253 13.657 35.9686 14.1125 35.4598C14.1274 35.443 16.0522 33.3051 17.5023 31.6947L18.2156 32.3369C16.7751 33.9368 14.8656 36.0574 14.8282 36.0992C14.5383 36.4237 14.3861 36.8413 14.4005 37.2757C14.4159 37.7389 14.6247 38.179 14.9732 38.4843L18.8132 41.8443C19.1204 42.1121 19.5125 42.26 19.9191 42.26C20.4044 42.26 20.8656 42.0507 21.1844 41.6864C21.48 41.3485 21.6264 40.916 21.5962 40.4681C21.5664 40.0203 21.3644 39.6109 21.026 39.3157L18.9236 37.4758C18.817 37.3827 18.757 37.2478 18.7594 37.1062C18.7618 36.9651 18.8266 36.8321 18.9356 36.7429L21.2583 34.8459L21.866 35.5894L19.9829 37.1273L21.6576 38.5933C22.1885 39.0574 22.5072 39.7006 22.5538 40.4043C22.6008 41.108 22.3704 41.7877 21.9063 42.3185C21.4056 42.8912 20.6808 43.22 19.9191 43.22Z" fill="#1F212B"/>
<path d="M28.081 43.22C27.3193 43.22 26.5945 42.8912 26.0929 42.3185C25.6287 41.7877 25.3988 41.108 25.4454 40.4043C25.4924 39.7006 25.8106 39.0574 26.3415 38.5933L28.0162 37.1273L26.1332 35.5894L26.7409 34.8459L29.0636 36.7429C29.173 36.8321 29.2374 36.9651 29.2398 37.1062C29.2422 37.2473 29.1822 37.3827 29.0756 37.4758L26.9732 39.3157C26.6353 39.6113 26.4327 40.0208 26.403 40.4681C26.3727 40.916 26.5191 41.3485 26.8148 41.6864C27.1345 42.0507 27.5958 42.26 28.081 42.26C28.4876 42.26 28.8798 42.1121 29.1865 41.8443L33.0265 38.4843C33.3754 38.179 33.5838 37.7389 33.5991 37.2761C33.614 36.8413 33.4623 36.4241 33.1724 36.0997C33.1647 36.0915 32.4126 35.2563 31.4962 34.2382L29.7846 32.3369L30.4978 31.6947L32.2095 33.596C33.1177 34.6045 33.8636 35.4334 33.8852 35.4569C34.3436 35.9691 34.5817 36.6257 34.5577 37.3078C34.5337 38.0345 34.2058 38.7267 33.6577 39.2062L29.8177 42.5662C29.3372 42.9881 28.7199 43.22 28.081 43.22Z" fill="#1F212B"/>
<path d="M34.5596 29.78C33.9183 29.78 33.3159 29.53 32.8628 29.0768L29.7596 26.1047V27.62H28.8V24.98C28.8 24.788 28.9143 24.6143 29.0909 24.5384C29.2676 24.4636 29.4725 24.5 29.6112 24.6335L33.5343 28.3909C34.0935 28.9501 35.0348 28.942 35.5781 28.3981C35.8503 28.1264 36 27.765 36 27.38C36 26.9951 35.8498 26.6336 35.5781 26.3615L31.3964 22.1797C29.6535 20.4368 27.3682 19.3967 24.9615 19.2508C24.3101 19.2119 23.6909 19.2119 23.0381 19.2508C20.6314 19.3967 18.3466 20.4368 16.6037 22.1797L12.422 26.3615C12.1503 26.6341 12 26.9956 12 27.38C12 27.7645 12.1503 28.126 12.422 28.3981C12.9653 28.9415 13.9143 28.942 14.4576 28.3981L18.3879 24.633C18.5266 24.5 18.7311 24.4631 18.9082 24.538C19.0848 24.6133 19.1996 24.7876 19.1996 24.9796V27.6196H18.2396V26.1042L15.1296 29.084C14.6842 29.53 14.0818 29.78 13.4405 29.78C12.7992 29.78 12.1964 29.5304 11.7432 29.0773C11.2901 28.6237 11.04 28.0213 11.04 27.38C11.04 26.7388 11.2901 26.1364 11.7432 25.6828L15.925 21.501C17.834 19.592 20.3396 18.4525 22.9805 18.2927C23.6712 18.2509 24.3293 18.2509 25.0191 18.2927C27.6605 18.4525 30.1666 19.592 32.0751 21.501L36.2568 25.6828C36.71 26.1364 36.96 26.7392 36.96 27.38C36.96 28.0208 36.71 28.6237 36.2568 29.0768C35.8037 29.53 35.2008 29.78 34.5596 29.78Z" fill="#1F212B"/>
<path d="M30.2399 31.2201H27.5999C27.2029 31.2201 26.8799 30.897 26.8799 30.5001V29.5401C26.8799 29.1431 27.2029 28.8201 27.5999 28.8201H28.0799C28.2124 28.8201 28.3199 28.9276 28.3199 29.0601C28.3199 29.1925 28.2124 29.3001 28.0799 29.3001H27.5999C27.4679 29.3001 27.3599 29.4076 27.3599 29.5401V30.5001C27.3599 30.6325 27.4679 30.7401 27.5999 30.7401H30.2399C30.3724 30.7401 30.4799 30.8476 30.4799 30.9801C30.4799 31.1125 30.3724 31.2201 30.2399 31.2201Z" fill="#1F212B"/>
<path d="M20.4 31.2201H17.52V30.7401H20.4C20.532 30.7401 20.64 30.6325 20.64 30.5001V29.5401C20.64 29.4076 20.532 29.3001 20.4 29.3001H18.24V28.8201H20.4C20.797 28.8201 21.12 29.1431 21.12 29.5401V30.5001C21.12 30.897 20.797 31.2201 20.4 31.2201Z" fill="#1F212B"/>
<path d="M29.7598 29.3001H29.0398C28.9073 29.3001 28.7998 29.1925 28.7998 29.0601C28.7998 28.9276 28.9073 28.8201 29.0398 28.8201H29.7598C29.8923 28.8201 29.9998 28.9276 29.9998 29.0601C29.9998 29.1925 29.8923 29.3001 29.7598 29.3001Z" fill="#1F212B"/>
</svg>
