<svg width="48" height="49" viewBox="0 0 48 49" fill="none" xmlns="http://www.w3.org/2000/svg">
<path d="M20.2861 31.7H20.2501C18.6594 31.7 17.3701 30.4107 17.3701 28.82V24.26H20.2861V31.7Z" fill="#EAD6C7"/>
<path d="M28.0801 31.7H28.1161C29.7068 31.7 30.9961 30.4107 30.9961 28.82V24.26H28.0801V31.7Z" fill="#EAD6C7"/>
<path d="M31.2274 22.1C31.2274 19.7139 29.293 17.78 26.9074 17.78H21.36C18.9744 17.78 17.04 19.7139 17.04 22.1V24.26H20.4V29.06H28.08V24.26H31.2274V22.1Z" fill="#60BE92"/>
<path d="M28.3198 29.0601C28.3198 29.0601 19.1705 29.0601 20.3998 29.0601L20.8707 35.3001H27.8398C27.8398 35.3001 28.2828 30.1866 28.3198 29.0601Z" fill="#78A2D2"/>
<path d="M23.76 15.546C25.9266 15.546 27.683 13.7896 27.683 11.623C27.683 9.45636 25.9266 7.69995 23.76 7.69995C21.5933 7.69995 19.8369 9.45636 19.8369 11.623C19.8369 13.7896 21.5933 15.546 23.76 15.546Z" fill="#EAD6C7"/>
<path d="M20.3999 35.3L21.6191 43.5762H26.8607L27.8399 35.3H20.3999Z" fill="#EAD6C7"/>
<path d="M24.0002 15.86C21.6184 15.86 19.6802 13.9222 19.6802 11.54C19.6802 9.15773 21.6184 7.21997 24.0002 7.21997C26.3819 7.21997 28.3202 9.15773 28.3202 11.54C28.3202 13.9222 26.3819 15.86 24.0002 15.86ZM24.0002 8.17997C22.1474 8.17997 20.6402 9.68765 20.6402 11.54C20.6402 13.3923 22.1474 14.9 24.0002 14.9C25.853 14.9 27.3602 13.3923 27.3602 11.54C27.3602 9.68765 25.853 8.17997 24.0002 8.17997Z" fill="#1F212B"/>
<path d="M26.6398 16.8199H21.8398C19.0606 16.8199 16.7998 19.0807 16.7998 21.8599V28.8199C16.7998 30.5206 18.0699 31.9303 19.7115 32.1502L20.6412 43.2555C20.6595 43.506 20.8688 43.6999 21.1198 43.6999H27.3598C27.6108 43.6999 27.8201 43.506 27.8384 43.2555L28.7681 32.1502C30.4097 31.9303 31.6798 30.5206 31.6798 28.8199V24.4999V24.0199V21.8599C31.6798 19.0807 29.419 16.8199 26.6398 16.8199ZM17.7598 28.8199V24.4999H20.1598V31.2199C18.8364 31.2199 17.7598 30.1433 17.7598 28.8199ZM27.8398 31.6875L27.5576 35.0599H24.4798V31.9399C24.4798 31.8075 24.3723 31.6999 24.2398 31.6999C24.1073 31.6999 23.9998 31.8075 23.9998 31.9399V35.0599H20.9225L20.6398 31.6817V29.2999H27.8398V31.6875ZM20.9628 35.5399H23.9998V42.7399H21.5657L20.9628 35.5399ZM26.9144 42.7399H24.4798V35.5399H27.5172L26.9144 42.7399ZM30.7198 28.8199C30.7198 30.1433 29.6432 31.2199 28.3198 31.2199V24.4999H30.7198V28.8199ZM28.3198 24.0199V22.3399C28.3198 22.2075 28.2123 22.0999 28.0798 22.0999C27.9473 22.0999 27.8398 22.2075 27.8398 22.3399V28.8199H20.6398V24.4999V24.0199V22.3399C20.6398 22.2075 20.5323 22.0999 20.3998 22.0999C20.2673 22.0999 20.1598 22.2075 20.1598 22.3399V24.0199H17.7598V21.8599C17.7598 19.6102 19.59 17.7799 21.8398 17.7799H26.6398C28.8896 17.7799 30.7198 19.6102 30.7198 21.8599V24.0199H28.3198Z" fill="#1F212B"/>
</svg>
