<svg width="48" height="49" viewBox="0 0 48 49" fill="none" xmlns="http://www.w3.org/2000/svg">
<path d="M3.83984 31.7C3.83984 32.2846 4.36256 32.7473 4.96592 32.646C5.43248 32.5678 5.75744 32.1276 5.75984 31.6544C5.7728 28.9207 6.95072 28.519 7.19984 28.34C7.1936 28.483 7.19984 28.6702 7.19984 28.82C7.19984 31.7 8.15984 35.0599 8.15984 35.0599V39.3799C8.15984 39.3799 8.15984 41.2999 9.96176 41.2999C10.9381 41.2999 14.3998 41.2999 14.3998 41.2999C14.3998 41.2999 14.3998 39.3799 12.4798 38.9V36.9799C12.4798 36.9799 16.3198 36.4999 19.4845 34.8823C19.4845 34.8823 21.7798 36.02 27.8398 36.02C29.2798 36.02 29.7598 36.02 29.7598 36.02C29.7598 36.02 30.1582 38.6604 30.3373 39.5321C30.5398 40.52 30.7198 41.2999 32.1598 41.2999C33.0949 41.2999 36.4798 41.2999 36.4798 41.2999C36.4798 41.2999 36.4798 39.3799 34.5598 38.9V34.58C37.4398 32.18 37.4398 29.54 37.4398 28.58C37.4398 26.9 36.4798 24.26 36.4798 23.54C36.4798 21.5436 42.5778 22.3476 44.0686 19.4C44.1334 19.2718 44.1598 19.1264 44.1598 18.9824V18.1011C44.1598 17.6369 43.8282 17.2395 43.3717 17.1564L38.8798 16.34C38.8798 16.34 37.9198 12.98 34.5598 12.98C34.5598 12.98 32.899 7.69995 31.0894 7.69995C29.2798 7.69995 29.2798 14.9 29.2798 14.9C28.7571 15.6944 28.3285 16.5488 28.3285 16.5488C27.2797 19.3769 24.789 22.58 23.0398 22.58C21.2907 22.58 17.2798 22.58 17.2798 22.58C17.2798 22.58 16.3198 22.1 14.8798 22.1C12.9598 22.1 11.0398 22.58 9.59984 23.54C9.59984 23.54 6.59984 24.08 4.91984 27.02C4.24736 28.1969 3.83984 29.7214 3.83984 31.7Z" fill="#FEFDEF"/>
<path d="M31.0895 7.69995C29.2799 7.69995 29.2799 14.9 29.2799 14.9C28.7571 15.6944 28.3285 16.5488 28.3285 16.5488C28.0947 17.1785 27.7871 17.826 27.4343 18.4534C27.7367 19.1945 29.0259 21.86 31.9199 21.86C30.9599 21.86 30.4799 21.0003 30.4799 19.88C30.4799 17.12 31.9199 14.66 31.9199 14.66C31.9199 14.66 30.4799 12.74 30.4799 8.95995C30.4799 8.35995 30.7405 7.93995 31.1399 7.93995L31.0895 7.69995ZM9.59986 23.54C9.59986 23.54 6.59986 24.08 4.91986 27.02C4.39042 27.9464 4.02946 29.0916 3.89746 30.5H5.85202C6.13426 28.8012 6.99106 28.4897 7.19938 28.34H7.43938C7.43938 25.16 9.89938 23.636 9.89938 23.636L9.59986 23.54Z" fill="#B07454"/>
<path d="M31.9199 22.1C28.9002 22.1 27.5529 19.3784 27.2121 18.5441C27.1622 18.4217 27.2212 18.2816 27.3431 18.2312C27.467 18.1813 27.6062 18.2398 27.6561 18.3627C27.969 19.1269 29.1993 21.62 31.9199 21.62C32.0524 21.62 32.1599 21.7275 32.1599 21.86C32.1599 21.9925 32.0524 22.1 31.9199 22.1Z" fill="#B07454"/>
<path d="M38.64 16.3399V15.7371C38.1864 14.7713 37.0157 12.9799 34.56 12.9799C34.56 12.9799 33.2986 8.9705 31.7765 7.93994C31.5365 7.93994 31.3205 7.93994 31.14 7.93994C30.7407 7.93994 30.48 8.35994 30.48 8.95994C30.48 12.7399 31.92 14.6599 31.92 14.6599C31.92 14.6599 30.48 17.1199 30.48 19.8799C30.48 21.0003 30.96 21.8599 31.92 21.8599C32.4389 20.5687 36.1892 20.0921 38.0247 19.6399C39 19.3999 39.12 19.0275 39.12 18.7399C39.12 17.8999 38.64 16.3399 38.64 16.3399ZM30.24 31.5199C30.24 29.7891 29.2541 29.0023 27.7613 27.811C27.2108 27.3713 26.5863 26.8731 25.9028 26.2433C23.93 24.426 23.3823 22.8804 23.2896 22.5799C20.9732 22.5799 17.28 22.5799 17.28 22.5799C17.28 22.5799 16.32 22.0999 14.88 22.0999C12.96 22.0999 11.04 22.5799 9.60004 23.5399L9.90004 23.6359C9.90004 23.6359 7.44004 25.1599 7.44004 28.3399H7.20004C7.1938 28.483 7.20004 28.6702 7.20004 28.8199C7.20004 31.6999 8.16004 35.0599 8.16004 35.0599V38.6614L12.48 38.1814V36.9799C12.48 36.9799 16.32 36.4999 19.4847 34.8823C19.4847 34.8823 21.78 36.0199 27.84 36.0199C28.79 36.0199 29.724 36.0199 30.2429 36.0199L29.7749 32.9777C29.9357 32.7843 30.24 32.3139 30.24 31.5199Z" fill="#D38B5D"/>
<path d="M35.9458 15.861C35.438 15.8816 35.04 16.3117 35.04 16.82V17.3C35.04 17.565 35.2551 17.78 35.52 17.78H36C36.5084 17.78 36.9384 17.3821 36.9591 16.8743C36.9845 16.2483 36.5717 15.8355 35.9458 15.861ZM44.16 18.1016V19.22C44.16 19.22 44.1504 19.22 44.1312 19.2152C43.8864 19.1864 42.24 18.9224 42.24 17.4344V16.9496L43.3728 17.156C43.8288 17.2376 44.16 17.636 44.16 18.1016Z" fill="#1F212B"/>
<path d="M31.9202 22.0999C30.8998 22.0999 30.2402 21.2288 30.2402 19.88C30.2402 17.4209 31.3351 15.2316 31.6385 14.6729C31.3135 14.1723 30.2402 12.2691 30.2402 8.95995C30.2402 8.20635 30.6017 7.69995 31.1402 7.69995H31.7767C31.8247 7.69995 31.8718 7.71435 31.9111 7.74123C33.3218 8.69595 34.4743 11.9585 34.7354 12.7428C37.1724 12.8235 38.3614 14.5788 38.8572 15.6353C38.8726 15.667 38.8802 15.7016 38.8802 15.7371V16.3044C38.9537 16.5483 39.3602 17.935 39.3602 18.74C39.3602 19.2987 38.9542 19.6587 38.0825 19.8728C37.7129 19.9635 37.267 20.0556 36.7855 20.155C35.083 20.5054 32.5102 21.0353 32.143 21.9492C32.1065 22.0404 32.0182 22.0999 31.9202 22.0999ZM31.1402 8.17995C30.893 8.17995 30.7202 8.50059 30.7202 8.95995C30.7202 12.6032 32.0988 14.4977 32.1122 14.5164C32.1698 14.5937 32.1756 14.6979 32.1271 14.7814C32.1132 14.8054 30.7202 17.2203 30.7202 19.88C30.7202 20.2697 30.7994 21.5019 31.7762 21.6118C32.3959 20.5688 34.7662 20.0806 36.6886 19.6846C37.1638 19.5867 37.6034 19.4959 37.9678 19.4067C38.8802 19.182 38.8802 18.8724 38.8802 18.74C38.8802 17.9451 38.4156 16.4259 38.4108 16.4105C38.4036 16.3879 38.4002 16.364 38.4002 16.34V15.7913C37.9274 14.8083 36.8134 13.22 34.5602 13.22C34.4556 13.22 34.3625 13.1518 34.3313 13.052C34.3193 13.0131 33.1106 9.21579 31.7004 8.17995H31.1402Z" fill="#1F212B"/>
<path d="M36.4799 41.78H32.1599C30.3042 41.78 30.0608 40.5876 29.8655 39.6296C29.7282 38.9542 29.4671 37.28 29.3475 36.5H27.8399C22.7202 36.5 20.2266 35.6979 19.4994 35.4109C16.9266 36.679 14.0293 37.2252 12.9599 37.3947V38.5467C14.4675 39.1107 14.8799 40.5622 14.8799 41.2995C14.8799 41.5644 14.6648 41.7795 14.3999 41.7795H9.95986C8.1565 41.78 7.67986 40.2099 7.67986 39.38V35.1262C7.55074 34.6611 6.83218 31.9668 6.73138 29.4003C6.4741 29.8073 6.24562 30.4865 6.23986 31.6544C6.23986 32.3758 5.72674 33.007 5.0461 33.1188C4.62226 33.1889 4.19314 33.0728 3.86914 32.7982C3.54562 32.5241 3.35986 32.1238 3.35986 31.7C3.35986 29.7641 3.74434 28.1096 4.50322 26.7819C6.11698 23.9557 8.84242 23.2155 9.41314 23.0888C10.8747 22.1408 12.8115 21.62 14.8799 21.62C16.1471 21.62 17.0739 21.9665 17.3835 22.1H23.0399C24.4098 22.1 26.8069 19.2689 27.8797 16.3836C27.8855 16.3678 27.8922 16.3524 27.8999 16.3371C27.9171 16.303 28.3045 15.5264 28.8003 14.7565C28.8095 12.8072 29.0183 7.21997 31.0895 7.21997C32.9677 7.21997 34.4447 11.119 34.9122 12.5115C37.7202 12.6968 38.9053 15.0766 39.2379 15.9171L43.4586 16.6837C44.1426 16.806 44.6399 17.4022 44.6399 18.1016V18.9848C44.6399 19.1004 44.6255 19.2171 44.5967 19.3318C44.5765 19.4288 44.5429 19.5276 44.4978 19.6169C43.6016 21.3862 41.3259 21.9339 39.4971 22.3736C38.2501 22.674 36.9599 22.9841 36.9599 23.54C36.9599 23.7641 37.1207 24.3915 37.2767 24.9987C37.5632 26.1147 37.9199 27.5038 37.9199 28.58C37.9199 29.5078 37.9199 32.2947 35.0399 34.8017V38.5472C36.5475 39.1112 36.9599 40.5627 36.9599 41.3C36.9599 41.5649 36.7448 41.78 36.4799 41.78ZM19.4831 34.4024C19.556 34.4024 19.629 34.4192 19.6957 34.4523C19.7163 34.4619 22.0098 35.54 27.8399 35.54H29.7599C29.9975 35.54 30.1991 35.7137 30.2346 35.9484C30.2384 35.9748 30.6335 38.5865 30.8063 39.438C31.0155 40.4648 31.1399 40.82 32.1599 40.82H35.925C35.7939 40.3313 35.4335 39.6132 34.4437 39.3656C34.2301 39.3123 34.0799 39.1203 34.0799 38.9V34.58C34.0799 34.4374 34.1432 34.3025 34.2527 34.2113C36.9599 31.9553 36.9599 29.503 36.9599 28.58C36.9599 27.6252 36.62 26.3009 36.3469 25.2372C36.1251 24.3737 35.9999 23.8697 35.9999 23.54C35.9999 22.2281 37.5896 21.8456 39.2725 21.4404C40.9943 21.0262 42.9459 20.5568 43.6405 19.1854C43.6472 19.172 43.6549 19.1475 43.6616 19.1153C43.6751 19.0601 43.6799 19.0222 43.6799 18.9848V18.1016C43.6799 17.8683 43.5152 17.6691 43.2882 17.6288L38.7944 16.8123C38.6144 16.7797 38.469 16.6477 38.4186 16.472C38.3826 16.3501 37.5075 13.46 34.5599 13.46C34.3501 13.46 34.1648 13.3241 34.1019 13.124C33.4741 11.1301 32.0821 8.17997 31.0895 8.17997C30.3944 8.17997 29.7603 11.383 29.7599 14.9C29.7599 14.9941 29.732 15.0862 29.6802 15.1645C29.2251 15.8537 28.8387 16.6073 28.7701 16.7436C27.6498 19.7364 25.0271 23.06 23.0399 23.06H17.2799C17.2055 23.06 17.1315 23.0427 17.0653 23.0096C17.0581 23.0057 16.1763 22.58 14.8799 22.58C12.9613 22.58 11.181 23.0628 9.86626 23.9393C9.81154 23.9758 9.74962 24.0008 9.68482 24.0123C9.65794 24.0171 6.87874 24.5576 5.33698 27.2576C4.6621 28.4388 4.31986 29.9336 4.31986 31.7C4.31986 31.8411 4.38178 31.9745 4.4893 32.0657C4.59922 32.1588 4.73986 32.1968 4.88914 32.1723C5.1085 32.1358 5.27986 31.9073 5.27986 31.652C5.29426 28.9078 6.43234 28.2377 6.8605 27.9857C6.88498 27.9713 6.9061 27.9593 6.92194 27.9488C7.07074 27.8456 7.2685 27.8336 7.4269 27.9209C7.58578 28.0078 7.68514 28.1748 7.67938 28.3558C7.6765 28.4465 7.67746 28.5564 7.6789 28.6611L7.67986 28.82C7.67986 31.6006 8.61202 34.8953 8.62114 34.928C8.63362 34.9707 8.63986 35.0153 8.63986 35.06V39.38C8.64226 39.6185 8.71714 40.82 9.95986 40.82H13.845C13.7139 40.3313 13.3535 39.6132 12.3637 39.3656C12.1501 39.3123 11.9999 39.1203 11.9999 38.9V36.98C11.9999 36.738 12.1799 36.5336 12.4199 36.5038C12.4578 36.499 16.2167 36.0137 19.2642 34.4552C19.3328 34.4201 19.4082 34.4024 19.4831 34.4024Z" fill="#1F212B"/>
<path d="M31.92 22.1C28.8994 22.1 27.553 19.3784 27.2122 18.5442C27.1623 18.4218 27.2208 18.2816 27.3437 18.2312C27.4656 18.1803 27.6063 18.2399 27.6567 18.3627C27.9687 19.1269 29.1984 21.62 31.92 21.62C32.0525 21.62 32.16 21.7275 32.16 21.86C32.16 21.9925 32.0525 22.1 31.92 22.1ZM7.68002 28.34H7.20002C7.20002 25.064 9.66866 23.4973 9.77378 23.432L10.0267 23.84C10.0032 23.8544 7.68002 25.3386 7.68002 28.34ZM4.02002 30.26H5.94002V30.74H4.02002V30.26ZM8.16002 38.66C8.03954 38.66 7.93538 38.5693 7.92146 38.4464C7.90706 38.3149 8.00162 38.1963 8.13362 38.1815L10.7736 37.8882C10.9027 37.8747 11.0242 37.9683 11.0386 38.1003C11.053 38.2323 10.9584 38.3504 10.8264 38.3653L8.18642 38.6586C8.17778 38.6595 8.16866 38.66 8.16002 38.66ZM30 36.26C29.8834 36.26 29.7811 36.1751 29.7629 36.0565L29.5042 34.3765C29.484 34.2455 29.5738 34.1231 29.7048 34.1029C29.8363 34.0813 29.9583 34.173 29.9784 34.3035L30.2371 35.9835C30.2573 36.1146 30.1675 36.237 30.0365 36.2571C30.024 36.2591 30.012 36.26 30 36.26ZM26.64 27.4491C26.5858 27.4491 26.5311 27.4309 26.4859 27.393C26.1965 27.1506 25.8936 26.8875 25.5773 26.5962C23.2704 24.4712 22.8245 22.7101 22.8067 22.6362C22.7755 22.5075 22.8547 22.3784 22.9829 22.3472C23.112 22.3165 23.2416 22.3943 23.2728 22.5229C23.2767 22.5397 23.713 24.2269 25.9023 26.2434C26.2123 26.529 26.5099 26.7872 26.7936 27.0248C26.8949 27.1098 26.9083 27.2615 26.8234 27.3632C26.7763 27.4199 26.7087 27.4491 26.64 27.4491ZM29.52 33.14C29.4533 33.14 29.3871 33.1122 29.3395 33.0579C29.2527 32.9586 29.2623 32.8083 29.3602 32.721C29.3789 32.7037 29.76 32.3432 29.76 31.52C29.76 30.4664 29.3367 29.8439 28.7011 29.2328C28.6056 29.1411 28.6023 28.989 28.6944 28.8935C28.7861 28.7975 28.9383 28.7946 29.0338 28.8867C29.8906 29.7099 30.24 30.4731 30.24 31.52C30.24 32.577 29.701 33.0603 29.6779 33.0805C29.6323 33.1203 29.5762 33.14 29.52 33.14Z" fill="#1F212B"/>
</svg>
