<svg width="48" height="49" viewBox="0 0 48 49" fill="none" xmlns="http://www.w3.org/2000/svg">
<path d="M28.08 4.81995C26.0952 4.81995 24.48 6.43515 24.48 8.41995C24.48 10.4047 26.0952 12.0199 28.08 12.0199C30.0648 12.0199 31.68 10.4047 31.68 8.41995C31.68 6.43515 30.0648 4.81995 28.08 4.81995Z" fill="#EAD6C7"/>
<path d="M18.24 29.7799V33.6291C18.24 33.9411 18.1963 34.2521 18.1109 34.5521L15.36 44.1799H11.52L13.92 32.6158V25.9399L18.24 29.7799Z" fill="#78A1D1"/>
<path d="M31.9958 22.7154C31.9958 22.7154 23.2829 12.8288 23.2368 12.7727C22.6209 12.021 21.6873 11.54 20.64 11.54C16.8 11.54 12.48 19.22 12.48 24.5C12.48 25.5431 12.6705 26.6768 13.8321 27.766C15.0014 28.8623 20.3957 34.0957 20.3957 34.0957C20.3981 34.0986 20.4005 34.102 20.4014 34.1058L23.5142 44.1623C23.5233 44.169 23.5296 44.1738 23.5387 44.1805H27.3273C27.3374 44.1676 27.3422 44.1618 27.3523 44.1493L24.6552 32.6168C24.5894 32.3543 24.4747 32.1061 24.3173 31.8858L20.1489 26.0504C19.5153 25.1639 19.5221 23.9706 20.1653 23.0908L22.9953 19.22L28.8725 25.7029C29.2987 26.1781 29.8886 26.42 30.4805 26.42C30.9763 26.42 31.4741 26.2501 31.8787 25.9055C32.808 25.114 32.8113 23.624 31.9958 22.7154Z" fill="#9DC4E8"/>
<path d="M28.08 12.5C25.8302 12.5 24 10.6697 24 8.41997C24 6.17021 25.8302 4.33997 28.08 4.33997C30.3298 4.33997 32.16 6.17021 32.16 8.41997C32.16 10.6697 30.3298 12.5 28.08 12.5ZM28.08 5.29997C26.3597 5.29997 24.96 6.69965 24.96 8.41997C24.96 10.1403 26.3597 11.54 28.08 11.54C29.8003 11.54 31.2 10.1403 31.2 8.41997C31.2 6.69965 29.8003 5.29997 28.08 5.29997Z" fill="#1F212B"/>
<path d="M36.4797 44.18C36.27 44.18 36.077 44.0413 36.018 43.8296L31.097 26.2607C31.0255 26.0058 31.1748 25.7403 31.4296 25.6693C31.6831 25.5978 31.9495 25.7466 32.021 26.0019L36.942 43.5704C37.0135 43.8253 36.8642 44.0907 36.6093 44.1618C36.5661 44.1743 36.5224 44.18 36.4797 44.18Z" fill="#1F212B"/>
<path d="M32.3558 22.398C29.377 19.0179 23.7134 12.5907 23.6078 12.4683C22.8749 11.5731 21.793 11.0599 20.64 11.0599C16.4683 11.0599 12 18.9483 12 24.4999C12 25.5271 12.1709 26.8663 13.5038 28.1163C14.5853 29.1305 19.3618 33.7611 19.9766 34.3572L23.0558 44.3043C23.0861 44.4022 23.1715 44.5059 23.2541 44.5663C23.3366 44.6273 23.4365 44.6599 23.5387 44.6599H27.3278C27.4752 44.6599 27.6394 44.5611 27.7301 44.4454C27.8203 44.3307 27.8534 44.1814 27.8203 44.0393L25.1213 32.4991C25.0406 32.1761 24.9014 31.8756 24.7085 31.6059L20.5402 25.7705C20.0261 25.0505 20.0314 24.0871 20.5536 23.3729L23.0352 19.9788L28.5168 26.0259C29.017 26.5807 29.7326 26.8999 30.4805 26.8999C31.1069 26.8999 31.7141 26.6763 32.1902 26.2707C32.7072 25.83 33.0182 25.1955 33.0662 24.4827C33.1176 23.718 32.8574 22.9567 32.3558 22.398ZM31.5677 25.5401C30.9029 26.1065 29.8138 26.0326 29.2296 25.3822L28.8725 25.7028L29.2282 25.3803L22.9555 18.4615L19.7784 22.8065C19.0114 23.8558 19.0032 25.2708 19.7587 26.3283L23.927 32.1641C24.0499 32.3355 24.1382 32.527 24.1882 32.7252L26.7547 43.6999H23.8738L20.8598 33.9627C20.8358 33.8863 20.7878 33.8071 20.7302 33.7515C20.6765 33.6991 15.3197 28.5027 14.1605 27.4164C13.1054 26.4267 12.96 25.4297 12.96 24.4999C12.96 19.5723 17.0794 12.0199 20.64 12.0199C21.504 12.0199 22.3152 12.4054 22.8658 13.0774C22.9123 13.134 29.0146 20.0585 31.6387 23.0359C31.9709 23.406 32.1422 23.9105 32.1082 24.4188C32.0779 24.8705 31.8859 25.2689 31.5677 25.5401Z" fill="#1F212B"/>
<path d="M15.3599 44.6599H11.5199C11.3754 44.6599 11.2386 44.5946 11.1479 44.4828C11.0567 44.371 11.0207 44.2241 11.05 44.0825L13.4399 32.5668V27.8489C13.4399 27.6574 13.5537 27.4841 13.7298 27.4082C13.9055 27.3319 14.11 27.3679 14.2492 27.4994C15.0129 28.2199 17.0222 30.1606 18.5735 31.662C18.6671 31.7522 18.7199 31.877 18.7199 32.0071V33.6295C18.7199 33.9862 18.67 34.3409 18.5721 34.6846L15.8217 44.3119C15.7626 44.5178 15.574 44.6599 15.3599 44.6599ZM12.1098 43.6999H14.998L17.649 34.4206C17.7225 34.1633 17.7599 33.8969 17.7599 33.6295V32.2106C16.6401 31.1273 15.3167 29.8486 14.3999 28.9697V32.6162C14.3999 32.6489 14.3966 32.682 14.3898 32.7137L12.1098 43.6999Z" fill="#1F212B"/>
<path d="M21.3608 17.3C21.2955 17.3 21.2302 17.2731 21.1827 17.2212L20.7478 16.7412C20.6585 16.6428 20.6662 16.4912 20.7646 16.4024C20.8625 16.3131 21.0147 16.3213 21.104 16.4187L21.5389 16.8987C21.6281 16.9971 21.6205 17.1488 21.5221 17.2376C21.476 17.2793 21.4184 17.3 21.3608 17.3Z" fill="#1F212B"/>
<path d="M29.0498 25.7815C28.9845 25.7815 28.9192 25.7547 28.8717 25.7028L22.0528 18.1812C21.964 18.0828 21.9712 17.9311 22.0696 17.8423C22.1675 17.7535 22.3197 17.7603 22.409 17.8587L29.2278 25.3803C29.3166 25.4787 29.3095 25.6303 29.2111 25.7191C29.1655 25.7609 29.1079 25.7815 29.0498 25.7815Z" fill="#1F212B"/>
</svg>
