<svg width="48" height="49" viewBox="0 0 48 49" fill="none" xmlns="http://www.w3.org/2000/svg">
<path d="M13.9199 32.18H35.5199L44.1599 30.74H45.1199C45.9153 30.74 46.5599 30.0954 46.5599 29.3V24.98C46.5599 24.4496 46.1303 24.02 45.5999 24.02V24.019C45.6014 22.9122 44.8017 21.9666 43.7097 21.7846L36.9599 20.66L33.2078 15.3445C31.9487 13.5608 29.9015 12.5 27.718 12.5H16.0771C13.798 12.5 11.6361 13.5123 10.1769 15.2634L5.27994 21.14C3.17514 22.7768 1.43994 24.5 1.43994 28.2459V28.34C1.43994 29.6653 2.51466 30.74 3.83994 30.74H5.27994L13.9199 32.18Z" fill="#F15B6C"/>
<path d="M35.5199 31.7H13.9199V32.66H35.5199V31.7Z" fill="#1F212B"/>
<path d="M45.12 31.22H44.16V30.26H45.12C45.6494 30.26 46.08 29.8295 46.08 29.3V24.98C46.08 24.7151 45.8644 24.5 45.6 24.5C45.4723 24.5 45.3504 24.4496 45.2601 24.3594C45.1704 24.2691 45.12 24.1472 45.12 24.0195C45.1209 23.1431 44.495 22.4024 43.6305 22.2584L36.8808 21.1333C36.7545 21.1122 36.6412 21.0416 36.5678 20.937L32.8161 15.6219C31.6483 13.9679 29.7427 12.98 27.718 12.98H16.0771C13.9339 12.98 11.9179 13.9242 10.546 15.5706L5.6486 21.4477C5.62652 21.4741 5.60156 21.4976 5.57468 21.5187C3.575 23.0739 1.91996 24.6536 1.91996 28.2459V28.34C1.91996 29.3989 2.78108 30.26 3.83996 30.26H5.27996V31.22H3.83996C2.25164 31.22 0.959961 29.9283 0.959961 28.34V28.2459C0.959961 24.2509 2.83964 22.4346 4.94444 20.7935L9.80876 14.9562C11.3635 13.0904 13.6488 12.0205 16.0776 12.0205H27.7185C30.0547 12.0205 32.2536 13.16 33.6004 15.0685L37.2369 20.2199L43.7889 21.3119C44.9817 21.5106 45.8798 22.448 46.0507 23.612C46.6243 23.8021 47.04 24.344 47.04 24.98V29.3C47.04 30.3589 46.1788 31.22 45.12 31.22Z" fill="#1F212B"/>
<path d="M19.4402 32.18C19.3077 32.18 19.2002 32.0725 19.2002 31.94V12.74C19.2002 12.6075 19.3077 12.5 19.4402 12.5C19.5727 12.5 19.6802 12.6075 19.6802 12.74V31.94C19.6802 32.0725 19.5727 32.18 19.4402 32.18Z" fill="#1F212B"/>
<path d="M47.5201 29.7799H46.0801C45.8151 29.7799 45.6001 29.5654 45.6001 29.2999C45.6001 29.0345 45.8151 28.8199 46.0801 28.8199H47.5201C47.7851 28.8199 48.0001 29.0345 48.0001 29.2999C48.0001 29.5654 47.7851 29.7799 47.5201 29.7799Z" fill="#1F212B"/>
<path d="M45.3602 24.5H19.4402C19.3077 24.5 19.2002 24.3925 19.2002 24.26C19.2002 24.1275 19.3077 24.02 19.4402 24.02H45.3602C45.4927 24.02 45.6002 24.1275 45.6002 24.26C45.6002 24.3925 45.4927 24.5 45.3602 24.5Z" fill="#1F212B"/>
<path d="M1.67997 25.94C1.57245 25.94 1.47453 25.8675 1.44765 25.7581C1.41549 25.6295 1.49373 25.4994 1.62237 25.4672L5.20365 24.572C6.66765 24.2058 8.17533 24.02 9.68541 24.02H18C18.1325 24.02 18.24 24.1275 18.24 24.26C18.24 24.3925 18.1325 24.5 18 24.5H9.68541C8.21469 24.5 6.74589 24.681 5.31933 25.0376L1.73805 25.9328C1.71885 25.9376 1.69917 25.94 1.67997 25.94Z" fill="#1F212B"/>
<path d="M3.36 28.82H0.48C0.21504 28.82 0 28.6054 0 28.34C0 28.0745 0.21504 27.86 0.48 27.86H3.36C3.62496 27.86 3.84 28.0745 3.84 28.34C3.84 28.6054 3.62496 28.82 3.36 28.82Z" fill="#1F212B"/>
<path d="M3.8399 22.58H2.8799C2.61494 22.58 2.3999 22.3654 2.3999 22.1C2.3999 21.8346 2.61494 21.62 2.8799 21.62H3.8399C4.10486 21.62 4.3199 21.8346 4.3199 22.1C4.3199 22.3654 4.10486 22.58 3.8399 22.58Z" fill="#1F212B"/>
<path d="M23.2801 23.06H20.8801C20.7477 23.06 20.6401 22.9524 20.6401 22.82C20.6401 22.6875 20.7477 22.58 20.8801 22.58H23.2801C23.4126 22.58 23.5201 22.6875 23.5201 22.82C23.5201 22.9524 23.4126 23.06 23.2801 23.06Z" fill="#1F212B"/>
<path d="M21.8399 21.38H31.7831C33.0594 21.38 33.8053 19.941 33.0695 18.898L31.4408 16.5901C30.5864 15.38 29.1973 14.66 27.716 14.66H21.8399C21.3095 14.66 20.8799 15.0896 20.8799 15.62V20.42C20.8799 20.9504 21.3095 21.38 21.8399 21.38Z" fill="#C7DFF1"/>
<path d="M31.7833 21.62H21.8401C21.1787 21.62 20.6401 21.082 20.6401 20.42V15.62C20.6401 14.9581 21.1787 14.42 21.8401 14.42H27.7163C29.2734 14.42 30.7393 15.1794 31.6374 16.4519L33.2661 18.7597C33.6582 19.3156 33.7077 20.0365 33.3947 20.6408C33.0808 21.2447 32.464 21.62 31.7833 21.62ZM21.8401 14.9C21.4432 14.9 21.1201 15.2231 21.1201 15.62V20.42C21.1201 20.817 21.4432 21.14 21.8401 21.14H31.7833C32.2912 21.14 32.7337 20.8708 32.9675 20.42C33.2013 19.9688 33.1662 19.4514 32.8729 19.0362L31.2443 16.7284C30.4369 15.5836 29.1174 14.9 27.7163 14.9H21.8401Z" fill="#1F212B"/>
<path d="M17.0401 14.66H16.0772C14.4395 14.66 12.8862 15.3877 11.8374 16.6463L10.2414 18.5615C9.30875 19.6808 10.1046 21.38 11.5614 21.38H17.0401C17.57 21.38 18.0001 20.9504 18.0001 20.42V15.62C18.0001 15.0896 17.5705 14.66 17.0401 14.66Z" fill="#C7DFF1"/>
<path d="M17.0399 21.62H11.5612C10.7932 21.62 10.1135 21.188 9.78805 20.4925C9.46213 19.797 9.56533 18.9978 10.0568 18.4074L11.6528 16.4922C12.7501 15.1751 14.3624 14.42 16.077 14.42H17.0399C17.7013 14.42 18.2399 14.9581 18.2399 15.62V20.42C18.2399 21.082 17.7018 21.62 17.0399 21.62ZM16.077 14.9C14.5055 14.9 13.0271 15.5922 12.0215 16.7999L10.4255 18.7151C10.0544 19.1605 9.97621 19.7639 10.2224 20.2885C10.4687 20.8136 10.9813 21.14 11.5612 21.14H17.0399C17.4368 21.14 17.7599 20.817 17.7599 20.42V15.62C17.7599 15.2231 17.4368 14.9 17.0399 14.9H16.077Z" fill="#1F212B"/>
<path d="M29.0398 19.7C28.9073 19.7 28.7998 19.5925 28.7998 19.46V14.9C28.7998 14.7676 28.9073 14.66 29.0398 14.66C29.1723 14.66 29.2798 14.7676 29.2798 14.9V19.46C29.2798 19.5925 29.1723 19.7 29.0398 19.7Z" fill="#1F212B"/>
<path d="M29.0398 21.6201C28.9073 21.6201 28.7998 21.5125 28.7998 21.3801V20.4201C28.7998 20.2876 28.9073 20.1801 29.0398 20.1801C29.1723 20.1801 29.2798 20.2876 29.2798 20.4201V21.3801C29.2798 21.5125 29.1723 21.6201 29.0398 21.6201Z" fill="#1F212B"/>
<path d="M47.2798 27.62H46.7998V24.74H47.2798C47.5448 24.74 47.7598 24.955 47.7598 25.22V27.14C47.7598 27.405 47.5448 27.62 47.2798 27.62Z" fill="#FEF6AA"/>
<path d="M47.2801 27.86H46.8001C46.6676 27.86 46.5601 27.7525 46.5601 27.62V24.74C46.5601 24.6075 46.6676 24.5 46.8001 24.5H47.2801C47.677 24.5 48.0001 24.823 48.0001 25.22V27.14C48.0001 27.537 47.677 27.86 47.2801 27.86ZM47.0401 27.38H47.2801C47.4125 27.38 47.5201 27.272 47.5201 27.14V25.22C47.5201 25.088 47.4125 24.98 47.2801 24.98H47.0401V27.38Z" fill="#1F212B"/>
<path d="M9.60004 36.26C12.1185 36.26 14.16 34.2184 14.16 31.7C14.16 29.1816 12.1185 27.14 9.60004 27.14C7.08162 27.14 5.04004 29.1816 5.04004 31.7C5.04004 34.2184 7.08162 36.26 9.60004 36.26Z" fill="#565FA1"/>
<path d="M9.60023 35.06C11.4559 35.06 12.9602 33.5556 12.9602 31.7C12.9602 29.8443 11.4559 28.34 9.60023 28.34C7.74456 28.34 6.24023 29.8443 6.24023 31.7C6.24023 33.5556 7.74456 35.06 9.60023 35.06Z" fill="white"/>
<path d="M9.59992 33.38C10.5278 33.38 11.2799 32.6279 11.2799 31.7C11.2799 30.7722 10.5278 30.02 9.59992 30.02C8.67208 30.02 7.91992 30.7722 7.91992 31.7C7.91992 32.6279 8.67208 33.38 9.59992 33.38Z" fill="#CECCBE"/>
<path d="M9.60018 33.62C8.5413 33.62 7.68018 32.7589 7.68018 31.7C7.68018 30.6411 8.5413 29.78 9.60018 29.78C10.6591 29.78 11.5202 30.6411 11.5202 31.7C11.5202 32.7589 10.6591 33.62 9.60018 33.62ZM9.60018 30.26C8.80626 30.26 8.16018 30.9061 8.16018 31.7C8.16018 32.4939 8.80626 33.14 9.60018 33.14C10.3941 33.14 11.0402 32.4939 11.0402 31.7C11.0402 30.9061 10.3941 30.26 9.60018 30.26Z" fill="#1F212B"/>
<path d="M9.5998 36.5C6.95308 36.5 4.7998 34.3467 4.7998 31.7C4.7998 29.0533 6.95308 26.9 9.5998 26.9C12.2465 26.9 14.3998 29.0533 14.3998 31.7C14.3998 34.3467 12.2465 36.5 9.5998 36.5ZM9.5998 27.38C7.21804 27.38 5.2798 29.3178 5.2798 31.7C5.2798 34.0823 7.21804 36.02 9.5998 36.02C11.9816 36.02 13.9198 34.0823 13.9198 31.7C13.9198 29.3178 11.9816 27.38 9.5998 27.38Z" fill="#1F212B"/>
<path d="M12.6331 31.22C12.5242 31.22 12.4258 31.1461 12.3999 31.0352C12.3615 30.8744 12.3139 30.7251 12.2587 30.5922C12.2079 30.4698 12.2655 30.3296 12.3879 30.2787C12.5103 30.2283 12.6509 30.285 12.7018 30.4079C12.7675 30.5643 12.8227 30.7386 12.8669 30.9248C12.8976 31.0539 12.8179 31.1831 12.6888 31.2138C12.6701 31.2181 12.6514 31.22 12.6331 31.22Z" fill="#1F212B"/>
<path d="M11.8362 29.78C11.7733 29.78 11.7104 29.755 11.6634 29.7065C11.3792 29.4113 11.0576 29.1877 10.7077 29.0417C10.5853 28.9909 10.5277 28.8502 10.5786 28.7278C10.6299 28.6049 10.7706 28.5502 10.8925 28.5982C11.3034 28.7696 11.6797 29.0302 12.0094 29.3734C12.1011 29.4689 12.0987 29.6211 12.0027 29.7128C11.9562 29.7574 11.8962 29.78 11.8362 29.78Z" fill="#1F212B"/>
<path d="M9.60023 35.06C7.74743 35.06 6.24023 33.5523 6.24023 31.7C6.24023 29.8476 7.74743 28.34 9.60023 28.34C9.68759 28.34 9.77303 28.3467 9.85847 28.3524C9.99047 28.3625 10.0894 28.4782 10.0793 28.6102C10.0692 28.7422 9.95255 28.8401 9.82151 28.8315C9.74855 28.8257 9.67511 28.82 9.60023 28.82C8.01191 28.82 6.72023 30.1116 6.72023 31.7C6.72023 33.2883 8.01191 34.58 9.60023 34.58C10.1513 34.58 10.6879 34.423 11.1506 34.1264C11.2615 34.0544 11.4108 34.0865 11.4823 34.1988C11.5538 34.3102 11.5217 34.4585 11.4098 34.53C10.8694 34.8766 10.2434 35.06 9.60023 35.06Z" fill="#1F212B"/>
<path d="M39.8398 36.26C42.3582 36.26 44.3998 34.2184 44.3998 31.7C44.3998 29.1816 42.3582 27.14 39.8398 27.14C37.3214 27.14 35.2798 29.1816 35.2798 31.7C35.2798 34.2184 37.3214 36.26 39.8398 36.26Z" fill="#565FA1"/>
<path d="M39.84 35.06C41.6957 35.06 43.2 33.5556 43.2 31.7C43.2 29.8443 41.6957 28.34 39.84 28.34C37.9843 28.34 36.48 29.8443 36.48 31.7C36.48 33.5556 37.9843 35.06 39.84 35.06Z" fill="white"/>
<path d="M39.8402 33.38C40.768 33.38 41.5202 32.6279 41.5202 31.7C41.5202 30.7722 40.768 30.02 39.8402 30.02C38.9123 30.02 38.1602 30.7722 38.1602 31.7C38.1602 32.6279 38.9123 33.38 39.8402 33.38Z" fill="#CECCBE"/>
<path d="M39.84 36.5C37.1933 36.5 35.04 34.3467 35.04 31.7C35.04 29.0533 37.1933 26.9 39.84 26.9C42.4868 26.9 44.64 29.0533 44.64 31.7C44.64 34.3467 42.4868 36.5 39.84 36.5ZM39.84 27.38C37.4583 27.38 35.52 29.3178 35.52 31.7C35.52 34.0823 37.4583 36.02 39.84 36.02C42.2218 36.02 44.16 34.0823 44.16 31.7C44.16 29.3178 42.2218 27.38 39.84 27.38Z" fill="#1F212B"/>
<path d="M39.8399 33.62C38.781 33.62 37.9199 32.7589 37.9199 31.7C37.9199 30.6411 38.781 29.78 39.8399 29.78C40.8988 29.78 41.7599 30.6411 41.7599 31.7C41.7599 32.7589 40.8988 33.62 39.8399 33.62ZM39.8399 30.26C39.046 30.26 38.3999 30.9061 38.3999 31.7C38.3999 32.4939 39.046 33.14 39.8399 33.14C40.6338 33.14 41.2799 32.4939 41.2799 31.7C41.2799 30.9061 40.6338 30.26 39.8399 30.26Z" fill="#1F212B"/>
<path d="M42.8729 31.22C42.7639 31.22 42.6655 31.1461 42.6396 31.0352C42.6012 30.8744 42.5537 30.7251 42.4985 30.5922C42.4476 30.4698 42.5052 30.3296 42.6276 30.2787C42.7495 30.2283 42.8906 30.285 42.9415 30.4079C43.0073 30.5643 43.0625 30.7386 43.1066 30.9248C43.1374 31.0539 43.0577 31.1831 42.9286 31.2138C42.9098 31.2181 42.8911 31.22 42.8729 31.22Z" fill="#1F212B"/>
<path d="M42.0764 29.78C42.0135 29.78 41.9506 29.755 41.9036 29.7065C41.6194 29.4113 41.2978 29.1877 40.9479 29.0417C40.8255 28.9909 40.7679 28.8502 40.8188 28.7278C40.8697 28.6049 41.0103 28.5502 41.1327 28.5982C41.5436 28.7696 41.9199 29.0302 42.2497 29.3734C42.3414 29.4689 42.339 29.6211 42.243 29.7128C42.1964 29.7574 42.1364 29.78 42.0764 29.78Z" fill="#1F212B"/>
<path d="M39.84 35.06C37.9872 35.06 36.48 33.5523 36.48 31.7C36.48 29.8476 37.9872 28.34 39.84 28.34C39.9273 28.34 40.0128 28.3467 40.0982 28.3524C40.2302 28.3625 40.3291 28.4782 40.319 28.6102C40.3089 28.7422 40.1894 28.8401 40.0613 28.8315C39.9883 28.8257 39.9149 28.82 39.84 28.82C38.2517 28.82 36.96 30.1116 36.96 31.7C36.96 33.2883 38.2517 34.58 39.84 34.58C40.391 34.58 40.9277 34.423 41.3904 34.1264C41.5017 34.0544 41.6505 34.0865 41.7221 34.1988C41.7936 34.3102 41.7614 34.4585 41.6496 34.53C41.1091 34.8766 40.4832 35.06 39.84 35.06Z" fill="#1F212B"/>
<path d="M46.5598 36.98H4.79982C4.53486 36.98 4.31982 36.7655 4.31982 36.5C4.31982 36.2346 4.53486 36.02 4.79982 36.02H46.5598C46.8248 36.02 47.0398 36.2346 47.0398 36.5C47.0398 36.7655 46.8248 36.98 46.5598 36.98Z" fill="#1F212B"/>
<path d="M2.87996 36.98H1.43996C1.175 36.98 0.959961 36.7655 0.959961 36.5C0.959961 36.2346 1.175 36.02 1.43996 36.02H2.87996C3.14492 36.02 3.35996 36.2346 3.35996 36.5C3.35996 36.7655 3.14492 36.98 2.87996 36.98Z" fill="#1F212B"/>
<path d="M41.1898 15.7102C40.2062 14.7267 39.2515 14.228 38.352 14.228C37.8038 14.228 37.2827 14.4923 36.958 14.9348L36.9091 15.002C36.6772 15.322 36.0607 16.1717 34.8662 17.3662C33.6723 18.5601 32.8224 19.1766 32.5023 19.4089L32.4348 19.458C31.9923 19.7827 31.728 20.3038 31.728 20.852C31.728 21.7517 32.2267 22.7065 33.2102 23.6898C34.1939 24.6734 35.1486 25.172 36.048 25.172C36.5962 25.172 37.1174 24.9078 37.4421 24.4653L37.4909 24.398C37.7229 24.0781 38.3394 23.2283 39.5338 22.0338C40.7277 20.8399 41.5776 20.2235 41.8977 19.9912L41.9653 19.9421C42.4078 19.6174 42.672 19.0962 42.672 18.548C42.672 17.6483 42.1734 16.6936 41.1898 15.7102Z" fill="#78A1D1"/>
<path d="M36.208 22.4344C36.0236 22.4344 35.8449 22.3748 35.6939 22.261C35.5147 22.1261 35.326 21.9599 35.1329 21.7667C34.9399 21.5739 34.7737 21.3852 34.6386 21.2058C34.4984 21.0195 34.4404 20.7906 34.4752 20.5617C34.5096 20.3355 34.6312 20.137 34.8175 20.003C35.0838 19.8116 35.4861 19.4952 36.2405 18.7405C36.9954 17.9855 37.3117 17.5835 37.503 17.3174C37.6369 17.1312 37.8353 17.0095 38.0615 16.9751C38.2906 16.9402 38.5192 16.9984 38.7056 17.1387C38.8855 17.274 39.0743 17.4405 39.2667 17.633C39.4596 17.8258 39.6258 18.0145 39.7609 18.1939C39.9013 18.3804 39.9592 18.6092 39.9243 18.8381C39.8898 19.0645 39.7682 19.2628 39.582 19.3967C39.3155 19.5884 38.9129 19.905 38.1589 20.6592C37.4045 21.4137 37.0879 21.8161 36.8964 22.0823C36.7625 22.2685 36.5641 22.3902 36.3377 22.4246C36.2945 22.4312 36.2512 22.4344 36.208 22.4344Z" fill="#9DC4E8"/>
<path d="M36.1919 16.892C36.7088 16.892 37.1279 16.473 37.1279 15.956C37.1279 15.4391 36.7088 15.02 36.1919 15.02C35.6749 15.02 35.2559 15.4391 35.2559 15.956C35.2559 16.473 35.6749 16.892 36.1919 16.892Z" fill="#C6DFF1"/>
<path d="M33.9598 17.036C34.2779 17.036 34.5358 16.7781 34.5358 16.46C34.5358 16.1419 34.2779 15.884 33.9598 15.884C33.6417 15.884 33.3838 16.1419 33.3838 16.46C33.3838 16.7781 33.6417 17.036 33.9598 17.036Z" fill="#C6DFF1"/>
<path d="M34.392 15.164C34.6305 15.164 34.824 14.9706 34.824 14.732C34.824 14.4935 34.6305 14.3 34.392 14.3C34.1534 14.3 33.96 14.4935 33.96 14.732C33.96 14.9706 34.1534 15.164 34.392 15.164Z" fill="#C6DFF1"/>
<path d="M36.1921 16.964C35.6362 16.964 35.1841 16.5117 35.1841 15.956C35.1841 15.4003 35.6362 14.948 36.1921 14.948C36.7479 14.948 37.2001 15.4003 37.2001 15.956C37.2001 16.5117 36.7479 16.964 36.1921 16.964ZM36.1921 15.092C35.7156 15.092 35.3281 15.4795 35.3281 15.956C35.3281 16.4325 35.7156 16.82 36.1921 16.82C36.6686 16.82 37.0561 16.4325 37.0561 15.956C37.0561 15.4795 36.6686 15.092 36.1921 15.092Z" fill="#1F212B"/>
<path d="M36.048 25.172C35.1486 25.172 34.1939 24.6734 33.2102 23.6898C32.2267 22.7065 31.728 21.7517 31.728 20.852C31.728 20.3038 31.9923 19.7827 32.4348 19.4578L32.5023 19.4087C32.8223 19.1766 33.6723 18.56 34.8662 17.3661L35.0204 17.2098C35.0763 17.1532 35.1675 17.1525 35.2241 17.2084C35.2808 17.2641 35.2814 17.3554 35.2256 17.412L35.07 17.5697C33.8599 18.7797 32.9965 19.406 32.6715 19.6419L32.6053 19.6901C32.2363 19.961 32.016 20.3951 32.016 20.852C32.016 21.661 32.4993 22.5718 33.4138 23.4862C34.3415 24.4137 35.2278 24.884 36.048 24.884C36.5049 24.884 36.9392 24.6639 37.21 24.2948L37.2579 24.229C37.4936 23.904 38.1198 23.0407 39.3304 21.8302C40.5404 20.6202 41.4037 19.9939 41.7287 19.7581L41.7949 19.7098C42.1637 19.4391 42.384 19.0049 42.384 18.548C42.384 17.739 41.9008 16.8282 40.9862 15.9138C40.0586 14.9863 39.1723 14.516 38.352 14.516C38.0316 14.516 37.7269 14.6211 37.4707 14.8203C37.408 14.869 37.3177 14.8579 37.2687 14.7948C37.2199 14.732 37.2313 14.6416 37.2941 14.5928C37.6012 14.3542 37.967 14.228 38.352 14.228C39.2515 14.228 40.2062 14.7267 41.1898 15.7102C42.1734 16.6936 42.672 17.6483 42.672 18.548C42.672 19.0962 42.4078 19.6174 41.9653 19.9422L41.8977 19.9913C41.5778 20.2235 40.7277 20.8401 39.5338 22.034C38.3395 23.2285 37.723 24.0782 37.4909 24.3982L37.4421 24.4654C37.1174 24.9078 36.5962 25.172 36.048 25.172Z" fill="#1F212B"/>
<path d="M33.96 17.108C33.6027 17.108 33.312 16.8173 33.312 16.46C33.312 16.1027 33.6027 15.812 33.96 15.812C34.3173 15.812 34.608 16.1027 34.608 16.46C34.608 16.8173 34.3173 17.108 33.96 17.108ZM33.96 15.956C33.6821 15.956 33.456 16.1821 33.456 16.46C33.456 16.7379 33.6821 16.964 33.96 16.964C34.2379 16.964 34.464 16.7379 34.464 16.46C34.464 16.1821 34.2379 15.956 33.96 15.956Z" fill="#1F212B"/>
<path d="M34.3922 15.236C34.1143 15.236 33.8882 15.0099 33.8882 14.732C33.8882 14.4541 34.1143 14.228 34.3922 14.228C34.6701 14.228 34.8962 14.4541 34.8962 14.732C34.8962 15.0099 34.6701 15.236 34.3922 15.236ZM34.3922 14.372C34.1938 14.372 34.0322 14.5335 34.0322 14.732C34.0322 14.9306 34.1938 15.092 34.3922 15.092C34.5906 15.092 34.7522 14.9306 34.7522 14.732C34.7522 14.5335 34.5906 14.372 34.3922 14.372Z" fill="#1F212B"/>
<path d="M36.208 22.4344C36.0236 22.4344 35.8449 22.3748 35.6939 22.261C35.5147 22.1261 35.326 21.9599 35.1329 21.7667C34.9399 21.5739 34.7737 21.3852 34.6386 21.2058C34.4984 21.0195 34.4404 20.7907 34.4752 20.5617C34.5096 20.3355 34.6312 20.137 34.8175 20.003C35.0838 19.8116 35.4861 19.4952 36.2405 18.7405L36.3564 18.6236C36.3845 18.5954 36.43 18.5951 36.4582 18.623C36.4866 18.6508 36.4869 18.6965 36.459 18.7248L36.3423 18.8422C35.5806 19.6041 35.1722 19.9252 34.9016 20.1198C34.7469 20.2308 34.6461 20.3955 34.6175 20.5833C34.5885 20.7735 34.6369 20.9639 34.7536 21.119C34.8845 21.2929 35.0463 21.4765 35.2345 21.6646C35.4229 21.8531 35.6065 22.0149 35.7804 22.1457C35.9355 22.2625 36.126 22.3106 36.3161 22.2818C36.5039 22.2533 36.6685 22.1525 36.7796 21.9978C36.9745 21.7269 37.2956 21.3184 38.0571 20.5569C38.8184 19.7956 39.2271 19.4742 39.4979 19.2794C39.6524 19.1684 39.7532 19.0036 39.7819 18.8158C39.8108 18.6256 39.7625 18.4352 39.6458 18.2802C39.5148 18.1059 39.3529 17.9225 39.165 17.7345C39.0472 17.6168 38.9309 17.5095 38.8093 17.4067C38.7789 17.3809 38.7752 17.3355 38.8008 17.3051C38.8265 17.275 38.872 17.2712 38.9023 17.2966C39.0271 17.402 39.1463 17.5121 39.267 17.6327C39.4596 17.8254 39.6259 18.0139 39.761 18.1936C39.9013 18.38 39.9593 18.6088 39.9245 18.8377C39.89 19.064 39.7685 19.2624 39.5822 19.3964C39.3156 19.5881 38.913 19.9048 38.159 20.6589C37.405 21.413 37.0882 21.8155 36.8966 22.082C36.7627 22.2682 36.5642 22.3899 36.3378 22.4243C36.2945 22.4312 36.2512 22.4344 36.208 22.4344Z" fill="#1F212B"/>
<path d="M36.8401 18.2964C36.8225 18.2964 36.8049 18.29 36.7911 18.2772C36.7619 18.2501 36.7603 18.2045 36.7872 18.1754C36.8952 18.0589 36.9898 17.9533 37.0736 17.8566C37.0996 17.8263 37.1452 17.8233 37.1752 17.8492C37.2053 17.8753 37.2084 17.9207 37.1825 17.9508C37.0978 18.0487 37.0021 18.1554 36.8929 18.2732C36.8787 18.2886 36.8594 18.2964 36.8401 18.2964Z" fill="#1F212B"/>
<path d="M37.4162 17.6264C37.4008 17.6264 37.3853 17.6215 37.372 17.6113C37.3406 17.5869 37.335 17.5417 37.3595 17.5103C37.4126 17.4418 37.4596 17.3787 37.5019 17.3201C37.5249 17.2877 37.5699 17.2803 37.6024 17.3037C37.6347 17.3269 37.642 17.3719 37.6188 17.4042C37.5758 17.4642 37.5277 17.5287 37.4732 17.5987C37.4588 17.6167 37.4377 17.6264 37.4162 17.6264Z" fill="#1F212B"/>
</svg>
