<svg width="30" height="30" viewBox="0 0 30 30" fill="none" xmlns="http://www.w3.org/2000/svg">
<circle cx="15" cy="15" r="15" fill="#E1464A"/>
<path d="M13.2 9C12.0362 9 11.0444 9.77785 10.6687 10.8462H6V12.6923H10.6687C11.0444 13.7606 12.0362 14.5385 13.2 14.5385C14.6805 14.5385 15.9 13.2877 15.9 11.7692C15.9 10.2508 14.6805 9 13.2 9ZM13.2 10.8462C13.7077 10.8462 14.1 11.2485 14.1 11.7692C14.1 12.29 13.7077 12.6923 13.2 12.6923C12.6923 12.6923 12.3 12.29 12.3 11.7692C12.3 11.2485 12.6923 10.8462 13.2 10.8462ZM17.7 10.8462V12.6923H24V10.8462H17.7ZM17.7 15.4615C16.5362 15.4615 15.5444 16.2394 15.1687 17.3077H6V19.1538H15.1687C15.5444 20.2222 16.5362 21 17.7 21C19.1805 21 20.4 19.7492 20.4 18.2308C20.4 16.7123 19.1805 15.4615 17.7 15.4615ZM17.7 17.3077C18.2077 17.3077 18.6 17.71 18.6 18.2308C18.6 18.7515 18.2077 19.1538 17.7 19.1538C17.1923 19.1538 16.8 18.7515 16.8 18.2308C16.8 17.71 17.1923 17.3077 17.7 17.3077ZM22.2 17.3077V19.1538H24V17.3077H22.2Z" fill="#FBFBFB"/>
</svg>
