<svg width="24" height="25" viewBox="0 0 24 25" fill="none" xmlns="http://www.w3.org/2000/svg">
<mask id="path-1-inside-1_527_18042" fill="white">
<path d="M13.4211 4.50977C12.9986 4.51379 12.5778 4.61079 12.186 4.80079L10.724 5.50977C10.6734 5.50223 10.6224 5.49897 10.5714 5.50001H2V15.5H2.95238L8.73921 20.8164C9.21362 21.2531 9.82446 21.4922 10.4542 21.4922C11.1434 21.4922 11.8074 21.2022 12.2939 20.6914H12.2958L15.324 17.5C15.3271 17.5 15.3302 17.5 15.3333 17.5H22V5.11329L18.237 6.4297L14.6618 4.77735C14.2666 4.59468 13.8437 4.50575 13.4211 4.50977ZM13.4379 6.50977C13.5932 6.508 13.7498 6.54011 13.8955 6.60743L18.144 8.57032L20.0952 7.88868V15.5H17.2214L17.4018 15.3106C18.4793 14.176 18.415 12.2842 17.266 11.2305L13.6257 7.89259L10.551 9.07032H10.5491C10.1166 9.23588 9.65285 9.04442 9.44048 8.61524L9.32887 8.39063L12.984 6.6172C13.1284 6.54719 13.2825 6.51155 13.4379 6.50977ZM3.90476 7.50001H6.74144L7.74963 9.53712C8.3963 10.8439 9.88408 11.4537 11.202 10.9492L13.2202 10.1758L16.0141 12.7363C16.3547 13.0486 16.3718 13.563 16.0532 13.8984H16.0513L10.9472 19.2774C10.8108 19.4205 10.647 19.4922 10.4542 19.4922C10.284 19.4922 10.1223 19.4299 9.99479 19.3125L3.90476 13.7168V7.50001Z"/>
</mask>
<path d="M13.4211 4.50977L13.3831 0.509955H13.3831L13.4211 4.50977ZM12.186 4.80079L10.4408 1.20161L10.4407 1.20164L12.186 4.80079ZM10.724 5.50977L10.1335 9.46595L11.3566 9.64851L12.4693 9.10892L10.724 5.50977ZM10.5714 5.50001V9.50001H10.6122L10.6529 9.49918L10.5714 5.50001ZM2 5.50001V1.50001H-2V5.50001H2ZM2 15.5H-2V19.5H2V15.5ZM2.95238 15.5L5.65854 12.5544L4.51087 11.5H2.95238V15.5ZM8.73921 20.8164L11.4481 17.8733L11.4454 17.8708L8.73921 20.8164ZM10.4542 21.4922L10.4542 25.4922H10.4543L10.4542 21.4922ZM12.2939 20.6914V16.6914H10.5796L9.39735 17.9328L12.2939 20.6914ZM12.2958 20.6914V24.6914H14.0144L15.1974 23.4447L12.2958 20.6914ZM15.324 17.5L15.3445 13.5001L13.6138 13.4912L12.4224 14.7467L15.324 17.5ZM15.3333 17.5V13.5H15.3231L15.3128 13.5001L15.3333 17.5ZM22 17.5V21.5H26V17.5H22ZM22 5.11329H26V-0.523714L20.6792 1.33765L22 5.11329ZM18.237 6.4297L16.5588 10.0607L18.029 10.7401L19.5578 10.2053L18.237 6.4297ZM14.6618 4.77735L16.34 1.14639L16.3399 1.14636L14.6618 4.77735ZM13.4379 6.50977L13.3922 2.51003H13.3922L13.4379 6.50977ZM13.8955 6.60743L12.2174 10.2384L12.2178 10.2386L13.8955 6.60743ZM18.144 8.57032L16.4663 12.2015L17.9354 12.8802L19.4631 12.3465L18.144 8.57032ZM20.0952 7.88868H24.0952V2.25431L18.7761 4.11246L20.0952 7.88868ZM20.0952 15.5V19.5H24.0952V15.5H20.0952ZM17.2214 15.5L14.3248 12.7414L7.88802 19.5H17.2214V15.5ZM17.4018 15.3106L20.2983 18.0692L20.3021 18.0652L17.4018 15.3106ZM17.266 11.2305L19.9695 8.28245L19.9693 8.28226L17.266 11.2305ZM13.6257 7.89259L16.3291 4.94437L14.5055 3.27224L12.195 4.15722L13.6257 7.89259ZM10.551 9.07032V13.0703H11.2908L11.9817 12.8057L10.551 9.07032ZM10.5491 9.07032V5.07032H9.80968L9.11912 5.33466L10.5491 9.07032ZM9.44048 8.61524L13.0256 6.84119L13.0226 6.83529L9.44048 8.61524ZM9.32887 8.39063L7.58278 4.79186L3.94991 6.5545L5.74672 10.1706L9.32887 8.39063ZM12.984 6.6172L11.2388 3.01801L11.2379 3.01842L12.984 6.6172ZM3.90476 7.50001V3.50001H-0.0952382V7.50001H3.90476ZM6.74144 7.50001L10.3264 5.72577L9.22487 3.50001H6.74144V7.50001ZM7.74963 9.53712L11.3347 7.76307L11.3346 7.76288L7.74963 9.53712ZM11.202 10.9492L12.6319 14.6849L12.6334 14.6843L11.202 10.9492ZM13.2202 10.1758L15.9228 7.2269L14.099 5.55537L11.7888 6.44067L13.2202 10.1758ZM16.0141 12.7363L18.7177 9.78832L18.7167 9.78744L16.0141 12.7363ZM16.0532 13.8984V17.8984H17.7707L18.9535 16.6531L16.0532 13.8984ZM16.0513 13.8984V9.89845H14.3328L13.1498 11.1451L16.0513 13.8984ZM10.9472 19.2774L13.8437 22.036L13.8487 22.0307L10.9472 19.2774ZM9.99479 19.3125L12.7037 16.3694L12.7012 16.3671L9.99479 19.3125ZM3.90476 13.7168H-0.0952382V15.4736L1.1984 16.6622L3.90476 13.7168ZM13.3831 0.509955C12.3707 0.519587 11.3667 0.752642 10.4408 1.20161L13.9313 8.39997C13.789 8.46894 13.6265 8.508 13.4592 8.50959L13.3831 0.509955ZM10.4407 1.20164L8.97864 1.91062L12.4693 9.10892L13.9313 8.39994L10.4407 1.20164ZM11.3145 1.5536C11.0418 1.5129 10.766 1.49521 10.4899 1.50084L10.6529 9.49918C10.4789 9.50272 10.3051 9.49157 10.1335 9.46595L11.3145 1.5536ZM10.5714 1.50001H2V9.50001H10.5714V1.50001ZM-2 5.50001V15.5H6V5.50001H-2ZM2 19.5H2.95238V11.5H2V19.5ZM0.246217 18.4456L6.03305 23.762L11.4454 17.8708L5.65854 12.5544L0.246217 18.4456ZM6.03033 23.7595C7.23139 24.865 8.80502 25.4922 10.4542 25.4922L10.4542 17.4922C10.8439 17.4922 11.1959 17.6411 11.4481 17.8733L6.03033 23.7595ZM10.4543 25.4922C12.2725 25.4922 13.9731 24.7283 15.1905 23.45L9.39735 17.9328C9.64176 17.6762 10.0143 17.4922 10.4542 17.4922L10.4543 25.4922ZM12.2939 24.6914H12.2958V16.6914H12.2939V24.6914ZM15.1974 23.4447L18.2256 20.2533L12.4224 14.7467L9.39415 17.9381L15.1974 23.4447ZM15.3035 21.5C15.3203 21.5 15.3371 21.5 15.3538 21.5L15.3128 13.5001C15.3234 13.5 15.334 13.5 15.3445 13.5001L15.3035 21.5ZM15.3333 21.5H22V13.5H15.3333V21.5ZM26 17.5V5.11329H18V17.5H26ZM20.6792 1.33765L16.9162 2.65406L19.5578 10.2053L23.3208 8.88893L20.6792 1.33765ZM19.9151 2.79874L16.34 1.14639L12.9837 8.40831L16.5588 10.0607L19.9151 2.79874ZM16.3399 1.14636C15.404 0.713837 14.3946 0.500333 13.3831 0.509955L13.4592 8.50959C13.2927 8.51118 13.1291 8.47552 12.9838 8.40835L16.3399 1.14636ZM13.4835 10.5095C13.0579 10.5144 12.6242 10.4264 12.2174 10.2384L15.5735 2.97642C14.8754 2.6538 14.1286 2.50163 13.3922 2.51003L13.4835 10.5095ZM12.2178 10.2386L16.4663 12.2015L19.8216 4.93915L15.5731 2.97626L12.2178 10.2386ZM19.4631 12.3465L21.4144 11.6649L18.7761 4.11246L16.8248 4.7941L19.4631 12.3465ZM16.0952 7.88868V15.5H24.0952V7.88868H16.0952ZM20.0952 11.5H17.2214V19.5H20.0952V11.5ZM20.1179 18.2586L20.2983 18.0692L14.5052 12.5519L14.3248 12.7414L20.1179 18.2586ZM20.3021 18.0652C22.9146 15.3146 22.7724 10.8529 19.9695 8.28245L14.5625 14.1785C14.2733 13.9133 14.1787 13.6 14.1711 13.3742C14.1635 13.148 14.2372 12.8342 14.5015 12.5559L20.3021 18.0652ZM19.9693 8.28226L16.3291 4.94437L10.9224 10.8408L14.5627 14.1787L19.9693 8.28226ZM12.195 4.15722L9.12021 5.33496L11.9817 12.8057L15.0565 11.6279L12.195 4.15722ZM10.551 5.07032H10.5491V13.0703H10.551V5.07032ZM9.11912 5.33466C10.7292 4.71835 12.3783 5.53326 13.0255 6.84119L5.8554 10.3893C6.92738 12.5556 9.50405 13.7534 11.9791 12.806L9.11912 5.33466ZM13.0226 6.83529L12.911 6.61068L5.74672 10.1706L5.85833 10.3952L13.0226 6.83529ZM11.075 11.9894L14.7301 10.216L11.2379 3.01842L7.58278 4.79186L11.075 11.9894ZM14.7292 10.2164C14.3417 10.4043 13.9153 10.5046 13.4835 10.5095L13.3922 2.51003C12.6497 2.51851 11.915 2.69011 11.2388 3.01801L14.7292 10.2164ZM3.90476 11.5H6.74144V3.50001H3.90476V11.5ZM3.15646 9.27425L4.16465 11.3114L11.3346 7.76288L10.3264 5.72577L3.15646 9.27425ZM4.16455 11.3112C5.67619 14.3659 9.28235 15.967 12.6319 14.6849L9.77216 7.21352C10.4858 6.94037 11.1164 7.32193 11.3347 7.76307L4.16455 11.3112ZM12.6334 14.6843L14.6516 13.9109L11.7888 6.44067L9.77062 7.21411L12.6334 14.6843ZM10.5176 13.1247L13.3115 15.6852L18.7167 9.78744L15.9228 7.2269L10.5176 13.1247ZM13.3106 15.6844C11.9975 14.4801 11.9363 12.4247 13.1529 11.1438L18.9535 16.6531C20.8074 14.7012 20.7119 11.6171 18.7177 9.78832L13.3106 15.6844ZM16.0532 9.89845H16.0513V17.8984H16.0532V9.89845ZM13.1498 11.1451L8.04561 16.524L13.8487 22.0307L18.9529 16.6518L13.1498 11.1451ZM8.05062 16.5187C8.31041 16.246 8.66597 15.9713 9.12247 15.7721C9.58166 15.5718 10.0418 15.4922 10.4542 15.4922V23.4922C11.7789 23.4922 12.9784 22.9446 13.8437 22.036L8.05062 16.5187ZM10.4542 15.4922C11.2849 15.4922 12.0908 15.8053 12.7037 16.3694L7.28591 22.2556C8.15376 23.0544 9.28309 23.4922 10.4542 23.4922V15.4922ZM12.7012 16.3671L6.61112 10.7714L1.1984 16.6622L7.28843 22.2579L12.7012 16.3671ZM7.90476 13.7168V7.50001H-0.095238V13.7168H7.90476Z" fill="#FBFBFB" mask="url(#path-1-inside-1_527_18042)"/>
</svg>
