<svg width="25" height="24" viewBox="0 0 25 24" fill="none" xmlns="http://www.w3.org/2000/svg">
<g clip-path="url(#clip0_704_1945)">
<path d="M4.5 4C3.4 4 2.5 4.9 2.5 6V18C2.5 19.1 3.4 20 4.5 20H11.7949C11.6059 19.366 11.5 18.695 11.5 18C11.5 14.134 14.634 11 18.5 11C19.988 11 21.366 11.4678 22.5 12.2598V8C22.5 6.9 21.6 6 20.5 6H12.5L10.5 4H4.5ZM18.5 13C15.7 13 13.5 15.2 13.5 18C13.5 20.8 15.7 23 18.5 23C19.5 23 20.5008 22.6992 21.3008 22.1992L23.0996 24L24.5 22.5996L22.6992 20.8008C23.1992 20.0008 23.5 19 23.5 18C23.5 15.2 21.3 13 18.5 13ZM18.5 15C20.2 15 21.5 16.3 21.5 18C21.5 19.7 20.2 21 18.5 21C16.8 21 15.5 19.7 15.5 18C15.5 16.3 16.8 15 18.5 15Z" fill="white"/>
</g>
<defs>
<clipPath id="clip0_704_1945">
<rect width="24" height="24" fill="white" transform="translate(0.5)"/>
</clipPath>
</defs>
</svg>
