<svg width="24" height="24" viewBox="0 0 24 24" fill="none" xmlns="http://www.w3.org/2000/svg">
<path d="M4.20703 2.79297L2.79297 4.20703L5.08203 6.49609C2.41519 8.64041 1.16084 11.4162 1.08008 11.6055L0.912109 12L1.08008 12.3945C1.21308 12.7055 4.428 20 12 20C14.0663 20 15.7972 19.4495 17.2383 18.6523L19.793 21.207L21.207 19.793L4.20703 2.79297ZM12 4C10.789 4 9.70003 4.20062 8.70703 4.51562L10.3535 6.16211C10.8745 6.06311 11.419 6 12 6C17.396 6 20.1676 10.5881 20.8906 11.9961C20.5966 12.5591 19.9524 13.652 18.9434 14.752L20.3691 16.1777C22.0491 14.3597 22.8549 12.5455 22.9199 12.3945L23.0879 12L22.9199 11.6055C22.7869 11.2945 19.572 4 12 4ZM6.51172 7.92578L8.5625 9.97656C8.20795 10.5691 8 11.2589 8 12C8 14.206 9.794 16 12 16C12.7411 16 13.4309 15.7921 14.0234 15.4375L15.748 17.1621C14.6743 17.6712 13.4283 18 12 18C6.604 18 3.83238 13.4119 3.10938 12.0039C3.525 11.2079 4.64024 9.36282 6.51172 7.92578ZM12.2129 8.02148L15.9785 11.7871C15.8695 9.75411 14.2459 8.13048 12.2129 8.02148ZM10.0742 11.4883L12.5117 13.9258C12.348 13.9698 12.1779 14 12 14C10.897 14 10 13.103 10 12C10 11.8221 10.0302 11.652 10.0742 11.4883Z" fill="#B4B4B4"/>
</svg>
