<svg width="24" height="24" viewBox="0 0 24 24" fill="none" xmlns="http://www.w3.org/2000/svg">
    <defs>
        <clipPath id="clip0_864_4559">
            <rect width="24" height="24" rx="12" fill="white" />
        </clipPath>
    </defs>
    <g clip-path="url(#clip0_864_4559)">
        <path d="M0 0H24V24H0V0Z" fill="#FFB700" />
        <path d="M1.00079 11.9995L4.30079 1.33447H7.60079V22.6645H4.30079L1.00079 11.9995Z" fill="#FF5B00" />
        <path d="M1.00079 1.33447H4.30079V22.6645H1.00079V1.33447Z" fill="#005641" />
        <path d="M8.59924 1.33447H23.1005V22.6645H8.59924V1.33447Z" fill="#8D2029" />
        <path
            d="M21.7242 20.4312C21.7242 20.4312 21.8592 20.7962 22.0092 20.9512C22.2342 21.1712 22.6842 21.1512 22.883 21.4162C23.1117 21.7212 22.8642 22.1262 22.8642 22.1662L22.8792 22.3762C22.8792 22.3762 22.7217 22.3762 22.6542 22.3912C22.5567 22.4112 22.5192 22.5212 22.3317 22.5062C21.8705 22.4662 21.8892 21.9062 21.863 21.4312C21.8405 21.2512 21.788 21.0112 21.7542 20.8312C21.728 20.6812 21.7242 20.4312 21.7242 20.4312Z"
            fill="#FFB700" stroke="black" stroke-width="0.1375" />
        <path
            d="M9.97498 20.4312C9.97498 20.4312 9.83997 20.7962 9.68997 20.9512C9.46497 21.1712 9.01498 21.1512 8.81623 21.4162C8.58748 21.7212 8.83498 22.1262 8.83498 22.1662L8.81998 22.3762C8.81998 22.3762 8.97748 22.3762 9.04498 22.3912C9.14248 22.4112 9.17998 22.5212 9.36748 22.5062C9.82873 22.4662 9.80998 21.9062 9.83623 21.4312C9.85873 21.2512 9.91123 21.0112 9.94498 20.8312C9.97123 20.6812 9.97498 20.4312 9.97498 20.4312Z"
            fill="#FFB700" stroke="black" stroke-width="0.1375" />
        <path
            d="M21.7242 3.56885C21.7242 3.56885 21.8592 3.20385 22.0092 3.04885C22.2342 2.82885 22.6842 2.84885 22.883 2.58385C23.1117 2.27885 22.8642 1.87385 22.8642 1.83385L22.8792 1.62385C22.8792 1.62385 22.7217 1.62385 22.6542 1.60885C22.5567 1.58885 22.5192 1.47885 22.3317 1.49385C21.8705 1.53385 21.8892 2.09385 21.863 2.56885C21.8405 2.74885 21.788 2.98885 21.7542 3.16885C21.728 3.31885 21.7242 3.56885 21.7242 3.56885Z"
            fill="#FFB700" stroke="black" stroke-width="0.1375" />
        <path
            d="M9.97852 3.56885C9.97852 3.56885 9.84351 3.20385 9.69351 3.04885C9.46851 2.82885 9.01852 2.84885 8.81977 2.58385C8.59102 2.27885 8.83852 1.87385 8.83852 1.83385L8.82352 1.62385C8.82352 1.62385 8.98102 1.62385 9.04852 1.60885C9.14602 1.58885 9.18352 1.47885 9.37102 1.49385C9.83227 1.53385 9.81352 2.09385 9.83977 2.56885C9.86227 2.74885 9.91477 2.98885 9.94852 3.16885C9.97477 3.31885 9.97852 3.56885 9.97852 3.56885Z"
            fill="#FFB700" stroke="black" stroke-width="0.1375" />
        <path
            d="M13.632 16.9906L13.7182 16.9206L13.7557 16.9906C13.8045 17.0806 13.9432 17.0756 14.0332 16.9906L14.1045 16.9156L14.1645 16.9856C14.2395 17.0806 14.382 17.0806 14.4757 16.9856C14.5395 16.9256 14.5507 16.9206 14.5882 16.9706C14.6145 17.0006 14.6895 17.0306 14.7532 17.0456C14.8732 17.0656 14.8732 17.0656 14.9407 16.9256C15.0007 16.8106 15.0082 16.7656 14.997 16.6506C14.9865 16.5628 14.979 16.4744 14.9745 16.3856C14.967 16.2556 14.9707 16.2556 15.1095 16.1856C15.1783 16.1574 15.2459 16.1241 15.312 16.0856C15.3682 16.0406 15.5257 15.7956 15.5257 15.7456C15.5257 15.7356 15.4657 15.7156 15.3907 15.7056C15.0907 15.6556 15.042 15.4456 15.237 15.0556C15.5482 14.4056 15.7395 13.7806 15.7395 13.3856C15.7395 13.2056 15.7507 13.1456 15.7657 13.1856C15.837 13.3406 15.7095 14.0056 15.522 14.4856L15.447 14.6756L15.5182 14.6556C15.5557 14.6406 15.7957 14.5056 16.0432 14.3556C16.7257 13.9456 16.9582 13.8656 17.4007 13.8906C17.772 13.9106 17.9257 14.0056 18.1882 14.3706C18.327 14.5706 18.462 14.7056 18.7057 14.9106C19.2232 15.3406 19.2457 15.3806 19.272 15.8906C19.2982 16.4056 19.2832 16.4356 18.9907 16.5206C18.7395 16.5956 18.582 16.7506 18.5407 16.9706C18.5182 17.0806 18.567 17.0856 18.6907 16.9756L18.7845 16.8956L18.8257 16.9756C18.882 17.0806 18.9945 17.0806 19.0882 16.9756L19.1632 16.9006L19.2382 16.9756C19.3507 17.1006 19.5007 17.0706 19.5457 16.9156C19.5532 16.8906 19.5757 16.8956 19.6207 16.9506C19.707 17.0506 19.9207 17.0906 19.9432 17.0106C19.9507 16.9806 19.9357 16.9106 19.9057 16.8506C19.782 16.6006 19.7407 16.4856 19.7407 16.3506C19.7407 16.1606 19.7782 16.0656 19.9432 15.9156C20.1382 15.7256 20.1982 15.4856 20.0482 15.4856C19.9582 15.4856 19.8645 15.3756 19.8045 15.2006C19.6845 14.8406 19.7107 14.4406 19.8907 13.7706C20.0287 13.3764 20.098 12.9456 20.0932 12.5106C20.0932 12.1406 20.0857 12.0806 20.0257 11.8756C19.9788 11.7331 19.921 11.5974 19.8532 11.4706L19.7482 11.2856L19.8795 11.1356C20.2845 10.6906 20.202 9.96062 19.7145 9.68062C19.5645 9.59062 19.527 9.58562 19.2645 9.58562C19.1145 9.58562 18.8707 9.61562 18.7395 9.65062C18.5633 9.68779 18.3853 9.70784 18.207 9.71062C17.952 9.71062 17.907 9.70062 17.8095 9.63062C17.7082 9.56062 17.6895 9.52562 17.6707 9.35562C17.6689 9.3396 17.6642 9.3244 17.657 9.31133C17.6498 9.29827 17.6404 9.28773 17.6295 9.28062C17.592 9.26562 17.4345 9.45062 17.412 9.53062C17.397 9.57562 17.3895 9.57062 17.3557 9.51562C17.3239 9.46113 17.2986 9.40041 17.2807 9.33562C17.2432 9.17062 17.292 9.05062 17.4382 8.95562L17.5507 8.88562L17.4832 8.83062C17.3482 8.71562 17.1157 8.79562 17.0332 8.98062C17.007 9.03062 16.9807 9.08062 16.9732 9.08062C16.9657 9.08062 16.9207 9.03062 16.8757 8.96562C16.6995 8.73562 16.7595 8.39562 16.9957 8.29562C17.1195 8.24062 17.232 8.28062 17.2545 8.39562C17.292 8.56062 17.397 8.34062 17.3782 8.13562C17.367 8.00062 17.367 7.99562 17.4382 7.99562C17.5357 7.99562 17.7382 8.16562 17.8057 8.29562C17.8807 8.45062 17.8732 8.69562 17.7907 8.87562L17.727 9.01562L17.8132 8.99562C17.9332 8.96062 18.0532 8.86062 18.1132 8.73562C18.1448 8.656 18.1626 8.56792 18.1652 8.4779C18.1678 8.38788 18.1552 8.29823 18.1282 8.21562C18.072 8.08062 18.0795 8.06062 18.162 8.10562C18.297 8.18062 18.372 8.26562 18.4245 8.41062C18.477 8.54062 18.4807 8.57062 18.4545 8.71062C18.4365 8.79586 18.4087 8.87683 18.372 8.95062C18.327 9.03062 18.3232 9.04562 18.3607 9.04562C18.4282 9.04562 18.5632 8.96062 18.612 8.89562C18.6382 8.85562 18.6757 8.77062 18.6945 8.69562L18.732 8.57062L18.7695 8.67062C18.8257 8.80562 18.9382 8.93062 19.0732 9.01062C19.2195 9.09062 19.2795 9.09562 19.2045 9.02062C19.152 8.97062 19.0545 8.59562 19.0882 8.56062C19.2501 8.68145 19.3979 8.83304 19.527 9.01062C19.7407 9.26562 19.8757 9.35062 20.0707 9.35062C20.322 9.35062 20.4682 9.06062 20.3557 8.78562C20.292 8.62562 20.1457 8.60062 20.0557 8.73562C20.0182 8.80062 20.007 8.85062 20.0182 8.92062C20.0332 9.00062 20.0295 9.01062 19.9732 9.01062C19.8982 9.01062 19.7557 8.88562 19.5007 8.60062C19.1458 8.19333 18.7378 7.87641 18.297 7.66562C17.9983 7.57359 17.69 7.55159 17.3857 7.60062C17.1457 7.66062 16.8607 7.84562 16.7032 8.04062C16.4295 8.39062 16.4257 8.85562 16.692 9.28062L16.767 9.40062L16.7182 9.51062C16.6815 9.58941 16.6634 9.68102 16.6661 9.77368C16.6687 9.86634 16.6921 9.95582 16.7332 10.0306C16.7707 10.1006 16.8082 10.1556 16.8195 10.1556C16.827 10.1556 16.8345 10.1106 16.8382 10.0556C16.8457 9.92062 16.8907 9.83062 16.9657 9.79562C17.0332 9.76062 17.0782 9.78062 17.3857 9.94562C17.712 10.1156 18.2482 10.1256 18.8182 9.97562C19.0653 9.89954 19.3224 9.90297 19.5682 9.98562C19.8382 10.1356 19.8982 10.5206 19.7032 10.8106C19.617 10.9406 19.5382 10.9906 19.2645 11.0906C19.0261 11.1744 18.7784 11.1998 18.5332 11.1656C18.1282 11.1606 17.982 11.1706 17.8207 11.2156C17.637 11.2656 17.5282 11.2706 17.0032 11.2556L16.392 11.2356L16.4595 11.3056C16.4956 11.3484 16.5345 11.3869 16.5757 11.4206C16.6245 11.4556 16.6207 11.4606 16.5532 11.4956C16.5157 11.5156 16.4257 11.5306 16.3545 11.5306H16.2307L16.2157 11.6706C16.2056 11.7366 16.2056 11.8046 16.2157 11.8706C16.2307 11.9206 16.2232 11.9306 16.1857 11.9106C16.1595 11.8956 16.0882 11.8706 16.0245 11.8556C15.9601 11.8372 15.8973 11.8104 15.837 11.7756C15.7657 11.7256 15.7582 11.7256 15.732 11.7906C15.7095 11.8406 15.4995 12.0506 15.4695 12.0506C15.4559 11.9209 15.4281 11.7945 15.387 11.6756C15.3495 11.5706 15.3157 11.4506 15.3045 11.4156C15.2932 11.3606 15.2857 11.3556 15.267 11.4006C15.2557 11.4256 15.2407 11.5006 15.2295 11.5606C15.2163 11.6416 15.1935 11.7193 15.162 11.7906L15.1057 11.9006L15.0682 11.8056C15.0307 11.7056 14.9707 11.5956 14.9482 11.5956C14.9407 11.5956 14.9295 11.6256 14.922 11.6706C14.9032 11.7506 14.757 11.9856 14.7195 11.9856C14.7082 11.9856 14.697 11.9206 14.697 11.8356C14.697 11.7606 14.6857 11.6906 14.6707 11.6906C14.6557 11.6906 14.6445 11.7156 14.6445 11.7406C14.6445 11.8006 14.5207 11.9906 14.4757 11.9906C14.4607 11.9906 14.4307 12.0106 14.412 12.0406C14.367 12.1056 14.3295 12.0956 14.3482 12.0206C14.3535 11.9566 14.3484 11.8918 14.3332 11.8306L14.2957 11.6706C14.2882 11.6456 14.2432 11.6556 14.1457 11.6956C13.9957 11.7606 13.9432 11.7456 14.022 11.6656C14.052 11.6356 14.097 11.5306 14.1195 11.4356C14.1457 11.3356 14.1832 11.2506 14.202 11.2406C14.2282 11.2306 14.2282 11.2406 14.1945 11.3006C14.1728 11.3387 14.1586 11.3834 14.1532 11.4306C14.1532 11.4556 14.1345 11.5206 14.1157 11.5756C14.0932 11.6256 14.0782 11.6756 14.082 11.6806C14.0857 11.6856 14.1457 11.6556 14.2132 11.6156L14.3332 11.5356V11.6056C14.3332 11.6456 14.3482 11.7456 14.367 11.8306L14.4007 11.9806L14.4832 11.9306C14.5657 11.8806 14.6445 11.7006 14.6445 11.5556C14.6445 11.4856 14.6745 11.4956 14.6895 11.5706C14.6895 11.5906 14.712 11.6756 14.727 11.7556L14.7645 11.8956L14.8207 11.8056C14.8545 11.7556 14.892 11.6556 14.907 11.5906C14.937 11.4706 14.982 11.4156 14.982 11.5056C14.982 11.5656 15.1095 11.7956 15.132 11.7756C15.147 11.7656 15.1695 11.6806 15.1882 11.5856C15.2257 11.3856 15.282 11.2556 15.3195 11.2856C15.3345 11.2956 15.3382 11.3156 15.3307 11.3356C15.3232 11.3456 15.3532 11.4756 15.3982 11.6156C15.4308 11.7206 15.4633 11.8256 15.4957 11.9306C15.5107 11.9806 15.5257 11.9806 15.6195 11.8656C15.6757 11.7956 15.732 11.7206 15.7357 11.6956C15.747 11.6556 15.7582 11.6606 15.8107 11.7056C15.9213 11.7835 16.0424 11.8311 16.167 11.8456C16.1745 11.8356 16.182 11.7456 16.182 11.6456L16.1857 11.4606L16.2607 11.4806C16.2982 11.4956 16.3845 11.4956 16.4482 11.4806L16.5607 11.4606L16.4595 11.3606C16.4032 11.3106 16.347 11.2456 16.332 11.2156C16.3207 11.1856 16.2682 11.1556 16.212 11.1506C16.0582 11.1306 15.7845 10.9306 15.7845 10.8306C15.7845 10.8106 15.822 10.8456 15.867 10.9006C15.972 11.0256 16.1145 11.1006 16.242 11.1006H16.332L16.2757 11.0006C16.2356 10.9231 16.2099 10.834 16.2007 10.7406C16.1932 10.5906 16.182 10.5706 16.0657 10.4656C15.9983 10.4019 15.9355 10.33 15.8782 10.2506L15.8145 10.1556L15.7807 10.2706C15.762 10.3356 15.7432 10.3856 15.732 10.3856C15.7245 10.3856 15.687 10.3456 15.657 10.3006C15.6359 10.268 15.6104 10.2409 15.582 10.2206C15.5707 10.2206 15.5445 10.2806 15.5145 10.3556L15.462 10.4906L15.4245 10.4156C15.3911 10.3543 15.3534 10.2974 15.312 10.2456C15.267 10.1956 15.2482 10.1556 15.2632 10.1556C15.2782 10.1556 15.327 10.2056 15.3757 10.2706L15.4582 10.3856L15.4957 10.3006C15.5174 10.2417 15.524 10.175 15.5145 10.1106C15.4995 10.0206 15.5032 10.0156 15.5257 10.0756C15.5581 10.1321 15.5959 10.1825 15.6382 10.2256L15.7207 10.3156L15.777 10.1806C15.8332 10.0406 15.8332 10.0406 15.8557 10.1256C15.8932 10.2306 16.137 10.5006 16.3432 10.6556C16.3807 10.6806 16.3657 10.6006 16.3057 10.4056C16.2877 10.3415 16.2776 10.274 16.2757 10.2056C16.2757 10.1156 16.257 10.0756 16.1707 9.98562C16.1171 9.93991 16.0722 9.87813 16.0397 9.80522C16.0071 9.7323 15.9878 9.65025 15.9832 9.56562C15.972 9.48062 15.9495 9.39062 15.9307 9.36062C15.9082 9.31062 15.9007 9.34062 15.9082 9.49062C15.9157 9.59562 15.9045 9.72562 15.8857 9.78062L15.8557 9.88062L15.8332 9.79562C15.8182 9.75062 15.7582 9.67062 15.702 9.62062C15.6457 9.57062 15.6045 9.52062 15.612 9.51062C15.6195 9.50062 15.6795 9.54562 15.7432 9.61062C15.8445 9.71562 15.8632 9.72562 15.8782 9.68062C15.8932 9.63062 15.8782 9.40062 15.8482 9.24062C15.8332 9.16062 15.8332 9.16062 15.9082 9.26062C15.9607 9.33062 15.9907 9.42062 16.017 9.57062C16.047 9.76062 16.062 9.79562 16.1932 9.95062C16.272 10.0456 16.3432 10.1156 16.347 10.1106C16.3545 10.1006 16.362 9.86062 16.3695 9.57062C16.3845 9.01562 16.3695 8.88062 16.2682 8.71062L16.2157 8.62062L16.2982 8.50562C16.3906 8.38775 16.4524 8.23358 16.4745 8.06562L16.4895 7.93062L16.3995 8.04562C16.3245 8.14062 16.287 8.16062 16.2007 8.16062C16.1145 8.16062 16.0807 8.14062 16.0245 8.06062C15.9368 7.94815 15.83 7.86578 15.7132 7.82062C15.6682 7.80062 15.6532 7.81062 15.6532 7.85062C15.6532 7.88062 15.6307 7.96062 15.6007 8.03562L15.5482 8.16562L15.4357 8.01562C15.3645 7.93062 15.2857 7.85562 15.222 7.83562C15.0682 7.78562 15.0607 7.78562 15.0607 7.94062C15.0607 8.17562 14.9857 8.22062 14.8507 8.06562C14.7457 7.94562 14.6632 7.91562 14.4645 7.95062L14.3145 7.97062L14.3407 8.06062C14.3632 8.13562 14.3595 8.17062 14.3107 8.25562C14.232 8.39562 14.1307 8.45562 13.9732 8.45562C13.8982 8.45562 13.8082 8.47562 13.7707 8.50062C13.7332 8.52562 13.6357 8.55062 13.557 8.56062C13.482 8.57062 13.3957 8.59062 13.3695 8.60062C13.332 8.62062 13.332 8.60062 13.3432 8.49062C13.362 8.32062 13.2682 8.19062 13.1295 8.19062C12.9457 8.19062 12.8632 8.41062 12.9345 8.70062C12.9491 8.76319 12.9616 8.82658 12.972 8.89062C13.0212 9.01565 13.0873 9.12752 13.167 9.22062C13.2645 9.35062 13.3545 9.48562 13.3695 9.52062C13.3997 9.57276 13.4381 9.61543 13.482 9.64562L13.5645 9.70562L13.5532 9.58562C13.542 9.45562 13.5607 9.43562 13.6132 9.53062C13.632 9.56062 13.6807 9.61562 13.7182 9.64562C13.782 9.69562 13.7932 9.69562 13.7932 9.65562C13.7932 9.62562 13.8045 9.56062 13.8195 9.51062L13.8457 9.42062L13.8945 9.54562C13.9207 9.61562 14.007 9.77062 14.0857 9.89562C14.2395 10.1306 14.337 10.3956 14.2882 10.4556C14.2657 10.4806 14.2132 10.4806 14.1007 10.4506C14.0182 10.4306 13.9132 10.4156 13.8682 10.4256C13.782 10.4406 13.7745 10.4256 13.8307 10.3356C13.887 10.2356 13.8757 10.2206 13.7632 10.2206C13.632 10.2206 13.3057 10.1356 13.1782 10.0706C13.0582 10.0056 13.0282 10.0206 12.9907 10.1756L12.927 10.4556L12.8895 10.6056L13.0245 10.5906C13.0941 10.5809 13.163 10.5642 13.2307 10.5406C13.2573 10.5288 13.2853 10.5237 13.3132 10.5256C13.3207 10.5306 13.302 10.5906 13.2757 10.6606L13.2232 10.7806L13.3057 10.7606C13.3507 10.7456 13.4182 10.7156 13.4557 10.6906C13.5232 10.6506 13.5307 10.6506 13.5832 10.7656C13.647 10.9006 13.6957 10.8956 13.707 10.7506C13.7182 10.6006 13.7557 10.6206 13.827 10.8206C13.8945 11.0106 13.962 11.0806 13.977 10.9706C13.9807 10.9306 14.0145 10.8706 14.0557 10.8306C14.1382 10.7556 14.1982 10.7806 14.232 10.8956C14.2695 11.0206 14.187 11.1456 13.9545 11.3356C13.7392 11.4941 13.5539 11.7162 13.4128 11.9849C13.2718 12.2535 13.1787 12.5616 13.1407 12.8856C13.0695 13.4756 13.2907 14.0856 13.7257 14.5306C13.9357 14.7406 14.2695 14.9606 14.247 14.8806C14.157 14.5156 14.1607 13.8306 14.2507 13.7156C14.2657 13.6956 14.262 13.7656 14.2395 13.8706C14.1645 14.2656 14.202 14.5756 14.3895 15.3056C14.5545 15.9656 14.532 16.2506 14.292 16.4356C14.217 16.4956 14.1682 16.5056 13.962 16.5006C13.737 16.5006 13.7107 16.5006 13.6395 16.5806C13.5533 16.6979 13.4969 16.8483 13.4782 17.0106C13.4782 17.0756 13.5307 17.0656 13.6282 16.9906H13.632Z"
            fill="#FFB700" stroke="black" stroke-width="0.7" />
        <path
            d="M17.2693 16.9759L17.363 16.8959L17.4268 16.9759C17.5093 17.0809 17.6105 17.0759 17.6893 16.9709C17.7268 16.9209 17.7568 16.8909 17.7605 16.8959L17.7943 16.9759C17.813 17.0209 17.8543 17.0409 17.9293 17.0509C18.0155 17.0559 18.0418 17.0509 18.0793 16.9809L18.1168 16.8959L18.2105 16.9759C18.4655 17.1959 18.6005 16.9659 18.4843 16.5109C18.428 16.2809 18.4618 16.1509 18.6455 15.8609C18.7243 15.7359 18.788 15.6009 18.788 15.5609C18.788 15.5059 18.773 15.4959 18.668 15.5009C18.5705 15.5009 18.5405 15.4859 18.488 15.4109C18.4018 15.2859 18.4093 15.1409 18.503 14.9809L18.578 14.8559L18.443 14.7359C18.3353 14.6298 18.2349 14.511 18.143 14.3809C18.0612 14.2521 17.9611 14.1461 17.8485 14.0689C17.7359 13.9916 17.613 13.9448 17.4868 13.9309L17.3105 13.9059V14.0859C17.3105 14.3109 17.393 14.5309 17.6105 14.9009C17.858 15.3209 17.873 15.3859 17.8843 15.9359L17.8955 16.4009L17.8205 16.4909C17.7568 16.5709 17.7305 16.5859 17.5205 16.6009C17.3218 16.6159 17.2768 16.6309 17.2205 16.7009C17.1547 16.7649 17.1092 16.8595 17.093 16.9659C17.0818 17.0409 17.0855 17.0559 17.1268 17.0559C17.153 17.0559 17.2168 17.0209 17.2693 16.9759ZM11.9368 15.7759C11.9595 15.7315 11.9725 15.6796 11.9743 15.6259C11.9743 15.5759 11.9968 15.5559 12.0943 15.5359L12.2105 15.5159L12.1355 15.4309C12.0418 15.3309 12.0305 15.2559 12.113 15.2559C12.1955 15.2559 12.3305 15.1459 12.353 15.0609C12.3643 15.0209 12.353 14.9709 12.338 14.9459C12.293 14.8759 12.2068 14.8859 12.1918 14.9659C12.173 15.0459 12.1468 15.0459 12.0793 14.9659C11.9855 14.8409 11.9818 14.5859 12.0793 14.4359C12.1205 14.3659 12.1205 14.3659 12.0643 14.2909C12.0043 14.2109 11.9593 14.0609 11.9893 14.0209C11.9968 14.0109 12.0455 14.0209 12.0943 14.0459C12.1693 14.0759 12.1955 14.0759 12.2255 14.0459C12.3118 13.9509 12.218 13.8309 12.0755 13.8609C12.0155 13.8709 11.993 13.8609 11.9855 13.8209C11.978 13.7909 11.9293 13.7509 11.873 13.7309C11.7718 13.6959 11.7718 13.6959 11.7718 13.7909C11.7718 13.8909 11.7268 13.9109 11.6443 13.8459C11.5768 13.7959 11.513 13.8359 11.513 13.9309C11.513 14.0209 11.5768 14.0609 11.7005 14.0509C11.7905 14.0459 11.7943 14.1359 11.708 14.2659L11.6443 14.3659L11.693 14.4609C11.768 14.6009 11.7605 14.8359 11.6818 14.9559L11.618 15.0459L11.5768 14.9709C11.5168 14.8709 11.438 14.8759 11.4155 14.9859C11.4043 15.0559 11.4155 15.0859 11.483 15.1659C11.528 15.2159 11.5955 15.2559 11.6293 15.2559C11.7155 15.2559 11.7118 15.3509 11.6218 15.4409L11.5468 15.5159L11.6593 15.5359C11.7193 15.5509 11.7718 15.5709 11.7718 15.5859C11.7718 15.6509 11.8468 15.8459 11.8693 15.8459C11.8843 15.8459 11.9143 15.8109 11.9368 15.7709V15.7759Z"
            fill="#FFB700" stroke="black" stroke-width="0.7" />
        <path
            d="M13.3693 14.9462C13.4706 14.8962 13.6881 14.6462 13.6881 14.5912C13.6881 14.5712 13.6281 14.4812 13.5531 14.3912C13.4031 14.2112 13.2343 13.8962 13.1893 13.7162C13.1668 13.6162 13.0581 13.4563 12.7506 13.0563L12.3418 12.5312L12.2256 12.5712C12.1581 12.5912 12.0793 12.6113 12.0493 12.6113C11.9931 12.6113 11.9931 12.6112 12.0681 12.6912L12.1431 12.7712L12.2556 12.6912C12.3568 12.6112 12.3606 12.6112 12.3718 12.6762C12.3793 12.7112 12.3643 12.7762 12.3343 12.8212C12.3081 12.8662 12.2931 12.9213 12.2968 12.9363C12.3081 12.9513 12.2818 12.9862 12.2406 13.0162C12.1656 13.0662 12.1093 13.2312 12.1693 13.2312C12.2256 13.2312 12.3456 13.0312 12.3306 12.9662C12.3231 12.9312 12.3306 12.8963 12.3381 12.8863C12.3868 12.8513 12.3831 13.0063 12.3381 13.0863C12.3081 13.1263 12.2931 13.1762 12.3006 13.1962C12.3081 13.2112 12.2818 13.2462 12.2406 13.2762C12.1656 13.3262 12.1093 13.4912 12.1693 13.4912C12.2293 13.4912 12.3456 13.3012 12.3343 13.2312C12.3268 13.1963 12.3268 13.1562 12.3381 13.1462C12.3718 13.1262 12.3868 13.2463 12.3606 13.3063C12.3537 13.3231 12.3501 13.342 12.3501 13.3613C12.3501 13.3805 12.3537 13.3994 12.3606 13.4162C12.3868 13.4812 12.3606 13.6012 12.3118 13.6412C12.2931 13.6562 12.3043 13.6912 12.3568 13.7412C12.4318 13.8112 12.4318 13.8212 12.4318 14.1412C12.4318 14.4112 12.4393 14.4812 12.4768 14.5262C12.5143 14.5762 12.5218 14.5762 12.5218 14.5262C12.5218 14.4762 12.5968 14.4062 12.6531 14.4062C12.6718 14.4062 12.7806 14.5312 12.8968 14.6813C13.0131 14.8312 13.1368 14.9662 13.1706 14.9712L13.2531 14.9912C13.2643 14.9912 13.3168 14.9762 13.3693 14.9412V14.9462ZM12.1206 13.6412C12.1206 13.5562 11.9856 13.4612 11.8243 13.4412C11.6931 13.4162 11.6931 13.4212 11.6931 13.5063C11.6931 13.5762 11.7118 13.6063 11.8056 13.6562C11.9481 13.7413 12.1206 13.7312 12.1206 13.6412Z"
            fill="#FFB700" stroke="black" stroke-width="0.7" />
        <path
            d="M12.2668 13.6315C12.3343 13.5515 12.3643 13.4615 12.3231 13.4615C12.2781 13.4615 12.1581 13.6015 12.1581 13.6615C12.1581 13.7415 12.1806 13.7365 12.2706 13.6315H12.2668ZM12.1281 13.3765C12.1318 13.3265 12.1093 13.2965 12.0418 13.2515C11.8918 13.1665 11.7193 13.1215 11.6781 13.1665C11.5993 13.2515 11.6518 13.3615 11.7756 13.3815C11.8281 13.3865 11.8956 13.4065 11.9293 13.4265C12.0268 13.4765 12.1168 13.4515 12.1281 13.3765ZM12.1281 13.1115C12.1356 13.0465 12.1018 13.0215 11.8281 12.8915C11.6218 12.7915 11.5318 12.8415 11.5993 13.0065C11.6218 13.0615 11.6593 13.0865 11.7456 13.1065C11.8093 13.1165 11.8956 13.1415 11.9368 13.1615C12.0493 13.2115 12.1168 13.1915 12.1243 13.1115H12.1281ZM12.2631 12.8665C12.3043 12.8115 12.3381 12.7465 12.3381 12.7165C12.3381 12.6415 12.1768 12.7815 12.1543 12.8815C12.1318 12.9965 12.1731 12.9915 12.2668 12.8665H12.2631ZM12.1281 12.8515C12.1356 12.7715 12.0381 12.7015 11.8431 12.6465C11.6968 12.6015 11.6331 12.6265 11.6443 12.7165C11.6518 12.7665 11.7006 12.8015 11.8318 12.8565C12.0531 12.9465 12.1168 12.9465 12.1281 12.8515ZM12.3156 12.4815C12.5706 12.3315 12.5893 11.9565 12.3531 11.8565C12.2556 11.8165 12.1956 11.8415 12.1581 11.9265C12.1281 11.9965 12.1468 12.1165 12.1843 12.1165C12.1993 12.1165 12.2106 12.1415 12.2106 12.1665C12.2106 12.3015 11.8281 12.3565 11.6706 12.2515C11.6143 12.2165 11.5956 12.1165 11.6368 12.1165C11.6743 12.1165 11.6968 12.0165 11.6781 11.9515C11.6556 11.8515 11.5806 11.8215 11.4793 11.8615C11.2431 11.9415 11.2506 12.3115 11.4906 12.4615C11.7561 12.5914 12.0467 12.5985 12.3156 12.4815Z"
            fill="#FFB700" stroke="black" stroke-width="0.7" />
        <path
            d="M12.1615 12.1913C12.1765 12.1713 12.169 12.1413 12.1465 12.1213C12.094 12.0663 12.0978 11.9813 12.154 11.8863C12.199 11.8163 12.2028 11.7063 12.2178 10.6313C12.244 8.77635 12.349 7.38135 12.484 7.04135C12.5403 6.91135 12.5328 6.91135 12.3903 7.04135C12.2033 7.21502 12.0524 7.44895 11.9515 7.72135C11.719 8.29635 11.6403 9.07135 11.6403 10.7313C11.6403 11.6713 11.644 11.7963 11.6853 11.8813C11.7228 11.9713 11.7228 12.0013 11.7003 12.0913C11.6815 12.1463 11.674 12.2063 11.6815 12.2163C11.734 12.2813 12.109 12.2663 12.1615 12.1913ZM14.2653 10.4213C14.2765 10.4063 14.2578 10.3213 14.2278 10.2413C14.1828 10.1113 14.164 10.0913 14.1003 10.0913C13.8004 10.0566 13.508 9.9481 13.2378 9.77135C13.0465 9.65635 12.9753 9.63135 12.9565 9.66135C12.8965 9.73635 12.994 9.91135 13.144 10.0063C13.3647 10.1124 13.596 10.1747 13.8303 10.1913C13.9315 10.1913 13.9353 10.1913 13.8753 10.3063L13.8378 10.3863H13.9503L14.1378 10.4163C14.2503 10.4513 14.2503 10.4513 14.2653 10.4213Z"
            fill="#FFB700" stroke="black" stroke-width="0.7" />
        <path
            d="M15.4509 11.2559C15.4509 11.2059 15.3422 11.0809 15.2372 10.9959C15.1509 10.9309 15.1359 10.9259 15.1359 10.9809C15.1359 11.0609 15.0834 11.2659 15.0609 11.2659C15.0497 11.2659 15.0309 11.2259 15.0234 11.1809C15.0122 11.1309 14.9709 11.0309 14.9297 10.9659L14.8547 10.8409L14.8022 10.9559C14.7497 11.0659 14.6559 11.1709 14.6147 11.1709C14.6072 11.1709 14.6034 11.1109 14.6147 11.0459C14.6184 10.9659 14.6147 10.9059 14.5959 10.8959C14.5809 10.8809 14.5659 10.8859 14.5659 10.9059C14.5659 10.9459 14.4384 11.1359 14.4159 11.1359C14.4009 11.1359 14.3859 11.0859 14.3784 11.0159L14.3484 10.7759C14.3409 10.7159 14.3597 10.7559 14.3859 10.8759L14.4459 11.0809L14.5059 10.9559C14.5331 10.9043 14.5534 10.8468 14.5659 10.7859C14.5659 10.7609 14.5772 10.7509 14.5922 10.7609C14.6072 10.7709 14.6259 10.8559 14.6334 10.9459L14.6522 11.1159L14.7197 11.0159C14.755 10.9658 14.7876 10.9123 14.8172 10.8559C14.8434 10.7959 14.8472 10.7959 14.9034 10.8559C14.9334 10.8959 14.9822 10.9809 15.0122 11.0509C15.0422 11.1209 15.0684 11.1709 15.0722 11.1659L15.0947 11.0059L15.1097 10.8559C15.1134 10.8309 15.3122 11.0059 15.3872 11.0909C15.4322 11.1459 15.4772 11.1859 15.4847 11.1759C15.4922 11.1659 15.4997 11.0859 15.4997 10.9909C15.4997 10.8509 15.4884 10.8109 15.4247 10.7359C15.3497 10.6459 15.3497 10.6459 15.3197 10.7109C15.2822 10.7959 15.2409 10.7959 15.2409 10.7109C15.2409 10.6509 15.0984 10.4159 15.0647 10.4159C15.0534 10.4159 15.0234 10.4659 14.9972 10.5309C14.9709 10.5959 14.9409 10.6459 14.9334 10.6459C14.8959 10.6459 14.6972 10.3459 14.6972 10.2959C14.6972 10.2559 14.7122 10.2659 14.7459 10.3359C14.7794 10.4016 14.8184 10.462 14.8622 10.5159C14.9372 10.6059 14.9672 10.5859 14.9972 10.4109C15.0084 10.3609 15.0234 10.3209 15.0347 10.3209C15.0647 10.3209 15.2372 10.5659 15.2597 10.6459L15.2859 10.7259L15.3047 10.6359C15.3272 10.5259 15.3534 10.5259 15.3909 10.6259C15.4059 10.6659 15.4809 10.7559 15.5559 10.8159L15.6947 10.9359L15.7209 10.8159C15.7359 10.7509 15.7584 10.7159 15.7659 10.7359C15.7809 10.7609 15.7434 10.9609 15.7172 11.0009C15.7172 11.0059 15.6684 10.9709 15.6197 10.9259L15.5259 10.8359V10.9959C15.5259 11.0809 15.5184 11.1859 15.5109 11.2259C15.4922 11.3059 15.4472 11.3259 15.4472 11.2559H15.4509ZM14.7572 9.98594C14.5922 9.80594 14.5697 9.76594 14.5697 9.67594L14.5734 9.58594L14.5847 9.67094C14.5922 9.72094 14.6372 9.80094 14.6897 9.86094L14.7872 9.96094L14.8434 9.87094C14.8772 9.82094 14.9034 9.76094 14.9034 9.74094C14.9034 9.68094 14.9109 9.68594 15.0234 9.81594C15.1209 9.93094 15.1247 9.93094 15.1359 9.85594C15.1472 9.81594 15.1434 9.73594 15.1359 9.68094C15.0984 9.53094 15.1059 9.51094 15.1547 9.60094L15.2447 9.74094C15.2822 9.79594 15.2859 9.79594 15.3009 9.72594C15.3122 9.68094 15.3197 9.60594 15.3197 9.55594V9.46094L15.4059 9.59594C15.4922 9.72594 15.4997 9.73094 15.5222 9.66594C15.5409 9.63094 15.5522 9.54594 15.5522 9.48094C15.5522 9.39094 15.5597 9.37094 15.5747 9.40094C15.6047 9.46094 15.5859 9.61094 15.5334 9.74094L15.4959 9.84094L15.4472 9.73594C15.3834 9.60594 15.3609 9.60594 15.3234 9.74594C15.2859 9.88094 15.2597 9.89094 15.2222 9.78594C15.1997 9.72094 15.1922 9.73094 15.1772 9.87094L15.1584 10.0209L15.0459 9.90594L14.9334 9.79094L14.8772 9.86594C14.8509 9.91094 14.8284 9.96594 14.8284 9.98594C14.8284 10.0359 14.7984 10.0359 14.7572 9.98594ZM16.2197 9.30594C16.1634 9.23594 16.1222 9.16594 16.1297 9.15594C16.1409 9.14094 16.1484 9.13594 16.1522 9.14594C16.1885 9.19751 16.226 9.24753 16.2647 9.29594C16.3922 9.47594 16.3659 9.48094 16.2234 9.30594H16.2197ZM14.2697 9.03594C14.2172 8.93594 14.2209 8.87594 14.2884 8.76594C14.3334 8.69094 14.3559 8.68094 14.4384 8.69594C14.4947 8.70094 14.6109 8.76594 14.6972 8.83594C14.8218 8.93522 14.9645 8.9871 15.1097 8.98594L15.0459 8.84594C14.9634 8.68094 14.9634 8.66094 15.0609 8.76094C15.1584 8.86594 15.2747 8.89594 15.5372 8.88594L15.6647 8.88094L15.5897 8.78094C15.4884 8.64594 15.5184 8.63094 15.6347 8.76594C15.7397 8.89094 15.7359 8.90094 15.5072 8.93094C15.4118 8.94378 15.3155 8.93533 15.2222 8.90594C15.0947 8.85594 15.0872 8.86094 15.1134 8.91594C15.1284 8.95094 15.1509 8.97594 15.1622 8.97594C15.1772 8.97594 15.1884 8.99594 15.1884 9.01594C15.1884 9.08094 14.9109 9.02094 14.7759 8.93594C14.4759 8.73094 14.4384 8.71094 14.3634 8.74094C14.3434 8.75118 14.3252 8.76663 14.3097 8.78637C14.2943 8.80612 14.2819 8.82976 14.2734 8.85594C14.2247 9.02094 14.4009 9.15094 14.4722 9.00594C14.4947 8.96094 14.4909 8.93594 14.4534 8.88094C14.4009 8.81094 14.4084 8.80094 14.4759 8.83094C14.5247 8.85594 14.5284 9.01094 14.4834 9.07094C14.4347 9.13594 14.3147 9.12094 14.2697 9.03594Z"
            fill="black" stroke="black" stroke-width="0.7" />
        <path
            d="M15.4655 8.63207C15.428 8.58207 15.458 8.57207 15.6268 8.56707C15.8368 8.56207 15.9643 8.51707 16.1143 8.38707C16.2343 8.28707 16.268 8.30707 16.1518 8.41207C16.0505 8.51207 15.8893 8.58207 15.728 8.60207L15.5368 8.63707C15.5068 8.64707 15.473 8.64207 15.4618 8.63207H15.4655Z"
            fill="black" stroke="black" stroke-width="0.7" />
        <path
            d="M13.632 16.9906L13.7182 16.9206L13.7557 16.9906C13.8045 17.0806 13.9432 17.0756 14.0332 16.9906L14.1045 16.9156L14.1645 16.9856C14.2395 17.0806 14.382 17.0806 14.4757 16.9856C14.5395 16.9256 14.5507 16.9206 14.5882 16.9706C14.6145 17.0006 14.6895 17.0306 14.7532 17.0456C14.8732 17.0656 14.8732 17.0656 14.9407 16.9256C15.0007 16.8106 15.0082 16.7656 14.997 16.6506C14.9865 16.5628 14.979 16.4744 14.9745 16.3856C14.967 16.2556 14.9707 16.2556 15.1095 16.1856C15.1783 16.1574 15.2459 16.1241 15.312 16.0856C15.3682 16.0406 15.5257 15.7956 15.5257 15.7456C15.5257 15.7356 15.4657 15.7156 15.3907 15.7056C15.0907 15.6556 15.042 15.4456 15.237 15.0556C15.5482 14.4056 15.7395 13.7806 15.7395 13.3856C15.7395 13.2056 15.7507 13.1456 15.7657 13.1856C15.837 13.3406 15.7095 14.0056 15.522 14.4856L15.447 14.6756L15.5182 14.6556C15.5557 14.6406 15.7957 14.5056 16.0432 14.3556C16.7257 13.9456 16.9582 13.8656 17.4007 13.8906C17.772 13.9106 17.9257 14.0056 18.1882 14.3706C18.327 14.5706 18.462 14.7056 18.7057 14.9106C19.2232 15.3406 19.2457 15.3806 19.272 15.8906C19.2982 16.4056 19.2832 16.4356 18.9907 16.5206C18.7395 16.5956 18.582 16.7506 18.5407 16.9706C18.5182 17.0806 18.567 17.0856 18.6907 16.9756L18.7845 16.8956L18.8257 16.9756C18.882 17.0806 18.9945 17.0806 19.0882 16.9756L19.1632 16.9006L19.2382 16.9756C19.3507 17.1006 19.5007 17.0706 19.5457 16.9156C19.5532 16.8906 19.5757 16.8956 19.6207 16.9506C19.707 17.0506 19.9207 17.0906 19.9432 17.0106C19.9507 16.9806 19.9357 16.9106 19.9057 16.8506C19.782 16.6006 19.7407 16.4856 19.7407 16.3506C19.7407 16.1606 19.7782 16.0656 19.9432 15.9156C20.1382 15.7256 20.1982 15.4856 20.0482 15.4856C19.9582 15.4856 19.8645 15.3756 19.8045 15.2006C19.6845 14.8406 19.7107 14.4406 19.8907 13.7706C20.0287 13.3764 20.098 12.9456 20.0932 12.5106C20.0932 12.1406 20.0857 12.0806 20.0257 11.8756C19.9788 11.7331 19.921 11.5974 19.8532 11.4706L19.7482 11.2856L19.8795 11.1356C20.2845 10.6906 20.202 9.96062 19.7145 9.68062C19.5645 9.59062 19.527 9.58562 19.2645 9.58562C19.1145 9.58562 18.8707 9.61562 18.7395 9.65062C18.5633 9.68779 18.3853 9.70784 18.207 9.71062C17.952 9.71062 17.907 9.70062 17.8095 9.63062C17.7082 9.56062 17.6895 9.52562 17.6707 9.35562C17.6689 9.3396 17.6642 9.3244 17.657 9.31133C17.6498 9.29827 17.6404 9.28773 17.6295 9.28062C17.592 9.26562 17.4345 9.45062 17.412 9.53062C17.397 9.57562 17.3895 9.57062 17.3557 9.51562C17.3239 9.46113 17.2986 9.40041 17.2807 9.33562C17.2432 9.17062 17.292 9.05062 17.4382 8.95562L17.5507 8.88562L17.4832 8.83062C17.3482 8.71562 17.1157 8.79562 17.0332 8.98062C17.007 9.03062 16.9807 9.08062 16.9732 9.08062C16.9657 9.08062 16.9207 9.03062 16.8757 8.96562C16.6995 8.73562 16.7595 8.39562 16.9957 8.29562C17.1195 8.24062 17.232 8.28062 17.2545 8.39562C17.292 8.56062 17.397 8.34062 17.3782 8.13562C17.367 8.00062 17.367 7.99562 17.4382 7.99562C17.5357 7.99562 17.7382 8.16562 17.8057 8.29562C17.8807 8.45062 17.8732 8.69562 17.7907 8.87562L17.727 9.01562L17.8132 8.99562C17.9332 8.96062 18.0532 8.86062 18.1132 8.73562C18.1448 8.656 18.1626 8.56792 18.1652 8.4779C18.1678 8.38788 18.1552 8.29823 18.1282 8.21562C18.072 8.08062 18.0795 8.06062 18.162 8.10562C18.297 8.18062 18.372 8.26562 18.4245 8.41062C18.477 8.54062 18.4807 8.57062 18.4545 8.71062C18.4365 8.79586 18.4087 8.87683 18.372 8.95062C18.327 9.03062 18.3232 9.04562 18.3607 9.04562C18.4282 9.04562 18.5632 8.96062 18.612 8.89562C18.6382 8.85562 18.6757 8.77062 18.6945 8.69562L18.732 8.57062L18.7695 8.67062C18.8257 8.80562 18.9382 8.93062 19.0732 9.01062C19.2195 9.09062 19.2795 9.09562 19.2045 9.02062C19.152 8.97062 19.0545 8.59562 19.0882 8.56062C19.2501 8.68145 19.3979 8.83304 19.527 9.01062C19.7407 9.26562 19.8757 9.35062 20.0707 9.35062C20.322 9.35062 20.4682 9.06062 20.3557 8.78562C20.292 8.62562 20.1457 8.60062 20.0557 8.73562C20.0182 8.80062 20.007 8.85062 20.0182 8.92062C20.0332 9.00062 20.0295 9.01062 19.9732 9.01062C19.8982 9.01062 19.7557 8.88562 19.5007 8.60062C19.1458 8.19333 18.7378 7.87641 18.297 7.66562C17.9983 7.57359 17.69 7.55159 17.3857 7.60062C17.1457 7.66062 16.8607 7.84562 16.7032 8.04062C16.4295 8.39062 16.4257 8.85562 16.692 9.28062L16.767 9.40062L16.7182 9.51062C16.6815 9.58941 16.6634 9.68102 16.6661 9.77368C16.6687 9.86634 16.6921 9.95582 16.7332 10.0306C16.7707 10.1006 16.8082 10.1556 16.8195 10.1556C16.827 10.1556 16.8345 10.1106 16.8382 10.0556C16.8457 9.92062 16.8907 9.83062 16.9657 9.79562C17.0332 9.76062 17.0782 9.78062 17.3857 9.94562C17.712 10.1156 18.2482 10.1256 18.8182 9.97562C19.0653 9.89954 19.3224 9.90297 19.5682 9.98562C19.8382 10.1356 19.8982 10.5206 19.7032 10.8106C19.617 10.9406 19.5382 10.9906 19.2645 11.0906C19.0261 11.1744 18.7784 11.1998 18.5332 11.1656C18.1282 11.1606 17.982 11.1706 17.8207 11.2156C17.637 11.2656 17.5282 11.2706 17.0032 11.2556L16.392 11.2356L16.4595 11.3056C16.4956 11.3484 16.5345 11.3869 16.5757 11.4206C16.6245 11.4556 16.6207 11.4606 16.5532 11.4956C16.5157 11.5156 16.4257 11.5306 16.3545 11.5306H16.2307L16.2157 11.6706C16.2056 11.7366 16.2056 11.8046 16.2157 11.8706C16.2307 11.9206 16.2232 11.9306 16.1857 11.9106C16.1595 11.8956 16.0882 11.8706 16.0245 11.8556C15.9601 11.8372 15.8973 11.8104 15.837 11.7756C15.7657 11.7256 15.7582 11.7256 15.732 11.7906C15.7095 11.8406 15.4995 12.0506 15.4695 12.0506C15.4559 11.9209 15.4281 11.7945 15.387 11.6756C15.3495 11.5706 15.3157 11.4506 15.3045 11.4156C15.2932 11.3606 15.2857 11.3556 15.267 11.4006C15.2557 11.4256 15.2407 11.5006 15.2295 11.5606C15.2163 11.6416 15.1935 11.7193 15.162 11.7906L15.1057 11.9006L15.0682 11.8056C15.0307 11.7056 14.9707 11.5956 14.9482 11.5956C14.9407 11.5956 14.9295 11.6256 14.922 11.6706C14.9032 11.7506 14.757 11.9856 14.7195 11.9856C14.7082 11.9856 14.697 11.9206 14.697 11.8356C14.697 11.7606 14.6857 11.6906 14.6707 11.6906C14.6557 11.6906 14.6445 11.7156 14.6445 11.7406C14.6445 11.8006 14.5207 11.9906 14.4757 11.9906C14.4607 11.9906 14.4307 12.0106 14.412 12.0406C14.367 12.1056 14.3295 12.0956 14.3482 12.0206C14.3535 11.9566 14.3484 11.8918 14.3332 11.8306L14.2957 11.6706C14.2882 11.6456 14.2432 11.6556 14.1457 11.6956C13.9957 11.7606 13.9432 11.7456 14.022 11.6656C14.052 11.6356 14.097 11.5306 14.1195 11.4356C14.1457 11.3356 14.1832 11.2506 14.202 11.2406C14.2282 11.2306 14.2282 11.2406 14.1945 11.3006C14.1728 11.3387 14.1586 11.3834 14.1532 11.4306C14.1532 11.4556 14.1345 11.5206 14.1157 11.5756C14.0932 11.6256 14.0782 11.6756 14.082 11.6806C14.0857 11.6856 14.1457 11.6556 14.2132 11.6156L14.3332 11.5356V11.6056C14.3332 11.6456 14.3482 11.7456 14.367 11.8306L14.4007 11.9806L14.4832 11.9306C14.5657 11.8806 14.6445 11.7006 14.6445 11.5556C14.6445 11.4856 14.6745 11.4956 14.6895 11.5706C14.6895 11.5906 14.712 11.6756 14.727 11.7556L14.7645 11.8956L14.8207 11.8056C14.8545 11.7556 14.892 11.6556 14.907 11.5906C14.937 11.4706 14.982 11.4156 14.982 11.5056C14.982 11.5656 15.1095 11.7956 15.132 11.7756C15.147 11.7656 15.1695 11.6806 15.1882 11.5856C15.2257 11.3856 15.282 11.2556 15.3195 11.2856C15.3345 11.2956 15.3382 11.3156 15.3307 11.3356C15.3232 11.3456 15.3532 11.4756 15.3982 11.6156C15.4308 11.7206 15.4633 11.8256 15.4957 11.9306C15.5107 11.9806 15.5257 11.9806 15.6195 11.8656C15.6757 11.7956 15.732 11.7206 15.7357 11.6956C15.747 11.6556 15.7582 11.6606 15.8107 11.7056C15.9213 11.7835 16.0424 11.8311 16.167 11.8456C16.1745 11.8356 16.182 11.7456 16.182 11.6456L16.1857 11.4606L16.2607 11.4806C16.2982 11.4956 16.3845 11.4956 16.4482 11.4806L16.5607 11.4606L16.4595 11.3606C16.4032 11.3106 16.347 11.2456 16.332 11.2156C16.3207 11.1856 16.2682 11.1556 16.212 11.1506C16.0582 11.1306 15.7845 10.9306 15.7845 10.8306C15.7845 10.8106 15.822 10.8456 15.867 10.9006C15.972 11.0256 16.1145 11.1006 16.242 11.1006H16.332L16.2757 11.0006C16.2356 10.9231 16.2099 10.834 16.2007 10.7406C16.1932 10.5906 16.182 10.5706 16.0657 10.4656C15.9983 10.4019 15.9355 10.33 15.8782 10.2506L15.8145 10.1556L15.7807 10.2706C15.762 10.3356 15.7432 10.3856 15.732 10.3856C15.7245 10.3856 15.687 10.3456 15.657 10.3006C15.6359 10.268 15.6104 10.2409 15.582 10.2206C15.5707 10.2206 15.5445 10.2806 15.5145 10.3556L15.462 10.4906L15.4245 10.4156C15.3911 10.3543 15.3534 10.2974 15.312 10.2456C15.267 10.1956 15.2482 10.1556 15.2632 10.1556C15.2782 10.1556 15.327 10.2056 15.3757 10.2706L15.4582 10.3856L15.4957 10.3006C15.5174 10.2417 15.524 10.175 15.5145 10.1106C15.4995 10.0206 15.5032 10.0156 15.5257 10.0756C15.5581 10.1321 15.5959 10.1825 15.6382 10.2256L15.7207 10.3156L15.777 10.1806C15.8332 10.0406 15.8332 10.0406 15.8557 10.1256C15.8932 10.2306 16.137 10.5006 16.3432 10.6556C16.3807 10.6806 16.3657 10.6006 16.3057 10.4056C16.2877 10.3415 16.2776 10.274 16.2757 10.2056C16.2757 10.1156 16.257 10.0756 16.1707 9.98562C16.1171 9.93991 16.0722 9.87813 16.0397 9.80522C16.0071 9.7323 15.9878 9.65025 15.9832 9.56562C15.972 9.48062 15.9495 9.39062 15.9307 9.36062C15.9082 9.31062 15.9007 9.34062 15.9082 9.49062C15.9157 9.59562 15.9045 9.72562 15.8857 9.78062L15.8557 9.88062L15.8332 9.79562C15.8182 9.75062 15.7582 9.67062 15.702 9.62062C15.6457 9.57062 15.6045 9.52062 15.612 9.51062C15.6195 9.50062 15.6795 9.54562 15.7432 9.61062C15.8445 9.71562 15.8632 9.72562 15.8782 9.68062C15.8932 9.63062 15.8782 9.40062 15.8482 9.24062C15.8332 9.16062 15.8332 9.16062 15.9082 9.26062C15.9607 9.33062 15.9907 9.42062 16.017 9.57062C16.047 9.76062 16.062 9.79562 16.1932 9.95062C16.272 10.0456 16.3432 10.1156 16.347 10.1106C16.3545 10.1006 16.362 9.86062 16.3695 9.57062C16.3845 9.01562 16.3695 8.88062 16.2682 8.71062L16.2157 8.62062L16.2982 8.50562C16.3906 8.38775 16.4524 8.23358 16.4745 8.06562L16.4895 7.93062L16.3995 8.04562C16.3245 8.14062 16.287 8.16062 16.2007 8.16062C16.1145 8.16062 16.0807 8.14062 16.0245 8.06062C15.9368 7.94815 15.83 7.86578 15.7132 7.82062C15.6682 7.80062 15.6532 7.81062 15.6532 7.85062C15.6532 7.88062 15.6307 7.96062 15.6007 8.03562L15.5482 8.16562L15.4357 8.01562C15.3645 7.93062 15.2857 7.85562 15.222 7.83562C15.0682 7.78562 15.0607 7.78562 15.0607 7.94062C15.0607 8.17562 14.9857 8.22062 14.8507 8.06562C14.7457 7.94562 14.6632 7.91562 14.4645 7.95062L14.3145 7.97062L14.3407 8.06062C14.3632 8.13562 14.3595 8.17062 14.3107 8.25562C14.232 8.39562 14.1307 8.45562 13.9732 8.45562C13.8982 8.45562 13.8082 8.47562 13.7707 8.50062C13.7332 8.52562 13.6357 8.55062 13.557 8.56062C13.482 8.57062 13.3957 8.59062 13.3695 8.60062C13.332 8.62062 13.332 8.60062 13.3432 8.49062C13.362 8.32062 13.2682 8.19062 13.1295 8.19062C12.9457 8.19062 12.8632 8.41062 12.9345 8.70062C12.9491 8.76319 12.9616 8.82658 12.972 8.89062C13.0212 9.01565 13.0873 9.12752 13.167 9.22062C13.2645 9.35062 13.3545 9.48562 13.3695 9.52062C13.3997 9.57276 13.4381 9.61543 13.482 9.64562L13.5645 9.70562L13.5532 9.58562C13.542 9.45562 13.5607 9.43562 13.6132 9.53062C13.632 9.56062 13.6807 9.61562 13.7182 9.64562C13.782 9.69562 13.7932 9.69562 13.7932 9.65562C13.7932 9.62562 13.8045 9.56062 13.8195 9.51062L13.8457 9.42062L13.8945 9.54562C13.9207 9.61562 14.007 9.77062 14.0857 9.89562C14.2395 10.1306 14.337 10.3956 14.2882 10.4556C14.2657 10.4806 14.2132 10.4806 14.1007 10.4506C14.0182 10.4306 13.9132 10.4156 13.8682 10.4256C13.782 10.4406 13.7745 10.4256 13.8307 10.3356C13.887 10.2356 13.8757 10.2206 13.7632 10.2206C13.632 10.2206 13.3057 10.1356 13.1782 10.0706C13.0582 10.0056 13.0282 10.0206 12.9907 10.1756L12.927 10.4556L12.8895 10.6056L13.0245 10.5906C13.0941 10.5809 13.163 10.5642 13.2307 10.5406C13.2573 10.5288 13.2853 10.5237 13.3132 10.5256C13.3207 10.5306 13.302 10.5906 13.2757 10.6606L13.2232 10.7806L13.3057 10.7606C13.3507 10.7456 13.4182 10.7156 13.4557 10.6906C13.5232 10.6506 13.5307 10.6506 13.5832 10.7656C13.647 10.9006 13.6957 10.8956 13.707 10.7506C13.7182 10.6006 13.7557 10.6206 13.827 10.8206C13.8945 11.0106 13.962 11.0806 13.977 10.9706C13.9807 10.9306 14.0145 10.8706 14.0557 10.8306C14.1382 10.7556 14.1982 10.7806 14.232 10.8956C14.2695 11.0206 14.187 11.1456 13.9545 11.3356C13.7392 11.4941 13.5539 11.7162 13.4128 11.9849C13.2718 12.2535 13.1787 12.5616 13.1407 12.8856C13.0695 13.4756 13.2907 14.0856 13.7257 14.5306C13.9357 14.7406 14.2695 14.9606 14.247 14.8806C14.157 14.5156 14.1607 13.8306 14.2507 13.7156C14.2657 13.6956 14.262 13.7656 14.2395 13.8706C14.1645 14.2656 14.202 14.5756 14.3895 15.3056C14.5545 15.9656 14.532 16.2506 14.292 16.4356C14.217 16.4956 14.1682 16.5056 13.962 16.5006C13.737 16.5006 13.7107 16.5006 13.6395 16.5806C13.5533 16.6979 13.4969 16.8483 13.4782 17.0106C13.4782 17.0756 13.5307 17.0656 13.6282 16.9906H13.632Z"
            fill="#FFB700" />
        <path
            d="M17.2693 16.9759L17.363 16.8959L17.4268 16.9759C17.5093 17.0809 17.6105 17.0759 17.6893 16.9709C17.7268 16.9209 17.7568 16.8909 17.7605 16.8959L17.7943 16.9759C17.813 17.0209 17.8543 17.0409 17.9293 17.0509C18.0155 17.0559 18.0418 17.0509 18.0793 16.9809L18.1168 16.8959L18.2105 16.9759C18.4655 17.1959 18.6005 16.9659 18.4843 16.5109C18.428 16.2809 18.4618 16.1509 18.6455 15.8609C18.7243 15.7359 18.788 15.6009 18.788 15.5609C18.788 15.5059 18.773 15.4959 18.668 15.5009C18.5705 15.5009 18.5405 15.4859 18.488 15.4109C18.4018 15.2859 18.4093 15.1409 18.503 14.9809L18.578 14.8559L18.443 14.7359C18.3353 14.6298 18.2349 14.511 18.143 14.3809C18.0612 14.2521 17.9611 14.1461 17.8485 14.0689C17.7359 13.9916 17.613 13.9448 17.4868 13.9309L17.3105 13.9059V14.0859C17.3105 14.3109 17.393 14.5309 17.6105 14.9009C17.858 15.3209 17.873 15.3859 17.8843 15.9359L17.8955 16.4009L17.8205 16.4909C17.7568 16.5709 17.7305 16.5859 17.5205 16.6009C17.3218 16.6159 17.2768 16.6309 17.2205 16.7009C17.1547 16.7649 17.1092 16.8595 17.093 16.9659C17.0818 17.0409 17.0855 17.0559 17.1268 17.0559C17.153 17.0559 17.2168 17.0209 17.2693 16.9759ZM11.9368 15.7759C11.9595 15.7315 11.9725 15.6796 11.9743 15.6259C11.9743 15.5759 11.9968 15.5559 12.0943 15.5359L12.2105 15.5159L12.1355 15.4309C12.0418 15.3309 12.0305 15.2559 12.113 15.2559C12.1955 15.2559 12.3305 15.1459 12.353 15.0609C12.3643 15.0209 12.353 14.9709 12.338 14.9459C12.293 14.8759 12.2068 14.8859 12.1918 14.9659C12.173 15.0459 12.1468 15.0459 12.0793 14.9659C11.9855 14.8409 11.9818 14.5859 12.0793 14.4359C12.1205 14.3659 12.1205 14.3659 12.0643 14.2909C12.0043 14.2109 11.9593 14.0609 11.9893 14.0209C11.9968 14.0109 12.0455 14.0209 12.0943 14.0459C12.1693 14.0759 12.1955 14.0759 12.2255 14.0459C12.3118 13.9509 12.218 13.8309 12.0755 13.8609C12.0155 13.8709 11.993 13.8609 11.9855 13.8209C11.978 13.7909 11.9293 13.7509 11.873 13.7309C11.7718 13.6959 11.7718 13.6959 11.7718 13.7909C11.7718 13.8909 11.7268 13.9109 11.6443 13.8459C11.5768 13.7959 11.513 13.8359 11.513 13.9309C11.513 14.0209 11.5768 14.0609 11.7005 14.0509C11.7905 14.0459 11.7943 14.1359 11.708 14.2659L11.6443 14.3659L11.693 14.4609C11.768 14.6009 11.7605 14.8359 11.6818 14.9559L11.618 15.0459L11.5768 14.9709C11.5168 14.8709 11.438 14.8759 11.4155 14.9859C11.4043 15.0559 11.4155 15.0859 11.483 15.1659C11.528 15.2159 11.5955 15.2559 11.6293 15.2559C11.7155 15.2559 11.7118 15.3509 11.6218 15.4409L11.5468 15.5159L11.6593 15.5359C11.7193 15.5509 11.7718 15.5709 11.7718 15.5859C11.7718 15.6509 11.8468 15.8459 11.8693 15.8459C11.8843 15.8459 11.9143 15.8109 11.9368 15.7709V15.7759Z"
            fill="#FFB700" />
        <path
            d="M13.3693 14.9462C13.4706 14.8962 13.6881 14.6462 13.6881 14.5912C13.6881 14.5712 13.6281 14.4812 13.5531 14.3912C13.4031 14.2112 13.2343 13.8962 13.1893 13.7162C13.1668 13.6162 13.0581 13.4563 12.7506 13.0563L12.3418 12.5312L12.2256 12.5712C12.1581 12.5912 12.0793 12.6113 12.0493 12.6113C11.9931 12.6113 11.9931 12.6112 12.0681 12.6912L12.1431 12.7712L12.2556 12.6912C12.3568 12.6112 12.3606 12.6112 12.3718 12.6762C12.3793 12.7112 12.3643 12.7762 12.3343 12.8212C12.3081 12.8662 12.2931 12.9213 12.2968 12.9363C12.3081 12.9513 12.2818 12.9862 12.2406 13.0162C12.1656 13.0662 12.1093 13.2312 12.1693 13.2312C12.2256 13.2312 12.3456 13.0312 12.3306 12.9662C12.3231 12.9312 12.3306 12.8963 12.3381 12.8863C12.3868 12.8513 12.3831 13.0063 12.3381 13.0863C12.3081 13.1263 12.2931 13.1762 12.3006 13.1962C12.3081 13.2112 12.2818 13.2462 12.2406 13.2762C12.1656 13.3262 12.1093 13.4912 12.1693 13.4912C12.2293 13.4912 12.3456 13.3012 12.3343 13.2312C12.3268 13.1963 12.3268 13.1562 12.3381 13.1462C12.3718 13.1262 12.3868 13.2463 12.3606 13.3063C12.3537 13.3231 12.3501 13.342 12.3501 13.3613C12.3501 13.3805 12.3537 13.3994 12.3606 13.4162C12.3868 13.4812 12.3606 13.6012 12.3118 13.6412C12.2931 13.6562 12.3043 13.6912 12.3568 13.7412C12.4318 13.8112 12.4318 13.8212 12.4318 14.1412C12.4318 14.4112 12.4393 14.4812 12.4768 14.5262C12.5143 14.5762 12.5218 14.5762 12.5218 14.5262C12.5218 14.4762 12.5968 14.4062 12.6531 14.4062C12.6718 14.4062 12.7806 14.5312 12.8968 14.6813C13.0131 14.8312 13.1368 14.9662 13.1706 14.9712L13.2531 14.9912C13.2643 14.9912 13.3168 14.9762 13.3693 14.9412V14.9462ZM12.1206 13.6412C12.1206 13.5562 11.9856 13.4612 11.8243 13.4412C11.6931 13.4162 11.6931 13.4212 11.6931 13.5063C11.6931 13.5762 11.7118 13.6063 11.8056 13.6562C11.9481 13.7413 12.1206 13.7312 12.1206 13.6412Z"
            fill="#FFB700" />
        <path
            d="M12.2668 13.6315C12.3343 13.5515 12.3643 13.4615 12.3231 13.4615C12.2781 13.4615 12.1581 13.6015 12.1581 13.6615C12.1581 13.7415 12.1806 13.7365 12.2706 13.6315H12.2668ZM12.1281 13.3765C12.1318 13.3265 12.1093 13.2965 12.0418 13.2515C11.8918 13.1665 11.7193 13.1215 11.6781 13.1665C11.5993 13.2515 11.6518 13.3615 11.7756 13.3815C11.8281 13.3865 11.8956 13.4065 11.9293 13.4265C12.0268 13.4765 12.1168 13.4515 12.1281 13.3765ZM12.1281 13.1115C12.1356 13.0465 12.1018 13.0215 11.8281 12.8915C11.6218 12.7915 11.5318 12.8415 11.5993 13.0065C11.6218 13.0615 11.6593 13.0865 11.7456 13.1065C11.8093 13.1165 11.8956 13.1415 11.9368 13.1615C12.0493 13.2115 12.1168 13.1915 12.1243 13.1115H12.1281ZM12.2631 12.8665C12.3043 12.8115 12.3381 12.7465 12.3381 12.7165C12.3381 12.6415 12.1768 12.7815 12.1543 12.8815C12.1318 12.9965 12.1731 12.9915 12.2668 12.8665H12.2631ZM12.1281 12.8515C12.1356 12.7715 12.0381 12.7015 11.8431 12.6465C11.6968 12.6015 11.6331 12.6265 11.6443 12.7165C11.6518 12.7665 11.7006 12.8015 11.8318 12.8565C12.0531 12.9465 12.1168 12.9465 12.1281 12.8515ZM12.3156 12.4815C12.5706 12.3315 12.5893 11.9565 12.3531 11.8565C12.2556 11.8165 12.1956 11.8415 12.1581 11.9265C12.1281 11.9965 12.1468 12.1165 12.1843 12.1165C12.1993 12.1165 12.2106 12.1415 12.2106 12.1665C12.2106 12.3015 11.8281 12.3565 11.6706 12.2515C11.6143 12.2165 11.5956 12.1165 11.6368 12.1165C11.6743 12.1165 11.6968 12.0165 11.6781 11.9515C11.6556 11.8515 11.5806 11.8215 11.4793 11.8615C11.2431 11.9415 11.2506 12.3115 11.4906 12.4615C11.7561 12.5914 12.0467 12.5985 12.3156 12.4815Z"
            fill="#FFB700" />
        <path
            d="M12.1615 12.1913C12.1765 12.1713 12.169 12.1413 12.1465 12.1213C12.094 12.0663 12.0978 11.9813 12.154 11.8863C12.199 11.8163 12.2028 11.7063 12.2178 10.6313C12.244 8.77635 12.349 7.38135 12.484 7.04135C12.5403 6.91135 12.5328 6.91135 12.3903 7.04135C12.2033 7.21502 12.0524 7.44895 11.9515 7.72135C11.719 8.29635 11.6403 9.07135 11.6403 10.7313C11.6403 11.6713 11.644 11.7963 11.6853 11.8813C11.7228 11.9713 11.7228 12.0013 11.7003 12.0913C11.6815 12.1463 11.674 12.2063 11.6815 12.2163C11.734 12.2813 12.109 12.2663 12.1615 12.1913ZM14.2653 10.4213C14.2765 10.4063 14.2578 10.3213 14.2278 10.2413C14.1828 10.1113 14.164 10.0913 14.1003 10.0913C13.8004 10.0566 13.508 9.9481 13.2378 9.77135C13.0465 9.65635 12.9753 9.63135 12.9565 9.66135C12.8965 9.73635 12.994 9.91135 13.144 10.0063C13.3647 10.1124 13.596 10.1747 13.8303 10.1913C13.9315 10.1913 13.9353 10.1913 13.8753 10.3063L13.8378 10.3863H13.9503L14.1378 10.4163C14.2503 10.4513 14.2503 10.4513 14.2653 10.4213Z"
            fill="#FFB700" />
        <path
            d="M15.4509 11.2559C15.4509 11.2059 15.3422 11.0809 15.2372 10.9959C15.1509 10.9309 15.1359 10.9259 15.1359 10.9809C15.1359 11.0609 15.0834 11.2659 15.0609 11.2659C15.0497 11.2659 15.0309 11.2259 15.0234 11.1809C15.0122 11.1309 14.9709 11.0309 14.9297 10.9659L14.8547 10.8409L14.8022 10.9559C14.7497 11.0659 14.6559 11.1709 14.6147 11.1709C14.6072 11.1709 14.6034 11.1109 14.6147 11.0459C14.6184 10.9659 14.6147 10.9059 14.5959 10.8959C14.5809 10.8809 14.5659 10.8859 14.5659 10.9059C14.5659 10.9459 14.4384 11.1359 14.4159 11.1359C14.4009 11.1359 14.3859 11.0859 14.3784 11.0159L14.3484 10.7759C14.3409 10.7159 14.3597 10.7559 14.3859 10.8759L14.4459 11.0809L14.5059 10.9559C14.5331 10.9043 14.5534 10.8468 14.5659 10.7859C14.5659 10.7609 14.5772 10.7509 14.5922 10.7609C14.6072 10.7709 14.6259 10.8559 14.6334 10.9459L14.6522 11.1159L14.7197 11.0159C14.755 10.9658 14.7876 10.9123 14.8172 10.8559C14.8434 10.7959 14.8472 10.7959 14.9034 10.8559C14.9334 10.8959 14.9822 10.9809 15.0122 11.0509C15.0422 11.1209 15.0684 11.1709 15.0722 11.1659L15.0947 11.0059L15.1097 10.8559C15.1134 10.8309 15.3122 11.0059 15.3872 11.0909C15.4322 11.1459 15.4772 11.1859 15.4847 11.1759C15.4922 11.1659 15.4997 11.0859 15.4997 10.9909C15.4997 10.8509 15.4884 10.8109 15.4247 10.7359C15.3497 10.6459 15.3497 10.6459 15.3197 10.7109C15.2822 10.7959 15.2409 10.7959 15.2409 10.7109C15.2409 10.6509 15.0984 10.4159 15.0647 10.4159C15.0534 10.4159 15.0234 10.4659 14.9972 10.5309C14.9709 10.5959 14.9409 10.6459 14.9334 10.6459C14.8959 10.6459 14.6972 10.3459 14.6972 10.2959C14.6972 10.2559 14.7122 10.2659 14.7459 10.3359C14.7794 10.4016 14.8184 10.462 14.8622 10.5159C14.9372 10.6059 14.9672 10.5859 14.9972 10.4109C15.0084 10.3609 15.0234 10.3209 15.0347 10.3209C15.0647 10.3209 15.2372 10.5659 15.2597 10.6459L15.2859 10.7259L15.3047 10.6359C15.3272 10.5259 15.3534 10.5259 15.3909 10.6259C15.4059 10.6659 15.4809 10.7559 15.5559 10.8159L15.6947 10.9359L15.7209 10.8159C15.7359 10.7509 15.7584 10.7159 15.7659 10.7359C15.7809 10.7609 15.7434 10.9609 15.7172 11.0009C15.7172 11.0059 15.6684 10.9709 15.6197 10.9259L15.5259 10.8359V10.9959C15.5259 11.0809 15.5184 11.1859 15.5109 11.2259C15.4922 11.3059 15.4472 11.3259 15.4472 11.2559H15.4509ZM14.7572 9.98594C14.5922 9.80594 14.5697 9.76594 14.5697 9.67594L14.5734 9.58594L14.5847 9.67094C14.5922 9.72094 14.6372 9.80094 14.6897 9.86094L14.7872 9.96094L14.8434 9.87094C14.8772 9.82094 14.9034 9.76094 14.9034 9.74094C14.9034 9.68094 14.9109 9.68594 15.0234 9.81594C15.1209 9.93094 15.1247 9.93094 15.1359 9.85594C15.1472 9.81594 15.1434 9.73594 15.1359 9.68094C15.0984 9.53094 15.1059 9.51094 15.1547 9.60094L15.2447 9.74094C15.2822 9.79594 15.2859 9.79594 15.3009 9.72594C15.3122 9.68094 15.3197 9.60594 15.3197 9.55594V9.46094L15.4059 9.59594C15.4922 9.72594 15.4997 9.73094 15.5222 9.66594C15.5409 9.63094 15.5522 9.54594 15.5522 9.48094C15.5522 9.39094 15.5597 9.37094 15.5747 9.40094C15.6047 9.46094 15.5859 9.61094 15.5334 9.74094L15.4959 9.84094L15.4472 9.73594C15.3834 9.60594 15.3609 9.60594 15.3234 9.74594C15.2859 9.88094 15.2597 9.89094 15.2222 9.78594C15.1997 9.72094 15.1922 9.73094 15.1772 9.87094L15.1584 10.0209L15.0459 9.90594L14.9334 9.79094L14.8772 9.86594C14.8509 9.91094 14.8284 9.96594 14.8284 9.98594C14.8284 10.0359 14.7984 10.0359 14.7572 9.98594ZM16.2197 9.30594C16.1634 9.23594 16.1222 9.16594 16.1297 9.15594C16.1409 9.14094 16.1484 9.13594 16.1522 9.14594C16.1885 9.19751 16.226 9.24753 16.2647 9.29594C16.3922 9.47594 16.3659 9.48094 16.2234 9.30594H16.2197ZM14.2697 9.03594C14.2172 8.93594 14.2209 8.87594 14.2884 8.76594C14.3334 8.69094 14.3559 8.68094 14.4384 8.69594C14.4947 8.70094 14.6109 8.76594 14.6972 8.83594C14.8218 8.93522 14.9645 8.9871 15.1097 8.98594L15.0459 8.84594C14.9634 8.68094 14.9634 8.66094 15.0609 8.76094C15.1584 8.86594 15.2747 8.89594 15.5372 8.88594L15.6647 8.88094L15.5897 8.78094C15.4884 8.64594 15.5184 8.63094 15.6347 8.76594C15.7397 8.89094 15.7359 8.90094 15.5072 8.93094C15.4118 8.94378 15.3155 8.93533 15.2222 8.90594C15.0947 8.85594 15.0872 8.86094 15.1134 8.91594C15.1284 8.95094 15.1509 8.97594 15.1622 8.97594C15.1772 8.97594 15.1884 8.99594 15.1884 9.01594C15.1884 9.08094 14.9109 9.02094 14.7759 8.93594C14.4759 8.73094 14.4384 8.71094 14.3634 8.74094C14.3434 8.75118 14.3252 8.76663 14.3097 8.78637C14.2943 8.80612 14.2819 8.82976 14.2734 8.85594C14.2247 9.02094 14.4009 9.15094 14.4722 9.00594C14.4947 8.96094 14.4909 8.93594 14.4534 8.88094C14.4009 8.81094 14.4084 8.80094 14.4759 8.83094C14.5247 8.85594 14.5284 9.01094 14.4834 9.07094C14.4347 9.13594 14.3147 9.12094 14.2697 9.03594Z"
            fill="black" />
        <path
            d="M15.4655 8.63207C15.428 8.58207 15.458 8.57207 15.6268 8.56707C15.8368 8.56207 15.9643 8.51707 16.1143 8.38707C16.2343 8.28707 16.268 8.30707 16.1518 8.41207C16.0505 8.51207 15.8893 8.58207 15.728 8.60207L15.5368 8.63707C15.5068 8.64707 15.473 8.64207 15.4618 8.63207H15.4655Z"
            fill="black" />
    </g>
    <rect x="0.0625" y="0.0625" width="23.875" height="23.875" rx="11.9375" stroke="#CED4DA" stroke-width="0.125" />
</svg>