<svg width="20" height="20" viewBox="0 0 20 20" fill="none" xmlns="http://www.w3.org/2000/svg">
<path d="M9.99996 1.6665C5.39746 1.6665 1.66663 5.39734 1.66663 9.99984H18.3333C18.3333 5.39734 14.6025 1.6665 9.99996 1.6665Z" fill="#FF3D00"/>
<path d="M18.3333 10H1.66663C1.66663 14.6025 5.39746 18.3333 9.99996 18.3333C14.6025 18.3333 18.3333 14.6025 18.3333 10Z" fill="#ECEFF1"/>
<path d="M7.75879 8.61984C7.50962 8.70609 7.24462 8.74984 6.96462 8.74984C5.65087 8.74984 4.58337 7.72609 4.58337 6.45817C4.58337 5.19025 5.65087 4.1665 6.96462 4.1665C7.24462 4.1665 7.51004 4.21025 7.75879 4.29692C6.55587 4.33775 5.59712 5.2915 5.59712 6.45859C5.59712 7.62567 6.55587 8.579 7.75879 8.61984Z" fill="#FF3D00"/>
<path d="M7.26087 6.51385L6.93712 6.27468L6.61504 6.51385L6.73879 6.12968L6.41504 5.89218H6.81546L6.93754 5.50635L7.06129 5.89218H7.46171L7.13796 6.12968L7.26087 6.51385Z" fill="#FF3D00"/>
<path d="M9.80006 6.51385L9.47631 6.27468L9.15422 6.51385L9.27797 6.12968L8.95422 5.89218H9.35464L9.47672 5.50635L9.60047 5.89218L10.0001 5.89051L9.67631 6.12801L9.80006 6.51385Z" fill="#FF3D00"/>
<path d="M8.53211 5.60711L8.20836 5.36794L7.88628 5.60711L8.01003 5.22128L7.68628 4.98544H8.0867L8.20878 4.59961L8.33253 4.98544H8.73295L8.40753 5.22128L8.53211 5.60711Z" fill="#FF3D00"/>
<path d="M7.73585 7.96355L7.4121 7.72439L7.09002 7.96355L7.21376 7.57939L6.89001 7.34189H7.29043L7.41252 6.95605L7.53626 7.34189H7.93668L7.61127 7.57939L7.73585 7.96355Z" fill="#FF3D00"/>
<path d="M9.32459 7.96355L9.00084 7.72439L8.67876 7.96355L8.80251 7.57939L8.47876 7.34189H8.87918L9.00126 6.95605L9.12501 7.34189H9.52543L9.20001 7.57939L9.32459 7.96355Z" fill="#FF3D00"/>
</svg>
