<svg width="16" height="16" viewBox="0 0 16 16" fill="none" xmlns="http://www.w3.org/2000/svg">
<path d="M7.99999 1.66675C6.32028 1.66675 4.70938 2.33401 3.52165 3.52174C2.33392 4.70947 1.66666 6.32038 1.66666 8.00008C1.66666 9.67979 2.33392 11.2907 3.52165 12.4784C4.70938 13.6662 6.32028 14.3334 7.99999 14.3334C9.67969 14.3334 11.2906 13.6662 12.4783 12.4784C13.6661 11.2907 14.3333 9.67979 14.3333 8.00008C14.3333 6.32038 13.6661 4.70947 12.4783 3.52174C11.2906 2.33401 9.67969 1.66675 7.99999 1.66675Z" fill="#039BE5"/>
<path d="M8.85732 9.67876H10.4963L10.7537 8.01376H8.85699V7.10376C8.85699 6.41209 9.08299 5.79876 9.72999 5.79876H10.7697V4.34576C10.587 4.32109 10.2007 4.26709 9.47066 4.26709C7.94632 4.26709 7.05266 5.07209 7.05266 6.90609V8.01376H5.48566V9.67876H7.05266V14.2551C7.36299 14.3018 7.67732 14.3334 7.99999 14.3334C8.29166 14.3334 8.57632 14.3068 8.85732 14.2688V9.67876Z" fill="white"/>
</svg>
