<svg width="25" height="24" viewBox="0 0 25 24" fill="none" xmlns="http://www.w3.org/2000/svg">
<path d="M12.5 3C10.294 3 8.5 4.794 8.5 7C8.5 9.206 10.294 11 12.5 11C14.706 11 16.5 9.206 16.5 7C16.5 4.794 14.706 3 12.5 3ZM12.5 5C13.603 5 14.5 5.897 14.5 7C14.5 8.103 13.603 9 12.5 9C11.397 9 10.5 8.103 10.5 7C10.5 5.897 11.397 5 12.5 5ZM9.93555 14.2637C6.95655 14.8147 3.5 16.228 3.5 18.5V21H21.5V18.5C21.5 16.228 18.0435 14.8137 15.0645 14.2637L12.5 16.8281L9.93555 14.2637ZM9.29297 16.4492L11.0859 18.2422L11.8438 19H5.5V18.5C5.5 18.071 6.79897 17.0742 9.29297 16.4492ZM15.707 16.4492C18.201 17.0742 19.5 18.071 19.5 18.5V19H13.1562L13.9141 18.2422L15.707 16.4492Z" fill="#C79697"/>
</svg>
