<svg width="24" height="24" viewBox="0 0 24 24" fill="none" xmlns="http://www.w3.org/2000/svg">
    <defs>
        <clipPath id="clip0_864_4016">
            <rect width="24" height="24" rx="12" fill="white" />
        </clipPath>
    </defs>
    <g clip-path="url(#clip0_864_4016)">
        <path d="M0 0H24V8H0V0Z" fill="#FF9933" />
        <path d="M0 8H24V16H0V8Z" fill="white" />
        <path d="M0 16H24V24H0V16Z" fill="#128807" />
        <path
            d="M11.6226 14.9895C13.3093 14.9895 14.6766 13.587 14.6766 11.857C14.6766 10.127 13.3093 8.72461 11.6226 8.72461C9.93592 8.72461 8.5686 10.127 8.5686 11.857C8.5686 13.587 9.93592 14.9895 11.6226 14.9895Z"
            fill="#000088" />
        <path
            d="M11.6232 14.5975C13.099 14.5975 14.2954 13.3703 14.2954 11.8566C14.2954 10.3429 13.099 9.11572 11.6232 9.11572C10.1473 9.11572 8.95093 10.3429 8.95093 11.8566C8.95093 13.3703 10.1473 14.5975 11.6232 14.5975Z"
            fill="white" />
        <path
            d="M11.6219 12.4054C11.917 12.4054 12.1563 12.16 12.1563 11.8573C12.1563 11.5545 11.917 11.3091 11.6219 11.3091C11.3267 11.3091 11.0874 11.5545 11.0874 11.8573C11.0874 12.16 11.3267 12.4054 11.6219 12.4054Z"
            fill="#000088" />
        <path
            d="M14.2559 12.3594C14.3311 12.3696 14.4002 12.3153 14.4101 12.2381C14.42 12.1609 14.367 12.0901 14.2918 12.0799C14.2165 12.0698 14.1475 12.1241 14.1376 12.2013C14.1277 12.2785 14.1806 12.3493 14.2559 12.3594Z"
            fill="#000088" />
        <path d="M11.624 14.6024L11.7156 12.9579L11.624 12.1748L11.5323 12.9579L11.624 14.6024Z" fill="#000088" />
        <path
            d="M14.0459 13.0362C14.1193 13.07 14.1997 13.0423 14.2254 12.9743C14.2512 12.9064 14.2125 12.824 14.1391 12.7902C14.0656 12.7564 13.9852 12.7841 13.9595 12.852C13.9338 12.9199 13.9724 13.0024 14.0459 13.0362Z"
            fill="#000088" />
        <path d="M10.9499 14.5037L11.4469 12.9552L11.5262 12.1721L11.2336 12.8932L10.9499 14.5037Z" fill="#000088" />
        <path
            d="M13.6631 13.6368C13.727 13.6881 13.8133 13.6829 13.8558 13.6251C13.8984 13.5673 13.8812 13.4788 13.8174 13.4274C13.7535 13.3761 13.6673 13.3813 13.6247 13.4392C13.5821 13.497 13.5993 13.5855 13.6631 13.6368Z"
            fill="#000088" />
        <path d="M10.2968 14.2281L11.1737 12.869L11.4566 12.1411L10.9913 12.7596L10.2968 14.2281Z" fill="#000088" />
        <path
            d="M13.1439 14.113C13.1933 14.1783 13.2795 14.1957 13.3366 14.1518C13.3937 14.1079 13.3999 14.0194 13.3506 13.9541C13.3012 13.8889 13.215 13.8715 13.1579 13.9154C13.1008 13.9593 13.0946 14.0477 13.1439 14.113Z"
            fill="#000088" />
        <path d="M9.73849 13.788L10.9344 12.7109L11.3973 12.0878L10.79 12.5616L9.73849 13.788Z" fill="#000088" />
        <path
            d="M12.5099 14.4582C12.535 14.5259 12.6154 14.5532 12.6895 14.5192C12.7637 14.4851 12.8035 14.4027 12.7785 14.335C12.7534 14.2673 12.673 14.24 12.5989 14.274C12.5247 14.308 12.4849 14.3905 12.5099 14.4582Z"
            fill="#000088" />
        <path d="M9.30168 13.2422L10.7384 12.4755L11.3646 12.0065L10.66 12.3346L9.30168 13.2422Z" fill="#000088" />
        <path
            d="M11.8275 14.6034C11.8331 14.6765 11.9022 14.7242 11.9817 14.7099C12.0612 14.6957 12.121 14.6249 12.1154 14.5518C12.1097 14.4787 12.0407 14.431 11.9612 14.4452C11.8817 14.4595 11.8218 14.5303 11.8275 14.6034Z"
            fill="#000088" />
        <path d="M9.03729 12.5874L10.6117 12.2177L11.3345 11.9295L10.5753 12.0657L9.03729 12.5874Z" fill="#000088" />
        <path
            d="M11.1449 14.5666C11.1317 14.6492 11.1794 14.72 11.2514 14.7247C11.3234 14.7295 11.3924 14.6663 11.4056 14.5837C11.4188 14.5011 11.3711 14.4303 11.2991 14.4255C11.2271 14.4208 11.1581 14.484 11.1449 14.5666Z"
            fill="#000088" />
        <path d="M8.95659 11.9045L10.5491 11.8904L11.3143 11.8127L10.5583 11.7943L8.95659 11.9045Z" fill="#000088" />
        <path
            d="M10.4767 14.34C10.4466 14.4145 10.4781 14.497 10.5471 14.5241C10.6161 14.5513 10.6965 14.5128 10.7266 14.4382C10.7568 14.3637 10.7253 14.2812 10.6563 14.2541C10.5873 14.2269 10.5069 14.2654 10.4767 14.34Z"
            fill="#000088" />
        <path d="M9.04515 11.1613L10.5659 11.6727L11.3278 11.7615L10.6169 11.4631L9.04515 11.1613Z" fill="#000088" />
        <path
            d="M9.88032 13.9418C9.8378 13.9995 9.85514 14.088 9.91904 14.1394C9.98294 14.1908 10.0692 14.1857 10.1117 14.128C10.1543 14.0702 10.1369 13.9818 10.073 13.9303C10.0091 13.8789 9.92284 13.884 9.88032 13.9418Z"
            fill="#000088" />
        <path d="M9.302 10.4797L10.6603 11.3872L11.365 11.7154L10.7387 11.2464L9.302 10.4797Z" fill="#000088" />
        <path
            d="M9.41109 13.4078C9.35448 13.4511 9.34896 13.5396 9.39877 13.6055C9.44859 13.6713 9.53486 13.6896 9.59147 13.6463C9.64808 13.603 9.65359 13.5145 9.60378 13.4486C9.55397 13.3828 9.4677 13.3645 9.41109 13.4078Z"
            fill="#000088" />
        <path d="M9.72515 9.91236L10.8121 11.1447L11.414 11.6459L10.9264 11.0287L9.72515 9.91236Z" fill="#000088" />
        <path
            d="M9.0961 12.7725C9.02853 12.799 8.99938 12.8815 9.03099 12.9567C9.06259 13.0318 9.14298 13.0712 9.21055 13.0447C9.27811 13.0181 9.30727 12.9357 9.27566 12.8605C9.24406 12.7853 9.16366 12.7459 9.0961 12.7725Z"
            fill="#000088" />
        <path d="M10.2789 9.47971L11.0172 10.9528L11.4759 11.5929L11.1623 10.8696L10.2789 9.47971Z" fill="#000088" />
        <path
            d="M8.95023 12.0689C8.87738 12.0756 8.8283 12.1464 8.84061 12.2271C8.85292 12.3077 8.92195 12.3676 8.9948 12.3608C9.06765 12.3541 9.11673 12.2833 9.10443 12.2027C9.09212 12.1221 9.02308 12.0622 8.95023 12.0689Z"
            fill="#000088" />
        <path d="M10.9218 9.20303L11.2696 10.8174L11.5525 11.5569L11.4285 10.7778L10.9218 9.20303Z" fill="#000088" />
        <path
            d="M8.98219 11.3679C8.90332 11.353 8.83429 11.3996 8.828 11.4721C8.82171 11.5445 8.88056 11.6153 8.95943 11.6302C9.0383 11.6451 9.10733 11.5985 9.11362 11.5261C9.1199 11.4536 9.06106 11.3828 8.98219 11.3679Z"
            fill="#000088" />
        <path d="M11.584 9.12307L11.5785 10.7517L11.6572 11.5372L11.6886 10.7652L11.584 9.12307Z" fill="#000088" />
        <path
            d="M9.19905 10.6831C9.12577 10.6493 9.04538 10.6769 9.01949 10.7449C8.9936 10.8128 9.03201 10.8952 9.10529 10.929C9.17857 10.9628 9.25896 10.9352 9.28485 10.8673C9.31074 10.7994 9.27233 10.7169 9.19905 10.6831Z"
            fill="#000088" />
        <path d="M12.2952 9.21509L11.7979 10.7635L11.717 11.5466L12.0092 10.8255L12.2952 9.21509Z" fill="#000088" />
        <path
            d="M9.58132 10.0824C9.5176 10.0308 9.43133 10.0357 9.38863 10.0932C9.34593 10.1508 9.36296 10.2393 9.42668 10.2909C9.4904 10.3425 9.57667 10.3376 9.61937 10.28C9.66208 10.2224 9.64504 10.134 9.58132 10.0824Z"
            fill="#000088" />
        <path d="M12.9486 9.49164L12.0717 10.8495L11.7881 11.5776L12.2532 10.9599L12.9486 9.49164Z" fill="#000088" />
        <path
            d="M10.1001 9.60695C10.0505 9.541 9.96426 9.52255 9.90742 9.56575C9.85058 9.60895 9.8447 9.69744 9.89429 9.76339C9.94387 9.82935 10.0301 9.84779 10.087 9.80459C10.1438 9.76139 10.1497 9.6729 10.1001 9.60695Z"
            fill="#000088" />
        <path d="M13.5054 9.93237L12.3097 11.0056L11.8478 11.6293L12.4553 11.1582L13.5054 9.93237Z" fill="#000088" />
        <path
            d="M10.7342 9.26154C10.7092 9.19385 10.6288 9.16656 10.5547 9.20059C10.4805 9.23461 10.4407 9.31707 10.4657 9.38476C10.4907 9.45245 10.5711 9.47974 10.6453 9.44572C10.7194 9.41169 10.7593 9.32924 10.7342 9.26154Z"
            fill="#000088" />
        <path d="M13.9421 10.4775L12.5054 11.2442L11.8791 11.7133L12.5838 11.3851L13.9421 10.4775Z" fill="#000088" />
        <path
            d="M11.417 9.11589C11.4114 9.04277 11.3423 8.99504 11.2628 9.00927C11.1833 9.0235 11.1235 9.0943 11.1291 9.16742C11.1348 9.24053 11.2038 9.28827 11.2833 9.27404C11.3628 9.25981 11.4227 9.189 11.417 9.11589Z"
            fill="#000088" />
        <path d="M14.2068 11.1324L12.6324 11.5019L11.9096 11.7902L12.6688 11.654L14.2068 11.1324Z" fill="#000088" />
        <path
            d="M12.0985 9.15209C12.1123 9.06901 12.0656 8.9982 11.9942 8.99394C11.9228 8.98968 11.8538 9.05358 11.84 9.13667C11.8262 9.21975 11.8729 9.29056 11.9443 9.29482C12.0157 9.29908 12.0847 9.23518 12.0985 9.15209Z"
            fill="#000088" />
        <path d="M14.2867 11.8129L12.6962 11.8313L11.9307 11.9083L12.6853 11.9238L14.2867 11.8129Z" fill="#000088" />
        <path
            d="M12.7669 9.37782C12.7977 9.30252 12.7674 9.22007 12.6991 9.19364C12.6308 9.16722 12.5504 9.20684 12.5195 9.28213C12.4886 9.35742 12.519 9.43988 12.5873 9.4663C12.6556 9.49273 12.736 9.45311 12.7669 9.37782Z"
            fill="#000088" />
        <path d="M14.1982 12.553L12.6802 12.0431L11.9179 11.9616L12.6268 12.2616L14.1982 12.553Z" fill="#000088" />
        <path
            d="M13.3559 9.76249C13.4038 9.69858 13.3952 9.61009 13.3367 9.56484C13.2781 9.5196 13.1919 9.53473 13.144 9.59864C13.0961 9.66255 13.1047 9.75103 13.1632 9.79628C13.2218 9.84152 13.308 9.82639 13.3559 9.76249Z"
            fill="#000088" />
        <path d="M13.9341 13.2181L12.599 12.3169L11.8908 12.0178L12.5009 12.4932L13.9341 13.2181Z" fill="#000088" />
        <path
            d="M13.8256 10.2961C13.8875 10.2466 13.9017 10.1581 13.8572 10.0985C13.8127 10.0388 13.7265 10.0307 13.6645 10.0802C13.6026 10.1298 13.5884 10.2182 13.6329 10.2779C13.6774 10.3375 13.7637 10.3456 13.8256 10.2961Z"
            fill="#000088" />
        <path d="M13.5093 13.7896L12.4495 12.562L11.8435 12.0829L12.3121 12.7048L13.5093 13.7896Z" fill="#000088" />
        <path
            d="M14.1429 10.9337C14.2147 10.9018 14.2507 10.8193 14.2233 10.7495C14.196 10.6796 14.1156 10.6488 14.0438 10.6806C13.972 10.7125 13.9359 10.7949 13.9633 10.8648C13.9907 10.9347 14.0711 10.9655 14.1429 10.9337Z"
            fill="#000088" />
        <path d="M12.9554 14.2265L12.2444 12.7566L11.7816 12.1315L12.0761 12.8579L12.9554 14.2265Z" fill="#000088" />
        <path
            d="M14.2882 11.6373C14.3651 11.6251 14.4209 11.5543 14.4127 11.4791C14.4045 11.404 14.3354 11.3529 14.2585 11.3651C14.1815 11.3773 14.1258 11.4481 14.134 11.5233C14.1422 11.5984 14.2112 11.6495 14.2882 11.6373Z"
            fill="#000088" />
        <path d="M12.3078 14.5048L11.9984 12.893L11.7097 12.1657L11.8069 12.9474L12.3078 14.5048Z" fill="#000088" />
    </g>
    <rect x="0.0625" y="0.0625" width="23.875" height="23.875" rx="11.9375" stroke="#CED4DA" stroke-width="0.125" />

</svg>