<svg width="24" height="24" viewBox="0 0 24 24" fill="none" xmlns="http://www.w3.org/2000/svg">
    <defs>
        <clipPath id="clip0_864_3836">
            <rect width="24" height="24" rx="12" fill="white" />
        </clipPath>
    </defs>
    <g clip-path="url(#clip0_864_3836)">
        <path d="M0 0H24V12H0V0Z" fill="#0038A8" />
        <path d="M0 12H24V24H0V12Z" fill="#CE1126" />
        <path d="M15.5888 12L0 24V0" fill="white" />
        <path
            d="M3.32206 6.75L3.6847 7.08485L4.10566 6.84036L3.91801 7.30543L4.27303 7.65091L3.79121 7.60839L3.5858 8.06549L3.47675 7.57384L3 7.51006L3.41336 7.24431L3.32206 6.75ZM11.5334 11.329L11.5435 11.8339L12 12.0013L11.5435 12.1661L11.5334 12.671L11.2418 12.2697L10.7802 12.4159L11.0541 12.0013L10.7802 11.5868L11.2418 11.7329L11.5334 11.329ZM3.58833 15.9372L3.79121 16.3943L4.27303 16.3517L3.92054 16.6972L4.1082 17.1623L3.68724 16.9205L3.32206 17.25L3.41336 16.753L3 16.4926L3.47929 16.4288L3.58833 15.9372ZM6.48436 9.31986L6.32713 9.48462L6.40575 10.7337L6.32967 10.7416L6.18512 9.60156L6.05579 9.73443L6.24852 10.7549C6.09268 10.7871 5.94444 10.8512 5.81234 10.9436L5.26205 10.0826H5.07946L5.74894 10.9941C5.72811 11.0111 5.70781 11.0289 5.68808 11.0473L4.89941 10.1038H4.67625V10.3377L5.57396 11.1615L5.52325 11.228L4.65342 10.529V10.7177L5.4776 11.2944C5.39138 11.4326 5.32798 11.5868 5.29755 11.7515L4.32629 11.5495L4.19696 11.6824L5.28487 11.8339C5.2798 11.8605 5.27726 11.8897 5.27726 11.9163L4.08538 11.8366L3.92815 12.0013L4.08538 12.1661L5.27726 12.0837L5.28487 12.1661L4.19696 12.3176L4.32375 12.4505L5.29755 12.2485C5.32822 12.4118 5.38941 12.5671 5.4776 12.7056L4.65342 13.2823V13.4736L5.52325 12.7747C5.53949 12.7965 5.5564 12.8178 5.57396 12.8385L4.67625 13.6623V13.8962H4.90194L5.68808 12.9554L5.75148 13.0085L5.07946 13.9201H5.26205L5.81234 13.0564C5.94167 13.1467 6.09129 13.2132 6.24852 13.2451L6.05579 14.2656L6.18259 14.3984L6.32713 13.2584C6.35249 13.2637 6.37785 13.2663 6.40575 13.2663L6.32967 14.5154L6.48436 14.6801L6.64412 14.5154L6.56551 13.2663L6.64159 13.2584L6.78614 14.4011L6.91547 14.2656L6.72274 13.2451C6.87858 13.2129 7.02682 13.1488 7.15892 13.0564L7.70921 13.9201H7.8918L7.22232 13.0085C7.24315 12.9915 7.26345 12.9738 7.28318 12.9554L8.07185 13.8962H8.29501V13.6623L7.39729 12.8385L7.44801 12.7747L8.31784 13.4736V13.2823L7.49366 12.7056C7.57988 12.57 7.64328 12.4132 7.67371 12.2485L8.64497 12.4505L8.7743 12.3176L7.68639 12.1661C7.69146 12.1395 7.694 12.1129 7.694 12.0837L8.88588 12.1634L9.04311 12.0013L8.88588 11.8366L7.694 11.9163L7.68639 11.8366L8.7743 11.6851L8.64751 11.5522L7.67371 11.7515C7.64304 11.5882 7.58185 11.4329 7.49366 11.2944L8.31784 10.7177V10.529L7.44801 11.228C7.43177 11.2061 7.41486 11.1849 7.39729 11.1642L8.29501 10.3404V10.1038H8.07185L7.28571 11.0473C7.26515 11.0288 7.24401 11.0111 7.22232 10.9941L7.8918 10.0826H7.70921L7.15892 10.9436C7.02959 10.8533 6.87997 10.7868 6.72274 10.7549L6.91547 9.73709L6.78867 9.60421L6.64412 10.7416L6.56551 10.7337L6.64159 9.48462L6.48436 9.31986Z"
            fill="#FCD116" />
    </g>
    <rect x="0.0625" y="0.0625" width="23.875" height="23.875" rx="11.9375" stroke="#CED4DA" stroke-width="0.125" />
</svg>