<svg width="20" height="20" viewBox="0 0 20 20" fill="none" xmlns="http://www.w3.org/2000/svg">
<path d="M9.99996 1.66675C5.39746 1.66675 1.66663 5.39758 1.66663 10.0001H18.3333C18.3333 5.39758 14.6025 1.66675 9.99996 1.66675Z" fill="#FF3D00"/>
<path d="M18.3333 10H1.66663C1.66663 14.6025 5.39746 18.3333 9.99996 18.3333C14.6025 18.3333 18.3333 14.6025 18.3333 10Z" fill="#ECEFF1"/>
<path d="M7.75879 8.62008C7.50962 8.70633 7.24462 8.75008 6.96462 8.75008C5.65087 8.75008 4.58337 7.72633 4.58337 6.45841C4.58337 5.1905 5.65087 4.16675 6.96462 4.16675C7.24462 4.16675 7.51004 4.2105 7.75879 4.29716C6.55587 4.338 5.59712 5.29175 5.59712 6.45883C5.59712 7.62592 6.55587 8.57925 7.75879 8.62008Z" fill="#ECEFF1"/>
<path d="M7.26087 6.51385L6.93712 6.27468L6.61504 6.51385L6.73879 6.12968L6.41504 5.89218H6.81546L6.93754 5.50635L7.06129 5.89218H7.46171L7.13796 6.12968L7.26087 6.51385Z" fill="#ECEFF1"/>
<path d="M9.80006 6.51385L9.47631 6.27468L9.15422 6.51385L9.27797 6.12968L8.95422 5.89218H9.35464L9.47672 5.50635L9.60047 5.89218L10.0001 5.89051L9.67631 6.12801L9.80006 6.51385Z" fill="#ECEFF1"/>
<path d="M8.53211 5.60711L8.20836 5.36794L7.88628 5.60711L8.01003 5.22128L7.68628 4.98544H8.0867L8.20878 4.59961L8.33253 4.98544H8.73295L8.40753 5.22128L8.53211 5.60711Z" fill="#ECEFF1"/>
<path d="M7.73585 7.9638L7.4121 7.72463L7.09002 7.9638L7.21376 7.57963L6.89001 7.34213H7.29043L7.41252 6.9563L7.53626 7.34213H7.93668L7.61127 7.57963L7.73585 7.9638Z" fill="#ECEFF1"/>
<path d="M9.32459 7.9638L9.00084 7.72463L8.67876 7.9638L8.80251 7.57963L8.47876 7.34213H8.87918L9.00126 6.9563L9.12501 7.34213H9.52543L9.20001 7.57963L9.32459 7.9638Z" fill="#ECEFF1"/>
</svg>
