<svg width="48" height="49" viewBox="0 0 48 49" fill="none" xmlns="http://www.w3.org/2000/svg">
<path d="M15.3118 19.7959L7.19981 14.6119C6.43181 14.2279 5.99981 13.3159 6.19181 12.4999L7.15181 9.37995C7.29581 8.85195 6.91181 8.27595 6.33581 8.22795C5.85581 8.17995 5.37581 8.51595 5.27981 8.99595L4.31981 12.0679C3.93581 13.7479 4.75181 15.5239 6.28781 16.292L13.6318 21.092C13.7758 21.188 13.8718 21.3319 13.8718 21.5239V27.8599L15.7918 23.0599V20.6599C15.8398 20.3239 15.6478 19.9879 15.3118 19.7959Z" fill="#B2B1C2"/>
<path d="M4.36819 12.5L5.52019 8.22805C5.56819 7.94005 5.85619 7.79604 6.14419 7.89204L7.15219 8.27605C7.39219 8.37205 7.48819 8.56404 7.44019 8.80404L6.57619 12.788C6.52819 13.028 6.33619 13.22 6.04819 13.172L4.80019 13.124C4.51219 13.076 4.32019 12.788 4.36819 12.5Z" fill="#F15B6C"/>
<path d="M13.1521 34.0999H11.7121C8.25609 34.0999 7.39209 31.3159 7.39209 27.8599V16.8199L14.2561 21.1399L13.1521 34.0999Z" fill="#E0DECF"/>
<path d="M37.92 28.82L29.856 25.94V24.26H37.92V28.82Z" fill="#B2B1C2"/>
<path d="M13.9199 30.98C13.9199 30.884 14.3999 25.94 14.3999 25.94C14.3999 25.94 17.1839 18.884 24.0479 22.628L38.8799 29.924C38.8799 29.924 40.8479 32.276 40.5599 34.868V39.572H16.0799L13.9199 30.98Z" fill="#F15B6C"/>
<path d="M31.9202 37.94H26.1602V33.38H28.5602C30.4322 33.38 31.9202 34.868 31.9202 36.74V37.94Z" fill="#F58F8F"/>
<path d="M35.7601 21.86H32.3521V19.22H33.3601C34.7041 19.22 35.7601 20.276 35.7601 21.62V21.86Z" fill="#F15B6C"/>
<path d="M37.9202 24.308H30.0962V21.86H36.0002C37.0562 21.86 37.9202 22.82 37.9202 24.02V24.308Z" fill="#F58F8F"/>
<path d="M38.1599 41.876C40.2011 41.876 41.8559 40.2213 41.8559 38.18C41.8559 36.1388 40.2011 34.484 38.1599 34.484C36.1186 34.484 34.4639 36.1388 34.4639 38.18C34.4639 40.2213 36.1186 41.876 38.1599 41.876Z" fill="#565FA1"/>
<path d="M38.1598 40.58C39.4852 40.58 40.5598 39.5055 40.5598 38.18C40.5598 36.8545 39.4852 35.78 38.1598 35.78C36.8343 35.78 35.7598 36.8545 35.7598 38.18C35.7598 39.5055 36.8343 40.58 38.1598 40.58Z" fill="white"/>
<path d="M19.68 42.2599C23.3913 42.2599 26.4 39.2513 26.4 35.5399C26.4 31.8286 23.3913 28.8199 19.68 28.8199C15.9686 28.8199 12.96 31.8286 12.96 35.5399C12.96 39.2513 15.9686 42.2599 19.68 42.2599Z" fill="#565FA1"/>
<path d="M19.8241 39.764C22.1569 39.764 24.0481 37.8513 24.0481 35.492C24.0481 33.1326 22.1569 31.22 19.8241 31.22C17.4912 31.22 15.6001 33.1326 15.6001 35.492C15.6001 37.8513 17.4912 39.764 19.8241 39.764Z" fill="#B2B1C2"/>
<path d="M19.68 42.74C15.696 42.74 12.48 39.38 12.48 35.3C12.48 31.22 15.696 27.86 19.68 27.86C23.664 27.86 26.88 31.22 26.88 35.3C26.88 39.38 23.664 42.74 19.68 42.74ZM19.68 28.82C16.224 28.82 13.44 31.748 13.44 35.3C13.44 38.852 16.224 41.78 19.68 41.78C23.136 41.78 25.92 38.852 25.92 35.3C25.92 31.748 23.136 28.82 19.68 28.82Z" fill="#1F212B"/>
<path d="M23.616 34.82C23.52 34.82 23.424 34.724 23.376 34.628C23.328 34.436 23.28 34.196 23.184 34.052C23.136 33.908 23.184 33.812 23.328 33.716C23.472 33.668 23.568 33.716 23.664 33.86C23.76 34.052 23.808 34.292 23.856 34.532C23.904 34.676 23.808 34.772 23.664 34.82C23.616 34.82 23.616 34.82 23.616 34.82Z" fill="#1F212B"/>
<path d="M22.56 32.948C22.512 32.948 22.416 32.9 22.368 32.852C22.032 32.468 21.6 32.18 21.12 31.988C20.976 31.94 20.928 31.796 20.976 31.652C21.024 31.508 21.168 31.46 21.312 31.508C21.84 31.748 22.32 32.084 22.752 32.516C22.848 32.612 22.848 32.756 22.752 32.852C22.704 32.9 22.608 32.948 22.56 32.948Z" fill="#1F212B"/>
<path d="M19.632 39.812C17.28 39.812 15.312 37.892 15.312 35.492C15.312 33.092 17.232 31.172 19.632 31.172C19.728 31.172 19.872 31.172 19.968 31.172C20.112 31.172 20.208 31.316 20.208 31.412C20.208 31.508 20.064 31.7 19.92 31.7C19.824 31.7 19.728 31.7 19.632 31.7C17.52 31.7 15.792 33.428 15.792 35.54C15.792 37.652 17.52 39.38 19.632 39.38C20.352 39.38 21.072 39.188 21.696 38.756C21.792 38.66 21.936 38.708 22.032 38.852C22.128 38.996 22.08 39.092 21.936 39.188C21.264 39.572 20.448 39.812 19.632 39.812Z" fill="#1F212B"/>
<path d="M19.776 37.94C18.432 37.94 17.376 36.884 17.376 35.54C17.376 34.196 18.432 33.14 19.776 33.14C21.12 33.14 22.176 34.196 22.176 35.54C22.176 36.884 21.072 37.94 19.776 37.94ZM19.776 33.62C18.72 33.62 17.856 34.484 17.856 35.54C17.856 36.596 18.72 37.46 19.776 37.46C20.832 37.46 21.696 36.596 21.696 35.54C21.696 34.484 20.832 33.62 19.776 33.62Z" fill="#1F212B"/>
<path d="M38.1601 42.74C35.6641 42.74 33.6001 40.676 33.6001 38.18C33.6001 35.684 35.6641 33.62 38.1601 33.62C40.6561 33.62 42.7201 35.684 42.7201 38.18C42.7201 40.676 40.6561 42.74 38.1601 42.74ZM38.1601 34.58C36.1921 34.58 34.5601 36.212 34.5601 38.18C34.5601 40.148 36.1921 41.78 38.1601 41.78C40.1281 41.78 41.7601 40.148 41.7601 38.18C41.7601 36.212 40.1281 34.58 38.1601 34.58Z" fill="#1F212B"/>
<path d="M38.16 40.82C36.72 40.82 35.52 39.62 35.52 38.18C35.52 36.74 36.72 35.54 38.16 35.54C39.6 35.54 40.8 36.74 40.8 38.18C40.8 39.62 39.6 40.82 38.16 40.82ZM38.16 36.02C36.96 36.02 36 36.98 36 38.18C36 39.38 36.96 40.34 38.16 40.34C39.36 40.34 40.32 39.38 40.32 38.18C40.32 36.98 39.36 36.02 38.16 36.02Z" fill="#1F212B"/>
<path d="M40.7999 34.5801H39.8399V33.3801C39.8399 31.6521 38.8319 30.1161 37.2479 29.4441L22.0799 22.2921C20.4479 21.5721 18.5759 21.7161 17.1359 22.6281C15.4559 23.8281 14.3999 25.7961 14.3999 27.8601V31.7001H13.4399V27.8601C13.4399 25.4601 14.6399 23.2041 16.6559 21.8601C18.3359 20.7561 20.5919 20.5641 22.5119 21.4281L37.6799 28.5321C39.5999 29.3961 40.7999 31.2681 40.7999 33.3801V34.5801Z" fill="#1F212B"/>
<path d="M34.08 38.9H24.96V39.86H34.08V38.9Z" fill="#1F212B"/>
<path d="M38.3998 29.3H37.4398V24.02C37.4398 23.156 36.2398 22.292 35.7598 22.052C35.6638 22.004 35.5678 21.908 35.5678 21.812L34.9918 20.324C34.8478 19.94 34.5118 19.7 34.0798 19.7H32.6398V21.62C32.6398 21.908 32.4478 22.1 32.1598 22.1H30.7198C30.4318 22.1 30.2398 22.292 30.2398 22.58V24.02H29.2798V22.58C29.2798 21.764 29.9038 21.14 30.7198 21.14H31.6798V19.22C31.6798 18.932 31.8718 18.74 32.1598 18.74H34.0798C34.8478 18.74 35.5678 19.22 35.8558 19.94L36.3838 21.284C36.9118 21.62 38.3998 22.628 38.3998 24.02V29.3Z" fill="#1F212B"/>
<path d="M29.2798 24.02H30.2398L30.1918 25.22L29.2798 24.98V24.02Z" fill="#1F212B"/>
<path d="M14.3998 27.86H13.4398L13.3918 21.524L6.04784 16.724C4.31984 15.812 3.40784 13.844 3.83984 11.972L4.79984 8.85204C4.94384 8.13204 5.66384 7.65204 6.38384 7.74804C6.76784 7.79604 7.15184 8.03604 7.39184 8.37204C7.63184 8.70804 7.67984 9.14004 7.63184 9.52404L6.67184 12.692C6.52784 13.268 6.86384 13.94 7.43984 14.228L15.5998 19.46C16.0318 19.7 16.3198 20.18 16.3198 20.708V23.108H15.3598V20.708C15.3598 20.516 15.2638 20.372 15.1198 20.276L6.95984 15.044C6.04784 14.564 5.51984 13.46 5.75984 12.452L6.71984 9.28404C6.71984 9.18804 6.71984 9.04404 6.62384 8.94804C6.52784 8.85204 6.43184 8.66004 6.28784 8.66004C6.04784 8.61204 5.80784 8.80404 5.75984 9.09204L4.79984 12.212C4.46384 13.652 5.18384 15.188 6.52784 15.908L6.57584 15.956L13.9198 20.756C14.2078 20.948 14.3998 21.236 14.3998 21.572V27.86Z" fill="#1F212B"/>
<path d="M12.9602 34.58H11.5202C6.72021 34.58 6.72021 29.54 6.72021 27.86V16.82C6.72021 16.532 6.91221 16.772 7.15221 16.772C7.39221 16.772 7.68021 16.532 7.68021 16.82V27.86C7.68021 31.844 8.88021 33.62 11.5202 33.62H12.9602C13.2482 33.62 13.4402 33.812 13.4402 34.1C13.4402 34.388 13.2482 34.58 12.9602 34.58Z" fill="#1F212B"/>
<path d="M36.2399 21.62H31.9199V22.1H36.2399V21.62Z" fill="#1F212B"/>
<path d="M38.16 24.02H29.52V24.5H38.16V24.02Z" fill="#1F212B"/>
<path d="M29.0398 37.94H28.5598C28.4158 37.94 28.3198 37.844 28.3198 37.7C28.3198 37.556 28.4158 37.46 28.5598 37.46H29.0398C29.1838 37.46 29.2798 37.556 29.2798 37.7C29.2798 37.844 29.1838 37.94 29.0398 37.94Z" fill="#1F212B"/>
<path d="M27.5999 37.94H26.1599C26.0159 37.94 25.9199 37.844 25.9199 37.7C25.9199 37.556 26.0159 37.46 26.1599 37.46H27.5999C27.7439 37.46 27.8399 37.556 27.8399 37.7C27.8399 37.844 27.7439 37.94 27.5999 37.94Z" fill="#1F212B"/>
<path d="M31.9199 37.94H29.9999C29.8559 37.94 29.7599 37.844 29.7599 37.7C29.7599 37.556 29.8559 37.46 29.9999 37.46H31.6799V36.26C31.6799 34.82 30.4799 33.62 29.0399 33.62H26.1599C26.0159 33.62 25.9199 33.524 25.9199 33.38C25.9199 33.236 26.0159 33.14 26.1599 33.14H29.0399C30.7679 33.14 32.1599 34.532 32.1599 36.26V37.7C32.1599 37.844 32.0639 37.94 31.9199 37.94Z" fill="#1F212B"/>
<path d="M6.24006 12.98H4.56006V13.46H6.24006V12.98Z" fill="#1F212B"/>
<path d="M19.8238 37.412C20.8842 37.412 21.7438 36.5524 21.7438 35.492C21.7438 34.4316 20.8842 33.572 19.8238 33.572C18.7634 33.572 17.9038 34.4316 17.9038 35.492C17.9038 36.5524 18.7634 37.412 19.8238 37.412Z" fill="white"/>
</svg>
