<svg width="200" height="200" viewBox="0 0 200 200" fill="none" xmlns="http://www.w3.org/2000/svg">
<path d="M100 30C90.8075 30 81.7049 31.8106 73.2122 35.3284C64.7194 38.8463 57.0026 44.0024 50.5025 50.5025C44.0024 57.0026 38.8463 64.7194 35.3284 73.2122C31.8106 81.7049 30 90.8075 30 100C30 109.193 31.8106 118.295 35.3284 126.788C38.8463 135.281 44.0024 142.997 50.5025 149.497C57.0026 155.998 64.7194 161.154 73.2122 164.672C81.7049 168.189 90.8075 170 100 170C109.193 170 118.295 168.189 126.788 164.672C135.281 161.154 142.997 155.998 149.497 149.497C155.998 142.997 161.154 135.281 164.672 126.788C168.189 118.295 170 109.193 170 100C170 90.8075 168.189 81.7049 164.672 73.2122C161.154 64.7194 155.998 57.0026 149.497 50.5025C142.997 44.0024 135.281 38.8463 126.788 35.3284C118.295 31.8106 109.193 30 100 30Z" fill="#E1464A"/>
<path d="M95 123C94.038 123 93.072 122.654 92.308 121.958L68.308 97.9579C66.674 96.4739 66.554 93.9419 68.04 92.3079C69.526 90.6779 72.054 90.5519 73.69 92.0399L94.946 113.546L130.252 78.0899C131.856 76.5739 134.386 76.6419 135.906 78.2519C137.424 79.8579 137.352 82.3879 135.744 83.9059L97.744 121.906C96.976 122.634 95.988 123 95 123Z" fill="white"/>
<path d="M95.0001 124C93.7521 124 92.5561 123.538 91.6341 122.698L67.6021 98.6661C66.6481 97.8021 66.068 96.5721 66.006 95.2381C65.944 93.9041 66.4021 92.6241 67.3001 91.6361C69.1601 89.5981 72.3281 89.4521 74.3621 91.3021L94.9481 112.128L129.544 77.3861C130.54 76.4481 131.84 75.9941 133.14 76.0001C134.476 76.0381 135.716 76.5941 136.634 77.5661C137.552 78.5361 138.036 79.8061 137.998 81.1421C137.96 82.4761 137.404 83.7181 136.432 84.6361L98.4541 122.616C97.5001 123.516 96.2821 124 95.0001 124ZM71.0181 91.9981C70.2001 91.9981 69.3781 92.3281 68.7801 92.9841C68.2421 93.5761 67.9661 94.3441 68.0041 95.1441C68.0421 95.9441 68.3881 96.6821 68.9801 97.2201L93.0161 121.254C94.0681 122.208 95.9541 122.222 97.0601 121.182L135.038 83.2021C135.642 82.6321 135.976 81.8881 135.998 81.0861C136.02 80.2861 135.73 79.5241 135.18 78.9421C134.63 78.3581 133.884 78.0261 133.082 78.0021C132.298 77.9641 131.522 78.2681 130.94 78.8201L95.6561 114.252C95.4681 114.44 95.2121 114.546 94.9481 114.546H94.9461C94.6801 114.546 94.4241 114.438 94.2381 114.25L72.9801 92.7441C72.4301 92.2461 71.7261 91.9981 71.0181 91.9981Z" fill="#1F212B"/>
<path d="M100 172C60.298 172 28 139.702 28 100C28 60.298 60.298 28 100 28C139.702 28 172 60.298 172 100C172 139.702 139.702 172 100 172ZM100 32C62.504 32 32 62.504 32 100C32 137.496 62.504 168 100 168C137.496 168 168 137.496 168 100C168 62.504 137.496 32 100 32Z" fill="#1F212B"/>
<path d="M131 48.4539C130.826 48.4539 130.65 48.4099 130.49 48.3139C129.214 47.5599 127.892 46.8439 126.556 46.1839C126.062 45.9379 125.858 45.3399 126.102 44.8439C126.346 44.3459 126.95 44.1499 127.442 44.3899C128.82 45.0719 130.19 45.8119 131.508 46.5939C131.982 46.8759 132.14 47.4879 131.86 47.9639C131.674 48.2779 131.342 48.4539 131 48.4539ZM137 52.4999C136.788 52.4999 136.574 52.4319 136.392 52.2939C135.748 51.7999 135.092 51.3219 134.426 50.8539C133.974 50.5359 133.864 49.9139 134.182 49.4619C134.498 49.0059 135.12 48.9019 135.574 49.2159C136.264 49.6979 136.94 50.1959 137.608 50.7059C138.048 51.0399 138.13 51.6679 137.796 52.1079C137.598 52.3639 137.3 52.4999 137 52.4999Z" fill="#1F212B"/>
<path d="M100 162C65.812 162 38 134.186 38 100C38 65.814 65.812 38 100 38C107.336 38 114.518 39.27 121.344 41.772C121.864 41.962 122.13 42.536 121.94 43.056C121.75 43.576 121.172 43.842 120.656 43.65C114.05 41.228 107.102 40 100 40C66.916 40 40 66.916 40 100C40 133.084 66.916 160 100 160C133.084 160 160 133.084 160 100C160 83.122 152.83 66.93 140.328 55.574C139.918 55.202 139.888 54.57 140.26 54.16C140.634 53.752 141.264 53.722 141.672 54.092C154.592 65.828 162 82.56 162 100C162 134.186 134.188 162 100 162Z" fill="#1F212B"/>
</svg>
