<svg width="335" height="189" viewBox="0 0 335 189" fill="none" xmlns="http://www.w3.org/2000/svg">
<g clip-path="url(#clip0_1610_31470)">
<path d="M308.666 188.63C313.567 188.63 317.54 187.967 317.54 187.149C317.54 186.331 313.567 185.668 308.666 185.668C303.765 185.668 299.792 186.331 299.792 187.149C299.792 187.967 303.765 188.63 308.666 188.63Z" fill="#F2F2F2"/>
<path d="M319.019 45.7227H318.28V61.2721H319.019V45.7227Z" fill="#F2F2F2"/>
<path d="M310.884 35.7266H306.447V189H310.884V35.7266Z" fill="#F2F2F2"/>
<path d="M328.979 47.7591H288.352C287.907 47.7591 287.466 47.6642 287.06 47.4807C286.653 47.2972 286.291 47.0294 285.996 46.6948C285.701 46.3603 285.481 45.9668 285.349 45.5405C285.218 45.1141 285.178 44.6646 285.234 44.2219L290.41 2.75662C290.506 1.99596 290.876 1.29644 291.45 0.789017C292.024 0.281598 292.763 0.00108462 293.529 0H323.803C324.569 0.00108451 325.308 0.281598 325.882 0.789017C326.456 1.29644 326.825 1.99596 326.921 2.75662L332.098 44.2219C332.153 44.6646 332.114 45.1141 331.983 45.5405C331.851 45.9668 331.631 46.3603 331.336 46.6948C331.041 47.0294 330.678 47.2972 330.272 47.4807C329.866 47.6642 329.425 47.7591 328.979 47.7591Z" fill="#F2F2F2"/>
<path d="M318.649 63.8638C320.079 63.8638 321.237 62.7035 321.237 61.2722C321.237 59.841 320.079 58.6807 318.649 58.6807C317.22 58.6807 316.061 59.841 316.061 61.2722C316.061 62.7035 317.22 63.8638 318.649 63.8638Z" fill="#F2F2F2"/>
<path d="M46.4268 147.855C44.5587 154.343 39.1043 158.886 33.4145 162.744C32.6201 163.283 31.8254 163.809 31.0305 164.323C31.0251 164.326 31.0195 164.331 31.0141 164.333C30.9758 164.358 30.9375 164.383 30.9019 164.407C30.7378 164.513 30.5737 164.619 30.411 164.724L30.5004 164.764C30.5004 164.764 30.5881 164.811 30.4921 164.772C30.4635 164.76 30.4336 164.749 30.4051 164.737C27.0997 163.402 23.7356 161.969 21.2026 159.468C18.5749 156.872 17.0393 152.799 18.4621 149.388C18.6492 148.941 18.8854 148.516 19.1664 148.122C19.2819 147.957 19.4062 147.798 19.5356 147.643C20.3204 146.684 21.3463 145.951 22.5076 145.521C23.6689 145.09 24.9238 144.977 26.1433 145.193C27.3627 145.409 28.5027 145.947 29.446 146.75C30.3893 147.553 31.1018 148.594 31.5104 149.764C31.9284 145.868 28.7192 142.603 25.6308 140.195C22.541 137.787 19.0301 135.166 18.4328 131.291C18.0992 129.134 18.848 127.045 20.2121 125.368C20.2544 125.317 20.2966 125.266 20.3401 125.216C22.0006 123.262 24.336 122.008 26.88 121.703C31.6178 121.21 36.2198 123.721 39.6617 127.019C45.2014 132.326 48.5504 140.477 46.4268 147.855Z" fill="#F2F2F2"/>
<path d="M37.5215 139.368C38.4308 140.784 39.1289 142.326 39.5938 143.944C39.987 145.39 40.162 146.887 40.113 148.386C39.9861 151.468 39.1218 154.476 37.5926 157.154C36.4407 159.186 35.0369 161.065 33.4146 162.744C32.6201 163.283 31.8255 163.81 31.0305 164.324C31.0251 164.326 31.0196 164.331 31.0141 164.333C30.9759 164.358 30.9376 164.383 30.9019 164.408C30.7379 164.513 30.5737 164.619 30.411 164.724C30.411 164.724 30.5882 164.811 30.4922 164.772C30.4636 164.76 30.4336 164.749 30.4051 164.737C30.7014 162.305 30.4111 159.838 29.5588 157.541C28.7064 155.245 27.3167 153.186 25.5062 151.538C23.6913 149.915 21.519 148.745 19.1665 148.122C19.2819 147.957 19.4062 147.799 19.5356 147.643C20.4442 147.898 21.3285 148.233 22.1782 148.645C25.2154 150.105 27.7023 152.506 29.2708 155.491C30.6783 158.202 31.2841 161.259 31.017 164.303C31.1528 164.18 31.2887 164.054 31.4206 163.929C33.9323 161.585 36.1633 158.893 37.6731 155.787C38.9829 153.157 39.6267 150.245 39.5477 147.306C39.4245 144.103 38.1496 141.135 36.3038 138.552C34.2808 135.796 31.8909 133.33 29.2006 131.222C26.4893 129.048 23.5225 127.214 20.3663 125.761C20.2951 125.728 20.2394 125.668 20.2107 125.595C20.1821 125.522 20.1826 125.441 20.2122 125.368C20.2333 125.302 20.2792 125.248 20.3401 125.216C20.3715 125.203 20.4054 125.197 20.4395 125.198C20.4736 125.199 20.5069 125.209 20.537 125.225C20.9267 125.404 21.3137 125.586 21.6975 125.776C24.8949 127.359 27.8835 129.333 30.5948 131.653C33.2137 133.888 35.6793 136.443 37.5215 139.368Z" fill="white"/>
<path d="M19.4587 164.195H39.9297C40.1543 164.195 40.3763 164.243 40.581 164.335C40.7857 164.428 40.9684 164.563 41.117 164.731C41.2656 164.9 41.3767 165.098 41.4429 165.313C41.5092 165.528 41.529 165.754 41.5012 165.977L38.8928 186.87C38.8444 187.254 38.6581 187.606 38.3689 187.862C38.0796 188.118 37.7072 188.259 37.3214 188.259H22.067C21.6812 188.259 21.3088 188.118 21.0195 187.862C20.7303 187.606 20.544 187.254 20.4956 186.87L17.8872 165.977C17.8594 165.754 17.8792 165.528 17.9455 165.313C18.0117 165.098 18.1228 164.9 18.2714 164.731C18.42 164.563 18.6027 164.428 18.8074 164.335C19.0121 164.243 19.2341 164.195 19.4587 164.195Z" fill="#F2F2F2"/>
<path d="M86.2045 188.42C87.6194 188.42 88.7665 187.271 88.7665 185.855C88.7665 184.438 87.6194 183.29 86.2045 183.29C84.7896 183.29 83.6426 184.438 83.6426 185.855C83.6426 187.271 84.7896 188.42 86.2045 188.42Z" fill="#CCCCCC"/>
<path d="M248.034 188.42C249.449 188.42 250.596 187.271 250.596 185.855C250.596 184.438 249.449 183.29 248.034 183.29C246.619 183.29 245.472 184.438 245.472 185.855C245.472 187.271 246.619 188.42 248.034 188.42Z" fill="#CCCCCC"/>
<path d="M133.173 150.156H93.0363C91.1684 150.154 89.3776 149.41 88.0568 148.088C86.736 146.765 85.9931 144.972 85.991 143.102V115.74C85.9931 113.87 86.736 112.076 88.0568 110.754C89.3776 109.432 91.1684 108.688 93.0363 108.686H133.173C135.041 108.688 136.832 109.432 138.153 110.754C139.474 112.076 140.217 113.87 140.219 115.74V143.102C140.217 144.972 139.474 146.765 138.153 148.088C136.832 149.41 135.041 150.154 133.173 150.156Z" fill="#E6E6E6"/>
<path d="M187.188 150.37H147.05C145.183 150.368 143.392 149.624 142.071 148.301C140.75 146.979 140.007 145.186 140.005 143.316V115.954C140.007 114.083 140.75 112.29 142.071 110.968C143.392 109.645 145.183 108.902 147.05 108.899H187.188C189.055 108.902 190.846 109.645 192.167 110.968C193.488 112.29 194.231 114.083 194.233 115.954V143.316C194.231 145.186 193.488 146.979 192.167 148.301C190.846 149.624 189.055 150.368 187.188 150.37Z" fill="#E6E6E6"/>
<path d="M241.202 150.584H201.065C199.197 150.582 197.406 149.838 196.085 148.515C194.765 147.193 194.022 145.4 194.02 143.529V116.168C194.022 114.297 194.765 112.504 196.085 111.182C197.406 109.859 199.197 109.115 201.065 109.113H241.202C243.07 109.115 244.861 109.859 246.181 111.182C247.502 112.504 248.245 114.297 248.247 116.168V143.53C248.245 145.4 247.502 147.193 246.181 148.515C244.861 149.838 243.07 150.582 241.202 150.584Z" fill="#E6E6E6"/>
<path d="M256.574 148.66H79.7996V185.641H256.574V148.66Z" fill="#E6E6E6"/>
<path d="M86.2043 185.855H78.5185C74.6337 185.855 71.4731 182.262 71.4731 177.845V139.254H86.2043V185.855Z" fill="#E6E6E6"/>
<path d="M255.72 185.855H248.034V133.269H262.765V176.817C262.765 181.8 259.605 185.855 255.72 185.855Z" fill="#E6E6E6"/>
<path d="M140.432 156.355H86.2043V144.812C104.28 134.43 122.356 134.43 140.432 144.812V156.355Z" fill="#CCCCCC"/>
<path d="M194.447 156.569H140.219V145.026C158.295 134.644 176.371 134.644 194.447 145.026V156.569Z" fill="#CCCCCC"/>
<path d="M248.461 156.783H194.233V145.24C212.309 134.858 230.385 134.858 248.461 145.24V156.783Z" fill="#CCCCCC"/>
<path d="M75.7432 149.087C82.6999 149.087 88.3394 143.44 88.3394 136.475C88.3394 129.509 82.6999 123.863 75.7432 123.863C68.7865 123.863 63.147 129.509 63.147 136.475C63.147 143.44 68.7865 149.087 75.7432 149.087Z" fill="#CCCCCC"/>
<path d="M260.203 148.66C267.16 148.66 272.799 143.013 272.799 136.048C272.799 129.082 267.16 123.436 260.203 123.436C253.246 123.436 247.607 129.082 247.607 136.048C247.607 143.013 253.246 148.66 260.203 148.66Z" fill="#CCCCCC"/>
<path d="M223.098 111.339C223.127 111.542 223.14 111.747 223.138 111.952L238.236 122.371L242.263 120.463L245.934 126.171L239.134 130.243C238.584 130.572 237.943 130.714 237.306 130.647C236.67 130.58 236.072 130.308 235.603 129.872L220.312 115.662C219.553 115.876 218.747 115.853 218.002 115.597C217.256 115.341 216.606 114.864 216.138 114.229C215.67 113.594 215.406 112.832 215.381 112.043C215.356 111.254 215.572 110.477 215.999 109.814C216.427 109.15 217.045 108.633 217.774 108.331C218.502 108.029 219.304 107.956 220.075 108.121C220.846 108.287 221.548 108.684 222.088 109.258C222.628 109.833 222.98 110.559 223.098 111.34V111.339Z" fill="#FFB8B8"/>
<path d="M238.527 121.475C238.594 121.245 238.709 121.032 238.865 120.85C239.021 120.669 239.215 120.523 239.432 120.424L247.024 116.941C248.049 116.272 249.297 116.038 250.494 116.29C251.692 116.542 252.74 117.258 253.411 118.283C254.081 119.308 254.318 120.557 254.07 121.756C253.822 122.956 253.11 124.008 252.088 124.682L245.812 130.239C245.633 130.397 245.421 130.515 245.193 130.585C244.964 130.654 244.723 130.673 244.486 130.641C244.249 130.609 244.022 130.526 243.82 130.398C243.618 130.27 243.445 130.1 243.315 129.899L238.731 122.847C238.6 122.646 238.515 122.42 238.479 122.183C238.444 121.946 238.461 121.705 238.527 121.475Z" fill="#F50057"/>
<path d="M222.908 112.018L222.832 112.024L222.625 109.156C222.558 108.24 221.966 107.536 221.302 107.584L216.9 107.903C216.235 107.951 215.013 108.786 215.079 109.703L215.133 110.442L216.216 125.434C216.282 126.351 217.612 127.001 218.276 126.953L222.679 126.634C223.343 126.586 223.828 125.804 223.761 124.887L222.979 114.065L223.055 114.059L222.908 112.018Z" fill="#3F3D56"/>
<path d="M222.369 109.187L223.505 124.895C223.554 125.579 223.192 126.163 222.696 126.199L218.272 126.52C217.776 126.556 217.334 126.03 217.285 125.345L216.15 109.637C216.1 108.953 216.462 108.369 216.958 108.333L217.495 108.294C217.458 108.434 217.466 108.582 217.518 108.717C217.57 108.852 217.663 108.966 217.785 109.045C217.836 109.069 217.892 109.08 217.949 109.077L220.471 108.894C220.706 108.877 220.878 108.599 220.855 108.273C220.849 108.198 220.833 108.125 220.807 108.054L221.382 108.012C221.878 107.977 222.32 108.502 222.369 109.187Z" fill="white"/>
<path d="M160.312 145.458L158.853 141.16L174.714 133.48L176.867 139.823L160.312 145.458Z" fill="#FFB8B8"/>
<path d="M156.524 147.97L151.82 134.114L151.995 134.054C152.702 133.813 153.45 133.714 154.195 133.763C154.941 133.812 155.67 134.007 156.34 134.337C157.01 134.668 157.609 135.127 158.102 135.689C158.594 136.252 158.972 136.906 159.212 137.614L159.212 137.614L162.086 146.077L156.524 147.97Z" fill="#2F2E41"/>
<path d="M223.26 148.525C219.859 148.716 216.467 148.005 213.428 146.464L194.778 133.76L173.001 141.834C172.423 142.031 171.792 142.001 171.235 141.75C170.678 141.499 170.237 141.046 170.001 140.482L168.934 137.912C168.69 137.333 168.683 136.683 168.914 136.099C169.145 135.516 169.595 135.047 170.168 134.793L190.973 125.438C193.471 124.319 196.273 124.076 198.926 124.749L227.809 132.118L235.443 141.196L235.358 141.313C231.61 146.491 227.165 148.242 223.26 148.525Z" fill="#2F2E41"/>
<path d="M246.849 110.591C251.864 110.591 255.93 106.52 255.93 101.498C255.93 96.4764 251.864 92.4053 246.849 92.4053C241.833 92.4053 237.767 96.4764 237.767 101.498C237.767 106.52 241.833 110.591 246.849 110.591Z" fill="#FFB8B8"/>
<path d="M237.526 145.244L222.91 134.353L232.878 127.259C232.593 126.341 231.328 121.088 238.246 117.507C240.435 116.374 242.013 115.399 242.935 114.608C244.242 113.478 245.917 112.867 247.644 112.888C248.733 112.905 249.803 113.176 250.769 113.679C251.735 114.181 252.571 114.902 253.21 115.785C253.85 116.667 254.276 117.686 254.454 118.761C254.632 119.837 254.558 120.939 254.238 121.981C252.795 126.675 250.498 132.896 247.743 135.871C244.627 139.232 241.247 142.338 237.637 145.161L237.526 145.244Z" fill="#E1464A"/>
<path d="M162.63 149.266L161.171 144.968L177.031 137.289L179.185 143.631L162.63 149.266Z" fill="#FFB8B8"/>
<path d="M158.842 151.778L154.137 137.921L154.312 137.862C155.02 137.621 155.767 137.522 156.513 137.571C157.259 137.619 157.987 137.814 158.657 138.145C159.328 138.475 159.926 138.935 160.419 139.497C160.912 140.059 161.289 140.713 161.53 141.421L161.53 141.422L164.403 149.885L158.842 151.778Z" fill="#2F2E41"/>
<path d="M225.578 152.333C222.176 152.524 218.785 151.813 215.745 150.272L197.095 137.568L175.318 145.642C174.74 145.839 174.109 145.809 173.552 145.558C172.996 145.307 172.555 144.854 172.319 144.29L171.251 141.72C171.008 141.141 171.001 140.491 171.232 139.907C171.463 139.324 171.913 138.855 172.486 138.601L193.291 129.246C195.789 128.127 198.591 127.884 201.244 128.557L230.126 135.926L237.761 145.004L237.676 145.122C233.928 150.299 229.483 152.05 225.578 152.333Z" fill="#2F2E41"/>
<path d="M221.386 122.247C221.499 122.418 221.599 122.597 221.684 122.784L239.784 125.727L242.607 122.276L248.365 125.861L243.961 132.456C243.605 132.989 243.086 133.392 242.482 133.604C241.878 133.817 241.222 133.828 240.611 133.635L220.716 127.348C220.122 127.866 219.384 128.192 218.601 128.28C217.818 128.368 217.026 128.216 216.332 127.843C215.637 127.47 215.073 126.894 214.713 126.191C214.353 125.489 214.216 124.694 214.318 123.912C214.421 123.129 214.759 122.396 215.288 121.811C215.817 121.226 216.511 120.816 217.278 120.635C218.045 120.454 218.849 120.512 219.583 120.8C220.317 121.088 220.946 121.593 221.386 122.247Z" fill="#FFB8B8"/>
<path d="M239.663 124.792C239.625 124.556 239.638 124.314 239.702 124.084C239.765 123.853 239.878 123.638 240.032 123.455L245.403 117.053C246.044 116.009 247.072 115.263 248.261 114.977C249.451 114.691 250.705 114.889 251.749 115.528C252.793 116.166 253.541 117.193 253.83 118.384C254.119 119.574 253.925 120.83 253.29 121.877L249.994 129.59C249.9 129.81 249.759 130.007 249.582 130.168C249.405 130.329 249.196 130.45 248.968 130.522C248.74 130.595 248.499 130.617 248.262 130.588C248.024 130.559 247.796 130.479 247.592 130.353L240.434 125.945C240.23 125.82 240.056 125.652 239.923 125.453C239.79 125.254 239.701 125.029 239.663 124.792Z" fill="#E1464A"/>
<path d="M244.421 111.513C247.06 108.113 248.523 103.947 248.59 99.6417C247.348 100.566 245.942 101.246 244.447 101.646C242.86 102.069 241.115 102.154 239.621 101.472C237.517 100.513 236.273 98.0663 236.512 95.7644C236.751 93.4625 238.34 91.4062 240.408 90.3738C242.526 89.3823 244.941 89.236 247.163 89.9645C248.338 88.9623 249.777 88.3205 251.307 88.1161C252.837 87.9116 254.394 88.1531 255.791 88.8116C259.005 90.3913 260.783 94.0496 261.091 97.6217C261.4 101.194 260.483 104.745 259.574 108.213L259.472 108.605C259.189 109.685 258.366 111.756 258.366 111.756C258.366 111.756 253.591 110.813 251.693 110.208C248.943 111.203 244.421 111.513 244.421 111.513Z" fill="#2F2E41"/>
<path d="M221.656 112.384L217.764 112.666C217.667 112.673 217.57 112.641 217.496 112.577C217.422 112.512 217.376 112.421 217.369 112.323C217.362 112.226 217.394 112.129 217.458 112.055C217.522 111.98 217.613 111.935 217.711 111.927L221.602 111.646C221.651 111.642 221.699 111.648 221.746 111.663C221.792 111.678 221.835 111.703 221.871 111.734C221.908 111.766 221.938 111.805 221.96 111.849C221.982 111.892 221.995 111.939 221.999 111.988C222.002 112.037 221.996 112.085 221.981 112.132C221.965 112.178 221.941 112.22 221.909 112.257C221.877 112.294 221.838 112.324 221.795 112.346C221.751 112.368 221.704 112.381 221.656 112.384Z" fill="#3F3D56"/>
<path d="M221.789 114.23L217.898 114.512C217.849 114.516 217.801 114.51 217.754 114.494C217.708 114.479 217.665 114.455 217.629 114.423C217.592 114.391 217.562 114.353 217.54 114.309C217.518 114.266 217.505 114.218 217.501 114.17C217.498 114.121 217.504 114.072 217.519 114.026C217.535 113.98 217.559 113.937 217.591 113.9C217.623 113.864 217.661 113.833 217.705 113.812C217.748 113.79 217.796 113.777 217.844 113.774L221.736 113.492C221.833 113.485 221.93 113.517 222.004 113.581C222.078 113.645 222.124 113.736 222.131 113.834C222.138 113.932 222.106 114.029 222.042 114.103C221.978 114.177 221.887 114.223 221.789 114.23Z" fill="#3F3D56"/>
<path d="M221.923 116.076L218.031 116.358C217.934 116.365 217.837 116.333 217.763 116.269C217.689 116.205 217.644 116.114 217.637 116.016C217.63 115.918 217.662 115.821 217.726 115.747C217.79 115.673 217.88 115.627 217.978 115.62L221.869 115.338C221.967 115.331 222.064 115.363 222.138 115.427C222.212 115.491 222.258 115.582 222.265 115.68C222.272 115.778 222.24 115.875 222.176 115.949C222.111 116.024 222.02 116.069 221.923 116.076Z" fill="#3F3D56"/>
<path d="M334.63 189H0.369757C0.271691 189 0.177642 188.961 0.108299 188.892C0.0389562 188.822 0 188.728 0 188.63C0 188.532 0.0389562 188.438 0.108299 188.368C0.177642 188.299 0.271691 188.26 0.369757 188.26H334.63C334.728 188.26 334.822 188.299 334.892 188.368C334.961 188.438 335 188.532 335 188.63C335 188.728 334.961 188.822 334.892 188.892C334.822 188.961 334.728 189 334.63 189Z" fill="#3F3D56"/>
<path d="M177.772 65.715H140.426C139.544 65.714 138.698 65.3626 138.074 64.7379C137.45 64.1133 137.099 63.2663 137.098 62.3829V30.1733C137.099 29.2899 137.45 28.443 138.074 27.8183C138.698 27.1937 139.544 26.8423 140.426 26.8413H177.772C178.654 26.8423 179.5 27.1937 180.124 27.8184C180.748 28.443 181.098 29.2899 181.099 30.1733V62.3829C181.098 63.2663 180.748 64.1133 180.124 64.7379C179.5 65.3626 178.654 65.714 177.772 65.715ZM140.426 27.5818C139.74 27.5825 139.082 27.8558 138.597 28.3417C138.112 28.8275 137.839 29.4862 137.838 30.1733V62.3829C137.839 63.07 138.112 63.7288 138.597 64.2146C139.082 64.7005 139.74 64.9737 140.426 64.9745H177.772C178.458 64.9737 179.116 64.7005 179.601 64.2146C180.086 63.7288 180.359 63.07 180.36 62.3829V30.1733C180.359 29.4862 180.086 28.8275 179.601 28.3417C179.116 27.8558 178.458 27.5825 177.772 27.5818H140.426Z" fill="#F2F2F2"/>
<path d="M172.311 60.7169H145.886C145.053 60.716 144.254 60.3841 143.665 59.7942C143.076 59.2042 142.744 58.4043 142.743 57.57V34.9863C142.744 34.1519 143.076 33.3521 143.665 32.7621C144.254 32.1721 145.053 31.8403 145.886 31.8394H172.311C173.145 31.8403 173.944 32.1721 174.533 32.7621C175.122 33.3521 175.453 34.1519 175.454 34.9863V57.57C175.453 58.4043 175.122 59.2042 174.533 59.7942C173.944 60.3841 173.145 60.716 172.311 60.7169Z" fill="#E6E6E6"/>
<path d="M159.284 22.0284C160.305 22.0284 161.133 21.1996 161.133 20.1773C161.133 19.1549 160.305 18.3262 159.284 18.3262C158.263 18.3262 157.435 19.1549 157.435 20.1773C157.435 21.1996 158.263 22.0284 159.284 22.0284Z" fill="#F2F2F2"/>
<path d="M163.171 27.402L159.285 20.8997L155.421 27.4009L154.785 27.0225L159.283 19.4551L163.805 27.0214L163.171 27.402Z" fill="#F2F2F2"/>
<path d="M163.536 43.6865C163.535 43.1262 163.473 42.5676 163.353 42.0205H157.805C157.412 42.0205 157.036 42.1765 156.759 42.4543C156.482 42.732 156.326 43.1087 156.326 43.5014V51.4332C158.283 51.2941 160.115 50.4176 161.453 48.9802C162.791 47.5429 163.535 45.6513 163.536 43.6865Z" fill="#E1464A"/>
<path d="M155.771 51.8314C154.237 51.832 152.734 51.398 151.435 50.5798C150.137 49.7615 149.096 48.5921 148.433 47.2068C147.769 45.8215 147.511 44.2766 147.687 42.7506C147.864 41.2245 148.467 39.7795 149.429 38.5823C150.39 37.3852 151.67 36.4847 153.121 35.9848C154.572 35.4849 156.134 35.406 157.628 35.7572C159.122 36.1085 160.486 36.8755 161.563 37.9698C162.639 39.064 163.385 40.4409 163.714 41.9415L163.812 42.3907H157.805C157.511 42.391 157.229 42.5081 157.021 42.7164C156.813 42.9246 156.696 43.2069 156.695 43.5014V51.7781L156.288 51.807C156.116 51.8195 155.945 51.8314 155.771 51.8314ZM155.771 36.282C153.81 36.282 151.929 37.0621 150.542 38.4507C149.155 39.8393 148.376 41.7227 148.376 43.6865C148.376 45.6503 149.155 47.5336 150.542 48.9222C151.929 50.3108 153.81 51.091 155.771 51.091C155.833 51.091 155.895 51.0892 155.956 51.0863V43.5014C155.957 43.0106 156.152 42.5401 156.498 42.193C156.845 41.846 157.315 41.6508 157.805 41.6502H162.878C162.431 40.1076 161.496 38.7513 160.216 37.7838C158.935 36.8163 157.376 36.2895 155.771 36.282Z" fill="white"/>
<path d="M166.679 54.2381H157.805C157.315 54.2375 156.845 54.0423 156.498 53.6952C156.152 53.3482 155.957 52.8777 155.956 52.3869V51.0884L156.3 51.064C157.358 50.9908 158.389 50.6898 159.32 50.1814C160.252 49.6731 161.063 48.9694 161.699 48.1184C162.334 47.2674 162.778 46.2891 163.001 45.2504C163.225 44.2117 163.221 43.1371 162.992 42.0998L162.893 41.6504H166.679C167.169 41.651 167.639 41.8462 167.986 42.1932C168.332 42.5402 168.527 43.0107 168.528 43.5015V52.3869C168.527 52.8777 168.332 53.3482 167.986 53.6952C167.639 54.0423 167.169 54.2375 166.679 54.2381ZM156.696 51.7708V52.3869C156.696 52.6814 156.813 52.9637 157.021 53.1719C157.229 53.3801 157.511 53.4973 157.805 53.4976H166.679C166.973 53.4973 167.255 53.3801 167.463 53.1719C167.671 52.9637 167.788 52.6814 167.788 52.3869V43.5015C167.788 43.207 167.671 42.9247 167.463 42.7165C167.255 42.5083 166.973 42.3912 166.679 42.3908H163.8C163.87 42.8192 163.905 43.2525 163.906 43.6866C163.899 45.6838 163.162 47.6092 161.833 49.0988C160.504 50.5885 158.677 51.5391 156.696 51.7708Z" fill="white"/>
</g>
<defs>
<clipPath id="clip0_1610_31470">
<rect width="335" height="189" fill="white"/>
</clipPath>
</defs>
</svg>
