<svg width="277" height="218" viewBox="0 0 277 218" fill="none" xmlns="http://www.w3.org/2000/svg">
<path d="M148.775 181.935H45.0362C44.1677 181.934 43.335 181.589 42.7208 180.976C42.1067 180.364 41.7612 179.533 41.7603 178.666V3.26829C41.7612 2.40178 42.1067 1.57105 42.7208 0.958337C43.335 0.345626 44.1677 0.000976534 45.0362 0H148.775C149.643 0.000976534 150.476 0.345626 151.09 0.958337C151.704 1.57105 152.05 2.40178 152.051 3.26829V178.666C152.05 179.533 151.704 180.364 151.09 180.976C150.476 181.589 149.643 181.934 148.775 181.935ZM45.0362 0.726286C44.3607 0.727072 43.7131 0.995142 43.2354 1.47169C42.7577 1.94824 42.489 2.59435 42.4882 3.26829V178.666C42.489 179.34 42.7577 179.986 43.2354 180.463C43.7131 180.94 44.3607 181.208 45.0362 181.208H148.775C149.45 181.208 150.098 180.94 150.576 180.463C151.053 179.986 151.322 179.34 151.323 178.666V3.26829C151.322 2.59435 151.053 1.94824 150.576 1.47169C150.098 0.995142 149.45 0.727072 148.775 0.726286H45.0362Z" fill="#ADB5BD"/>
<path d="M111.101 10.531H82.7097C82.6132 10.531 82.5206 10.4927 82.4523 10.4246C82.384 10.3565 82.3457 10.2641 82.3457 10.1678C82.3457 10.0715 82.384 9.97915 82.4523 9.91105C82.5206 9.84295 82.6132 9.80469 82.7097 9.80469H111.101C111.198 9.80469 111.29 9.84295 111.359 9.91105C111.427 9.97915 111.465 10.0715 111.465 10.1678C111.465 10.2641 111.427 10.3565 111.359 10.4246C111.29 10.4927 111.198 10.531 111.101 10.531Z" fill="#ADB5BD"/>
<path d="M136.763 168.861H56.6842C55.8156 168.86 54.9829 168.516 54.3688 167.903C53.7546 167.29 53.4092 166.46 53.4082 165.593V23.2409C53.4092 22.3744 53.7546 21.5437 54.3688 20.931C54.9829 20.3183 55.8156 19.9736 56.6842 19.9727H136.763C137.632 19.9736 138.464 20.3183 139.078 20.931C139.693 21.5437 140.038 22.3744 140.039 23.2409V165.593C140.038 166.46 139.693 167.29 139.078 167.903C138.464 168.516 137.632 168.86 136.763 168.861ZM56.6842 20.6989C56.0086 20.6997 55.361 20.9678 54.8833 21.4443C54.4057 21.9209 54.137 22.567 54.1362 23.2409V165.593C54.137 166.267 54.4057 166.913 54.8833 167.39C55.361 167.866 56.0086 168.134 56.6842 168.135H136.763C137.439 168.134 138.086 167.866 138.564 167.39C139.041 166.913 139.31 166.267 139.311 165.593V23.2409C139.31 22.567 139.041 21.9209 138.564 21.4443C138.086 20.9678 137.439 20.6997 136.763 20.6989H56.6842Z" fill="#ADB5BD"/>
<path d="M152.961 37.4038C152.526 37.4034 152.11 37.2311 151.803 36.9247C151.496 36.6183 151.323 36.203 151.323 35.7697V28.87C151.323 28.4366 151.495 28.0209 151.803 27.7145C152.11 27.408 152.526 27.2358 152.961 27.2358C153.395 27.2358 153.812 27.408 154.119 27.7145C154.426 28.0209 154.599 28.4366 154.599 28.87V35.7697C154.598 36.203 154.426 36.6183 154.118 36.9247C153.811 37.2311 153.395 37.4034 152.961 37.4038ZM152.961 27.9621C152.719 27.9624 152.488 28.0581 152.318 28.2283C152.147 28.3985 152.051 28.6293 152.051 28.87V35.7697C152.051 36.0105 152.147 36.2414 152.317 36.4117C152.488 36.5819 152.719 36.6776 152.961 36.6776C153.202 36.6776 153.434 36.5819 153.604 36.4117C153.775 36.2414 153.871 36.0105 153.871 35.7697V28.87C153.87 28.6293 153.775 28.3985 153.604 28.2283C153.433 28.0581 153.202 27.9624 152.961 27.9621Z" fill="#ADB5BD"/>
<path d="M152.961 48.6612C152.526 48.6607 152.11 48.4884 151.803 48.182C151.496 47.8757 151.323 47.4603 151.323 47.027V40.1273C151.323 39.6939 151.495 39.2783 151.803 38.9718C152.11 38.6653 152.526 38.4932 152.961 38.4932C153.395 38.4932 153.812 38.6653 154.119 38.9718C154.426 39.2783 154.599 39.6939 154.599 40.1273V47.027C154.598 47.4603 154.426 47.8757 154.118 48.182C153.811 48.4884 153.395 48.6607 152.961 48.6612ZM152.961 39.2195C152.719 39.2197 152.488 39.3154 152.318 39.4856C152.147 39.6558 152.051 39.8866 152.051 40.1273V47.027C152.051 47.2678 152.147 47.4987 152.317 47.669C152.488 47.8392 152.719 47.9349 152.961 47.9349C153.202 47.9349 153.434 47.8392 153.604 47.669C153.775 47.4987 153.871 47.2678 153.871 47.027V40.1273C153.87 39.8866 153.775 39.6558 153.604 39.4856C153.433 39.3154 153.202 39.2197 152.961 39.2195Z" fill="#ADB5BD"/>
<path d="M124.023 76.9891H69.424C68.8447 76.9891 68.2892 76.7595 67.8797 76.3509C67.4701 75.9423 67.24 75.3881 67.24 74.8102C67.24 74.2323 67.4701 73.6781 67.8797 73.2695C68.2892 72.8609 68.8447 72.6313 69.424 72.6313H124.023C124.602 72.6313 125.158 72.8609 125.567 73.2695C125.977 73.6781 126.207 74.2323 126.207 74.8102C126.207 75.3881 125.977 75.9423 125.567 76.3509C125.158 76.7595 124.602 76.9891 124.023 76.9891Z" fill="#CCCCCC"/>
<path d="M124.023 86.7938H69.424C68.8447 86.7938 68.2892 86.5642 67.8797 86.1556C67.4701 85.747 67.24 85.1928 67.24 84.6149C67.24 84.037 67.4701 83.4828 67.8797 83.0742C68.2892 82.6656 68.8447 82.436 69.424 82.436H124.023C124.602 82.436 125.158 82.6656 125.567 83.0742C125.977 83.4828 126.207 84.037 126.207 84.6149C126.207 85.1928 125.977 85.747 125.567 86.1556C125.158 86.5642 124.602 86.7938 124.023 86.7938Z" fill="#CCCCCC"/>
<path d="M124.023 96.5989H69.424C68.8447 96.5989 68.2892 96.3694 67.8797 95.9608C67.4701 95.5521 67.24 94.9979 67.24 94.4201C67.24 93.8422 67.4701 93.288 67.8797 92.8794C68.2892 92.4708 68.8447 92.2412 69.424 92.2412H124.023C124.602 92.2412 125.158 92.4708 125.567 92.8794C125.977 93.288 126.207 93.8422 126.207 94.4201C126.207 94.9979 125.977 95.5521 125.567 95.9608C125.158 96.3694 124.602 96.5989 124.023 96.5989Z" fill="#CCCCCC"/>
<path d="M104.587 67.1845H86.9312C85.8693 67.1845 84.8508 66.7636 84.1 66.0145C83.3491 65.2654 82.9272 64.2493 82.9272 63.1899C82.9272 62.1305 83.3491 61.1144 84.1 60.3653C84.8508 59.6162 85.8693 59.1953 86.9312 59.1953H104.587C105.649 59.1953 106.667 59.6162 107.418 60.3653C108.169 61.1144 108.591 62.1305 108.591 63.1899C108.591 64.2493 108.169 65.2654 107.418 66.0145C106.667 66.7636 105.649 67.1845 104.587 67.1845Z" fill="#F50057"/>
<path d="M79.9667 129.639C78.3982 129.639 76.865 129.175 75.5608 128.306C74.2567 127.437 73.2403 126.201 72.64 124.755C72.0398 123.31 71.8828 121.719 72.1888 120.184C72.4948 118.649 73.25 117.24 74.3591 116.133C75.4682 115.027 76.8812 114.273 78.4196 113.968C79.9579 113.663 81.5524 113.819 83.0015 114.418C84.4506 115.017 85.6891 116.031 86.5605 117.332C87.4319 118.633 87.897 120.163 87.897 121.728C87.8946 123.825 87.0584 125.836 85.5716 127.32C84.0849 128.803 82.0692 129.637 79.9667 129.639ZM79.9667 114.649C78.5633 114.649 77.1915 115.064 76.0246 115.842C74.8578 116.62 73.9483 117.725 73.4113 119.019C72.8742 120.312 72.7337 121.736 73.0075 123.109C73.2813 124.482 73.9571 125.743 74.9494 126.733C75.9417 127.723 77.206 128.397 78.5824 128.671C79.9588 128.944 81.3855 128.804 82.682 128.268C83.9786 127.732 85.0868 126.825 85.8664 125.661C86.6461 124.496 87.0622 123.128 87.0622 121.728C87.0622 120.798 86.8787 119.878 86.5221 119.019C86.1655 118.16 85.6429 117.379 84.984 116.722C84.3251 116.065 83.5429 115.543 82.682 115.188C81.8212 114.832 80.8985 114.649 79.9667 114.649Z" fill="#CCCCCC"/>
<path d="M79.9803 124.466C79.8609 124.466 79.7426 124.442 79.6323 124.397C79.522 124.351 79.4218 124.284 79.3375 124.2L76.4236 121.292C76.3391 121.208 76.272 121.108 76.2263 120.998C76.1805 120.888 76.157 120.77 76.157 120.651C76.157 120.531 76.1806 120.413 76.2263 120.303C76.2721 120.193 76.3392 120.093 76.4238 120.009L76.5745 119.858C76.7454 119.688 76.9767 119.593 77.218 119.593C77.4592 119.593 77.6905 119.688 77.8614 119.858L79.372 121.365C79.4283 121.421 79.4962 121.464 79.571 121.491C79.6458 121.519 79.7257 121.529 79.805 121.522C79.8843 121.515 79.9612 121.491 80.0302 121.452C80.0993 121.412 80.1588 121.358 80.2046 121.293L86.6464 112.16C86.7854 111.963 86.997 111.83 87.2347 111.788C87.4725 111.747 87.7169 111.802 87.9143 111.94L88.0895 112.063C88.1873 112.132 88.2705 112.219 88.3344 112.32C88.3984 112.42 88.4418 112.533 88.4623 112.65C88.4827 112.768 88.4798 112.888 88.4536 113.004C88.4274 113.121 88.3786 113.231 88.3098 113.328L80.7251 124.081C80.6488 124.189 80.5496 124.279 80.4345 124.345C80.3194 124.411 80.1912 124.451 80.0589 124.463C80.0326 124.465 80.0065 124.466 79.9803 124.466Z" fill="#FF0004"/>
<path d="M111.271 129.639C109.702 129.639 108.169 129.175 106.865 128.306C105.561 127.437 104.544 126.201 103.944 124.755C103.344 123.31 103.187 121.719 103.493 120.184C103.799 118.649 104.554 117.24 105.663 116.133C106.772 115.027 108.185 114.273 109.724 113.968C111.262 113.663 112.856 113.819 114.305 114.418C115.755 115.017 116.993 116.031 117.864 117.332C118.736 118.633 119.201 120.163 119.201 121.728C119.199 123.825 118.362 125.836 116.876 127.32C115.389 128.803 113.373 129.637 111.271 129.639ZM111.271 114.649C109.867 114.649 108.495 115.064 107.329 115.842C106.162 116.62 105.252 117.725 104.715 119.019C104.178 120.312 104.038 121.736 104.311 123.109C104.585 124.482 105.261 125.743 106.253 126.733C107.246 127.723 108.51 128.397 109.886 128.671C111.263 128.944 112.689 128.804 113.986 128.268C115.283 127.732 116.391 126.825 117.17 125.661C117.95 124.496 118.366 123.128 118.366 121.728C118.366 120.798 118.183 119.878 117.826 119.019C117.47 118.16 116.947 117.379 116.288 116.722C115.629 116.065 114.847 115.543 113.986 115.188C113.125 114.832 112.202 114.649 111.271 114.649Z" fill="#CCCCCC"/>
<path d="M113.812 125.346H113.81C113.691 125.346 113.572 125.323 113.462 125.277C113.352 125.231 113.251 125.164 113.167 125.079L111.657 123.569C111.553 123.469 111.415 123.414 111.271 123.414C111.127 123.414 110.988 123.469 110.884 123.568L109.374 125.079C109.29 125.164 109.19 125.231 109.079 125.277C108.969 125.323 108.85 125.346 108.731 125.346H108.73C108.61 125.346 108.492 125.323 108.382 125.278C108.271 125.232 108.171 125.165 108.087 125.081L107.936 124.931C107.766 124.761 107.67 124.53 107.669 124.29C107.669 124.049 107.764 123.818 107.934 123.647L109.451 122.129C109.552 122.027 109.61 121.889 109.61 121.745C109.61 121.601 109.552 121.463 109.451 121.36L107.899 119.807C107.729 119.637 107.634 119.406 107.634 119.165C107.635 118.924 107.731 118.694 107.901 118.524L108.052 118.373C108.137 118.289 108.237 118.222 108.347 118.177C108.457 118.131 108.575 118.108 108.695 118.108H108.696C108.816 118.108 108.934 118.132 109.044 118.178C109.155 118.223 109.255 118.291 109.339 118.375L110.884 119.921C110.988 120.02 111.127 120.076 111.271 120.076C111.415 120.076 111.553 120.02 111.657 119.921L113.202 118.375C113.286 118.291 113.386 118.223 113.497 118.178C113.607 118.132 113.726 118.108 113.845 118.108H113.847C113.966 118.108 114.084 118.131 114.194 118.177C114.305 118.222 114.405 118.289 114.489 118.374L114.64 118.524C114.811 118.694 114.907 118.924 114.907 119.165C114.907 119.406 114.812 119.637 114.642 119.807L113.091 121.36C112.989 121.462 112.932 121.601 112.932 121.745C112.932 121.889 112.989 122.027 113.091 122.129L114.607 123.647C114.777 123.818 114.872 124.049 114.872 124.289C114.872 124.53 114.776 124.761 114.605 124.931L114.454 125.081C114.37 125.165 114.27 125.232 114.159 125.278C114.049 125.323 113.931 125.346 113.812 125.346Z" fill="#CCCCCC"/>
<path d="M218.929 207.202H223.583L225.798 189.294H218.929V207.202Z" fill="#FBBEBE"/>
<path d="M232.557 211.513H217.932V205.875H226.985C227.717 205.875 228.441 206.019 229.118 206.298C229.794 206.578 230.408 206.987 230.925 207.503C231.443 208.02 231.853 208.633 232.133 209.307C232.413 209.982 232.557 210.704 232.557 211.435V211.513Z" fill="#2F2E41"/>
<path d="M220.565 179.453L217.355 182.815L202.831 172.063L207.568 167.102L220.565 179.453Z" fill="#FBBEBE"/>
<path d="M214.045 184.358L220.29 177.818L224.381 181.706L214.293 192.271L214.237 192.217C213.167 191.2 212.545 189.801 212.509 188.327C212.474 186.853 213.026 185.425 214.045 184.358Z" fill="#2F2E41"/>
<path d="M252.956 130.392C253.251 129.919 253.438 129.388 253.505 128.835C253.571 128.282 253.516 127.722 253.342 127.193C253.167 126.664 252.879 126.179 252.497 125.774C252.115 125.368 251.649 125.051 251.13 124.844L232.859 78.3877L225.738 82.6419L246.034 127.21C245.744 128.101 245.792 129.068 246.169 129.927C246.546 130.785 247.225 131.476 248.079 131.868C248.932 132.261 249.9 132.327 250.799 132.055C251.698 131.783 252.465 131.191 252.956 130.392Z" fill="#FBBEBE"/>
<path d="M183.606 133.722C184.163 133.682 184.704 133.521 185.192 133.25C185.679 132.979 186.101 132.605 186.428 132.153C186.755 131.702 186.978 131.185 187.083 130.638C187.188 130.091 187.171 129.528 187.034 128.989L213.988 86.9487L206.354 83.6973L182.122 126.263C181.228 126.553 180.472 127.159 179.997 127.968C179.522 128.777 179.36 129.731 179.543 130.65C179.726 131.57 180.241 132.39 180.99 132.956C181.739 133.522 182.67 133.795 183.606 133.722Z" fill="#FBBEBE"/>
<path d="M232.68 125.74L227.908 196.482L216.507 195.478L214.159 143.287L207.788 165.702L194.038 166.706L199.48 122.394L232.68 125.74Z" fill="#2F2E41"/>
<path d="M205.776 162.357L207.788 165.703L221.872 175.405L211.812 180.758C211.812 180.758 192.362 170.052 194.039 166.706L205.776 162.357Z" fill="#2F2E41"/>
<path d="M242.664 97.1176L238.694 85.9584C237.811 83.4758 236.444 81.1925 234.67 79.2407C232.897 77.289 230.753 75.7074 228.363 74.5877C222.991 72.6132 217.148 72.2941 211.592 73.6718C211.136 73.785 210.655 73.9042 210.148 74.0295C206.297 74.9611 202.688 76.7002 199.562 79.131C197.117 81.0546 194.916 83.4902 194.721 86.1098C194.719 86.1155 194.717 86.1205 194.716 86.1262C194.038 89.0882 193.703 104.478 193.703 104.478H199.678L198.733 125.221L198.81 125.071C198.81 125.071 233.274 131.577 233.274 128.232V106.82L233.98 99.0669L242.664 97.1176Z" fill="#E6E6E6"/>
<path d="M210.495 70.7732C215.769 70.7732 220.046 66.5072 220.046 61.2447C220.046 55.9823 215.769 51.7163 210.495 51.7163C205.22 51.7163 200.944 55.9823 200.944 61.2447C200.944 66.5072 205.22 70.7732 210.495 70.7732Z" fill="#FBBEBE"/>
<path d="M209.68 57.2936L201.649 57.2681C200.716 57.2652 199.697 57.2323 198.986 56.6292C197.916 55.7209 198.095 54.0071 198.668 52.7271C200.265 49.1624 204.228 46.8987 208.14 47.0035C212.052 47.1083 215.756 49.4184 217.863 52.708C219.971 55.9977 220.54 60.1524 219.746 63.9754C218.829 62.0315 217.416 60.3617 215.649 59.1327C213.883 57.9037 211.824 57.1586 209.678 56.9716L209.68 57.2936Z" fill="#FF6584"/>
<path d="M269.72 211.721H4.93335V212.447H269.72V211.721Z" fill="#3F3D56"/>
</svg>
