<svg width="242" height="201" viewBox="0 0 242 201" fill="none" xmlns="http://www.w3.org/2000/svg">
<g clip-path="url(#clip0_1610_31342)">
<path d="M64.9835 188.876L69.0633 190.297L76.4921 175.254L70.4708 173.156L64.9835 188.876Z" fill="#FBBEBE"/>
<path d="M70.2926 191.137L71.2572 188.374L70.1618 188.066L65.7057 186.803L64.6736 186.513L60.6706 195.497L60.4561 195.979L63.3529 196.988L63.618 196.528L64.8205 194.435L65.125 197.053L65.191 197.628L72.871 200.304C73.329 200.46 73.8303 200.43 74.2659 200.219C74.7016 200.008 75.0365 199.634 75.1979 199.179C76.05 197.779 70.8046 192.285 70.2926 191.137Z" fill="#2F2E41"/>
<path d="M36.1307 192.061H40.4512L42.5068 175.413L36.1296 175.413L36.1307 192.061Z" fill="#FBBEBE"/>
<path d="M41.889 192.449V189.523L40.7531 189.592L36.1293 189.866L35.0592 189.932L34.2411 199.731L34.1973 200.256H37.2652L37.3638 199.735L37.8094 197.363L38.9598 199.735L39.2119 200.256H47.3455C47.8296 200.253 48.2928 200.06 48.6347 199.717C48.9766 199.375 49.1696 198.912 49.1717 198.429C49.515 196.827 42.7509 193.365 41.889 192.449Z" fill="#2F2E41"/>
<path d="M66.9656 87.5952L73.7514 96.5794C73.7514 96.5794 70.0038 96.3197 73.7514 97.9469C77.4989 99.5742 77.6051 98.9992 77.552 100.971C77.4989 102.943 73.6787 102.649 75.5888 104.668C77.4989 106.687 90.2936 133.531 90.2936 133.531C90.2936 133.531 79.8094 172.395 78.4667 173.981C77.1241 175.566 75.6251 174.069 77.1241 175.566C78.6231 177.064 80.4969 175.192 78.6231 177.064C76.7494 178.936 74.1792 182.239 74.1792 182.239L66.6311 181.182C66.6311 181.182 58.3865 173.32 71.5029 160.218C71.5029 160.218 74.8048 147.11 73.3412 147.113C71.8776 147.116 71.8776 149.23 71.8776 144.991V140.752L54.5079 108.247C54.5079 108.247 43.423 99.6095 43.5971 95.6612C43.7712 91.7129 66.9656 87.5952 66.9656 87.5952Z" fill="#2F2E41"/>
<path d="M54.639 96.5797C54.639 96.5797 62.5088 136.26 61.3845 137.383C60.2603 138.506 60.2603 141.324 60.2603 141.324L42.2722 181.182L35.1519 181.556C34.9837 170.153 34.9374 161.503 41.1479 153.48L44.1459 94.708L54.639 96.5797Z" fill="#2F2E41"/>
<path d="M64.856 49.477L56.2791 42.7131L51.7769 42.4517L45.0963 46.7268L43.4604 55.0632L39.5916 64.4507L45.2661 89.7845C45.2661 89.7845 45.7983 91.6024 44.4037 91.8208C43.009 92.0391 43.1762 94.7188 43.1762 94.7188C43.1762 94.7188 43.4602 97.0412 42.106 97.2457C40.7517 97.4502 37.1406 97.4502 40.3005 101.509C43.4604 105.567 68.4533 90.2176 68.4533 90.2176L72.0833 71.1912C72.0833 71.1912 79.1232 61.746 71.5418 56.3365L64.856 49.477Z" fill="#E6E6E6"/>
<path d="M27.414 106.996C27.0361 106.525 26.7661 105.977 26.6232 105.391C26.4803 104.804 26.4679 104.193 26.5868 103.602C26.7058 103.01 26.9532 102.451 27.3116 101.965C27.67 101.479 28.1308 101.077 28.6614 100.788L39.4498 64.6221L46.1957 68.0147L34.447 102.68C34.8737 103.602 34.9469 104.649 34.6525 105.622C34.3582 106.595 33.7168 107.426 32.8499 107.958C31.983 108.491 30.9508 108.687 29.949 108.509C28.9471 108.332 28.0451 107.794 27.414 106.996L27.414 106.996Z" fill="#FBBEBE"/>
<path d="M46.6456 46.3923C46.6456 46.3923 44.7172 45.3686 43.3982 49.7986C42.3423 53.3452 33.7738 74.4701 33.6645 79.6061C32.9593 79.7554 32.3239 80.1348 31.8584 80.6845C31.3929 81.2342 31.1236 81.923 31.0931 82.6424L41.6873 84.0606C43.5385 82.5009 44.0242 80.3943 43.308 79.769L45.6082 73.4935L55.2045 53.5268L48.0527 47.1076L46.6456 46.3923Z" fill="#E6E6E6"/>
<path d="M103.253 95.1085C103.39 94.5205 103.396 93.9097 103.271 93.3191C103.146 92.7285 102.893 92.1724 102.53 91.6901C102.166 91.2078 101.701 90.811 101.168 90.5276C100.634 90.2442 100.045 90.0811 99.4412 90.0499L74.6929 61.8159L69.4431 68.0733L95.0434 94.2543C95.058 95.2706 95.4453 96.2462 96.1319 96.9963C96.8185 97.7464 97.7566 98.2189 98.7686 98.3241C99.7806 98.4294 100.796 98.1602 101.623 97.5676C102.449 96.9749 103.03 96.1 103.253 95.1085Z" fill="#FBBEBE"/>
<path d="M59.6768 48.7715C59.6768 48.7715 60.9723 47.0154 64.0794 50.44C66.5669 53.1816 83.438 68.5278 85.76 73.1115C86.4604 72.9415 87.1976 73.0091 87.8553 73.3037C88.513 73.5982 89.054 74.103 89.3929 74.7385L80.4545 80.5936C78.1101 79.987 76.7602 78.2973 77.1354 77.4242L72.3446 72.7594L55.0481 58.9015L58.7177 50.0242L59.6768 48.7715Z" fill="#E6E6E6"/>
<path d="M63.1412 32.9205C65.089 27.9173 62.6077 22.2842 57.5992 20.3386C52.5906 18.3929 46.9514 20.8715 45.0037 25.8746C43.0559 30.8778 45.5372 36.5109 50.5457 38.4565C55.5543 40.4022 61.1935 37.9236 63.1412 32.9205Z" fill="#FBBEBE"/>
<path d="M65.6978 20.488C65.1122 19.8572 64.3365 19.4346 63.4885 19.2844C62.6404 19.1342 61.7665 19.2647 60.9995 19.6559C61.1954 18.5636 61.3912 17.4712 61.587 16.3789C59.9598 16.1301 58.3326 15.8813 56.7055 15.6324C54.2507 15.2571 51.7212 14.8842 49.307 15.4661C47.5788 15.9079 46.004 16.8124 44.7524 18.0823C43.5009 19.3521 42.62 20.9391 42.2047 22.6721C41.1533 21.9601 39.9232 21.5567 38.6539 21.5079C37.3845 21.459 36.127 21.7666 35.0238 22.3958C33.9207 23.0249 33.0163 23.9504 32.4132 25.0672C31.8101 26.1839 31.5326 27.4472 31.612 28.7136C31.729 30.5776 32.6016 32.2975 33.1415 34.0855C35.1933 40.8803 31.7952 48.9005 25.4838 52.1595C27.5165 53.6999 29.6158 55.2737 32.0774 55.944C34.539 56.6144 37.4816 56.1738 39.1028 54.2057C39.9321 53.1988 40.3324 51.9166 40.7142 50.6697C42.2577 45.6282 43.8012 40.5867 45.3447 35.5452L47.84 40.0456C48.6369 41.1586 48.3516 42.7162 47.7776 43.9586C47.2035 45.2009 46.3696 46.3512 46.1126 47.6952C45.8556 49.0393 46.4528 50.7048 47.79 51.0017C49.5966 46.7564 51.4419 42.2325 50.7411 37.6729C50.4683 35.8983 49.8149 34.0783 50.3282 32.3577C50.7249 31.0282 51.7749 29.9819 52.9415 29.2292C54.1628 28.4424 55.5345 27.9178 56.9696 27.6886C60.141 27.1848 64.0884 27.8615 65.95 25.2476C66.4325 24.5351 66.669 23.6846 66.6235 22.8255C66.578 21.9664 66.2529 21.1457 65.6978 20.488Z" fill="#2F2E41"/>
<path d="M59.5118 80.6891C64.0629 80.6891 67.7522 77.0037 67.7522 72.4576C67.7522 67.9115 64.0629 64.2261 59.5118 64.2261C54.9607 64.2261 51.2714 67.9115 51.2714 72.4576C51.2714 77.0037 54.9607 80.6891 59.5118 80.6891Z" fill="#F50057"/>
<path d="M61.4353 68.3153C61.4792 68.4942 61.5447 68.667 61.6305 68.83C61.7029 69.0139 61.8248 69.1742 61.9827 69.2933C62.1407 69.4123 62.3285 69.4853 62.5254 69.5043C62.5585 69.5029 62.5913 69.4981 62.6235 69.4902C62.9758 69.4034 63.1907 68.9771 63.1942 68.4447C63.1943 68.2606 63.1718 68.0771 63.1274 67.8984C63.0844 67.7213 63.0196 67.5501 62.9346 67.3888C62.6842 66.9167 62.2936 66.6362 61.9403 66.7233C61.4723 66.8386 61.2468 67.5516 61.4353 68.3153Z" fill="white"/>
<path d="M62.0705 68.8273C62.1372 69.0997 62.2984 69.3395 62.5254 69.5042C62.5585 69.5028 62.5913 69.4981 62.6235 69.4901C62.9758 69.4033 63.1907 68.9771 63.1942 68.4446C63.1943 68.2605 63.1718 68.0771 63.1274 67.8984C63.0844 67.7212 63.0196 67.55 62.9346 67.3887C62.6294 67.4657 62.3672 67.6603 62.2053 67.9299C62.0434 68.1995 61.9949 68.5221 62.0705 68.8273Z" fill="#3F3D56"/>
<path d="M57.9305 69.1786C58.1115 69.9118 58.6087 70.4256 59.0621 70.3641C59.0811 70.3616 59.0999 70.3581 59.1186 70.3535C59.5855 70.2384 59.811 69.5254 59.6225 68.7617C59.5796 68.5849 59.5149 68.4141 59.43 68.2531C59.1793 67.78 58.7888 67.4995 58.4354 67.5866C57.9675 67.7019 57.7419 68.4149 57.9305 69.1786Z" fill="white"/>
<path d="M58.6002 69.6825C58.6676 69.9576 58.8314 70.1995 59.062 70.3644C59.081 70.362 59.0998 70.3584 59.1185 70.3538C59.5854 70.2388 59.8109 69.5257 59.6224 68.7621C59.5795 68.5852 59.5148 68.4144 59.4299 68.2534C59.1332 68.3378 58.8808 68.534 58.7261 68.8006C58.5713 69.0671 58.5262 69.3833 58.6002 69.6825Z" fill="#3F3D56"/>
<path d="M64.8725 71.5918C65.3739 73.6223 64.5797 75.5642 63.0987 75.929C61.6177 76.2939 60.0107 74.9436 59.5094 72.9131C61.337 73.3714 63.126 72.9587 64.8725 71.5918Z" fill="white"/>
<path opacity="0.2" d="M51.5118 74.4444C51.1066 72.8034 51.2168 71.0776 51.8274 69.5013C52.438 67.925 53.5194 66.5745 54.9247 65.6333C53.6133 67.1381 52.8936 69.0674 52.8994 71.0624C52.9052 73.0575 53.6361 74.9826 54.9562 76.4798C56.2763 77.9769 58.0958 78.9443 60.0763 79.2019C62.0568 79.4596 64.0636 78.99 65.7235 77.8805C64.7329 79.0168 63.4489 79.8596 62.0116 80.317C60.5744 80.7743 59.039 80.8288 57.5729 80.4743C56.1068 80.1198 54.7662 79.37 53.6974 78.3068C52.6286 77.2435 51.8726 75.9075 51.5118 74.4444Z" fill="#272B30"/>
<path d="M238.716 194.925C238.553 194.932 238.391 194.889 238.253 194.802C238.115 194.715 238.007 194.587 237.944 194.437C237.881 194.287 237.866 194.12 237.901 193.961C237.936 193.802 238.019 193.657 238.139 193.546L238.193 193.329C238.186 193.312 238.179 193.295 238.171 193.277C238.007 192.89 237.732 192.559 237.38 192.327C237.028 192.095 236.616 191.973 236.194 191.974C235.773 191.976 235.361 192.102 235.011 192.336C234.661 192.571 234.388 192.903 234.227 193.292C233.582 194.844 232.76 196.399 232.558 198.04C232.469 198.765 232.507 199.501 232.669 200.213C231.154 196.912 230.367 193.323 230.362 189.691C230.362 188.779 230.412 187.869 230.514 186.963C230.598 186.22 230.714 185.483 230.863 184.751C231.675 180.779 233.419 177.056 235.951 173.889C237.176 173.221 238.168 172.193 238.791 170.946C239.016 170.497 239.176 170.018 239.264 169.524C239.126 169.542 238.743 167.439 238.847 167.31C238.655 167.018 238.31 166.872 238.099 166.587C237.053 165.17 235.611 165.418 234.859 167.344C233.251 168.154 233.235 169.499 234.222 170.792C234.849 171.614 234.936 172.727 235.486 173.608C235.43 173.68 235.371 173.751 235.314 173.823C234.278 175.153 233.376 176.582 232.619 178.088C232.803 176.401 232.583 174.694 231.978 173.108C231.365 171.629 230.215 170.384 229.202 169.106C228.934 168.763 228.571 168.507 228.157 168.37C227.744 168.233 227.299 168.222 226.879 168.338C226.459 168.453 226.082 168.691 225.798 169.02C225.513 169.349 225.332 169.755 225.278 170.187C225.276 170.206 225.274 170.225 225.272 170.244C225.422 170.328 225.569 170.418 225.713 170.514C225.894 170.634 226.035 170.807 226.116 171.009C226.197 171.21 226.215 171.432 226.168 171.644C226.121 171.856 226.011 172.049 225.852 172.198C225.693 172.347 225.493 172.444 225.278 172.477L225.256 172.48C225.31 173.022 225.404 173.558 225.539 174.086C224.24 179.103 227.045 180.931 231.049 181.013C231.137 181.058 231.223 181.104 231.312 181.147C230.551 183.299 230.074 185.541 229.893 187.816C229.79 189.158 229.796 190.507 229.911 191.848L229.904 191.801C229.614 190.309 228.818 188.963 227.649 187.991C225.914 186.567 223.462 186.042 221.59 184.898C221.391 184.77 221.16 184.702 220.923 184.701C220.687 184.701 220.455 184.768 220.255 184.894C220.056 185.021 219.897 185.202 219.797 185.416C219.697 185.63 219.66 185.868 219.691 186.102L219.699 186.152C219.978 186.266 220.25 186.397 220.512 186.544C220.663 186.629 220.81 186.719 220.954 186.814C221.135 186.935 221.275 187.107 221.356 187.309C221.437 187.511 221.456 187.732 221.409 187.944C221.362 188.157 221.251 188.35 221.093 188.498C220.934 188.647 220.734 188.744 220.519 188.777L220.497 188.781C220.481 188.783 220.467 188.785 220.451 188.787C220.928 189.925 221.597 190.972 222.43 191.882C223.242 196.263 226.73 196.678 230.462 195.403H230.464C230.873 197.18 231.467 198.91 232.234 200.564H238.557C238.58 200.494 238.6 200.422 238.621 200.351C238.035 200.388 237.448 200.353 236.871 200.247C237.34 199.672 237.809 199.093 238.279 198.518C238.289 198.507 238.299 198.496 238.308 198.484C238.546 198.189 238.786 197.897 239.024 197.603L239.024 197.603C239.037 196.701 238.933 195.801 238.716 194.925L238.716 194.925Z" fill="#F2F2F2"/>
<path d="M1.84815e-06 200.583C-0.000161692 200.638 0.0105299 200.692 0.0314577 200.743C0.0523856 200.794 0.0831399 200.84 0.121949 200.878C0.160758 200.917 0.206855 200.948 0.257592 200.969C0.308329 200.99 0.362709 201 0.417591 201H241.582C241.693 201 241.799 200.956 241.878 200.878C241.956 200.8 242 200.694 242 200.583C242 200.473 241.956 200.366 241.878 200.288C241.799 200.21 241.693 200.166 241.582 200.166H0.41757C0.36269 200.166 0.308315 200.177 0.257581 200.197C0.206847 200.218 0.16075 200.249 0.121944 200.288C0.0831372 200.327 0.0523849 200.373 0.0314577 200.423C0.0105305 200.474 -0.000159816 200.528 1.84815e-06 200.583Z" fill="#CCCCCC"/>
<path d="M170.871 194.843L165.781 194.842L163.359 175.229L170.872 175.23L170.871 194.843Z" fill="#FBBEBE"/>
<path d="M171.05 200.148L155.397 200.147V199.949C155.397 198.335 156.039 196.787 157.182 195.646C158.324 194.504 159.874 193.863 161.49 193.863H161.49L164.349 191.696L169.684 193.864L171.051 193.864L171.05 200.148Z" fill="#2F2E41"/>
<path d="M193.076 194.843L187.986 194.842L185.565 175.229L193.077 175.23L193.076 194.843Z" fill="#FBBEBE"/>
<path d="M193.255 200.148L177.602 200.147V199.949C177.602 198.335 178.244 196.787 179.387 195.646C180.529 194.504 182.079 193.863 183.695 193.863H183.695L186.554 191.696L191.889 193.864L193.256 193.864L193.255 200.148Z" fill="#2F2E41"/>
<path d="M158.197 87.9761C158.197 87.9761 153.299 103.002 154.203 104.98C155.107 106.957 156.65 105.417 155.107 106.957C153.565 108.498 152.218 106.86 153.663 109.477C155.107 112.093 157.295 133.632 158.258 134.674C159.22 135.717 160.543 135.745 159.368 136.758C158.192 137.771 156.65 135.717 158.192 137.771C159.734 139.826 163.827 187.215 163.827 187.215H171.822C171.822 187.215 173.813 184.922 172.686 183.43C171.559 181.938 172.785 181.363 172.686 180.367C172.587 179.37 172.962 177.222 173.032 176.242C173.101 175.262 174.453 151.91 171.206 138.421L177.126 112.737L184.296 143.78C184.296 143.78 180.998 169.819 184.296 178.189C184.296 178.189 181.637 180.401 182.816 181.683C183.996 182.965 185.024 181.938 183.996 182.965C182.967 183.992 185.538 187.587 185.538 187.587L194.278 187.074L199.225 138.421C199.225 138.421 200.059 133.347 199.225 132.478C198.391 131.609 198.391 134.69 198.391 131.609V127.5C198.391 127.5 197.908 102.23 197.844 100.742C197.779 99.2539 191.61 88.469 191.61 88.469L158.197 87.9761Z" fill="#2F2E41"/>
<path d="M158.27 36.0783V65.7071C159.227 68.576 159.721 71.579 159.733 74.6031C159.701 79.6399 158.592 85.4444 158.596 87.9821C158.581 88.3187 158.618 88.6556 158.705 88.9811C163.614 103.194 189.59 90.278 191.952 89.0687C192.064 89.0126 192.124 88.9811 192.124 88.9811L191.611 73.0608L191.699 68.4831L192.306 37.0807L191.762 36.6461L186.997 32.85L186.531 32.4785L185.099 34.564L172.337 33.6878L167.467 32.3418L165.947 32.9587L159.098 35.7418L158.27 36.0783Z" fill="#F50057"/>
<path d="M150.713 95.6919L152.391 86.4331L157.82 86.6526L155.697 96.3785C155.983 96.8898 156.121 97.4708 156.095 98.0562C156.07 98.6416 155.881 99.2081 155.55 99.6921C155.219 100.176 154.76 100.558 154.224 100.796C153.688 101.034 153.096 101.117 152.515 101.037C151.933 100.957 151.386 100.717 150.934 100.343C150.483 99.9691 150.144 99.477 149.957 98.9216C149.77 98.3663 149.741 97.7698 149.875 97.1993C150.009 96.6287 150.299 96.1067 150.713 95.6919V95.6919Z" fill="#FBBEBE"/>
<path d="M159.103 36.0151C161.893 36.7369 163.486 40.3491 164.466 43.0562C165.727 46.5342 163.681 67.9765 161.192 71.1041C159.262 73.5299 159.72 73.0637 160.357 75.0727C160.995 77.0818 162.467 75.1222 161.141 78.1107C159.816 81.0993 158.688 80.56 159.571 81.8342C160.454 83.1083 161.484 82.9616 160.355 84.8722C159.226 86.7828 159.324 87.4688 159.079 88.2037C158.833 88.9386 158.538 94.2302 158.538 94.2302C158.538 94.2302 152.799 93.2979 149.807 94.4241C149.807 94.4241 151.868 89.2309 151.035 88.2997C150.201 87.3686 149.122 87.1723 150.005 85.9966C150.888 84.8209 152.654 84.9193 150.79 84.1349C148.927 83.3505 150.499 72.2775 150.499 72.2775C148.407 64.9891 149.865 54.0875 151.983 42.5142C152.296 40.8027 153.162 39.2407 154.447 38.0671C155.733 36.8935 157.369 36.1728 159.103 36.0151Z" fill="#F50057"/>
<path d="M195.308 95.0769L195.713 85.6764L201.122 85.1587L200.339 95.0822C200.692 95.5501 200.907 96.107 200.961 96.6905C201.015 97.274 200.904 97.8609 200.643 98.3852C200.381 98.9095 199.978 99.3505 199.479 99.6585C198.979 99.9665 198.404 100.129 197.818 100.129C197.231 100.128 196.656 99.964 196.158 99.655C195.66 99.3459 195.257 98.9041 194.997 98.3793C194.736 97.8544 194.627 97.2673 194.682 96.6839C194.737 96.1005 194.953 95.544 195.308 95.0769Z" fill="#FBBEBE"/>
<path d="M189.654 36.166L189.806 36.1838C191.215 36.35 192.563 36.8568 193.733 37.6605C194.902 38.4642 195.858 39.5406 196.517 40.7963C198.239 44.0714 203.687 66.2532 202.353 69.2973C201.109 72.1361 201.16 71.438 202.064 73.3423C202.968 75.2465 204.161 73.1057 203.254 76.2461C202.346 79.3864 201.155 79.0049 202.203 80.1478C203.25 81.2906 204.251 81.0058 203.392 83.0516C202.533 85.0974 202.723 85.7638 202.58 86.5252C202.436 87.2865 202.862 92.5693 202.862 92.5693C202.862 92.5693 197.049 92.4227 194.238 93.9438C194.238 93.9438 195.575 88.5194 194.623 87.7097C193.67 86.9 192.575 86.8517 193.29 85.5673C194.006 84.2828 195.769 84.1412 193.816 83.6164C191.863 83.0916 191.918 71.9079 191.918 71.9079L189.654 36.166Z" fill="#F50057"/>
<path d="M175.72 24.1852C175.948 24.2378 176.176 24.2833 176.404 24.3184C177.1 24.4327 177.808 24.4691 178.513 24.427C180.349 24.3286 182.121 23.724 183.634 22.6805C185.147 21.637 186.341 20.1953 187.084 18.5152C187.827 16.8352 188.089 14.9824 187.842 13.1625C187.595 11.3426 186.848 9.62661 185.684 8.20485C184.52 6.78309 182.985 5.71113 181.248 5.10785C179.512 4.50458 177.642 4.39356 175.846 4.78711C174.05 5.18066 172.399 6.0634 171.074 7.33744C169.75 8.61147 168.805 10.227 168.344 12.0049C168.323 12.0855 168.302 12.1626 168.284 12.2432C167.685 14.8117 168.132 17.5126 169.527 19.752C170.921 21.9914 173.148 23.586 175.72 24.1852Z" fill="#FBBEBE"/>
<path d="M184.907 23.012C186.291 21.9297 186.426 19.8666 187.607 18.5662C189.582 16.3919 190.51 14.0526 189.476 11.4763C188.56 9.19754 188.755 6.39644 186.784 4.92966C187.752 4.57959 187.98 3.8526 187.125 3.83918C186.549 3.83012 184.402 4.92986 185.435 3.55988C186.469 2.18991 184.513 2.73066 184.642 2.16988C184.771 1.60911 185.601 1.29851 185.967 1.74303C184.799 0.375821 182.248 0.667309 181.419 2.2627C180.255 0.519704 179.019 -0.679642 177.237 0.426467C175.488 1.51282 175.51 2.85571 173.629 2.53298C172.744 2.38127 172.661 4.0507 172.056 4.71359C171.452 5.37648 170.569 5.88952 169.687 5.72303C168.805 5.55654 168.13 4.45867 168.625 3.71025L166.546 8.44716L165.708 7.42072C164.377 8.28728 164.814 10.5485 166.154 11.4014C167.494 12.2544 170.051 10.2829 170.778 11.6941C171.925 13.9185 174.614 12.7952 176.46 11.2232C178.7 9.31679 181.403 15.1133 180.324 17.8475C181.443 16.7496 183.514 17.6607 184.093 19.1167C184.673 20.5727 184.248 22.2131 183.818 23.7201L184.907 23.012Z" fill="#2F2E41"/>
<path d="M165.947 32.9588L166.295 33.4005L167.228 34.5852L170.683 44.7781L186.997 32.8502L186.531 32.4786L184.046 27.2034L171.284 26.3271L167.467 32.3419L165.947 32.9588Z" fill="#3F3D56"/>
<path d="M183.315 58.9569C182.493 67.777 176.612 74.4422 170.179 73.8441C163.746 73.246 159.197 65.6111 160.019 56.791C166.692 61.1641 174.424 61.9988 183.315 58.9569Z" fill="white"/>
<path d="M168.117 48.4671C168.084 48.9915 167.987 49.5099 167.829 50.0108C167.403 51.3229 166.578 52.2472 165.654 52.3546C165.561 52.3672 165.466 52.3704 165.372 52.3642C164.339 52.2975 163.52 51.2082 163.242 49.7146C163.149 49.1974 163.12 48.6709 163.155 48.1466C163.186 47.6274 163.282 47.114 163.44 46.6182C163.905 45.1663 164.861 44.1824 165.897 44.2493C167.27 44.338 168.262 46.2274 168.117 48.4671Z" fill="white"/>
<path d="M166.591 50.2248C166.541 51.0231 166.209 51.7778 165.654 52.3546C165.561 52.3672 165.466 52.3704 165.372 52.3642C164.339 52.2975 163.52 51.2082 163.242 49.7146C163.149 49.1974 163.12 48.6709 163.155 48.1466C163.186 47.6274 163.282 47.114 163.44 46.6182C164.336 46.6811 165.17 47.0958 165.761 47.7717C166.351 48.4476 166.65 49.3296 166.591 50.2248Z" fill="#3F3D56"/>
<path d="M178.397 49.1307C178.258 51.2811 177.12 52.9741 175.815 53.0291C175.761 53.0318 175.706 53.0314 175.651 53.0278C174.282 52.9393 173.289 51.0499 173.434 48.8102C173.466 48.2919 173.561 47.7796 173.719 47.2848C174.185 45.8299 175.14 44.8459 176.177 44.9129C177.549 45.0015 178.542 46.8909 178.397 49.1307Z" fill="white"/>
<path d="M176.769 50.8821C176.718 51.6887 176.38 52.4506 175.815 53.0294C175.761 53.0322 175.706 53.0317 175.651 53.0281C174.282 52.9397 173.289 51.0503 173.434 48.8105C173.466 48.2923 173.561 47.7799 173.719 47.2852C174.595 47.3731 175.402 47.7973 175.971 48.4682C176.54 49.1392 176.826 50.0046 176.769 50.8821Z" fill="#3F3D56"/>
<path d="M91.9312 28.718C94.6102 28.718 96.782 26.5486 96.782 23.8724C96.782 21.1963 94.6102 19.0269 91.9312 19.0269C89.2521 19.0269 87.0803 21.1963 87.0803 23.8724C87.0803 26.5486 89.2521 28.718 91.9312 28.718Z" fill="#ADB5BD"/>
<path d="M92.5458 21.8522C92.5409 21.9605 92.5491 22.069 92.5704 22.1752C92.5807 22.2911 92.6229 22.4019 92.6923 22.4953C92.7617 22.5888 92.8557 22.6612 92.9637 22.7046C92.9826 22.7092 93.002 22.712 93.0214 22.7129C93.2348 22.7223 93.4271 22.5172 93.5176 22.2172C93.5483 22.1132 93.5661 22.0058 93.5707 21.8976C93.5759 21.7904 93.5678 21.6829 93.5466 21.5777C93.4837 21.2696 93.3098 21.0464 93.0957 21.0369C92.8123 21.0244 92.5664 21.3896 92.5458 21.8522Z" fill="white"/>
<path d="M92.8195 22.2468C92.8118 22.4116 92.863 22.5738 92.9638 22.7045C92.9828 22.7092 93.0021 22.712 93.0216 22.7128C93.2349 22.7222 93.4272 22.5172 93.5177 22.2171C93.5484 22.1131 93.5662 22.0058 93.5708 21.8975C93.576 21.7903 93.5679 21.6829 93.5467 21.5777C93.3616 21.5705 93.1811 21.6369 93.0448 21.7623C92.9086 21.8877 92.8275 22.0619 92.8195 22.2468Z" fill="#F2F2F2"/>
<path d="M90.4229 21.7585C90.4032 22.2026 90.5986 22.5752 90.8648 22.6157C90.876 22.6175 90.8872 22.6186 90.8985 22.6191C91.1813 22.6316 91.4273 22.2664 91.4478 21.8038C91.4529 21.6968 91.4448 21.5896 91.4236 21.4846C91.3607 21.1758 91.1868 20.9527 90.9728 20.9432C90.6893 20.9306 90.4434 21.2959 90.4229 21.7585Z" fill="white"/>
<path d="M90.7174 22.1538C90.7097 22.3203 90.762 22.4841 90.8648 22.6155C90.8759 22.6173 90.8872 22.6184 90.8985 22.6189C91.1813 22.6314 91.4272 22.2661 91.4478 21.8036C91.4529 21.6966 91.4448 21.5894 91.4236 21.4844C91.242 21.4828 91.0669 21.5517 90.9352 21.6766C90.8034 21.8015 90.7254 21.9725 90.7174 22.1538Z" fill="#F2F2F2"/>
<path d="M93.9422 24.2731C93.8877 25.503 93.1163 26.4679 92.2192 26.4282C91.3222 26.3885 90.6392 25.3593 90.6937 24.1294C91.184 24.4118 91.735 24.5722 92.3004 24.5972C92.8658 24.6222 93.4289 24.5111 93.9422 24.2731Z" fill="white"/>
<path d="M117.546 78.8411C120.225 78.8411 122.397 76.6716 122.397 73.9955C122.397 71.3193 120.225 69.1499 117.546 69.1499C114.867 69.1499 112.696 71.3193 112.696 73.9955C112.696 76.6716 114.867 78.8411 117.546 78.8411Z" fill="#ADB5BD"/>
<path d="M118.161 71.9758C118.156 72.084 118.164 72.1925 118.186 72.2988C118.196 72.4147 118.238 72.5255 118.308 72.6189C118.377 72.7123 118.471 72.7847 118.579 72.8281C118.598 72.8328 118.617 72.8356 118.637 72.8364C118.85 72.8459 119.042 72.6408 119.133 72.3407C119.163 72.2367 119.181 72.1294 119.186 72.0211C119.191 71.9139 119.183 71.8065 119.162 71.7013C119.099 71.3931 118.925 71.1699 118.711 71.1605C118.428 71.1479 118.182 71.5132 118.161 71.9758Z" fill="white"/>
<path d="M118.435 72.3703C118.427 72.5352 118.478 72.6973 118.579 72.828C118.598 72.8327 118.617 72.8355 118.637 72.8363C118.85 72.8458 119.042 72.6407 119.133 72.3406C119.163 72.2367 119.181 72.1293 119.186 72.021C119.191 71.9138 119.183 71.8064 119.162 71.7012C118.977 71.6941 118.796 71.7604 118.66 71.8858C118.524 72.0112 118.443 72.1854 118.435 72.3703Z" fill="#F2F2F2"/>
<path d="M116.038 71.8815C116.018 72.3256 116.214 72.6983 116.48 72.7388C116.491 72.7406 116.502 72.7417 116.514 72.7422C116.797 72.7547 117.043 72.3894 117.063 71.9269C117.068 71.8199 117.06 71.7127 117.039 71.6077C116.976 71.2989 116.802 71.0757 116.588 71.0662C116.305 71.0537 116.059 71.4189 116.038 71.8815Z" fill="white"/>
<path d="M116.333 72.2773C116.325 72.4439 116.377 72.6077 116.48 72.739C116.491 72.7408 116.502 72.742 116.514 72.7424C116.797 72.7549 117.042 72.3897 117.063 71.9271C117.068 71.8201 117.06 71.7129 117.039 71.6079C116.857 71.6064 116.682 71.6753 116.55 71.8001C116.419 71.925 116.341 72.0961 116.333 72.2773Z" fill="#F2F2F2"/>
<path d="M119.557 74.3962C119.503 75.6261 118.731 76.5909 117.834 76.5512C116.937 76.5116 116.254 75.4823 116.309 74.2524C116.799 74.5348 117.35 74.6953 117.916 74.7203C118.481 74.7453 119.044 74.6341 119.557 74.3962Z" fill="white"/>
<path d="M210.884 22.0583C213.563 22.0583 215.735 19.8889 215.735 17.2128C215.735 14.5366 213.563 12.3672 210.884 12.3672C208.205 12.3672 206.033 14.5366 206.033 17.2128C206.033 19.8889 208.205 22.0583 210.884 22.0583Z" fill="#ADB5BD"/>
<path d="M211.498 15.1925C211.493 15.3008 211.502 15.4093 211.523 15.5156C211.533 15.6315 211.576 15.7422 211.645 15.8357C211.714 15.9291 211.808 16.0015 211.916 16.0449C211.935 16.0496 211.955 16.0524 211.974 16.0532C212.187 16.0626 212.38 15.8576 212.47 15.5575C212.501 15.4535 212.519 15.3462 212.523 15.2379C212.529 15.1307 212.52 15.0233 212.499 14.9181C212.436 14.6099 212.262 14.3867 212.048 14.3773C211.765 14.3647 211.519 14.73 211.498 15.1925Z" fill="white"/>
<path d="M211.772 15.5871C211.764 15.7519 211.816 15.9141 211.916 16.0448C211.935 16.0495 211.955 16.0523 211.974 16.0531C212.187 16.0626 212.38 15.8575 212.47 15.5574C212.501 15.4534 212.519 15.3461 212.523 15.2378C212.529 15.1306 212.52 15.0232 212.499 14.918C212.314 14.9109 212.134 14.9772 211.997 15.1026C211.861 15.228 211.78 15.4022 211.772 15.5871Z" fill="#F2F2F2"/>
<path d="M209.375 15.0988C209.356 15.5429 209.551 15.9156 209.817 15.956C209.828 15.9578 209.84 15.959 209.851 15.9594C210.134 15.9719 210.38 15.6067 210.4 15.1441C210.405 15.0372 210.397 14.93 210.376 14.825C210.313 14.5162 210.139 14.293 209.925 14.2835C209.642 14.2709 209.396 14.6362 209.375 15.0988Z" fill="white"/>
<path d="M209.67 15.4941C209.662 15.6607 209.714 15.8245 209.817 15.9558C209.828 15.9576 209.84 15.9587 209.851 15.9592C210.134 15.9717 210.38 15.6065 210.4 15.1439C210.405 15.0369 210.397 14.9297 210.376 14.8247C210.195 14.8232 210.019 14.8921 209.888 15.0169C209.756 15.1418 209.678 15.3129 209.67 15.4941Z" fill="#F2F2F2"/>
<path d="M212.895 17.6129C212.84 18.8429 212.069 19.8077 211.172 19.768C210.275 19.7284 209.592 18.6991 209.646 17.4692C210.137 17.7516 210.688 17.9121 211.253 17.9371C211.818 17.9621 212.381 17.8509 212.895 17.6129Z" fill="white"/>
<path d="M6.66431 150.697C9.34335 150.697 11.5151 148.527 11.5151 145.851C11.5151 143.175 9.34335 141.005 6.66431 141.005C3.98527 141.005 1.81348 143.175 1.81348 145.851C1.81348 148.527 3.98527 150.697 6.66431 150.697Z" fill="#ADB5BD"/>
<path d="M7.279 143.831C7.27401 143.939 7.28228 144.047 7.3036 144.154C7.3139 144.27 7.35608 144.38 7.42549 144.474C7.4949 144.567 7.58882 144.64 7.69688 144.683C7.71579 144.688 7.73512 144.691 7.75459 144.691C7.96797 144.701 8.16022 144.496 8.25075 144.196C8.2814 144.092 8.29923 143.984 8.30385 143.876C8.30904 143.769 8.30094 143.661 8.27974 143.556C8.21681 143.248 8.04291 143.025 7.82889 143.015C7.54544 143.003 7.2995 143.368 7.279 143.831Z" fill="white"/>
<path d="M7.55263 144.225C7.54499 144.39 7.59614 144.552 7.69699 144.683C7.7159 144.688 7.73523 144.69 7.75469 144.691C7.96808 144.701 8.16033 144.496 8.25086 144.196C8.28151 144.092 8.29934 143.984 8.30396 143.876C8.30914 143.769 8.30104 143.661 8.27984 143.556C8.0947 143.549 7.91426 143.615 7.77798 143.741C7.64171 143.866 7.56068 144.04 7.55263 144.225Z" fill="#F2F2F2"/>
<path d="M5.15603 143.737C5.13634 144.181 5.3317 144.554 5.59795 144.594C5.60911 144.596 5.62036 144.597 5.63164 144.598C5.91446 144.61 6.1604 144.245 6.18091 143.782C6.18608 143.675 6.17798 143.568 6.15677 143.463C6.09388 143.154 5.91997 142.931 5.70595 142.922C5.42249 142.909 5.17654 143.274 5.15603 143.737Z" fill="white"/>
<path d="M5.45058 144.132C5.44286 144.299 5.49515 144.463 5.59796 144.594C5.60911 144.596 5.62036 144.597 5.63164 144.597C5.91446 144.61 6.1604 144.245 6.18091 143.782C6.18608 143.675 6.17798 143.568 6.15677 143.463C5.97518 143.461 5.80006 143.53 5.66832 143.655C5.53659 143.78 5.45852 143.951 5.45058 144.132Z" fill="#F2F2F2"/>
<path d="M8.67537 146.251C8.62085 147.481 7.84944 148.446 6.9524 148.406C6.05535 148.367 5.37235 147.337 5.42688 146.107C5.91715 146.39 6.4682 146.55 7.03357 146.575C7.59893 146.6 8.16204 146.489 8.67537 146.251Z" fill="white"/>
<path d="M7.71704 73.9343C10.3961 73.9343 12.5679 71.7649 12.5679 69.0887C12.5679 66.4126 10.3961 64.2432 7.71704 64.2432C5.038 64.2432 2.86621 66.4126 2.86621 69.0887C2.86621 71.7649 5.038 73.9343 7.71704 73.9343Z" fill="#ADB5BD"/>
<path d="M8.33173 67.0685C8.32675 67.1768 8.33501 67.2853 8.35634 67.3916C8.36663 67.5074 8.40881 67.6182 8.47822 67.7116C8.54763 67.8051 8.64156 67.8775 8.74961 67.9209C8.76853 67.9256 8.78786 67.9283 8.80732 67.9292C9.02071 67.9386 9.21295 67.7336 9.30348 67.4335C9.33413 67.3295 9.35197 67.2222 9.35659 67.1139C9.36177 67.0067 9.35367 66.8992 9.33247 66.794C9.26955 66.4859 9.09564 66.2627 8.88163 66.2532C8.59818 66.2407 8.35224 66.606 8.33173 67.0685Z" fill="white"/>
<path d="M8.60524 67.4631C8.5976 67.6279 8.64875 67.7901 8.7496 67.9208C8.76851 67.9255 8.78784 67.9283 8.80731 67.9291C9.02069 67.9386 9.21294 67.7335 9.30347 67.4334C9.33412 67.3294 9.35195 67.2221 9.35657 67.1138C9.36175 67.0066 9.35366 66.8992 9.33246 66.794C9.14732 66.7868 8.96688 66.8532 8.8306 66.9786C8.69432 67.104 8.6133 67.2782 8.60524 67.4631Z" fill="#F2F2F2"/>
<path d="M6.20876 66.9748C6.18907 67.4189 6.38443 67.7916 6.65069 67.832C6.66184 67.8338 6.67309 67.835 6.68438 67.8354C6.9672 67.8479 7.21314 67.4827 7.23364 67.0201C7.23882 66.9131 7.23071 66.8059 7.20951 66.7009C7.14661 66.3921 6.9727 66.169 6.75868 66.1595C6.47522 66.1469 6.22927 66.5122 6.20876 66.9748Z" fill="white"/>
<path d="M6.50331 67.3701C6.49559 67.5367 6.54788 67.7005 6.65069 67.8318C6.66184 67.8336 6.67309 67.8347 6.68438 67.8352C6.9672 67.8477 7.21314 67.4825 7.23364 67.0199C7.23882 66.9129 7.23071 66.8057 7.20951 66.7007C7.02791 66.6991 6.85279 66.7681 6.72106 66.8929C6.58932 67.0178 6.51125 67.1889 6.50331 67.3701Z" fill="#F2F2F2"/>
<path d="M9.72799 69.4889C9.67346 70.7188 8.90205 71.6837 8.00501 71.644C7.10796 71.6043 6.42496 70.5751 6.47949 69.3452C6.96976 69.6276 7.52081 69.788 8.08618 69.813C8.65155 69.8381 9.21465 69.7269 9.72799 69.4889Z" fill="white"/>
</g>
<defs>
<clipPath id="clip0_1610_31342">
<rect width="242" height="201" fill="white"/>
</clipPath>
</defs>
</svg>
