<svg width="171" height="134" viewBox="0 0 171 134" fill="none" xmlns="http://www.w3.org/2000/svg">
<path d="M143.453 126.809C144.267 126.857 144.716 125.91 144.101 125.358L144.04 125.13C144.048 125.112 144.056 125.094 144.064 125.076C144.886 123.238 147.674 123.251 148.489 125.091C149.213 126.725 150.134 128.361 150.361 130.088C150.463 130.85 150.417 131.627 150.236 132.375C151.932 128.904 152.825 125.113 152.825 121.301C152.825 120.343 152.769 119.385 152.654 118.43C152.56 117.649 152.431 116.872 152.263 116.102C151.355 111.942 149.39 107.98 146.555 104.671C145.192 103.973 144.056 102.881 143.369 101.573C143.123 101.102 142.929 100.594 142.838 100.077C142.993 100.096 143.423 97.8829 143.306 97.7471C143.522 97.4397 143.909 97.2869 144.145 96.987C145.319 95.4955 146.936 95.7559 147.78 97.7828C149.584 98.6359 149.602 100.051 148.495 101.411C147.791 102.277 147.694 103.449 147.076 104.375C147.14 104.452 147.206 104.525 147.269 104.602C148.435 106.003 149.443 107.508 150.293 109.09C150.053 107.332 150.407 105.214 151.012 103.849C151.7 102.293 152.99 100.983 154.126 99.638C155.49 98.0226 158.288 98.7276 158.528 100.775C158.531 100.795 158.533 100.815 158.535 100.835C158.366 100.924 158.201 101.019 158.04 101.119C157.119 101.69 157.437 103.027 158.528 103.185L158.553 103.189C158.492 103.758 158.388 104.323 158.235 104.878C159.692 110.159 156.546 112.082 152.054 112.169C151.955 112.216 151.859 112.264 151.759 112.309C152.214 113.51 152.578 114.742 152.848 115.99C153.089 117.093 153.257 118.208 153.351 119.328C153.468 120.741 153.458 122.161 153.331 123.572L153.338 123.522C153.661 121.968 154.561 120.517 155.868 119.512C157.815 118.013 160.565 117.461 162.666 116.257C163.677 115.677 164.972 116.426 164.796 117.524L164.787 117.577C164.474 117.696 164.169 117.834 163.874 117.989C163.706 118.078 163.54 118.173 163.379 118.273C162.458 118.844 162.776 120.182 163.867 120.34L163.892 120.343C163.91 120.346 163.925 120.348 163.943 120.35C163.406 121.544 162.659 122.652 161.723 123.607C160.812 128.217 156.899 128.655 152.713 127.312H152.71C152.253 129.18 151.584 131.005 150.725 132.744H143.631C143.606 132.671 143.583 132.594 143.56 132.52C144.216 132.559 144.877 132.523 145.523 132.411C144.996 131.806 144.47 131.196 143.944 130.591C143.931 130.579 143.921 130.567 143.911 130.555C143.644 130.245 143.374 129.938 143.107 129.628L143.107 129.628C143.09 128.677 143.212 127.729 143.453 126.81L143.453 126.809L143.453 126.809V126.809Z" fill="#F2F2F2"/>
<path d="M45.952 132.724C45.952 132.968 46.1607 133.163 46.4205 133.163H170.532C170.791 133.163 171 132.968 171 132.724C171 132.481 170.791 132.285 170.532 132.285H46.4205C46.1607 132.285 45.952 132.481 45.952 132.724H45.952Z" fill="#CCCCCC"/>
<path d="M92.5765 101.004L90.6595 102.447L90.0454 102.911C89.9903 102.841 89.9273 102.767 89.8643 102.701C89.262 102.063 88.396 101.698 87.4907 101.698H72.1072C72.056 101.454 72.0442 101.207 72.0678 100.96C72.1347 100.244 72.5008 99.5545 73.1464 99.0712L83.9518 90.9374C85.2036 89.9931 87.038 90.1812 88.0457 91.3579L93.0252 97.1678C94.033 98.3445 93.8322 100.06 92.5765 101.004L92.5765 101.004Z" fill="#E6E6E6"/>
<path d="M89.3565 101.698H70.3594C69.8634 101.698 69.3792 101.808 68.9462 102.015L68.84 101.937C68.651 101.801 68.4817 101.646 68.344 101.48C67.5213 100.521 67.4701 99.1303 68.3046 98.1122L73.1503 92.2027C74.1305 91.0075 75.9609 90.7825 77.2363 91.701L88.2228 99.6135C88.7188 99.9676 89.0534 100.443 89.2266 100.96C89.3053 101.2 89.3526 101.447 89.3565 101.698Z" fill="#B44A4D"/>
<path d="M90.8563 111.473H6.37305C2.85784 111.473 0 114.151 0 117.445V122.838C0 126.132 2.85784 128.81 6.37305 128.81H90.8563C94.3715 128.81 97.2293 126.132 97.2293 122.838V117.445C97.2293 114.151 94.3715 111.473 90.8563 111.473Z" fill="#F2F2F2"/>
<path d="M93.8086 100.971C93.7417 100.894 93.6748 100.812 93.6039 100.739C92.8521 99.9418 91.7735 99.4844 90.6398 99.4844C83.5021 100.478 76.2142 100.458 68.7848 99.4844C68.0684 99.4844 67.3756 99.6689 66.7694 100.005C66.4191 100.196 66.0963 100.444 65.8207 100.739C65.0689 101.532 64.7185 102.594 64.8563 103.649L68.3085 129.799C68.5526 131.655 70.2413 133.053 72.2331 133.053H87.1915C89.1833 133.053 90.872 131.655 91.1161 129.799L94.5683 103.649C94.6943 102.694 94.4187 101.735 93.8086 100.971Z" fill="white"/>
<path d="M93.8086 100.971C93.7417 100.894 93.6748 100.812 93.6039 100.739C92.8521 99.9418 91.7735 99.4844 90.6398 99.4844C83.3548 100.216 76.0698 100.216 68.7848 99.4844C68.0684 99.4844 67.3756 99.6689 66.7694 100.005C66.4191 100.196 66.0963 100.444 65.8207 100.739C65.0689 101.532 64.7185 102.594 64.8563 103.649L68.3085 129.799C68.3991 130.496 68.6943 131.127 69.1312 131.644C69.8595 132.503 70.9774 133.049 72.2174 133.053H87.1915C88.5811 133.053 89.825 132.37 90.5296 131.33C90.8366 130.876 91.0413 130.36 91.1161 129.799L94.5683 103.649C94.6943 102.694 94.4187 101.735 93.8086 100.971ZM93.785 103.557L90.3367 129.707C90.3367 129.714 90.3327 129.725 90.3327 129.733C90.1241 131.208 88.7779 132.315 87.1915 132.315H72.2331C70.6468 132.315 69.3005 131.208 69.0919 129.733C69.0919 129.725 69.0879 129.714 69.0879 129.707L65.6397 103.557C65.5294 102.712 65.8089 101.864 66.4112 101.226C66.6828 100.938 67.0095 100.705 67.3717 100.539C67.8047 100.333 68.2888 100.222 68.7848 100.222C76.0699 101.551 83.3549 101.551 90.6398 100.222C91.5452 100.222 92.4112 100.587 93.0134 101.226C93.0764 101.292 93.1394 101.366 93.1945 101.436C93.6708 102.044 93.8834 102.804 93.785 103.557Z" fill="#3F3D56"/>
<path d="M90.7343 129.733L90.5296 131.33C89.825 132.37 88.5811 133.053 87.1915 133.053H72.2174C70.9774 133.049 69.8595 132.503 69.1312 131.643L69.084 129.733H90.7343Z" fill="#3F3D56"/>
<path d="M106.492 44.0873L87.6507 56.2208L85.328 53.8676L102.66 40.2585L106.492 44.0873Z" fill="#A0616A"/>
<path d="M86.1985 58.2884C88.0529 56.8927 88.8394 54.9248 87.955 53.893C87.0707 52.8612 84.8505 53.1562 82.9961 54.5519C81.1417 55.9476 80.3553 57.9155 81.2396 58.9473C82.1239 59.9791 84.3441 59.6841 86.1985 58.2884Z" fill="#A0616A"/>
<path d="M116.166 131.042L112.586 131.041L110.883 118.101L116.167 118.101L116.166 131.042Z" fill="#A0616A"/>
<path d="M103.9 130.966C103.789 131.142 103.73 131.709 103.73 131.914C103.73 132.543 104.274 133.053 104.945 133.053H116.032C116.49 133.053 116.861 132.705 116.861 132.276V131.843C116.861 131.843 117.41 130.543 116.28 128.941C116.28 128.941 114.877 130.196 112.78 128.23L112.161 127.18L107.685 130.248L105.204 130.535C104.661 130.597 104.179 130.525 103.9 130.966Z" fill="#2F2E41"/>
<path d="M128.265 131.042L124.685 131.041L122.982 118.101L128.266 118.101L128.265 131.042Z" fill="#A0616A"/>
<path d="M115.999 130.966C115.887 131.142 115.829 131.709 115.829 131.914C115.829 132.543 116.373 133.053 117.044 133.053H128.131C128.589 133.053 128.96 132.705 128.96 132.276V131.843C128.96 131.843 129.508 130.543 128.379 128.941C128.379 128.941 126.976 130.196 124.878 128.23L124.26 127.18L119.784 130.248L117.302 130.535C116.759 130.597 116.278 130.525 115.999 130.966Z" fill="#2F2E41"/>
<path d="M110.004 58.9142L105.903 95.8098C105.903 95.8098 108.774 120.983 109.389 120.983C110.004 120.983 110.619 121.458 110.004 121.99C109.389 122.521 108.569 122.905 109.389 122.905C110.209 122.905 110.309 122.67 110.259 123.46C110.209 124.25 109.594 124.827 109.594 124.827L118.002 124.25L116.976 98.5001L120.872 77.9385C120.872 77.9385 122.103 120.791 122.513 121.175C122.923 121.56 122.923 120.599 122.923 121.56C122.923 122.521 122.513 122.905 122.513 122.905L122.494 124.827H128.597L137.277 71.4049L135.842 57.9534L110.004 58.9143V58.9142Z" fill="#2F2E41"/>
<path d="M130.1 19.1362H122.718L118.289 20.1749C115.897 21.5058 111.609 25.4665 111.717 28.0713L112.67 51.0355C112.67 51.0355 109.407 58.2408 110.023 58.2408C110.638 58.2408 107.646 60.5476 107.646 61.8928C107.646 63.2379 106.621 63.0457 107.236 63.6222C107.851 64.1987 137.277 63.6222 137.277 63.6222C137.277 63.6222 137.585 63.0457 137.585 62.0849C137.585 61.1241 138.195 60.5522 138.195 60.5522V58.7478L136.355 52.4767L139.636 24.4207L130.1 19.1362Z" fill="#B44A4D"/>
<path d="M93.2553 47.1631L95.769 51.2416C97.1415 50.4628 103.772 46.7301 104.919 46.6432C105.351 46.6105 105.448 46.5344 105.467 46.5117C105.486 46.4894 105.48 46.4393 105.469 46.3594C105.451 46.2354 105.424 46.0481 105.579 45.8882C105.806 45.6537 106.006 45.7949 106.102 45.8626C106.251 45.9682 106.501 46.1447 107.307 46.0377C107.513 46.0103 107.643 45.9869 107.725 45.9685L107.716 45.9606C107.54 45.8053 107.246 45.5456 107.224 45.1284C107.205 44.7549 107.2 44.6547 107.345 44.5903C107.479 44.5315 107.584 44.6198 107.646 44.6724C107.751 44.7621 107.924 44.9087 108.281 44.8961C109.191 44.6169 117.657 33.1625 119.31 28.5994C119.721 27.4632 119.671 26.4081 119.159 25.4639C118.177 23.6535 115.774 22.7466 115.182 22.546L103.164 38.3513L93.2552 47.1631H93.2553Z" fill="#B44A4D"/>
<path d="M126.539 17.6575C130.931 17.6575 134.491 14.3212 134.491 10.2058C134.491 6.09034 130.931 2.75412 126.539 2.75412C122.148 2.75412 118.588 6.09034 118.588 10.2058C118.588 14.3212 122.148 17.6575 126.539 17.6575Z" fill="#A0616A"/>
<path d="M136.16 5.677C135.461 4.27266 133.912 3.18149 132.261 3.2611C132.361 2.8713 132.176 2.45415 131.879 2.16544C131.583 1.87676 131.188 1.6961 130.792 1.5444C128.835 0.794615 126.632 0.622602 124.57 1.05869C124.363 0.7901 121.42 1.46799 121.772 1.6119C122.123 1.75583 120.837 2.09959 120.776 2.45489C120.709 2.84418 120.269 3.08283 119.854 3.14355C119.438 3.2043 119.009 3.14517 118.595 3.21898C117.762 3.36769 118.695 4.32733 118.683 5.12186C118.671 5.9164 117.716 6.4609 118.544 6.63151C119.399 6.80763 118.217 8.22599 119.076 8.07291C121.022 7.72663 129.516 6.98833 130.271 8.70312C130.481 9.17926 130.613 9.71876 131.025 10.0593C131.587 10.5229 132.522 10.4856 132.982 11.0393C133.352 11.4856 133.246 12.1409 132.972 12.6446C132.698 13.1483 132.282 13.5773 132.034 14.0926C131.701 14.7835 131.703 15.5531 131.798 16.317C131.871 16.2811 131.984 16.2452 132.154 16.2092L132.081 16.2179C134.203 14.7693 135.762 12.6122 136.41 10.2282C136.818 8.7266 136.859 7.08134 136.16 5.677V5.677Z" fill="#2F2E41"/>
<path d="M141.751 67.7606H127.893C126.285 67.7606 124.981 68.9824 124.981 70.4895V77.9426C124.981 79.4497 126.285 80.6715 127.893 80.6715H141.751C143.359 80.6715 144.663 79.4497 144.663 77.9426V70.4895C144.663 68.9824 143.359 67.7606 141.751 67.7606Z" fill="#B44A4D"/>
<path d="M144.514 46.9251L136.653 67.0423L133.305 66.3845L139.024 45.8835L144.514 46.9251Z" fill="#A0616A"/>
<path d="M136.747 69.516C137.396 67.3717 136.821 65.3407 135.462 64.9795C134.104 64.6182 132.476 66.0637 131.827 68.2079C131.178 70.3521 131.753 72.3832 133.111 72.7444C134.47 73.1056 136.097 71.6602 136.747 69.516Z" fill="#A0616A"/>
<path d="M131.673 20.1749C131.673 20.1749 140.251 21.5383 142.301 25.9581C144.352 30.3778 146.403 44.598 145.788 45.1745C145.172 45.751 144.557 45.1745 145.172 45.751C145.788 46.3275 146.83 45.5679 145.899 46.6203C144.967 47.6726 144.557 47.0961 144.557 47.4805C144.557 47.8648 145.377 47.7604 144.557 48.5812C143.737 49.4021 141.071 57.8573 141.071 57.8573L135.945 56.32L136.97 43.445L131.673 20.1749V20.1749Z" fill="#B44A4D"/>
<path d="M90.5777 57.063H76.7197C75.1115 57.063 73.8077 58.2848 73.8077 59.7919V67.245C73.8077 68.7521 75.1115 69.9739 76.7197 69.9739H90.5777C92.186 69.9739 93.4898 68.7521 93.4898 67.245V59.7919C93.4898 58.2848 92.186 57.063 90.5777 57.063Z" fill="#3F3D56"/>
<path d="M65.5462 104.28L65.5363 105.018L93.8037 105.352L93.8136 104.614L65.5462 104.28Z" fill="#3F3D56"/>
</svg>
