<svg width="338" height="303" viewBox="0 0 338 303" fill="none" xmlns="http://www.w3.org/2000/svg">
<g clip-path="url(#clip0_529_18089)">
<path d="M176.717 303C238.125 303 287.906 295.443 287.906 286.121C287.906 276.8 238.125 269.243 176.717 269.243C115.309 269.243 65.5281 276.8 65.5281 286.121C65.5281 295.443 115.309 303 176.717 303Z" fill="#F2F2F2"/>
<path d="M246.576 226.373C247.767 226.805 249.041 226.956 250.299 226.812C251.557 226.668 252.765 226.234 253.827 225.545C254.889 224.855 255.776 223.929 256.418 222.838C257.06 221.748 257.44 220.523 257.528 219.261C257.615 217.999 257.409 216.734 256.923 215.565C256.438 214.396 255.688 213.356 254.732 212.527C253.775 211.697 252.639 211.101 251.413 210.785C250.187 210.469 248.904 210.442 247.665 210.705L247.87 214.91L245.879 211.307C243.924 212.224 242.415 213.879 241.681 215.908C241.421 216.619 241.262 217.363 241.211 218.118C241.085 219.89 241.541 221.654 242.509 223.144C243.477 224.633 244.905 225.767 246.576 226.373Z" fill="#57B894"/>
<path d="M256.429 275.142C255.726 271.566 258.772 268.396 261.781 266.335C264.789 264.274 268.305 262.25 269.331 258.753C270.807 253.727 266.412 249.124 262.992 245.155C260.454 242.209 258.275 238.973 256.5 235.515C255.788 234.129 255.134 232.679 254.947 231.132C254.677 228.905 255.394 226.688 256.115 224.563C258.52 217.484 261.09 210.464 263.827 203.504" stroke="#3F3D56" stroke-miterlimit="10"/>
<path d="M246.913 225.291C248.103 225.723 249.377 225.873 250.636 225.729C251.894 225.585 253.101 225.152 254.163 224.462C255.225 223.773 256.112 222.846 256.754 221.756C257.396 220.665 257.776 219.441 257.864 218.179C257.952 216.916 257.745 215.651 257.26 214.482C256.775 213.314 256.024 212.274 255.068 211.444C254.112 210.615 252.976 210.018 251.75 209.702C250.523 209.386 249.24 209.359 248.002 209.623L248.206 213.828L246.215 210.224C244.261 211.141 242.751 212.796 242.018 214.825C241.757 215.536 241.599 216.28 241.547 217.035C241.422 218.807 241.877 220.571 242.846 222.061C243.814 223.551 245.242 224.684 246.913 225.291Z" stroke="#3F3D56" stroke-miterlimit="10"/>
<path d="M255.43 202.052C255.897 200.764 256.681 199.615 257.709 198.709C258.738 197.804 259.978 197.172 261.315 196.871L261.989 200.869L263.237 196.67C264.97 196.696 266.65 197.271 268.035 198.313C269.419 199.355 270.436 200.809 270.94 202.466C271.443 204.124 271.406 205.898 270.834 207.532C270.262 209.167 269.185 210.578 267.759 211.561C266.332 212.545 264.629 213.05 262.897 213.003C261.164 212.957 259.491 212.362 258.119 211.304C256.747 210.245 255.747 208.779 255.264 207.116C254.78 205.453 254.839 203.679 255.43 202.052Z" fill="#57B894"/>
<path d="M255.879 200.608C256.346 199.321 257.13 198.171 258.158 197.266C259.187 196.361 260.427 195.728 261.764 195.428L262.437 199.425L263.686 195.227C265.419 195.253 267.099 195.828 268.483 196.87C269.868 197.911 270.885 199.366 271.388 201.023C271.892 202.68 271.855 204.454 271.283 206.089C270.711 207.724 269.634 209.134 268.207 210.118C266.781 211.101 265.078 211.606 263.346 211.56C261.613 211.514 259.94 210.918 258.568 209.86C257.196 208.802 256.196 207.335 255.713 205.672C255.229 204.009 255.287 202.236 255.879 200.608H255.879Z" stroke="#3F3D56" stroke-miterlimit="10"/>
<path d="M261.556 245.236C263.443 245.92 265.517 245.886 267.381 245.141C269.245 244.396 270.77 242.991 271.664 241.195C272.559 239.399 272.76 237.337 272.231 235.402C271.701 233.468 270.477 231.795 268.793 230.703L267.834 233.93L267.153 229.885C267.147 229.882 267.14 229.879 267.133 229.877C266.123 229.511 265.051 229.347 263.978 229.394C262.905 229.441 261.852 229.7 260.878 230.154C259.905 230.608 259.031 231.25 258.306 232.042C257.581 232.834 257.02 233.76 256.653 234.769C256.287 235.778 256.123 236.849 256.171 237.921C256.219 238.993 256.479 240.045 256.934 241.017C257.389 241.989 258.032 242.862 258.825 243.586C259.618 244.31 260.546 244.87 261.556 245.236H261.556Z" fill="#57B894"/>
<path d="M261.945 243.774C263.833 244.458 265.906 244.424 267.77 243.679C269.634 242.934 271.159 241.529 272.053 239.733C272.948 237.937 273.149 235.875 272.62 233.94C272.09 232.005 270.866 230.333 269.182 229.241L268.223 232.468L267.543 228.423C267.536 228.42 267.529 228.417 267.522 228.415C266.512 228.049 265.44 227.884 264.367 227.932C263.294 227.979 262.24 228.237 261.267 228.691C260.294 229.146 259.42 229.787 258.695 230.579C257.969 231.371 257.408 232.298 257.041 233.307C256.675 234.316 256.511 235.387 256.56 236.459C256.608 237.531 256.867 238.583 257.322 239.555C257.778 240.527 258.42 241.4 259.214 242.124C260.007 242.848 260.935 243.408 261.945 243.774V243.774Z" stroke="#3F3D56" stroke-miterlimit="10"/>
<path d="M253.043 258.803C253.368 260.647 254.317 262.325 255.733 263.553C257.148 264.782 258.943 265.487 260.817 265.55C262.691 265.613 264.53 265.03 266.025 263.9C267.52 262.769 268.58 261.159 269.028 259.34C269.476 257.521 269.285 255.604 268.486 253.909C267.687 252.215 266.329 250.846 264.639 250.033C262.95 249.22 261.033 249.012 259.208 249.444C257.384 249.876 255.763 250.922 254.619 252.405L258.262 257.884L253.284 254.976C252.898 256.214 252.815 257.526 253.043 258.803Z" fill="#57B894"/>
<path d="M253.38 257.72C253.705 259.565 254.654 261.242 256.07 262.471C257.485 263.699 259.28 264.404 261.154 264.467C263.028 264.53 264.867 263.948 266.362 262.817C267.857 261.686 268.917 260.077 269.365 258.258C269.813 256.439 269.622 254.521 268.823 252.827C268.023 251.132 266.665 249.764 264.976 248.951C263.287 248.138 261.369 247.93 259.545 248.362C257.721 248.794 256.1 249.839 254.956 251.323L258.599 256.801L253.621 253.893C253.235 255.131 253.152 256.444 253.38 257.72Z" stroke="#3F3D56" stroke-miterlimit="10"/>
<path d="M230.534 44.6842C230.841 38.8113 233.393 33.2803 237.663 29.2319C241.933 25.1835 247.595 22.9265 253.481 22.9264C254.179 22.9264 254.869 22.9628 255.552 23.0238C258.236 18.41 262.085 14.5805 266.714 11.9179C271.343 9.2553 276.591 7.85269 281.933 7.85016C287.274 7.84764 292.523 9.24529 297.155 11.9035C301.786 14.5618 305.639 18.3876 308.328 22.9988C308.904 22.9556 309.483 22.9264 310.07 22.9264C315.957 22.9265 321.619 25.1835 325.888 29.2319C330.158 33.2803 332.71 38.8113 333.018 44.6842" fill="#F2F2F2"/>
<path d="M235.32 42.9182C235.627 37.0453 238.179 31.5143 242.449 27.4659C246.719 23.4175 252.381 21.1605 258.267 21.1604C258.966 21.1604 259.655 21.1968 260.338 21.2578C263.022 16.644 266.871 12.8145 271.5 10.1519C276.13 7.48931 281.377 6.08669 286.719 6.08417C292.06 6.08165 297.309 7.4793 301.941 10.1375C306.573 12.7958 310.425 16.6216 313.114 21.2328C313.69 21.1896 314.269 21.1604 314.856 21.1604C320.743 21.1605 326.405 23.4175 330.674 27.4659C334.944 31.5143 337.496 37.0453 337.804 42.9182" stroke="#3F3D56" stroke-miterlimit="10"/>
<path d="M63.5537 153.806C63.8614 147.933 66.4132 142.402 70.6829 138.354C74.9526 134.306 80.6146 132.049 86.5011 132.049C87.1995 132.049 87.8891 132.085 88.5716 132.146C91.256 127.532 95.105 123.703 99.7342 121.04C104.363 118.377 109.611 116.975 114.953 116.972C120.294 116.97 125.543 118.367 130.175 121.026C134.807 123.684 138.659 127.51 141.348 132.121C141.924 132.078 142.503 132.049 143.09 132.049C148.977 132.049 154.639 134.306 158.908 138.354C163.178 142.402 165.73 147.933 166.038 153.806" fill="#F2F2F2"/>
<path d="M68.3398 152.04C68.6475 146.167 71.1993 140.636 75.469 136.588C79.7388 132.54 85.4007 130.283 91.2872 130.282C91.9856 130.282 92.6752 130.319 93.3577 130.38C96.0421 125.766 99.8911 121.937 104.52 119.274C109.15 116.611 114.397 115.209 119.739 115.206C125.08 115.204 130.329 116.601 134.961 119.26C139.593 121.918 143.445 125.744 146.134 130.355C146.71 130.312 147.289 130.283 147.876 130.283C153.763 130.283 159.425 132.54 163.694 136.588C167.964 140.636 170.516 146.167 170.824 152.04" stroke="#3F3D56" stroke-miterlimit="10"/>
<path d="M14.835 38.7963C15.1426 32.9234 17.6944 27.3924 21.9642 23.344C26.2339 19.2956 31.8958 17.0386 37.7823 17.0385C38.4807 17.0385 39.1703 17.0749 39.8529 17.1359C42.5372 12.5221 46.3862 8.69265 51.0155 6.03003C55.6447 3.36742 60.8922 1.96481 66.2338 1.96228C71.5754 1.95976 76.8242 3.35741 81.456 6.01566C86.0878 8.6739 89.9404 12.4997 92.6291 17.1109C93.2049 17.0677 93.7846 17.0385 94.3715 17.0385C100.258 17.0387 105.92 19.2957 110.19 23.344C114.459 27.3924 117.011 32.9234 117.319 38.7963" fill="#F2F2F2"/>
<path d="M19.6211 37.0303C19.9287 31.1574 22.4806 25.6264 26.7503 21.578C31.02 17.5296 36.682 15.2727 42.5685 15.2725C43.2668 15.2725 43.9565 15.3089 44.639 15.3699C47.3233 10.7561 51.1723 6.92666 55.8016 4.26405C60.4309 1.60143 65.6783 0.198816 71.0199 0.196292C76.3615 0.193769 81.6103 1.59142 86.2421 4.24967C90.8739 6.90791 94.7265 10.7337 97.4152 15.345C97.991 15.3018 98.5707 15.2726 99.1576 15.2726C105.044 15.2727 110.706 17.5297 114.976 21.578C119.245 25.6264 121.797 31.1574 122.105 37.0303" stroke="#3F3D56" stroke-miterlimit="10"/>
<path d="M115.924 85.3637C115.924 85.3637 157.225 105.853 164.631 103.007C172.037 100.161 174.6 74.8347 174.6 74.8347L144.123 69.1434L115.924 85.3637Z" fill="#A72832"/>
<path opacity="0.1" d="M115.924 85.3637C115.924 85.3637 157.225 105.853 164.631 103.007C172.037 100.161 174.6 74.8347 174.6 74.8347L144.123 69.1434L115.924 85.3637Z" fill="#E70011"/>
<path d="M201.517 54.7727H174.458V78.3918H201.517V54.7727Z" fill="#FF6584"/>
<path opacity="0.1" d="M201.517 54.7727H174.458V78.3918H201.517V54.7727Z" fill="black"/>
<path d="M149.82 155.367C149.82 155.367 148.68 180.125 156.371 179.556C164.062 178.986 156.371 156.221 156.371 156.221L149.82 155.367Z" fill="#FBBEBE"/>
<path d="M181.436 58.3298C181.436 58.3298 183.145 69.1434 180.012 70.5662C176.879 71.9891 174.885 73.1273 174.885 73.1273L182.006 77.965L195.109 78.8187L198.527 76.2576L201.66 73.4119C201.66 73.4119 196.533 72.2736 196.533 69.7125C196.533 67.1514 196.248 59.4681 196.248 59.4681L181.436 58.3298Z" fill="#FBBEBE"/>
<path opacity="0.1" d="M181.436 58.3298C181.436 58.3298 183.145 69.1434 180.012 70.5662C176.879 71.9891 174.885 73.1273 174.885 73.1273L182.006 77.965L195.109 78.8187L198.527 76.2576L201.66 73.4119C201.66 73.4119 196.533 72.2736 196.533 69.7125C196.533 67.1514 196.248 59.4681 196.248 59.4681L181.436 58.3298Z" fill="black"/>
<path d="M163.492 159.636C163.492 159.636 155.232 186.101 155.232 205.451C155.232 205.451 141.56 236.185 142.129 251.267L138.711 272.04L143.554 273.747L147.256 270.617C147.256 270.617 148.396 259.519 152.099 254.112C155.802 248.706 164.347 223.094 164.347 223.094C164.347 223.094 187.133 175.287 186.279 168.457C185.424 161.628 163.492 159.636 163.492 159.636Z" fill="#FBBEBE"/>
<path d="M213.908 153.66C213.908 153.66 219.32 156.221 211.629 201.752C211.629 201.752 215.902 231.916 212.199 248.421L211.629 264.926H205.648L204.508 263.218C204.508 263.218 204.223 248.421 202.23 244.437C200.236 240.453 198.527 217.403 198.527 217.403C198.527 217.403 189.412 170.449 191.406 166.465C193.4 162.482 213.908 153.66 213.908 153.66Z" fill="#FBBEBE"/>
<path d="M137.857 267.202C137.857 267.202 139.85 271.755 143.553 270.617C147.256 269.479 148.111 269.479 148.111 269.479C148.111 269.479 145.547 282.569 146.402 288.83C147.256 295.09 145.832 299.074 140.135 299.074C134.438 299.074 133.584 292.244 133.584 292.244L136.147 276.024L137.857 267.202Z" fill="#2F2E41"/>
<path d="M203.369 260.088C203.369 260.088 205.362 264.072 208.496 263.218C211.629 262.365 212.768 260.942 212.768 260.942C212.768 260.942 212.483 269.764 213.623 273.747C214.762 277.731 217.326 289.114 211.344 289.683C209.701 289.883 208.038 289.547 206.601 288.727C205.164 287.907 204.031 286.645 203.369 285.13V260.088L203.369 260.088Z" fill="#2F2E41"/>
<path d="M189.127 65.7286C196.049 65.7286 201.66 60.1228 201.66 53.2076C201.66 46.2925 196.049 40.6866 189.127 40.6866C182.205 40.6866 176.594 46.2925 176.594 53.2076C176.594 60.1228 182.205 65.7286 189.127 65.7286Z" fill="#FBBEBE"/>
<path d="M212.199 75.6884C212.199 75.6884 202.271 71.794 198.69 72.3184C197.147 73.6285 195.348 74.6045 193.408 75.1846C191.468 75.7647 189.428 75.9362 187.418 75.6884C180.582 74.8347 177.909 71.5572 177.909 71.5572C177.909 71.5572 159.504 75.6884 160.644 77.3958C161.783 79.1032 166.91 106.991 166.91 106.991C166.91 106.991 170.328 131.179 166.34 139.432C162.353 147.684 160.359 161.343 162.068 162.482C163.777 163.62 182.861 168.742 185.139 170.165C187.418 171.588 188.273 166.75 189.697 167.604C191.121 168.457 194.254 169.88 196.248 168.742C198.242 167.604 217.611 157.359 217.041 155.367C216.471 153.375 209.066 129.187 206.502 124.349C203.938 119.512 205.932 109.267 207.357 107.275C208.781 105.283 211.629 103.007 212.199 97.3156C212.768 91.6242 212.199 75.6884 212.199 75.6884Z" fill="#2F2E41"/>
<path d="M161.271 76.5164C161.271 76.5164 158.935 78.2495 158.08 81.9489C157.226 85.6483 156.086 115.243 156.086 115.243C156.086 115.243 145.547 155.936 147.826 156.79C150.105 157.644 156.656 159.351 157.51 158.498C158.365 157.644 168.049 123.211 167.195 119.512C166.34 115.812 168.334 104.999 168.334 104.999L161.271 76.5164Z" fill="#2F2E41"/>
<path d="M213.907 129.472C213.907 129.472 198.526 121.788 196.817 126.911C195.108 132.033 213.053 137.44 213.053 137.44C213.053 137.44 219.319 135.163 219.319 133.74C219.319 132.317 213.907 129.472 213.907 129.472Z" fill="#FBBEBE"/>
<path d="M209.066 76.8267L212.199 75.6884C212.199 75.6884 213.908 74.5502 215.902 78.8187C217.895 83.0872 239.543 108.129 235.555 116.097C231.568 124.065 218.465 140.285 217.895 139.147C217.326 138.009 210.775 129.472 211.914 128.618C213.053 127.764 226.156 116.097 224.447 114.39C222.738 112.682 215.617 98.1693 211.629 97.6001C207.641 97.031 209.066 76.8267 209.066 76.8267Z" fill="#2F2E41"/>
<path d="M175.312 52.7807C175.312 52.7807 131.879 35.333 94.2803 18.5435C94.2803 18.5435 74.6267 13.7059 64.3727 22.812C64.3727 22.812 72.9177 21.6738 72.9177 26.5114C72.9177 26.5114 80.3234 36.1867 57.2518 37.8941C41.1841 39.0832 34.7867 48.6914 32.3834 54.4154C30.507 59.0102 27.2087 62.8849 22.9705 65.4729C17.4171 68.7889 9.36846 71.2284 0 66.92C0 66.92 0.5326 67.738 1.54287 69.101C19.6311 93.5052 86.9899 114.744 110.776 95.8391C125.476 84.1557 148.78 69.3888 165.486 76.8267C191.691 88.494 196.533 83.3717 196.533 83.3717L197.672 80.2415C197.672 80.2415 172.322 73.4119 171.752 64.5903C171.182 55.7687 175.312 52.7807 175.312 52.7807Z" fill="#F15B6C"/>
<path d="M200.663 55.0573C200.663 55.0573 206.787 57.4761 207.926 65.444C207.926 65.444 214.477 78.2496 207.072 81.3798C199.666 84.5101 198.242 83.6564 198.242 83.6564V82.2335C198.242 82.2335 206.217 77.3959 204.508 73.6965C202.799 69.9971 200.663 55.0573 200.663 55.0573Z" fill="#AD242F"/>
<path d="M189.697 91.3397C189.697 91.3397 191.691 86.2175 191.121 86.2175C190.551 86.2175 193.438 83.067 194.558 84.2154C195.678 85.3638 197.672 88.7786 195.393 89.6322C193.115 90.4859 189.697 91.3397 189.697 91.3397Z" fill="#AD242F"/>
<path d="M203.734 88.2993C203.734 88.2993 198.528 86.5256 198.552 87.0943C198.576 87.6629 195.303 84.9142 196.404 83.7478C197.505 82.5813 200.836 80.4468 201.786 82.6852C202.736 84.9236 203.734 88.2993 203.734 88.2993Z" fill="#AD242F"/>
<path d="M195.393 80.5261C195.393 80.5261 197.994 79.0678 199.542 81.362C201.09 83.6563 197.672 87.6402 195.393 87.6402C193.115 87.6402 193.115 82.8026 193.115 82.8026L195.393 80.5261Z" fill="#721219"/>
<path opacity="0.1" d="M195.393 80.5261C195.393 80.5261 197.994 79.0678 199.542 81.362C201.09 83.6563 197.672 87.6402 195.393 87.6402C193.115 87.6402 193.115 82.8026 193.115 82.8026L195.393 80.5261Z" fill="#9B1E28"/>
<path d="M178.261 32.7751C176.759 34.0119 175.335 35.3979 174.401 37.1039C173.912 38.0607 173.502 39.0564 173.177 40.0809C172.026 43.3927 169.162 46.7469 170.374 50.0373C170.72 50.9762 171.259 51.9661 170.949 52.9174C170.674 53.7622 169.824 54.2553 169.209 54.8974C167.89 56.2757 167.669 58.3438 167.588 60.2491C167.44 63.7383 169.361 67.8501 171.681 70.4621C172.185 70.9534 172.652 71.4813 173.078 72.0414C173.365 72.4881 173.553 72.9912 173.628 73.5167C173.703 74.0421 173.665 74.5777 173.515 75.087L176.895 74.3821C177.017 75.6289 177.055 76.8825 177.009 78.1343C177.811 78.2223 178.618 78.0316 179.295 77.5944C179.973 77.1571 180.478 76.5 180.727 75.7338C180.919 76.6265 181.231 77.489 181.656 78.2973C182.647 77.0583 183.408 75.6512 183.901 74.1433C184.548 72.2119 184.687 70.1468 184.304 68.1463C183.946 66.6852 183.459 65.2588 182.849 63.8837C181.654 60.868 180.679 57.7712 179.705 54.6775C179.199 53.0708 178.687 51.4118 178.84 49.7343L180.041 49.6038C180.054 48.9412 180.183 48.286 180.42 47.6672C181.124 47.816 181.801 48.0707 182.429 48.4225L183.813 44.9124C184.727 45.8593 186.039 46.2878 187.294 46.6829L192.068 48.1843L192.097 47.2406C194.111 49.0224 196.406 50.4605 198.889 51.497C198.748 51.3279 198.646 51.1308 198.588 50.919C198.53 50.7072 198.518 50.4855 198.553 50.2687C199.729 52.3738 199.259 54.9964 198.533 57.2957C197.807 59.595 196.844 61.9358 197.136 64.329C197.355 66.1189 198.273 67.8306 198.103 69.6258C198.019 70.5098 197.673 71.351 197.565 72.2324C197.309 74.3346 198.415 76.3364 199.483 78.1658L201.559 75.3166C202.319 74.2739 203.103 73.2084 204.179 72.4957C205.284 71.764 206.653 71.4356 207.615 70.5254C209.334 68.9007 209.116 66.1328 208.557 63.836C208.26 62.615 207.9 61.3767 208.009 60.1249C208.195 58.0029 209.671 56.2471 210.502 54.2855C211.094 52.8553 211.351 51.3085 211.253 49.7638C211.154 48.219 210.703 46.7174 209.933 45.3739C208.902 43.6063 207.343 42.1827 206.371 40.3818C205.404 38.5891 205.034 36.456 203.709 34.9088C203.061 34.2048 202.308 33.6054 201.477 33.1323C197.709 30.8704 193.476 29.491 189.098 29.0975C184.946 28.6639 181.443 30.1547 178.261 32.7751Z" fill="#FF6584"/>
</g>
<defs>
<clipPath id="clip0_529_18089">
<rect width="338" height="303" fill="white"/>
</clipPath>
</defs>
</svg>
