<svg width="24" height="25" viewBox="0 0 24 25" fill="none" xmlns="http://www.w3.org/2000/svg">
<path d="M11.8297 14.7187L12.0038 14.7834L12.178 14.7187C13.3862 14.27 14.7816 14 16 14C17.4311 14 19.1108 14.3517 20.4193 14.9422C21.0735 15.2375 21.6091 15.5808 21.9739 15.947C22.3377 16.3123 22.5 16.6661 22.5 17V19H15H14.0781H1.5V17C1.5 16.6661 1.66228 16.3123 2.02613 15.947C2.39086 15.5808 2.92648 15.2375 3.58066 14.9422C4.88923 14.3517 6.56893 14 8 14C9.22142 14 10.6196 14.269 11.8297 14.7187ZM13.5 17.0996V16.9491L13.4169 16.8236C13.2551 16.5792 12.9568 16.3597 12.6429 16.176C12.3095 15.9809 11.889 15.7867 11.4125 15.6144C10.4608 15.2702 9.24798 15 8 15C6.75202 15 5.53921 15.2702 4.58747 15.6144C4.11095 15.7867 3.69047 15.9809 3.35712 16.176C3.04318 16.3597 2.74489 16.5792 2.58308 16.8236L2.5 16.9491V17.0996V17.5V18H3H13H13.5V17.5V17.0996ZM21.5 17.0996V16.9491L21.4169 16.8236C21.2551 16.5792 20.9568 16.3597 20.6429 16.176C20.3095 15.9809 19.8891 15.7867 19.4125 15.6144C18.4608 15.2702 17.248 15 16 15C15.4038 15 14.8351 15.0744 14.299 15.1722L13.3948 15.337L14.0244 16.0066C14.3524 16.3553 14.5 16.6872 14.5 17V17.5V18H15H21H21.5V17.5V17.0996ZM5.5 8.5C5.5 7.11914 6.61914 6 8 6C9.38086 6 10.5 7.11914 10.5 8.5C10.5 9.88086 9.38086 11 8 11C6.61914 11 5.5 9.88086 5.5 8.5ZM13.5 8.5C13.5 7.11914 14.6191 6 16 6C17.3809 6 18.5 7.11914 18.5 8.5C18.5 9.88086 17.3809 11 16 11C14.6191 11 13.5 9.88086 13.5 8.5ZM9.5 8.5C9.5 7.67286 8.82714 7 8 7C7.17286 7 6.5 7.67286 6.5 8.5C6.5 9.32714 7.17286 10 8 10C8.82714 10 9.5 9.32714 9.5 8.5ZM17.5 8.5C17.5 7.67286 16.8271 7 16 7C15.1729 7 14.5 7.67286 14.5 8.5C14.5 9.32714 15.1729 10 16 10C16.8271 10 17.5 9.32714 17.5 8.5ZM2.10551 10.6055C2.48072 10.2303 3.04437 10.0816 3.47182 10.0274C3.46397 10.0898 3.454 10.1559 3.44139 10.2246C3.3656 10.6374 3.20522 11.0838 2.89449 11.3945C2.58377 11.7052 2.13735 11.8656 1.72457 11.9414C1.65623 11.9539 1.59042 11.9639 1.52828 11.9717C1.53612 11.9096 1.54606 11.8438 1.55861 11.7754C1.6344 11.3626 1.79478 10.9162 2.10551 10.6055ZM3.96763 10.001C3.96807 10.0011 3.96819 10.0011 3.96798 10.001L3.96763 10.001Z" stroke="#FBFBFB"/>
</svg>
