<svg width="324" height="231" viewBox="0 0 324 231" fill="none" xmlns="http://www.w3.org/2000/svg">
<g clip-path="url(#clip0_1262_27781)">
<path d="M21.4745 231H302.509C302.652 231 302.789 230.944 302.889 230.843C302.99 230.742 303.047 230.605 303.047 230.463C303.047 230.321 302.99 230.184 302.889 230.083C302.789 229.982 302.652 229.926 302.509 229.926H21.4745C21.3321 229.926 21.1955 229.982 21.0948 230.083C20.9941 230.184 20.9375 230.321 20.9375 230.463C20.9375 230.605 20.9941 230.742 21.0948 230.843C21.1955 230.944 21.3321 231 21.4745 231Z" fill="#CCCCCC"/>
<path d="M75.4694 100.856C59.0334 84.6712 52.0916 67.7862 55.9222 53.312C60.8381 34.7374 82.677 21.8946 115.839 18.0767L115.962 19.1421C83.2612 22.9066 61.7554 35.4612 56.9586 53.5863C53.2306 67.6726 60.0716 84.1888 76.2215 100.092L75.4694 100.856Z" fill="#F0F0F0"/>
<path d="M234.049 158.308C213.536 158.308 191.245 155.259 169.103 149.396C141.722 142.145 116.617 131.2 96.5015 117.745L97.0971 116.854C117.116 130.244 142.11 141.138 169.377 148.359C194.019 154.885 218.845 157.908 241.163 157.11L241.201 158.182C238.844 158.266 236.46 158.309 234.049 158.308Z" fill="#F0F0F0"/>
<path d="M281.108 151.565L280.765 150.55C299.111 144.345 310.586 134.349 313.949 121.643C318.224 105.491 308.937 86.7467 287.799 68.864C266.553 50.8904 235.916 35.9769 201.53 26.8711L201.805 25.8345C236.34 34.9803 267.127 49.971 288.491 68.0454C309.963 86.2103 319.372 105.343 314.985 121.918C311.526 134.988 299.812 145.24 281.108 151.565Z" fill="#F0F0F0"/>
<path d="M112.648 158.757C72.3408 140.874 41.2812 117.675 25.1909 93.4301L26.0839 92.8369C42.0629 116.914 72.9595 139.976 113.082 157.776L112.648 158.757Z" fill="#F0F0F0"/>
<path d="M254.364 189.736C250.207 189.736 245.978 189.643 241.679 189.457L241.725 188.386C273.811 189.776 302.12 185.935 323.599 177.276L324 178.271C305.264 185.823 281.382 189.736 254.364 189.736Z" fill="#F0F0F0"/>
<path d="M230.977 19.0384C224.315 16.8687 217.463 14.8485 210.61 13.0338C171.177 2.59108 132.413 -1.11663 98.5082 2.31359L98.4004 1.24655C132.431 -2.19491 171.328 1.52167 210.885 11.9971C217.756 13.8171 224.628 15.843 231.309 18.019L230.977 19.0384Z" fill="#F0F0F0"/>
<path d="M50.2787 102.465C33.8427 86.2801 26.9009 69.3951 30.7315 54.9209C35.6474 36.3462 57.4863 23.5035 90.6485 19.6855L90.771 20.751C58.0705 24.5155 36.5648 37.0701 31.7679 55.1952C28.0399 69.2815 34.8809 85.7977 51.0308 101.701L50.2787 102.465Z" fill="#F0F0F0"/>
<path d="M208.858 159.917C188.345 159.917 166.054 156.867 143.912 151.004C116.531 143.753 91.4261 132.808 71.3105 119.353L71.9062 118.462C91.925 131.852 116.919 142.747 144.186 149.967C168.828 156.493 193.654 159.517 215.972 158.719L216.01 159.79C213.653 159.875 211.269 159.917 208.858 159.917Z" fill="#F0F0F0"/>
<path d="M255.918 153.174L255.574 152.158C273.92 145.953 285.395 135.958 288.758 123.252C293.033 107.099 283.746 88.3551 262.608 70.4724C241.362 52.4988 210.725 37.5853 176.339 28.4795L176.614 27.4429C211.15 36.5887 241.936 51.5794 263.3 69.6538C284.772 87.8187 294.181 106.951 289.794 123.526C286.335 136.597 274.621 146.848 255.918 153.174Z" fill="#F0F0F0"/>
<path d="M87.4569 160.365C47.1499 142.483 16.0903 119.283 0 95.0385L0.892955 94.4453C16.872 118.522 47.7686 141.584 87.8913 159.385L87.4569 160.365Z" fill="#F0F0F0"/>
<path d="M229.173 191.344C225.016 191.344 220.787 191.251 216.488 191.066L216.534 189.995C248.62 191.384 276.929 187.543 298.408 178.885L298.809 179.88C280.073 187.432 256.191 191.344 229.173 191.344Z" fill="#F0F0F0"/>
<path d="M205.786 20.6468C199.124 18.4771 192.272 16.4569 185.419 14.6422C145.986 4.19949 107.222 0.491789 73.3173 3.92199L73.2095 2.85495C107.241 -0.586514 146.137 3.13006 185.694 13.6055C192.566 15.4255 199.437 17.4514 206.118 19.6274L205.786 20.6468Z" fill="#F0F0F0"/>
<path d="M18.2708 73.7447C25.974 65.1053 38.2618 59.8398 49.3974 62.9918C39.1244 70.264 31.754 80.9367 28.5902 93.1215C27.3871 97.8251 26.5385 103.182 22.628 106.058C20.1948 107.847 16.9707 108.275 13.9784 107.867C10.9859 107.46 8.1564 106.296 5.3651 105.142L4.61401 105.207C6.77344 93.834 10.5676 82.3842 18.2708 73.7447Z" fill="#F2F2F2"/>
<path d="M49.3635 63.2319C40.0534 65.4868 31.6903 70.6188 25.462 77.899C24.0934 79.4424 22.9765 81.192 22.1525 83.0833C21.4094 84.9517 21.18 86.985 21.4881 88.972C21.7382 90.8305 22.2091 92.7026 22.0033 94.5895C21.8835 95.5538 21.5614 96.4819 21.0579 97.3129C20.5545 98.144 19.8811 98.8592 19.0819 99.4116C17.1264 100.84 14.7745 101.48 12.4528 102.027C9.87496 102.633 7.18779 103.222 5.08644 104.936C4.83183 105.143 4.52463 104.736 4.77885 104.529C8.43483 101.547 13.5159 101.93 17.5609 99.7645C19.4483 98.754 21.0428 97.1683 21.4305 94.9925C21.7695 93.0899 21.2855 91.159 21.016 89.2794C20.687 87.3454 20.8364 85.3602 21.4512 83.4973C22.1762 81.5701 23.2239 79.7804 24.5492 78.2048C27.4764 74.61 30.9504 71.498 34.844 68.9827C39.2718 66.0873 44.1621 63.971 49.3033 62.7252C49.6215 62.6482 49.6797 63.1555 49.3635 63.2319H49.3635Z" fill="white"/>
<path d="M27.3294 75.437C26.2502 74.2259 25.6365 72.6705 25.5979 71.0485C25.5593 69.4266 26.0983 67.8437 27.1187 66.5826C27.3261 66.3282 27.7311 66.6385 27.5235 66.8933C26.5711 68.0659 26.0691 69.5404 26.1082 71.0507C26.1472 72.561 26.7246 74.0075 27.7362 75.1293C27.9558 75.3734 27.5476 75.6797 27.3294 75.437Z" fill="white"/>
<path d="M21.2372 88.0465C24.5454 88.2663 27.8149 87.2307 30.3938 85.1463C30.6491 84.9396 30.9564 85.3468 30.7013 85.5533C28.0137 87.7174 24.6091 88.7882 21.167 88.5519C20.8389 88.5291 20.9109 88.0239 21.2372 88.0465Z" fill="white"/>
<path d="M39.3864 66.7541C39.7063 67.3097 40.1592 67.7772 40.7044 68.1144C41.2496 68.4517 41.87 68.6483 42.5099 68.6864C42.8381 68.705 42.7657 69.2103 42.4397 69.1918C41.7329 69.1463 41.048 68.9285 40.4448 68.5571C39.8417 68.1858 39.3386 67.6724 38.9795 67.0618C38.9408 67.007 38.9244 66.9396 38.9337 66.8733C38.9429 66.8069 38.977 66.7465 39.0291 66.7044C39.0832 66.6639 39.1511 66.6465 39.218 66.6558C39.2849 66.6651 39.3454 66.7004 39.3864 66.7541L39.3864 66.7541Z" fill="white"/>
<path d="M65.2046 98.8567C64.9993 98.8509 64.7941 98.8451 64.5862 98.8428C61.8262 98.7795 59.0657 98.9406 56.3318 99.3246C56.12 99.3509 55.9057 99.3808 55.695 99.4131C49.1183 100.408 42.7836 102.616 37.0126 105.925C34.7175 107.243 32.5259 108.735 30.4569 110.386C27.5997 112.666 24.6832 115.367 21.3382 116.535C20.9905 116.661 20.6355 116.765 20.2749 116.847L4.75158 106.119C4.72853 106.077 4.70287 106.038 4.67965 105.996L4.04028 105.596C4.14104 105.503 4.24753 105.409 4.3483 105.317C4.40653 105.263 4.46823 105.211 4.52642 105.157C4.56633 105.122 4.60644 105.087 4.64044 105.053C4.65369 105.041 4.6671 105.029 4.67791 105.021C4.71193 104.987 4.74711 104.959 4.77866 104.928C5.37248 104.402 5.97104 103.879 6.57433 103.359C6.57678 103.355 6.57678 103.355 6.58268 103.354C11.1417 99.3482 16.1598 95.8974 21.5316 93.0741C21.693 92.992 21.8567 92.9063 22.0252 92.8291C24.4504 91.612 26.9709 90.5952 29.5616 89.7889C30.9816 89.3519 32.4229 88.9872 33.8798 88.696C37.6456 87.9509 41.5052 87.8029 45.317 88.2575C52.9157 89.1649 60.1396 92.4932 64.8492 98.4017C64.9696 98.553 65.0867 98.7019 65.2046 98.8567Z" fill="#F2F2F2"/>
<path d="M65.0337 99.0293C56.2429 95.2227 46.4766 94.2835 37.1218 96.3453C35.1001 96.7534 33.1553 97.4777 31.3591 98.4915C29.6412 99.5357 28.2342 101.021 27.2842 102.793C26.3653 104.428 25.6146 106.206 24.3145 107.589C23.6385 108.287 22.8227 108.834 21.9205 109.194C21.0183 109.554 20.0502 109.72 19.0796 109.68C16.6586 109.642 14.3953 108.737 12.2127 107.775C9.78943 106.707 7.28933 105.559 4.58006 105.661C4.25179 105.674 4.25168 105.164 4.57944 105.151C9.29308 104.972 13.1196 108.338 17.6527 109.045C19.768 109.375 21.9955 109.069 23.6146 107.566C25.0304 106.251 25.8061 104.417 26.7222 102.754C27.6236 101.012 28.9377 99.5169 30.5499 98.3997C32.2887 97.2977 34.2024 96.4996 36.2089 96.0398C40.7098 94.9324 45.3567 94.5399 49.9794 94.8765C55.2574 95.2314 60.4358 96.4868 65.2906 98.5885C65.5911 98.7187 65.3322 99.1587 65.0337 99.0293H65.0337Z" fill="white"/>
<path d="M40.095 95.5043C39.9622 93.8873 40.4084 92.2758 41.3538 90.9576C42.2992 89.6393 43.6823 88.7001 45.2561 88.3077C45.5748 88.2294 45.7114 88.7212 45.3923 88.7996C43.9261 89.1622 42.6379 90.0372 41.76 91.2666C40.8821 92.496 40.4725 93.9987 40.605 95.5037C40.6335 95.8308 40.1232 95.8295 40.095 95.5043Z" fill="white"/>
<path d="M27.6409 101.903C30.15 104.071 33.3838 105.213 36.6975 105.102C37.0258 105.091 37.026 105.601 36.6981 105.612C33.2496 105.722 29.8868 104.526 27.2807 102.264C27.0324 102.049 27.394 101.689 27.6409 101.903Z" fill="white"/>
<path d="M54.9476 95.8329C54.8687 96.4693 54.9489 97.1153 55.1812 97.7129C55.4135 98.3106 55.7906 98.8411 56.2785 99.257C56.5294 99.4695 56.1675 99.8293 55.9183 99.6182C55.3813 99.1562 54.9656 98.5698 54.7075 97.91C54.4494 97.2503 54.3567 96.5374 54.4375 95.8335C54.4396 95.7666 54.4671 95.7029 54.5144 95.6554C54.5617 95.608 54.6253 95.5803 54.6923 95.5781C54.7598 95.5784 54.8245 95.6053 54.8723 95.653C54.9201 95.7007 54.9472 95.7654 54.9476 95.8329H54.9476Z" fill="white"/>
<path d="M320.109 144.567C315.757 133.84 305.953 124.75 294.406 123.975C301.638 134.278 304.994 146.807 303.88 159.347C303.432 164.182 302.432 169.512 305.148 173.535C306.839 176.039 309.732 177.525 312.687 178.148C315.642 178.77 318.698 178.625 321.715 178.477L322.4 178.791C324.188 167.353 324.461 155.294 320.109 144.567Z" fill="#F2F2F2"/>
<path d="M294.358 124.212C302.368 129.466 308.521 137.111 311.941 146.062C312.711 147.976 313.175 149.999 313.316 152.057C313.388 154.067 312.921 156.059 311.963 157.827C311.103 159.493 310.03 161.098 309.59 162.944C309.379 163.893 309.37 164.875 309.565 165.827C309.76 166.779 310.154 167.679 310.721 168.468C312.083 170.471 314.083 171.865 316.086 173.16C318.31 174.598 320.643 176.056 322.047 178.376C322.217 178.657 322.643 178.377 322.473 178.096C320.031 174.059 315.117 172.711 312.035 169.312C310.597 167.726 309.628 165.696 309.994 163.517C310.314 161.611 311.419 159.955 312.304 158.275C313.264 156.564 313.79 154.644 313.837 152.683C313.802 150.624 313.416 148.586 312.698 146.657C311.148 142.287 308.922 138.188 306.1 134.51C302.903 130.294 299.008 126.657 294.584 123.755C294.311 123.576 294.085 124.034 294.358 124.212V124.212Z" fill="white"/>
<path d="M311.009 143.115C312.432 142.337 313.533 141.078 314.114 139.564C314.696 138.049 314.72 136.377 314.182 134.846C314.073 134.537 313.587 134.693 313.697 135.003C314.2 136.427 314.177 137.985 313.633 139.394C313.089 140.804 312.059 141.972 310.729 142.688C310.44 142.844 310.722 143.27 311.009 143.115Z" fill="white"/>
<path d="M312.51 157.04C309.32 156.134 306.589 154.06 304.861 151.23C304.69 150.949 304.263 151.229 304.434 151.509C306.238 154.451 309.085 156.604 312.406 157.539C312.723 157.628 312.825 157.128 312.51 157.04Z" fill="white"/>
<path d="M302.57 130.884C302.082 131.3 301.499 131.588 300.872 131.722C300.245 131.857 299.595 131.833 298.979 131.654C298.664 131.561 298.562 132.061 298.876 132.153C299.557 132.348 300.275 132.373 300.968 132.226C301.661 132.08 302.307 131.765 302.85 131.311C302.905 131.272 302.943 131.214 302.957 131.149C302.97 131.083 302.959 131.015 302.924 130.957C302.886 130.901 302.828 130.862 302.762 130.848C302.696 130.834 302.627 130.847 302.57 130.884H302.57Z" fill="white"/>
<path d="M267.468 152.439C267.663 152.502 267.858 152.566 268.055 152.633C270.676 153.502 273.221 154.582 275.667 155.862C275.858 155.958 276.05 156.058 276.237 156.16C282.097 159.308 287.321 163.517 291.645 168.574C293.363 170.587 294.926 172.729 296.32 174.979C298.245 178.088 300.085 181.611 302.842 183.837C303.127 184.072 303.427 184.29 303.739 184.488L321.964 179.603C322 179.571 322.037 179.543 322.073 179.511L322.81 179.349C322.746 179.228 322.677 179.104 322.613 178.983C322.577 178.912 322.536 178.843 322.499 178.773C322.473 178.726 322.447 178.68 322.427 178.636C322.418 178.62 322.41 178.605 322.402 178.594C322.382 178.55 322.358 178.512 322.338 178.472C321.956 177.777 321.568 177.083 321.175 176.39C321.173 176.386 321.173 176.386 321.168 176.383C318.22 171.078 314.654 166.14 310.543 161.675C310.419 161.544 310.293 161.408 310.16 161.279C308.285 159.317 306.253 157.512 304.084 155.882C302.893 154.993 301.659 154.165 300.384 153.4C297.088 151.433 293.502 149.996 289.76 149.142C282.298 147.442 274.376 148.148 267.955 152.129C267.791 152.231 267.631 152.332 267.468 152.439Z" fill="#F2F2F2"/>
<path d="M267.571 152.659C277.13 152.029 286.643 154.428 294.761 159.515C296.528 160.579 298.116 161.915 299.468 163.474C300.735 165.035 301.561 166.907 301.86 168.895C302.176 170.744 302.286 172.671 303.046 174.41C303.448 175.295 304.032 176.084 304.761 176.727C305.49 177.37 306.346 177.851 307.274 178.139C309.566 178.918 312.002 178.827 314.381 178.654C317.022 178.463 319.762 178.222 322.28 179.23C322.585 179.352 322.756 178.871 322.452 178.749C318.072 176.996 313.338 178.88 308.831 178.022C306.727 177.621 304.732 176.584 303.713 174.624C302.821 172.909 302.706 170.922 302.402 169.047C302.139 167.103 301.403 165.254 300.26 163.659C298.993 162.037 297.459 160.642 295.724 159.534C291.857 156.978 287.612 155.046 283.145 153.809C278.055 152.369 272.756 151.81 267.477 152.157C267.151 152.179 267.247 152.68 267.571 152.659V152.659Z" fill="white"/>
<path d="M292.243 157.723C292.912 156.245 293.033 154.577 292.586 153.018C292.138 151.458 291.151 150.109 289.801 149.21C289.527 149.029 289.233 149.446 289.507 149.627C290.766 150.462 291.685 151.719 292.099 153.172C292.513 154.625 292.394 156.178 291.763 157.551C291.627 157.85 292.108 158.02 292.243 157.723L292.243 157.723Z" fill="white"/>
<path d="M301.823 167.937C298.731 169.135 295.302 169.124 292.218 167.905C291.913 167.784 291.741 168.265 292.046 168.385C295.258 169.648 298.826 169.652 302.041 168.399C302.347 168.279 302.128 167.818 301.823 167.937V167.937Z" fill="white"/>
<path d="M278.144 153.039C278.005 153.665 277.712 154.247 277.293 154.731C276.873 155.216 276.34 155.589 275.741 155.817C275.433 155.933 275.653 156.393 275.958 156.278C276.619 156.023 277.208 155.611 277.673 155.076C278.137 154.542 278.464 153.901 278.625 153.211C278.645 153.148 278.641 153.078 278.612 153.018C278.583 152.957 278.533 152.91 278.471 152.885C278.407 152.863 278.337 152.866 278.276 152.895C278.215 152.924 278.168 152.976 278.144 153.039V153.039Z" fill="white"/>
<path d="M90.9677 62.1203C93.3358 62.1203 95.2555 60.1999 95.2555 57.8311C95.2555 55.4623 93.3358 53.542 90.9677 53.542C88.5996 53.542 86.6799 55.4623 86.6799 57.8311C86.6799 60.1999 88.5996 62.1203 90.9677 62.1203Z" fill="#FD6584"/>
<path d="M255.093 104.437C255.472 102.099 253.885 99.8959 251.548 99.5164C249.21 99.137 247.008 100.725 246.628 103.063C246.249 105.401 247.836 107.604 250.174 107.984C252.511 108.363 254.714 106.775 255.093 104.437Z" fill="#E6E6E6"/>
<path d="M90.7934 13.8527C93.1615 13.8527 95.0812 11.9324 95.0812 9.56355C95.0812 7.19472 93.1615 5.27441 90.7934 5.27441C88.4253 5.27441 86.5056 7.19472 86.5056 9.56355C86.5056 11.9324 88.4253 13.8527 90.7934 13.8527Z" fill="#E6E6E6"/>
<path d="M218.733 60.0358H217.509V26.4978C217.509 21.3498 215.465 16.4125 211.826 12.7723C208.187 9.13201 203.251 7.08693 198.104 7.08691H127.071C124.523 7.08691 122 7.58898 119.646 8.56446C117.291 9.53994 115.152 10.9697 113.35 12.7722C111.548 14.5747 110.119 16.7145 109.144 19.0695C108.168 21.4246 107.667 23.9487 107.667 26.4978V210.49C107.667 215.638 109.711 220.575 113.35 224.216C116.989 227.856 121.925 229.901 127.071 229.901H198.104C203.251 229.901 208.187 227.856 211.826 224.216C215.465 220.576 217.509 215.638 217.509 210.49V83.9088H218.733V60.0358Z" fill="#3F3D56"/>
<path d="M213.378 26.6325V210.355C213.378 212.259 213.003 214.143 212.275 215.902C211.548 217.66 210.481 219.258 209.135 220.604C207.79 221.95 206.193 223.018 204.435 223.746C202.678 224.475 200.794 224.85 198.891 224.85H127.511C123.668 224.85 119.983 223.323 117.265 220.605C114.548 217.887 113.021 214.201 113.021 210.357V26.6325C113.021 24.7291 113.396 22.8444 114.124 21.0858C114.852 19.3273 115.919 17.7294 117.264 16.3835C118.61 15.0375 120.207 13.9698 121.965 13.2413C123.723 12.5128 125.607 12.1378 127.51 12.1377H136.174C135.747 13.1833 135.584 14.3178 135.699 15.4413C135.814 16.5647 136.204 17.6427 136.833 18.5801C137.463 19.5174 138.313 20.2855 139.31 20.8167C140.306 21.3478 141.418 21.6256 142.547 21.6257H183.242C184.371 21.6249 185.482 21.3466 186.478 20.8153C187.474 20.2839 188.324 19.5159 188.954 18.5787C189.583 17.6415 189.973 16.564 190.088 15.4408C190.204 14.3177 190.041 13.1833 189.615 12.1377H198.887C200.79 12.1376 202.674 12.5124 204.432 13.2407C206.19 13.969 207.788 15.0366 209.133 16.3824C210.479 17.7282 211.546 19.326 212.274 21.0844C213.003 22.8429 213.377 24.7276 213.378 26.631L213.378 26.6325Z" fill="#F2F2F2"/>
<path d="M140.572 29.6753H118.43V30.6667H140.572V29.6753Z" fill="white"/>
<path d="M174.271 29.6753H152.128V30.6667H174.271V29.6753Z" fill="white"/>
<path d="M197.912 148.387H125.733C125.49 148.387 125.249 148.339 125.024 148.246C124.799 148.153 124.595 148.016 124.423 147.844C124.251 147.672 124.115 147.468 124.022 147.243C123.929 147.018 123.881 146.777 123.881 146.534C123.881 146.291 123.929 146.05 124.022 145.825C124.115 145.6 124.251 145.396 124.423 145.224C124.595 145.052 124.799 144.916 125.024 144.823C125.249 144.73 125.49 144.682 125.733 144.682H197.912C198.156 144.682 198.396 144.73 198.621 144.823C198.846 144.916 199.05 145.052 199.222 145.224C199.394 145.396 199.53 145.6 199.623 145.825C199.716 146.05 199.764 146.291 199.764 146.534C199.764 146.777 199.716 147.018 199.623 147.243C199.53 147.468 199.394 147.672 199.222 147.844C199.05 148.016 198.846 148.153 198.621 148.246C198.396 148.339 198.156 148.387 197.912 148.387Z" fill="#CCCCCC"/>
<path d="M197.912 161.275H125.733C125.242 161.275 124.771 161.08 124.423 160.733C124.076 160.385 123.881 159.914 123.881 159.423C123.881 158.932 124.076 158.46 124.423 158.113C124.771 157.766 125.242 157.57 125.733 157.57H197.912C198.404 157.57 198.875 157.766 199.222 158.113C199.569 158.46 199.764 158.932 199.764 159.423C199.764 159.914 199.569 160.385 199.222 160.733C198.875 161.08 198.404 161.275 197.912 161.275Z" fill="#CCCCCC"/>
<path d="M197.912 174.164H125.733C125.242 174.164 124.771 173.969 124.423 173.621C124.076 173.274 123.881 172.803 123.881 172.312C123.881 171.82 124.076 171.349 124.423 171.002C124.771 170.654 125.242 170.459 125.733 170.459H197.912C198.404 170.459 198.875 170.654 199.222 171.002C199.569 171.349 199.764 171.82 199.764 172.312C199.764 172.803 199.569 173.274 199.222 173.621C198.875 173.969 198.404 174.164 197.912 174.164Z" fill="#CCCCCC"/>
<path d="M207.969 29.6753H185.827V30.6667H207.969V29.6753Z" fill="white"/>
<path d="M140.572 207.638H118.43V208.629H140.572V207.638Z" fill="white"/>
<path d="M174.271 207.638H152.128V208.629H174.271V207.638Z" fill="white"/>
<path d="M207.969 207.638H185.827V208.629H207.969V207.638Z" fill="white"/>
<path d="M163.199 123.009C181.736 123.009 196.763 107.977 196.763 89.4347C196.763 70.8921 181.736 55.8604 163.199 55.8604C144.662 55.8604 129.635 70.8921 129.635 89.4347C129.635 107.977 144.662 123.009 163.199 123.009Z" fill="#D1D3D4"/>
<path d="M163.2 121.552C180.111 121.552 193.82 107.839 193.82 90.9224C193.82 74.006 180.111 60.2925 163.2 60.2925C146.288 60.2925 132.579 74.006 132.579 90.9224C132.579 107.839 146.288 121.552 163.2 121.552Z" fill="#E1464A"/>
<path d="M160.526 102.928C160.46 102.928 160.393 102.926 160.326 102.923C159.739 102.894 159.165 102.739 158.643 102.468C158.121 102.197 157.664 101.816 157.304 101.351L152.478 95.1452C151.814 94.2901 151.517 93.2065 151.651 92.1324C151.785 91.0582 152.339 90.0811 153.193 89.4155L153.366 89.2809C154.221 88.6171 155.304 88.3196 156.378 88.4536C157.452 88.5876 158.429 89.1421 159.095 89.9957C159.312 90.2745 159.586 90.5032 159.899 90.6661C160.213 90.829 160.557 90.9221 160.91 90.9392C161.263 90.9599 161.616 90.9023 161.944 90.7706C162.273 90.6389 162.568 90.4363 162.808 90.1774L172.607 79.8305C173.352 79.0456 174.378 78.5884 175.46 78.5591C176.542 78.5298 177.591 78.9309 178.377 79.6743L178.537 79.8249C179.322 80.5702 179.779 81.5965 179.809 82.6788C179.838 83.761 179.437 84.8107 178.694 85.5976L163.488 101.653C163.107 102.055 162.648 102.376 162.138 102.596C161.629 102.815 161.08 102.928 160.526 102.928Z" fill="white"/>
<path d="M109.572 42.4468H105.607V63.7626H109.572V42.4468Z" fill="#3F3D56"/>
<path d="M109.572 66.2412H105.607V78.6342H109.572V66.2412Z" fill="#3F3D56"/>
<path d="M109.572 81.1128H105.607V93.5057H109.572V81.1128Z" fill="#3F3D56"/>
<path d="M143.765 17.165C144.86 17.165 145.748 16.2772 145.748 15.1821C145.748 14.087 144.86 13.1992 143.765 13.1992C142.671 13.1992 141.783 14.087 141.783 15.1821C141.783 16.2772 142.671 17.165 143.765 17.165Z" fill="white"/>
<path opacity="0.16" d="M163.2 117.309C155.453 117.308 147.994 114.37 142.328 109.086C136.661 103.802 133.207 96.5655 132.663 88.8354C132.613 89.5485 132.579 90.2658 132.579 90.9916C132.579 99.1151 135.805 106.906 141.548 112.65C147.29 118.394 155.079 121.622 163.2 121.622C171.321 121.622 179.109 118.394 184.852 112.65C190.594 106.906 193.82 99.1151 193.82 90.9916C193.82 90.2658 193.786 89.5485 193.736 88.8354C193.192 96.5655 189.738 103.802 184.072 109.086C178.405 114.37 170.946 117.308 163.2 117.309Z" fill="#231F20"/>
<path d="M206.369 115.639L230.652 116.63L233.625 100.271L212.811 93.8271L206.369 115.639Z" fill="#FFB8B8"/>
<path d="M215.547 80.2073L215.782 72.4789L204.013 69.5275L182.825 63.3441C182.544 62.4932 182.012 61.7474 181.299 61.2056C180.586 60.6637 179.725 60.3512 178.83 60.3095C177.935 60.2677 177.049 60.4987 176.288 60.9718C175.528 61.4449 174.929 62.1378 174.57 62.9589C174.212 63.7801 174.111 64.6907 174.281 65.5703C174.452 66.4499 174.885 67.2572 175.524 67.8852C176.162 68.5132 176.977 68.9324 177.859 69.0873C178.741 69.2423 179.65 69.1257 180.464 68.753L201.063 77.223L215.547 80.2073Z" fill="#FFB8B8"/>
<path d="M207.963 80.1531L214.584 70.7075L214.749 70.7295C214.853 70.7432 225.235 72.1326 232.041 74.1601C232.806 74.3629 233.518 74.7301 234.126 75.2362C234.735 75.7423 235.226 76.3751 235.565 77.0904C236.051 78.09 236.235 79.21 236.094 80.3128C235.953 81.4156 235.493 82.4532 234.771 83.2982C234.036 84.2117 233.053 84.8941 231.941 85.2638C230.828 85.6336 229.633 85.6751 228.498 85.3833L207.963 80.1531Z" fill="#E1464A"/>
<path d="M212.157 223.354L205.423 223.353L202.219 197.37L212.158 197.371L212.157 223.354Z" fill="#FFB8B8"/>
<path d="M264.592 220.437L257.934 221.444L250.883 196.232L259.612 194.746L264.592 220.437Z" fill="#FFB8B8"/>
<path d="M231.643 111.673L208.352 107.707L207.523 109.415C203.065 118.617 200.433 128.597 199.773 138.801C199.21 147.416 198.879 156.514 198.868 166.051C198.852 180.828 199.605 194.54 200.797 207.016L213.58 206.936C213.211 193.69 213.714 180.433 215.085 167.253C216.064 157.854 217.424 149.075 218.997 140.974C221.915 152.867 226.034 164.432 231.289 175.492C235.757 184.942 244.945 195.865 249.412 205.315C253.99 204.765 258.567 204.216 263.145 203.666C259.537 194.124 253.102 180.188 249.495 170.646C244.337 157.001 242.007 147.75 236.849 134.105C237.143 131.541 237.201 128.954 237.021 126.379C236.78 122.086 235.888 116.935 233.279 113.5L231.643 111.673Z" fill="#2F2E41"/>
<path d="M235.241 104.56C236.404 106.735 233.642 111.241 231.643 111.673L208.61 104.225L220.207 70.6084L226.042 71.6692L235.374 73.242L238.684 76.2517C239.518 77.0104 240.113 77.995 240.398 79.0857C240.683 80.1765 240.645 81.3265 240.289 82.3962L235.241 104.56Z" fill="#E1464A"/>
<path d="M219.385 91.5687L212.869 87.4092L204.308 96.0095L188.149 111.048C187.274 110.853 186.362 110.929 185.531 111.264C184.701 111.599 183.991 112.179 183.497 112.927C183.003 113.674 182.748 114.554 182.764 115.45C182.781 116.345 183.069 117.215 183.591 117.943C184.112 118.672 184.843 119.225 185.685 119.529C186.528 119.833 187.443 119.874 188.309 119.647C189.176 119.42 189.953 118.935 190.537 118.256C191.122 117.577 191.487 116.737 191.584 115.846L209.406 102.485L219.385 91.5687Z" fill="#FFB8B8"/>
<path d="M215.456 98.0569L210.735 87.5319L210.839 87.4012C210.904 87.3191 217.413 79.1098 222.64 74.3002C223.205 73.7468 223.885 73.3235 224.631 73.0598C225.377 72.7961 226.172 72.6985 226.96 72.7736C228.067 72.8679 229.123 73.2835 229.998 73.9692C230.872 74.655 231.528 75.5812 231.884 76.6343C232.292 77.7336 232.375 78.9271 232.123 80.0723C231.87 81.2174 231.294 82.2656 230.462 83.0917L215.456 98.0569Z" fill="#E1464A"/>
<path d="M230.138 68.362C235.795 68.362 240.382 63.7743 240.382 58.1151C240.382 52.4559 235.795 47.8682 230.138 47.8682C224.48 47.8682 219.894 52.4559 219.894 58.1151C219.894 63.7743 224.48 68.362 230.138 68.362Z" fill="#FFB8B8"/>
<path d="M238.411 72.9636L238.372 72.9537L223.485 69.2292C222.97 69.1002 222.491 68.852 222.088 68.5046C221.686 68.1572 221.37 67.7203 221.167 67.2288C220.963 66.7374 220.878 66.2051 220.917 65.6747C220.957 65.1443 221.12 64.6305 221.394 64.1745L221.885 63.3561C222.366 62.557 222.638 61.6503 222.678 60.7188C222.718 59.7873 222.524 58.8606 222.114 58.0233C221.409 56.6558 220.196 55.6194 218.735 55.1366L218.686 55.1129L218.373 54.9183C218.066 54.7732 217.793 54.5655 217.57 54.3085C217.348 54.0515 217.182 53.7508 217.082 53.4258C216.979 53.089 216.948 52.7343 216.99 52.3846C217.032 52.0349 217.148 51.698 217.329 51.3957C218.643 49.1969 220.609 47.4625 222.955 46.434C225.918 45.1578 229.256 45.0575 232.291 46.1534C232.493 45.9676 232.738 45.8349 233.004 45.7673C233.27 45.6997 233.549 45.6992 233.815 45.7659C241.525 47.6336 242.159 52.8098 240.636 61.1189L242.439 68.3917C242.566 68.9052 242.58 69.4404 242.48 69.9599C242.38 70.4794 242.168 70.9709 241.859 71.4001C241.549 71.8294 241.15 72.1861 240.689 72.4455C240.228 72.7049 239.716 72.8608 239.189 72.9023L238.411 72.9636ZM232.209 46.2353L232.208 46.2362L232.209 46.2353ZM232.394 46.1897L232.396 46.1902L232.394 46.1897Z" fill="#2F2E41"/>
<path d="M213.798 230.089H209.955L209.269 226.46L207.512 230.089H197.318C196.829 230.089 196.353 229.933 195.96 229.644C195.566 229.354 195.276 228.946 195.13 228.479C194.985 228.013 194.992 227.512 195.152 227.05C195.311 226.588 195.614 226.189 196.016 225.911L204.156 220.287V216.618L212.718 217.129L213.798 230.089Z" fill="#2F2E41"/>
<path d="M265.664 230.089H261.821L261.135 226.46L259.378 230.089H249.184C248.696 230.089 248.22 229.933 247.826 229.644C247.433 229.354 247.142 228.946 246.996 228.479C246.851 228.013 246.858 227.512 247.018 227.05C247.177 226.588 247.48 226.189 247.882 225.911L256.022 220.287V216.618L264.585 217.129L265.664 230.089Z" fill="#2F2E41"/>
</g>
<defs>
<clipPath id="clip0_1262_27781">
<rect width="324" height="231" fill="white"/>
</clipPath>
</defs>
</svg>
