<svg width="287" height="243" viewBox="0 0 287 243" fill="none" xmlns="http://www.w3.org/2000/svg">
<g clip-path="url(#clip0_1399_27791)">
<path d="M233.739 117.281C233.739 120.695 233.596 124.075 233.31 127.421C233.084 130.032 232.777 132.62 232.388 135.184C231.974 137.9 231.466 140.582 230.866 143.232V143.235C230.473 144.979 230.042 146.709 229.572 148.424C228.209 153.411 226.514 158.301 224.499 163.06C224.061 164.095 223.608 165.124 223.141 166.145C221.376 170.012 219.398 173.778 217.219 177.427C211.106 187.673 203.476 196.926 194.591 204.869C193.629 205.727 192.654 206.571 191.666 207.401C170.686 224.988 144.206 234.604 116.869 234.562C52.3234 234.562 0 182.054 0 117.281C0 52.5077 52.3234 0.000145261 116.869 0.000145261C143.265 -0.0416211 168.891 8.92444 189.538 25.4262C190.506 26.1959 191.462 26.9828 192.405 27.7871C197.01 31.7056 201.306 35.9737 205.258 40.5536H205.261C223.666 61.8445 233.78 89.0951 233.739 117.281Z" fill="#F2F2F2"/>
<path d="M34.4997 137.54C23.3665 130.89 14.9637 118.463 16.0546 105.508C26.233 115.284 39.5292 121.132 53.5906 122.017C59.0148 122.339 65.0811 122.13 69.0739 125.828C71.5584 128.129 72.7149 131.594 72.9046 134.981C73.0942 138.369 72.418 141.738 71.7453 145.063L71.9768 145.878C59.021 145.927 45.6329 144.189 34.4997 137.54Z" fill="#E6E6E6"/>
<path d="M16.3259 105.494C20.7867 115.28 28.2068 123.407 37.5323 128.721C39.5371 129.847 41.6684 130.814 43.9334 131.263C46.1444 131.683 48.4273 131.501 50.5448 130.737C52.5335 130.064 54.49 129.144 56.607 128.968C58.8385 128.783 60.9043 129.646 62.5274 131.16C64.5133 133.011 65.7179 135.468 66.8126 137.912C68.0282 140.626 69.2478 143.463 71.5783 145.415C71.8607 145.651 71.4786 146.077 71.1967 145.841C67.142 142.446 66.4802 136.76 63.2391 132.762C61.7268 130.896 59.645 129.476 57.1719 129.514C55.0092 129.547 52.9908 130.493 50.9832 131.192C48.8751 131.926 46.7632 132.271 44.5377 131.948C42.261 131.617 40.0875 130.732 38.0628 129.662C33.4897 127.202 29.3304 124.035 25.7374 120.279C21.613 116.014 18.246 111.073 15.782 105.669C15.6296 105.334 16.1745 105.162 16.3259 105.494H16.3259Z" fill="white"/>
<path d="M34.4292 127.187C33.3285 128.636 31.7503 129.646 29.9764 130.035C28.2026 130.424 26.3487 130.168 24.7458 129.312C24.422 129.138 24.6767 128.624 25.0009 128.799C26.4921 129.599 28.219 129.837 29.8701 129.471C31.5211 129.106 32.9875 128.16 34.0045 126.804C34.2258 126.51 34.6493 126.895 34.4292 127.187L34.4292 127.187Z" fill="white"/>
<path d="M49.5815 131.212C49.1182 127.516 47.2839 124.131 44.4444 121.733C44.1629 121.495 44.5449 121.069 44.826 121.306C47.7763 123.808 49.678 127.334 50.1517 131.181C50.1966 131.548 49.6261 131.576 49.5815 131.212V131.212Z" fill="white"/>
<path d="M22.3211 115.745C22.8634 115.273 23.2805 114.674 23.535 114C23.7894 113.327 23.8732 112.601 23.7788 111.887C23.7293 111.521 24.2998 111.493 24.349 111.856C24.4496 112.646 24.3561 113.448 24.0766 114.192C23.7972 114.937 23.3403 115.601 22.7458 116.128C22.6939 116.182 22.6234 116.215 22.5485 116.219C22.4736 116.223 22.4 116.198 22.3426 116.15C22.2866 116.099 22.253 116.027 22.2489 115.952C22.2449 115.876 22.2708 115.802 22.3211 115.745V115.745Z" fill="white"/>
<path d="M52.0919 80.4092C52.1293 80.6368 52.1667 80.8644 52.2084 81.0942C52.7268 84.1517 53.4919 87.1619 54.4961 90.095C54.5702 90.323 54.6486 90.553 54.7291 90.7784C57.2235 97.8192 60.9989 104.334 65.8632 109.992C67.8009 112.241 69.9063 114.34 72.1613 116.269C75.2756 118.932 78.8635 121.572 80.8603 125.012C81.0726 125.368 81.2627 125.737 81.4295 126.118L72.949 145.531C72.9077 145.566 72.8707 145.602 72.8292 145.637L72.5259 146.427C72.4027 146.336 72.2769 146.239 72.1537 146.147C72.082 146.095 72.0121 146.038 71.9405 145.985C71.8933 145.949 71.8461 145.912 71.8014 145.882C71.7857 145.869 71.77 145.857 71.7587 145.847C71.714 145.817 71.6757 145.784 71.6354 145.756C70.9305 145.213 70.2282 144.665 69.5284 144.111C69.524 144.109 69.524 144.109 69.5214 144.102C64.2001 139.866 59.1846 135.146 55.0423 129.812C54.9177 129.652 54.7886 129.489 54.6679 129.32C52.8141 126.906 51.16 124.343 49.7222 121.658C48.9396 120.185 48.2318 118.674 47.6015 117.129C45.9806 113.135 44.9958 108.91 44.6833 104.609C44.0615 96.034 46.1793 87.3553 51.6677 80.8984C51.8083 80.7333 51.947 80.5723 52.0919 80.4092Z" fill="#E6E6E6"/>
<path d="M52.3184 80.5609C50.0087 91.0698 51.0574 102.042 55.3155 111.919C56.2406 114.029 57.362 116.089 58.9012 117.816C60.4145 119.487 62.3461 120.722 64.4955 121.391C66.4871 122.055 68.6009 122.503 70.397 123.641C72.2901 124.841 73.4212 126.779 73.8093 128.968C74.2842 131.646 73.7718 134.336 73.1797 136.948C72.5222 139.849 71.7935 142.852 72.4835 145.818C72.5671 146.178 72.0066 146.287 71.9231 145.928C70.7225 140.768 73.6053 135.828 73.4164 130.677C73.3282 128.274 72.5178 125.882 70.5206 124.418C68.7743 123.138 66.5948 122.674 64.5725 122.019C62.449 121.331 60.556 120.33 58.9727 118.728C57.3531 117.089 56.1491 115.068 55.1743 112.991C52.9988 108.264 51.5776 103.222 50.9627 98.052C50.2282 92.155 50.5044 86.1753 51.7792 80.3718C51.8583 80.0126 52.3969 80.2041 52.3184 80.5609Z" fill="white"/>
<path d="M53.7578 108.819C52.0095 109.311 50.1439 109.163 48.4941 108.402C46.8443 107.641 45.5178 106.317 44.7515 104.665C44.5975 104.33 45.1087 104.074 45.2628 104.41C45.9736 105.949 47.2094 107.183 48.7471 107.888C50.2848 108.594 52.0232 108.725 53.6485 108.257C54.0018 108.155 54.1091 108.718 53.7578 108.819H53.7578Z" fill="white"/>
<path d="M63.4413 121.187C65.2887 117.957 65.8547 114.146 65.0266 110.515C64.9443 110.156 65.5048 110.046 65.5871 110.405C66.4418 114.185 65.8447 118.15 63.9149 121.507C63.7308 121.827 63.2582 121.506 63.4413 121.187Z" fill="white"/>
<path d="M50.955 92.3677C51.6709 92.3188 52.3636 92.0922 52.9707 91.7083C53.5779 91.3244 54.0805 90.7951 54.4334 90.1681C54.6135 89.846 55.0859 90.1682 54.907 90.4882C54.5139 91.1792 53.9581 91.763 53.2882 92.1887C52.6184 92.6144 51.8548 92.8689 51.0643 92.9302C50.9903 92.9422 50.9144 92.9255 50.8522 92.8835C50.79 92.8414 50.7461 92.7772 50.7294 92.7038C50.7153 92.6293 50.7311 92.5522 50.7733 92.4892C50.8156 92.4263 50.8808 92.3827 50.955 92.3678V92.3677Z" fill="white"/>
<path d="M80.9564 27.1823L95.2608 195.221L66.6521 197.38V29.3203C70.0611 27.0566 74.9546 26.7025 80.9564 27.1823Z" fill="#CCCCCC"/>
<path d="M151.565 27.1823L137.261 195.221L165.869 197.38V29.3203C162.46 27.0566 157.567 26.7025 151.565 27.1823Z" fill="#CCCCCC"/>
<path d="M161.586 204.325H70.6314C69.1729 204.323 67.7747 203.741 66.7434 202.706C65.7121 201.671 65.132 200.268 65.1304 198.805V31.7865C65.132 30.3229 65.7121 28.9197 66.7434 27.8848C67.7747 26.8499 69.1729 26.2678 70.6314 26.2661H161.586C163.044 26.2678 164.442 26.8499 165.474 27.8848C166.505 28.9197 167.085 30.3229 167.087 31.7865V198.805C167.085 200.268 166.505 201.671 165.474 202.706C164.442 203.741 163.044 204.323 161.586 204.325ZM70.6314 28.0986C69.657 28.0997 68.723 28.4886 68.034 29.18C67.3451 29.8713 66.9575 30.8087 66.9565 31.7865V198.805C66.9575 199.782 67.3451 200.72 68.034 201.411C68.7229 202.103 69.657 202.492 70.6314 202.493H161.586C162.56 202.492 163.494 202.103 164.183 201.411C164.872 200.72 165.26 199.782 165.261 198.805V31.7865C165.26 30.8087 164.872 29.8713 164.183 29.18C163.494 28.4886 162.56 28.0997 161.586 28.0986L70.6314 28.0986Z" fill="#CCCCCC"/>
<path d="M166.174 54.0591H66.0435V55.8916H166.174V54.0591Z" fill="#CCCCCC"/>
<path d="M166.174 84.6011H66.0435V86.4336H166.174V84.6011Z" fill="#CCCCCC"/>
<path d="M98.5365 27.1821H96.7104V110.561H98.5365V27.1821Z" fill="#CCCCCC"/>
<path d="M135.507 27.1821H133.68V110.561H135.507V27.1821Z" fill="#CCCCCC"/>
<path d="M177.587 209.365H57.6739C55.4945 209.365 53.4044 208.496 51.8634 206.949C50.3223 205.403 49.4565 203.305 49.4565 201.118C49.4565 198.931 50.3223 196.834 51.8634 195.287C53.4044 193.741 55.4945 192.872 57.6739 192.872H177.587C179.766 192.872 181.856 193.741 183.397 195.287C184.938 196.834 185.804 198.931 185.804 201.118C185.804 203.305 184.938 205.403 183.397 206.949C181.856 208.496 179.766 209.365 177.587 209.365Z" fill="#CCCCCC"/>
<path d="M166.174 106.286H66.6521V112.394H166.174V106.286Z" fill="#CCCCCC"/>
<path d="M98.8202 125.726L98.6939 125.665C91.9095 122.376 83.0252 122.379 69.8864 125.675L69.7461 125.711L69.704 125.572C68.3141 120.998 66.7396 115.818 69.6975 113.27C69.7389 105.792 76.2757 99.7192 84.3048 99.7192C92.3323 99.7192 98.8682 105.789 98.912 113.265C103.312 116.641 101.215 121.63 98.8912 125.605L98.8202 125.726Z" fill="#2F2E41"/>
<path d="M140.519 109.712C140.398 110.318 140.145 110.89 139.779 111.388C139.414 111.885 138.944 112.296 138.403 112.591C137.862 112.887 137.262 113.06 136.648 113.098C136.033 113.136 135.417 113.038 134.844 112.811L110.868 136.99L108.729 129.482L132.542 107.029C132.985 106.088 133.756 105.343 134.71 104.935C135.664 104.527 136.735 104.484 137.718 104.815C138.701 105.146 139.529 105.827 140.046 106.73C140.562 107.632 140.73 108.693 140.519 109.712L140.519 109.712Z" fill="#FFB6B6"/>
<path d="M81.2631 132.989C81.2631 132.989 79.0879 137.936 84.4552 140.986C89.8226 144.037 108.582 139.822 111.626 139.234C114.669 138.645 126.038 121.572 126.038 121.572L124.43 113.199L109.353 126.334L81.2631 132.989Z" fill="#FF6584"/>
<path d="M77.3042 160.345L77.6085 166.148C77.6085 166.148 76.7102 171.288 77.449 172.397C78.1823 173.501 98.1904 173.64 98.1904 173.64C98.1904 173.64 99.5125 166.488 100.651 160.229L77.3042 160.345Z" fill="#FFB6B6"/>
<path d="M134.83 237.072L139.013 236.225L137.816 219.27L131.643 220.521L134.83 237.072Z" fill="#FFB6B6"/>
<path d="M140.822 215.008L144.71 213.253L139.666 197.031L133.927 199.621L140.822 215.008Z" fill="#FFB6B6"/>
<path d="M144.209 205.867L136.887 210.028L118.83 180.909C106.153 189.479 93.7572 193.583 81.2609 195.773C77.036 196.528 72.7284 196.146 71.9173 191.83C71.8793 191.629 71.8491 191.426 71.8266 191.222C71.3276 186.508 77.1704 180.467 77.9131 174.7L93.9036 173.736L95.8755 176.273L114.368 164.864C118.087 162.57 122.978 163.811 125.293 167.636C125.415 167.838 125.529 168.045 125.633 168.257L144.209 205.867Z" fill="#2F2E41"/>
<path d="M139.728 225.456L131.35 226.237L116.159 195.06C101.095 197.66 86.8834 198.493 74.5912 195.348C70.4294 194.297 67.8854 189.985 68.909 185.715C68.9569 185.516 69.0122 185.318 69.075 185.123C70.5461 180.619 74.3971 177.432 77.4311 172.478L99.5927 172.815L97.1174 181.386L118.646 178.59C122.975 178.028 126.929 181.173 127.477 185.614C127.506 185.849 127.525 186.085 127.534 186.321L139.728 225.456Z" fill="#2F2E41"/>
<path d="M85.9576 121.293C90.9276 121.293 94.9565 117.25 94.9565 112.262C94.9565 107.275 90.9276 103.232 85.9576 103.232C80.9877 103.232 76.9587 107.275 76.9587 112.262C76.9587 117.25 80.9877 121.293 85.9576 121.293Z" fill="#FFB6B6"/>
<path d="M80.682 124.553L88.9332 125.527C89.2811 125.568 89.6076 125.717 89.8672 125.954C90.1268 126.19 90.3065 126.501 90.3813 126.845L91.6935 132.87L99.8733 142.537C99.8733 142.537 102.811 148.064 101.709 154.328C100.608 160.591 100.124 165.246 100.124 165.246C100.124 165.246 78.1814 173.502 77.447 172.396C76.7127 171.291 76.4744 166.27 76.4744 166.27L73.5371 133.477C73.5371 133.477 76.8416 127.951 78.6774 127.951C79.8622 127.911 79.7102 125.235 80.682 124.553Z" fill="#FF6584"/>
<path d="M100.347 167.262C101.504 167.262 102.442 166.132 102.442 164.739C102.442 163.345 101.504 162.216 100.347 162.216C99.1895 162.216 98.2515 163.345 98.2515 164.739C98.2515 166.132 99.1895 167.262 100.347 167.262Z" fill="#6C63FF"/>
<path d="M132.754 232.707L139.132 229.5L140.333 232.313L148.398 233.949C148.796 234.03 149.158 234.236 149.431 234.538C149.704 234.84 149.874 235.222 149.916 235.627C149.958 236.033 149.869 236.441 149.663 236.793C149.457 237.144 149.144 237.421 148.771 237.581L140.979 240.933L138.447 238.727L139.112 241.736L136.174 243L132.754 232.707Z" fill="#2F2E41"/>
<path d="M138.997 213.658L145.317 210.339L146.568 213.131L154.659 214.624C155.059 214.698 155.425 214.898 155.703 215.195C155.982 215.492 156.158 215.871 156.207 216.276C156.256 216.68 156.174 217.09 155.974 217.445C155.775 217.8 155.467 218.082 155.096 218.249L147.365 221.738L144.795 219.577L145.512 222.574L142.597 223.889L138.997 213.658Z" fill="#2F2E41"/>
<path d="M80.8162 109.43C78.4387 109.434 76.1184 108.699 74.1736 107.327L74.1086 107.281V107.202C74.1113 104.894 75.0259 102.682 76.6521 101.05C78.2782 99.4181 80.4829 98.5002 82.7825 98.4976H86.4347C88.7344 98.5002 90.9391 99.4181 92.5652 101.05C94.1913 102.682 95.106 104.894 95.1086 107.202C95.1062 107.73 94.8984 108.237 94.5294 108.613C94.1605 108.99 93.6595 109.207 93.1333 109.219L81.0214 109.428C80.953 109.43 80.8844 109.43 80.8162 109.43Z" fill="#2F2E41"/>
<path d="M95.7171 105.53C96.8817 104.855 97.0763 103.006 96.1518 101.399C95.2273 99.7919 93.5339 99.0362 92.3693 99.7109C91.2048 100.386 91.0102 102.235 91.9347 103.842C92.8591 105.449 94.5526 106.205 95.7171 105.53Z" fill="#2F2E41"/>
<path d="M77.5042 103.738C78.8116 102.426 79.1006 100.588 78.1498 99.6342C77.1989 98.68 75.3683 98.9701 74.0609 100.282C72.7535 101.594 72.4644 103.431 73.4153 104.385C74.3661 105.34 76.1968 105.05 77.5042 103.738Z" fill="#2F2E41"/>
<path d="M157.146 186.305H148.164C147.962 186.305 147.761 186.349 147.577 186.434C147.393 186.519 147.23 186.644 147.099 186.799C146.768 186.738 146.427 186.757 146.104 186.853C145.782 186.95 145.486 187.123 145.243 187.356C144.999 187.59 144.814 187.878 144.703 188.197C144.592 188.516 144.558 188.857 144.604 189.192C144.65 189.527 144.774 189.846 144.966 190.123C145.159 190.401 145.414 190.628 145.712 190.787C146.009 190.947 146.339 191.033 146.676 191.039C147.013 191.045 147.346 190.971 147.649 190.822L148.394 193.252C148.482 193.54 148.66 193.792 148.902 193.971C149.143 194.15 149.435 194.246 149.735 194.246H155.575C155.875 194.246 156.168 194.15 156.409 193.971C156.65 193.792 156.828 193.54 156.917 193.252L158.488 188.128C158.552 187.917 158.567 187.694 158.53 187.477C158.493 187.26 158.406 187.054 158.275 186.877C158.145 186.7 157.975 186.556 157.779 186.456C157.582 186.357 157.366 186.305 157.146 186.305ZM146.72 190.428C146.317 190.428 145.93 190.267 145.644 189.981C145.359 189.695 145.199 189.306 145.199 188.901C145.199 188.496 145.359 188.108 145.644 187.821C145.93 187.535 146.317 187.374 146.72 187.374C146.748 187.374 146.774 187.381 146.802 187.382C146.741 187.628 146.748 187.886 146.823 188.128L147.466 190.224C147.239 190.356 146.982 190.427 146.72 190.428Z" fill="#3F3D56"/>
<path d="M117.037 179.675C116.424 179.732 115.806 179.654 115.226 179.445C114.646 179.236 114.119 178.902 113.682 178.467C113.244 178.031 112.908 177.505 112.695 176.925C112.482 176.345 112.399 175.725 112.451 175.109L82.4912 158.998L89.0441 154.787L117.31 171.236C118.335 171.392 119.268 171.921 119.931 172.721C120.594 173.521 120.942 174.537 120.909 175.577C120.875 176.617 120.462 177.609 119.749 178.364C119.036 179.12 118.071 179.586 117.037 179.675Z" fill="#FFB6B6"/>
<path d="M77.8165 129.389C77.8165 129.389 72.4701 128.718 71.098 134.753C69.7258 140.788 79.1315 157.612 80.5666 160.369C82.0017 163.127 101.561 169.157 101.561 169.157L109.093 165.209L92.229 154.484L77.8165 129.389Z" fill="#FF6584"/>
<path d="M115.5 104.453H117.326C118.214 104.453 119.065 104.807 119.693 105.437C120.321 106.067 120.674 106.922 120.674 107.813H112.152C112.152 106.922 112.505 106.067 113.133 105.437C113.76 104.807 114.612 104.453 115.5 104.453Z" fill="#CCCCCC"/>
<path d="M57.5951 41.7707C67.5865 41.7707 75.6861 33.6426 75.6861 23.6161C75.6861 13.5895 67.5865 5.46143 57.5951 5.46143C47.6038 5.46143 39.5042 13.5895 39.5042 23.6161C39.5042 33.6426 47.6038 41.7707 57.5951 41.7707Z" fill="#FF6584"/>
<path d="M112.986 22.6701C108.198 17.63 102.637 13.032 96.0548 10.6023C94.2212 9.92262 92.32 9.44317 90.384 9.17224C90.3685 9.17011 90.3537 9.17327 90.3382 9.17201C90.3068 9.16386 90.2748 9.15757 90.2426 9.15317C87.535 8.80702 84.7867 8.97352 82.1402 9.64404C80.846 9.96995 79.5835 10.4113 78.3676 10.9629C77.1475 11.5602 75.9653 12.2326 74.8277 12.9761C72.4198 14.4225 69.7687 15.415 67.0052 15.9047C65.618 16.1553 64.213 16.2937 62.8038 16.3185C61.581 16.3431 60.4278 16.3857 59.2693 16.829C58.0318 17.296 56.9201 18.0468 56.0231 19.0215C55.126 19.9963 54.4684 21.1679 54.1027 22.4429C54.0746 22.5565 54.083 22.6761 54.127 22.7844C54.1709 22.8928 54.2481 22.9844 54.3473 23.0459C54.6607 23.2712 54.9662 23.5267 55.2954 23.7274C55.5883 23.8619 55.9012 23.9476 56.2216 23.9809C56.7451 24.0917 57.2693 24.1994 57.7941 24.3037C59.7275 24.6882 61.669 25.0285 63.6185 25.3246C67.5633 25.9239 71.5294 26.346 75.5168 26.591C83.5047 27.0766 91.52 26.8348 99.4644 25.8687C103.929 25.3261 108.364 24.5564 112.751 23.5626C112.84 23.5366 112.92 23.4879 112.985 23.4214C113.049 23.3549 113.096 23.2727 113.119 23.1829C113.143 23.0931 113.143 22.9987 113.12 22.9089C113.096 22.8191 113.05 22.7368 112.986 22.6701Z" fill="#E6E6E6"/>
<path d="M58.4537 34.8084C56.6201 34.1287 54.7189 33.6492 52.7829 33.3783C52.7674 33.3762 52.7526 33.3793 52.7372 33.3781C52.7057 33.3699 52.6737 33.3636 52.6415 33.3592C49.9339 33.0131 47.1856 33.1796 44.5391 33.8501C43.2449 34.176 41.9824 34.6174 40.7665 35.1689C39.5464 35.7663 38.3642 36.4387 37.2266 37.1822C34.8187 38.6286 32.1676 39.6211 29.4041 40.1107C28.0169 40.3613 26.6119 40.4997 25.2027 40.5245C23.9799 40.5491 22.8267 40.5918 21.6682 41.0351C20.4307 41.5021 19.319 42.2529 18.422 43.2276C17.525 44.2023 16.8674 45.3739 16.5017 46.649C16.4735 46.7625 16.482 46.8821 16.5259 46.9905C16.5699 47.0989 16.647 47.1904 16.7462 47.252C17.0596 47.4772 17.3651 47.7328 17.6944 47.9334C17.9873 48.068 18.3001 48.1536 18.6205 48.1869C19.144 48.2978 19.6682 48.4054 20.193 48.5097C22.1265 48.8942 24.0679 49.2345 26.0175 49.5306C29.9622 50.1299 33.9283 50.5521 37.9157 50.797C45.9036 51.2826 53.9189 51.0408 61.8633 50.0748C66.3281 49.5321 70.7626 48.7624 75.1497 47.7686C75.2385 47.7426 75.3191 47.6939 75.3837 47.6274C75.4482 47.5609 75.4946 47.4787 75.5182 47.389C75.5418 47.2992 75.5419 47.2048 75.5185 47.1149C75.4951 47.0251 75.4489 46.9429 75.3845 46.8762C70.5967 41.836 65.0363 37.2381 58.4537 34.8084Z" fill="#E6E6E6"/>
<path d="M188.915 170.148L175.003 151.808L164.026 158.036L187.287 185.757L188.915 170.148Z" fill="#3F3D56"/>
<path d="M220.962 140.334C221.271 148.02 222.458 155.645 224.499 163.06C224.061 164.095 223.608 165.123 223.142 166.145C221.376 170.012 219.398 173.778 217.219 177.427C211.106 187.672 203.476 196.926 194.591 204.869C193.629 205.727 192.654 206.571 191.666 207.4C186.032 199.606 182.992 191.006 181.79 182.155C181.638 181.031 181.513 179.894 181.419 178.764V178.758C181.188 176.012 181.114 173.255 181.196 170.5C181.199 170.28 181.205 170.057 181.215 169.834C181.321 166.89 181.586 163.939 181.985 161.017V161.013C182.03 160.678 182.076 160.342 182.128 160.006C182.274 158.998 182.438 157.99 182.618 156.988C183.663 151.21 185.121 145.516 186.982 139.949V139.946C187.034 139.784 187.085 139.625 187.143 139.466C187.344 138.861 187.548 138.263 187.758 137.664C187.771 137.617 187.787 137.571 187.807 137.527C188.078 136.745 188.355 135.969 188.638 135.2C188.714 134.986 188.793 134.772 188.875 134.558C189.195 133.7 189.52 132.848 189.852 132.008C189.955 131.739 190.062 131.47 190.169 131.205C190.251 131 190.33 130.795 190.415 130.594V130.591C190.899 129.39 191.389 128.214 191.885 127.06C193.276 123.817 194.706 120.765 196.1 117.953L196.103 117.949C201.889 106.304 207.148 98.7417 207.148 98.7417L226.897 105.155C224.542 109.349 222.718 115.534 221.72 122.83C220.951 128.629 220.698 134.486 220.962 140.331L220.962 140.334Z" fill="#3F3D56"/>
<path d="M188.139 138.468C188.023 138.196 187.892 137.93 187.758 137.664C187.064 136.316 186.17 135.08 185.107 133.999C184.949 133.838 184.785 133.676 184.614 133.523C182.781 131.828 180.552 130.625 178.132 130.024C175.713 129.423 173.182 129.444 170.772 130.084L170.76 130.09L170.669 130.114L170.69 130.218C170.782 130.702 170.914 131.177 171.086 131.639C171.132 131.764 171.183 131.883 171.235 132.002C171.256 132.057 171.284 132.106 171.308 132.161C171.308 132.161 171.305 132.164 171.311 132.164C171.311 132.167 171.314 132.17 171.314 132.173C171.372 132.286 171.427 132.402 171.488 132.512C171.363 132.393 171.244 132.271 171.129 132.146C171.016 132.029 170.912 131.907 170.809 131.785C170.454 131.37 170.134 130.927 169.85 130.46L169.802 130.377L169.716 130.411C168.568 130.81 167.472 131.349 166.454 132.014L166.344 132.087C165.567 132.6 164.69 132.942 163.772 133.093C162.854 133.243 161.915 133.198 161.015 132.961C159.597 132.594 158.118 132.527 156.672 132.764C155.227 133.001 153.846 133.537 152.618 134.338C151.805 134.871 151.069 135.514 150.433 136.25C150.378 136.314 150.323 136.382 150.269 136.446C150.153 136.586 150.043 136.73 149.937 136.876C148.793 138.411 148.091 140.231 147.907 142.139L147.901 142.209L147.959 142.249C148.988 142.957 150.153 143.444 151.379 143.678C150.609 143.786 149.829 143.806 149.054 143.736H149.051C148.7 143.707 148.35 143.658 148.004 143.59L147.94 143.577H147.937L147.858 143.562L147.87 143.709C147.961 145.575 148.546 147.383 149.566 148.947L149.596 148.989C149.607 149.005 149.617 149.021 149.626 149.038C150.058 149.701 150.417 150.409 150.698 151.149C151.409 152.988 151.566 154.996 151.148 156.924C150.675 158.986 150.833 161.143 151.599 163.114C152.366 165.085 153.706 166.779 155.446 167.974C156.974 169.029 158.754 169.656 160.604 169.791C160.857 169.813 161.112 169.825 161.368 169.825C162.832 169.83 164.28 169.527 165.62 168.936L165.669 168.918L165.681 168.863C165.938 168.028 166.3 167.23 166.758 166.487C166.608 167.073 166.533 167.675 166.533 168.28V168.481L166.706 168.38C166.856 168.292 167.008 168.197 167.145 168.109C167.967 167.57 168.711 166.92 169.357 166.178C169.61 165.885 169.866 165.601 170.133 165.317L170.136 165.314C170.657 164.758 171.208 164.214 171.78 163.695C172.997 162.598 174.3 161.6 175.676 160.711C177.05 159.826 178.487 159.042 179.976 158.366H179.979C180.146 158.286 180.317 158.21 180.484 158.137C181.225 157.813 181.939 157.429 182.618 156.988C182.642 156.973 182.663 156.961 182.685 156.946C185.627 155.012 187.79 152.094 188.788 148.71C189.787 145.327 189.557 141.697 188.139 138.468L188.139 138.468Z" fill="#FF6584"/>
<path opacity="0.15" d="M151.649 161.261C151.566 161.632 151.503 162.007 151.461 162.386C150.894 160.589 150.812 158.673 151.223 156.834C151.286 156.553 151.334 156.268 151.371 155.982C151.933 157.685 152.029 159.508 151.649 161.261Z" fill="black"/>
<path opacity="0.15" d="M151.88 148.012C150.978 148.138 150.064 148.142 149.161 148.025C148.925 147.578 148.721 147.114 148.551 146.637C149.556 147.318 150.688 147.786 151.88 148.012Z" fill="black"/>
<path opacity="0.15" d="M149.089 143.638C148.756 144.492 148.535 145.385 148.431 146.296C148.154 145.429 147.99 144.529 147.944 143.618L147.936 143.472L148.08 143.5C148.414 143.563 148.751 143.609 149.089 143.638Z" fill="black"/>
<path opacity="0.15" d="M152.697 134.248C153.923 133.445 155.303 132.908 156.748 132.671C158.193 132.434 159.671 132.501 161.089 132.868C161.989 133.107 162.929 133.153 163.847 133.003C164.766 132.852 165.643 132.509 166.421 131.996L166.531 131.924C167.548 131.256 168.643 130.717 169.791 130.316L169.879 130.286L169.927 130.365C170.381 131.119 170.931 131.809 171.563 132.42C171.179 131.702 170.91 130.928 170.766 130.126L170.746 130.02L170.85 129.992C173.109 129.392 175.478 129.337 177.763 129.83C180.049 130.324 182.185 131.353 183.999 132.833C185.812 134.312 187.251 136.202 188.199 138.346C189.146 140.491 189.575 142.829 189.45 145.172C188.971 143.262 188.119 141.467 186.943 139.89C185.767 138.313 184.291 136.986 182.601 135.986C180.911 134.986 179.039 134.333 177.095 134.063C175.151 133.794 173.173 133.915 171.276 134.419L171.172 134.446L171.193 134.552C171.337 135.354 171.606 136.128 171.99 136.846C171.358 136.236 170.808 135.545 170.354 134.792L170.306 134.712L170.218 134.743C169.07 135.143 167.975 135.683 166.957 136.35L166.847 136.423C166.069 136.936 165.193 137.279 164.274 137.429C163.355 137.579 162.415 137.534 161.515 137.295C159.159 136.681 156.664 136.907 154.455 137.933C152.246 138.959 150.46 140.723 149.402 142.923C148.931 142.695 148.474 142.439 148.035 142.156L147.975 142.118L147.982 142.048C148.134 140.476 148.636 138.958 149.452 137.608C150.268 136.257 151.377 135.109 152.697 134.248Z" fill="black"/>
<path d="M265.841 56.2092L265.552 56.0168L265.342 56.2917C263.717 58.3451 262.424 60.6425 261.511 63.0994C261.637 60.269 262.13 57.4671 262.978 54.7646L263.069 54.4805L262.807 54.3309C259.402 52.3958 255.773 50.886 252.003 49.8351L251.592 49.7252C248.702 48.9294 246.012 47.5313 243.697 45.6221C241.381 43.7129 239.493 41.3353 238.155 38.6446C235.046 32.4692 230.133 27.3923 224.074 24.0913C218.014 20.7903 211.096 19.4223 204.242 20.1698H204.238C204.165 20.1759 204.089 20.1851 204.016 20.1942C203.892 20.2065 203.77 20.2217 203.648 20.237C203.398 20.2706 203.155 20.3042 202.912 20.3408C202.705 20.3714 202.495 20.405 202.288 20.4416C202.178 20.4569 202.072 20.4752 201.965 20.4966C201.858 20.5149 201.749 20.5332 201.642 20.5546H201.639C199.596 20.9425 197.593 21.5202 195.656 22.2802H195.653V22.2833L195.163 22.4757C194.658 22.6834 194.156 22.9033 193.659 23.1354C193.547 23.1873 193.437 23.2423 193.325 23.2942C193.294 23.3095 193.261 23.3248 193.23 23.3431C192.911 23.4958 192.594 23.6546 192.281 23.8226C192.235 23.844 192.189 23.8684 192.144 23.8928L191.852 24.0486C191.209 24.3968 190.578 24.7663 189.958 25.1573C189.907 25.1878 189.858 25.2184 189.806 25.252C189.752 25.2886 189.694 25.3253 189.639 25.3619C189.605 25.3802 189.572 25.4047 189.538 25.426C189.444 25.4841 189.353 25.5452 189.262 25.6093C189.079 25.7284 188.896 25.8506 188.717 25.9758C188.531 26.101 188.348 26.2323 188.166 26.3637L187.983 26.495L188.017 26.721C188.047 26.9073 188.075 27.0936 188.108 27.2769C188.139 27.4601 188.169 27.6403 188.202 27.8205C188.254 28.1229 188.312 28.4222 188.37 28.7123C188.409 28.9048 188.446 29.0941 188.489 29.2804C188.528 29.4728 188.571 29.6652 188.616 29.8577C188.705 30.2547 188.799 30.6395 188.899 31.0183C188.948 31.2076 189 31.397 189.055 31.5833C189.085 31.6963 189.115 31.8093 189.149 31.9192C189.173 31.9956 189.198 32.0719 189.222 32.1483C189.228 32.1727 189.234 32.2002 189.243 32.2277C189.25 32.2536 189.258 32.2791 189.268 32.3041C189.301 32.4171 189.335 32.527 189.368 32.6339C189.386 32.6919 189.405 32.75 189.426 32.805C189.469 32.9363 189.514 33.0707 189.56 33.1989C189.609 33.3455 189.66 33.4921 189.712 33.6357C189.724 33.6723 189.736 33.7059 189.749 33.7426C189.758 33.7701 189.767 33.7976 189.779 33.8251C189.791 33.8556 189.803 33.8892 189.815 33.9197C189.867 34.0572 189.919 34.1977 189.974 34.3351C189.992 34.384 190.01 34.4359 190.032 34.4848C190.525 35.729 191.131 36.9251 191.842 38.0582C191.054 37.3801 190.295 36.6614 189.566 35.9019C188.44 34.7276 187.402 33.4709 186.462 32.1422C186.385 32.0384 186.309 31.9315 186.239 31.8246C186.096 31.6199 185.956 31.4153 185.819 31.2076C185.673 30.9938 185.533 30.7709 185.396 30.551C185.305 30.4044 185.214 30.2547 185.125 30.1081C185.037 29.9676 184.955 29.8302 184.876 29.6897L184.639 29.2804H184.635V29.2835L184.301 29.6133C184.167 29.7447 184.033 29.876 183.902 30.0073C179.811 34.1375 176.848 39.2544 175.298 44.8659L175.252 45.0339L175.207 45.208C175.119 45.5195 175.03 45.8219 174.936 46.1304V46.1334C174.845 46.4388 174.747 46.7442 174.644 47.0435C174.549 47.3276 174.452 47.6086 174.349 47.8896C174.315 47.9842 174.279 48.0789 174.239 48.1736C174.175 48.3569 174.105 48.537 174.035 48.7203C174.002 48.8028 173.968 48.8883 173.935 48.9707C173.852 49.1723 173.77 49.3739 173.688 49.5724C173.676 49.603 173.661 49.6366 173.646 49.6671C173.621 49.7282 173.594 49.7893 173.569 49.8473C173.506 49.9939 173.439 50.1435 173.375 50.2901C173.329 50.3848 173.286 50.4826 173.244 50.5772C173.225 50.62 173.204 50.6628 173.186 50.7055C173.073 50.9499 172.958 51.1911 172.836 51.4294C172.699 51.7104 172.559 51.9914 172.41 52.2662C172.279 52.5228 172.142 52.7732 171.999 53.0237C171.752 53.4665 171.494 53.9063 171.226 54.3339C171.122 54.4988 171.019 54.6638 170.912 54.8287C170.888 54.8684 170.864 54.9081 170.839 54.9447C170.751 55.0883 170.66 55.2257 170.566 55.3662C170.502 55.4609 170.438 55.5556 170.374 55.6472C170.267 55.8121 170.155 55.971 170.039 56.1267C170.009 56.1756 169.975 56.2214 169.942 56.2672C169.771 56.5054 169.601 56.7376 169.427 56.9697C169.421 56.9727 169.421 56.9758 169.418 56.9788C169.412 56.9788 169.412 56.9819 169.409 56.9849C169.333 57.0857 169.257 57.1865 169.178 57.2843C169.074 57.4278 168.962 57.5683 168.849 57.7057C168.666 57.9379 168.475 58.173 168.28 58.4021C168.274 58.4082 168.271 58.4143 168.265 58.4174C167.256 59.6063 166.164 60.721 164.996 61.7525C164.975 61.7709 164.959 61.7892 164.938 61.8045C164.774 61.948 164.609 62.0915 164.439 62.232C164.369 62.2901 164.299 62.3481 164.229 62.4061C164.113 62.5039 163.995 62.6016 163.879 62.6902C163.865 62.7042 163.85 62.7165 163.833 62.7268C163.73 62.8123 163.629 62.8917 163.526 62.9712C163.401 63.0719 163.276 63.1666 163.149 63.2613C162.546 63.7194 161.927 64.1521 161.292 64.5593C161.198 64.6235 161.097 64.6876 161 64.7487C160.942 64.7853 160.884 64.822 160.829 64.8525C160.598 64.9961 160.367 65.1366 160.136 65.271C159.904 65.4084 159.667 65.5397 159.432 65.668C158.93 65.9429 158.434 66.23 157.95 66.5293C157.707 66.682 157.463 66.8347 157.223 66.9905C156.267 67.6135 155.347 68.2804 154.462 68.9909C153.578 69.702 152.73 70.4573 151.921 71.2541C151.821 71.3518 151.72 71.4526 151.62 71.5565C151.419 71.755 151.224 71.9566 151.039 72.1581C150.74 72.4666 150.454 72.7842 150.171 73.1049C148.679 74.8044 147.357 76.6479 146.227 78.6086C145.659 79.5876 145.143 80.5958 144.681 81.6292C144.331 82.4019 144.011 83.1929 143.722 83.9931C143.53 84.5276 143.351 85.0672 143.183 85.6118C143.101 85.8836 143.022 86.1585 142.946 86.4334C142.687 87.3649 142.471 88.3056 142.295 89.2494C142.152 90.0068 142.036 90.7653 141.948 91.5247C141.902 91.9065 141.866 92.2883 141.832 92.667C141.754 93.5978 141.714 94.5296 141.712 95.4622C141.707 98.2602 142.045 101.048 142.721 103.763C142.87 104.361 143.035 104.957 143.217 105.55C143.308 105.846 143.406 106.139 143.503 106.432C143.749 107.165 144.022 107.891 144.322 108.61C144.501 109.04 144.69 109.468 144.888 109.893C146.145 112.591 147.749 115.113 149.66 117.394C149.973 117.769 150.297 118.139 150.631 118.502C150.634 118.502 150.631 118.505 150.631 118.505C151.459 119.412 152.336 120.272 153.257 121.083H153.26C153.629 121.41 154.003 121.727 154.383 122.033C154.386 122.03 154.386 122.033 154.386 122.033C154.77 122.345 155.156 122.644 155.552 122.934C155.75 123.078 155.951 123.221 156.155 123.365C156.553 123.649 156.96 123.923 157.375 124.186H157.378C157.792 124.455 158.212 124.711 158.638 124.956C159.493 125.448 160.37 125.909 161.271 126.327L161.423 126.397L161.578 126.327C163.023 125.675 164.512 125.127 166.034 124.687C166.369 124.589 166.706 124.501 167.041 124.415C167.887 124.205 168.739 124.027 169.598 123.884C168.761 124.305 167.954 124.781 167.181 125.31C166.582 125.716 165.991 126.159 165.398 126.648C165.2 126.81 165.002 126.978 164.804 127.149L164.311 127.576L164.929 127.781C165.154 127.854 165.379 127.928 165.605 127.995C165.912 128.093 166.216 128.181 166.515 128.264C167.166 128.447 167.821 128.609 168.481 128.749C168.642 128.783 168.8 128.816 168.962 128.85C169.275 128.911 169.592 128.972 169.908 129.027C169.921 129.03 169.934 129.032 169.948 129.033C170.276 129.088 170.608 129.14 170.937 129.186C171.549 129.274 172.16 129.345 172.772 129.397C172.839 129.406 172.906 129.409 172.976 129.412C173.125 129.424 173.271 129.436 173.42 129.445C173.749 129.467 174.081 129.482 174.412 129.494C174.437 129.494 174.458 129.497 174.482 129.497C174.65 129.504 174.817 129.51 174.985 129.513C174.985 129.513 174.985 129.516 174.988 129.513C175.155 129.516 175.322 129.519 175.49 129.519H176.415C176.589 129.519 176.762 129.522 176.939 129.522C177.182 129.522 177.429 129.525 177.672 129.528C177.736 129.528 177.803 129.531 177.87 129.531C178.259 129.537 178.649 129.546 179.039 129.555C179.063 129.555 179.087 129.558 179.112 129.558C179.501 129.571 179.891 129.583 180.28 129.601C180.366 129.604 180.451 129.607 180.539 129.613C180.913 129.629 181.288 129.647 181.662 129.668C181.769 129.675 181.878 129.684 181.988 129.69C182.271 129.705 182.557 129.723 182.84 129.745C183.007 129.754 183.172 129.766 183.339 129.781C184.015 129.833 184.687 129.891 185.363 129.959C185.588 129.977 185.813 130.001 186.039 130.026C186.641 130.09 187.246 130.16 187.852 130.237C188.123 130.267 188.394 130.304 188.665 130.34C188.695 130.343 188.726 130.346 188.756 130.353C189.091 130.398 189.423 130.444 189.758 130.493C189.977 130.524 190.196 130.557 190.415 130.591C190.64 130.624 190.865 130.658 191.091 130.698C191.212 130.716 191.334 130.737 191.459 130.759C191.751 130.805 192.046 130.853 192.342 130.908C192.368 130.911 192.395 130.915 192.421 130.921C193.048 131.031 193.678 131.147 194.305 131.272C194.673 131.342 195.038 131.415 195.403 131.492C195.689 131.55 195.975 131.611 196.262 131.672C196.31 131.681 196.359 131.693 196.408 131.706C196.419 131.709 196.43 131.711 196.441 131.712C196.873 131.806 197.309 131.904 197.741 132.008C199.241 132.356 200.74 132.743 202.236 133.169C202.58 133.263 202.924 133.364 203.268 133.465C203.414 133.508 203.557 133.55 203.7 133.593C203.998 133.682 204.293 133.77 204.592 133.865C204.853 133.944 205.118 134.027 205.38 134.112C205.544 134.164 205.709 134.216 205.873 134.271C206.129 134.351 206.384 134.433 206.637 134.522C206.853 134.589 207.066 134.659 207.279 134.735C207.583 134.836 207.891 134.94 208.195 135.05C208.283 135.08 208.375 135.111 208.463 135.145C208.834 135.273 209.205 135.404 209.577 135.542C209.939 135.673 210.301 135.807 210.66 135.942C210.91 136.036 211.159 136.128 211.406 136.226C211.683 136.333 211.96 136.44 212.234 136.55C212.629 136.705 213.028 136.864 213.424 137.026C213.789 137.173 214.151 137.322 214.516 137.478C214.583 137.506 214.653 137.533 214.72 137.564C215.037 137.695 215.353 137.832 215.667 137.97C215.871 138.055 216.072 138.144 216.272 138.232C217.149 138.617 218.024 139.015 218.899 139.427H218.902C219.45 139.686 220.007 139.934 220.567 140.169C220.698 140.224 220.829 140.279 220.962 140.331C221.185 140.425 221.41 140.514 221.635 140.606C221.781 140.664 221.927 140.722 222.076 140.777C222.292 140.862 222.512 140.945 222.731 141.024C222.962 141.109 223.19 141.195 223.425 141.274C223.507 141.305 223.589 141.332 223.674 141.363C223.945 141.455 224.216 141.546 224.49 141.635C224.517 141.644 224.545 141.653 224.575 141.662C224.861 141.754 225.147 141.845 225.436 141.931C225.459 141.94 225.483 141.947 225.506 141.952C225.817 142.047 226.133 142.139 226.447 142.227C226.909 142.356 227.375 142.478 227.841 142.591C227.926 142.612 228.011 142.633 228.096 142.652C228.346 142.713 228.592 142.771 228.842 142.826C229.107 142.887 229.375 142.942 229.639 142.997C229.907 143.052 230.175 143.107 230.44 143.156C230.583 143.183 230.726 143.211 230.866 143.235L231.24 143.299C231.499 143.345 231.758 143.385 232.019 143.428C232.027 143.427 232.034 143.428 232.041 143.431C232.336 143.476 232.628 143.519 232.923 143.556C233.206 143.596 233.489 143.629 233.772 143.663C233.83 143.669 233.891 143.675 233.952 143.681C234.186 143.709 234.421 143.736 234.655 143.757C234.722 143.764 234.789 143.77 234.856 143.776C235.087 143.797 235.318 143.819 235.55 143.834C235.596 143.84 235.643 143.843 235.69 143.843C235.897 143.861 236.104 143.877 236.311 143.886C236.457 143.898 236.6 143.904 236.746 143.913C236.822 143.916 236.895 143.919 236.971 143.922C237.172 143.935 237.373 143.941 237.577 143.947C237.823 143.956 238.07 143.962 238.313 143.968C238.608 143.974 238.907 143.977 239.202 143.977H239.208C239.497 143.977 239.789 143.974 240.079 143.968H240.188L240.508 143.959C240.672 143.956 240.836 143.95 240.998 143.944C241.308 143.932 241.615 143.916 241.923 143.898C242.045 143.892 242.169 143.883 242.291 143.877C242.346 143.873 242.404 143.867 242.459 143.864C242.65 143.852 242.839 143.84 243.031 143.825C243.229 143.809 243.429 143.791 243.627 143.77C243.883 143.745 244.139 143.718 244.394 143.69C244.595 143.669 244.796 143.644 244.994 143.62C245.02 143.618 245.047 143.614 245.073 143.608C245.265 143.586 245.456 143.562 245.645 143.534C245.87 143.504 246.092 143.47 246.315 143.437C246.339 143.434 246.36 143.431 246.385 143.428C246.768 143.367 247.155 143.305 247.541 143.235C247.946 143.162 248.351 143.082 248.752 143C248.902 142.969 249.048 142.936 249.197 142.905C249.279 142.887 249.364 142.872 249.443 142.853C249.568 142.826 249.69 142.798 249.812 142.768C249.833 142.765 249.857 142.759 249.879 142.756C250.049 142.719 250.216 142.676 250.387 142.633C250.728 142.551 251.062 142.465 251.397 142.374C251.546 142.337 251.695 142.298 251.839 142.258C251.881 142.246 251.924 142.233 251.963 142.221C252.581 142.047 253.194 141.863 253.802 141.668C254.069 141.583 254.334 141.494 254.599 141.4C255.168 141.204 255.732 140.998 256.291 140.783C256.44 140.728 256.589 140.667 256.739 140.609C256.958 140.52 257.177 140.431 257.393 140.343C257.588 140.26 257.782 140.178 257.98 140.092C258.078 140.053 258.175 140.01 258.272 139.967C258.565 139.839 258.857 139.708 259.146 139.576C259.341 139.485 259.532 139.396 259.724 139.304C260.029 139.158 260.33 139.008 260.631 138.859C260.707 138.819 260.78 138.779 260.853 138.742C261.045 138.645 261.237 138.544 261.432 138.446C261.739 138.281 262.046 138.116 262.351 137.945C262.454 137.89 262.555 137.832 262.658 137.774C262.993 137.585 263.325 137.393 263.653 137.197C264.381 136.76 265.098 136.304 265.805 135.829C265.982 135.713 266.158 135.591 266.332 135.471C266.66 135.245 266.983 135.013 267.305 134.781C267.339 134.757 267.369 134.732 267.403 134.711C267.564 134.592 267.725 134.473 267.887 134.351C268.222 134.097 268.553 133.84 268.885 133.578C268.891 133.575 268.9 133.566 268.909 133.56C269.059 133.44 269.208 133.321 269.354 133.202C269.807 132.833 270.255 132.457 270.693 132.069C270.909 131.883 271.122 131.69 271.332 131.498C271.49 131.354 271.649 131.211 271.804 131.064C272.117 130.768 272.425 130.475 272.729 130.175C272.881 130.029 273.03 129.876 273.182 129.723C273.332 129.571 273.484 129.418 273.633 129.262C273.685 129.21 273.736 129.155 273.788 129.1C273.94 128.939 274.092 128.774 274.245 128.612C274.375 128.471 274.503 128.325 274.634 128.178C274.853 127.934 275.075 127.689 275.292 127.442C275.303 127.428 275.315 127.415 275.328 127.402C275.34 127.387 275.352 127.375 275.362 127.363H275.358C279.782 122.229 283.069 116.211 285.002 109.707C286.934 103.203 287.469 96.3616 286.569 89.635C285.669 82.9084 283.356 76.4502 279.783 70.6879C276.21 64.9256 271.458 59.9905 265.842 56.2092L265.841 56.2092Z" fill="#FF6584"/>
<g opacity="0.15">
<path d="M204.239 20.1675C204.846 22.3544 205.759 24.4439 206.95 26.3735C204.955 24.6539 203.173 22.7007 201.641 20.5556C202.502 20.3923 203.368 20.2629 204.239 20.1675Z" fill="black"/>
<path d="M174.542 53.9884C172.289 55.2221 170.183 56.7078 168.263 58.417C171.504 54.5711 173.873 50.0639 175.205 45.2079C175.221 45.1495 175.238 45.0908 175.253 45.0324L175.299 44.8671C176.899 39.0713 180.006 33.8062 184.299 29.6103L184.637 29.2803L184.875 29.6882C186.191 31.9342 187.766 34.0168 189.568 35.8932C186.807 43.7101 181.436 50.2159 174.542 53.9884Z" fill="black"/>
<path d="M190.407 33.1849L190.361 33.3502C190.346 33.4086 190.329 33.4674 190.313 33.5257C190.224 33.8471 190.13 34.1661 190.032 34.4837C189.07 31.9811 188.394 29.3769 188.017 26.7211L187.982 26.4957L188.166 26.3633C190.482 24.6933 192.998 23.3211 195.654 22.2788C193.269 25.5701 191.492 29.264 190.407 33.1849Z" fill="black"/>
<path d="M159.433 65.6712C161.427 64.5762 163.293 63.2618 164.996 61.7524C161.593 65.7286 159.154 70.4415 157.869 75.522C156.585 80.6024 156.49 85.9123 157.592 91.0357C158.695 96.159 160.965 100.957 164.224 105.052C167.483 109.148 171.643 112.431 176.377 114.644L176.531 114.715L176.685 114.646C179.242 113.486 181.939 112.664 184.707 112.201C182.979 113.084 181.369 114.181 179.913 115.467L179.421 115.894L180.038 116.099C180.572 116.276 181.105 116.439 181.623 116.583C184.669 117.434 187.818 117.857 190.98 117.839C205.346 117.747 219.823 121.08 234.009 127.745C236.442 128.887 238.965 129.823 241.553 130.543C252.831 133.694 264.87 132.561 275.367 127.36C269.449 134.228 261.711 139.271 253.051 141.902C244.392 144.534 235.166 144.646 226.445 142.226C223.857 141.505 221.334 140.569 218.901 139.428C204.715 132.762 190.237 129.429 175.872 129.522C172.71 129.539 169.561 129.117 166.515 128.265C165.997 128.121 165.463 127.958 164.93 127.781L164.312 127.577L164.805 127.149C166.26 125.864 167.871 124.767 169.599 123.883C166.831 124.347 164.134 125.168 161.577 126.328L161.423 126.397L161.269 126.326C155.583 123.67 150.745 119.481 147.293 114.226C143.842 108.971 141.913 102.857 141.723 96.5665C141.532 90.2756 143.087 84.0554 146.215 78.6C149.342 73.1445 153.919 68.6684 159.433 65.6711L159.433 65.6712Z" fill="black"/>
</g>
</g>
<defs>
<clipPath id="clip0_1399_27791">
<rect width="287" height="243" fill="white"/>
</clipPath>
</defs>
</svg>
