<svg width="512" height="512" viewBox="0 0 512 512" fill="none" xmlns="http://www.w3.org/2000/svg">
	<path
		d="M256 507.1C348.6 507.1 429.5 457 473 382.4C429.8 307.4 348.8 256.9 256 256.9C163.2 256.9 82.2 307.3 39 382.4C82.5 457 163.4 507.1 256 507.1Z"
		fill="#115FA6" />
	<path d="M78 330.699C63 346.099 49.4 363.399 38.5 382.399C49.5 401.099 63 418.299 78 433.599V330.699Z"
		fill="#1889F2" />
	<path
		d="M382 290.6V426.6C382 443.3 368 457 351.3 457H105.3C147.3 488 199.5 507.2 256 507.2C348.6 507.2 429.7 457 473.2 382.4C451.3 344.4 419 312.6 382 290.6Z"
		fill="#0A3A66" />
	<path d="M255.9 297.2L227.4 268.7V228.9H284.3V268.7L255.9 297.2Z" fill="#F29F18" />
	<path
		d="M162.8 238.599C139.8 238.599 121.1 219.899 121.1 196.899C121.1 173.899 139.8 155.199 162.8 155.199H204.5V196.899C204.5 219.899 185.9 238.599 162.8 238.599Z"
		fill="#E9F449" />
	<path
		d="M186 155V179.1C186 202.1 167.7 220.8 144.6 220.8C137.7 220.8 131.3 219.1 125.6 216.1C132.5 229.5 146.8 238.6 162.9 238.6C185.9 238.6 204.9 219.9 204.9 196.9V155H186Z"
		fill="#E2F200" />
	<path
		d="M349.5 238.599C372.5 238.599 391.2 219.899 391.2 196.899C391.2 173.899 372.5 155.199 349.5 155.199H307.8V196.899C307.8 219.899 326.4 238.599 349.5 238.599Z"
		fill="#E2F200" />
	<path
		d="M370.5 160.9C374.1 167.1 376.2 174.3 376.2 181.9C376.2 204.9 357.5 223.6 334.5 223.6C326.8 223.6 319.6 221.5 313.5 217.9C320.7 230.3 334.1 238.6 349.5 238.6C372.5 238.6 391.2 219.9 391.2 196.9C391.2 181.5 382.9 168.1 370.5 160.9Z"
		fill="#6B7300" />
	<path d="M324.7 155.1H349.2C362.7 155.1 373.7 144.1 373.7 130.6C373.7 117.1 362.7 106.1 349.2 106.1H324.7V155.1Z"
		fill="#F29F18" />
	<path d="M187.3 155.1H162.8C149.3 155.1 138.3 144.1 138.3 130.6C138.3 117.1 149.3 106.1 162.8 106.1H187.3V155.1Z"
		fill="#F29F18" />
	<path
		d="M256 238.8C211.6 238.8 175.6 202.8 175.6 158.4V102.5C175.6 58.0996 211.6 22.0996 256 22.0996C300.4 22.0996 336.4 58.0996 336.4 102.5V158.4C336.4 202.8 300.4 238.8 256 238.8Z"
		fill="#F4BC62" />
	<path d="M236 115H211V125H236V115Z" fill="#595959" />
	<path d="M241 154H231V140H224V130H236.4C239.1 130 241 132.6 241 135.4V154Z" fill="#595959" />
	<path d="M301 115H276V125H301V115Z" fill="#595959" />
	<path d="M281 154H271V135.4C271 132.7 272.9 130 275.6 130H288V140H281V154Z" fill="#595959" />
	<path d="M354.1 125.699H344.3V135.499H354.1V125.699Z" fill="#734B0B" />
	<path d="M167.7 125.699H157.9V135.499H167.7V125.699Z" fill="#734B0B" />
	<path
		d="M255.9 188.699C254.6 188.699 253.4 188.199 252.4 187.299L240.2 175.099L247.1 168.199L255.8 176.899L264.4 168.299L271.3 175.199L259.2 187.299C258.4 188.299 257.2 188.699 255.9 188.699Z"
		fill="#F22E24" />
	<path
		d="M255.8 22H255.9C251.7 22 247.7 22.4 243.7 23C282.3 28.9 312 62.3 312 102.5V158.4C312 198.7 282.4 232.1 243.8 238C247.8 238.6 251.9 239 256 239H255.8C300.2 239 336 202.8 336 158.4V102.5C336 58.1 300.2 22 255.8 22Z"
		fill="#F29F18" />
	<path d="M364.6 374H295.2V418.3H364.6V374Z" fill="#C6BEC3" />
	<path d="M295.2 402.1H331C341.1 402.1 349.3 393.9 349.3 383.8V374H295.3V402.1H295.2Z" fill="#EBDEE5" />
	<path d="M334 362H325V386H334V362Z" fill="#0A3A66" />
	<path d="M194 379H184V412H194V379Z" fill="#C6BEC3" />
	<path d="M227.8 353.1H150V382H227.8V353.1Z" fill="#C6BEC3" />
	<path d="M204.2 367.5H150V353.1H213.4V358.2C213.5 363.4 209.3 367.5 204.2 367.5Z" fill="#EBDEE5" />
	<path d="M78 433.5C118 472.6 170 498.9 228 505.4V409H78V433.5Z" fill="#C6BEC3" />
	<path d="M78 433.5C100 454.9 125.1 473 153.1 486H155.9C177 486 194 468 194 446.8V409H78V433.5Z" fill="#EBDEE5" />
	<path
		d="M193.2 16.6992V87.6992C193.2 97.8992 184.9 106.199 174.7 106.199H162.3V47.4992C162.4 30.4992 176.2 16.6992 193.2 16.6992Z"
		fill="#E9F449" />
	<path
		d="M318.4 16.6992V87.6992C318.4 97.8992 326.7 106.199 336.9 106.199H349.3V47.4992C349.2 30.4992 335.4 16.6992 318.4 16.6992Z"
		fill="#6B7300" />
	<path
		d="M307.1 4.90039H272.9C263.6 4.90039 256 12.5004 256 21.8004V41.5004C256 67.6004 277.2 88.7004 303.3 88.7004H349.5V47.3004C349.5 23.9004 330.5 4.90039 307.1 4.90039Z"
		fill="#6B7300" />
	<path
		d="M204.7 4.90039H239.2C248.5 4.90039 256.1 12.5004 256.1 21.8004V41.5004C256.1 67.6004 234.9 88.7004 208.8 88.7004H162.3V47.3004C162.3 23.9004 181.3 4.90039 204.7 4.90039Z"
		fill="#E9F449" />
	<path d="M261 297H251V507C253 507 254.4 507.1 256 507.1C257.6 507.1 259 507.1 261 507V297Z" fill="#0A3A66" />
	<path
		d="M222.8 4.90039H239.1C248.4 4.90039 256 12.5004 256 21.8004V41.5004C256 67.6004 234.8 88.7004 208.7 88.7004H192.3C185.7 88.7004 180.4 83.4004 180.4 76.8004V47.3004C180.5 23.9004 199.4 4.90039 222.8 4.90039Z"
		fill="#E2F200" />
	<path
		d="M289.1 4.90039H272.8C263.5 4.90039 255.9 12.5004 255.9 21.8004V41.5004C255.9 67.6004 277.1 88.7004 303.2 88.7004H319.6C326.2 88.7004 331.5 83.4004 331.5 76.8004V47.3004C331.5 23.9004 312.6 4.90039 289.1 4.90039Z"
		fill="#E2F200" />
	<path d="M255.9 297L234.1 318.9L183.1 267.7C197.5 263.3 212 260.2 228 258.5V268.7L255.9 297Z" fill="#1889F2" />
	<path d="M328.6 267.6L277.4 318.8L255.7 297.2L284 268.7V258.5C299 260.1 314.3 263.2 328.6 267.6Z" fill="#1889F2" />
</svg>